<?xml version="1.0" encoding="utf-8" standalone="no"?>
<!DOCTYPE svg PUBLIC "-//W3C//DTD SVG 1.1//EN"
  "http://www.w3.org/Graphics/SVG/1.1/DTD/svg11.dtd">
<svg height="260.34pt" version="1.1" viewBox="0 0 364.216761 260.34" width="364.216761pt" xmlns="http://www.w3.org/2000/svg" xmlns:xlink="http://www.w3.org/1999/xlink">
 <metadata>
  <rdf:RDF xmlns:cc="http://creativecommons.org/ns#" xmlns:dc="http://purl.org/dc/elements/1.1/" xmlns:rdf="http://www.w3.org/1999/02/22-rdf-syntax-ns#">
   <cc:Work>
    <dc:type rdf:resource="http://purl.org/dc/dcmitype/StillImage"/>
    <dc:date>2023-10-03T20:29:07.483647</dc:date>
    <dc:format>image/svg+xml</dc:format>
    <dc:creator>
     <cc:Agent>
      <dc:title>Matplotlib v3.4.3, https://matplotlib.org/</dc:title>
     </cc:Agent>
    </dc:creator>
   </cc:Work>
  </rdf:RDF>
 </metadata>
 <defs>
  <style type="text/css">*{stroke-linecap:butt;stroke-linejoin:round;}</style>
 </defs>
 <g id="figure_1">
  <g id="patch_1">
   <path d="M -0 260.34 
L 364.216761 260.34 
L 364.216761 0 
L -0 0 
z
" style="fill:none;"/>
  </g>
  <g id="axes_1">
   <g id="patch_2">
    <path d="M 52.653125 224.64 
L 357.016761 224.64 
L 357.016761 7.2 
L 52.653125 7.2 
z
" style="fill:#ffffff;"/>
   </g>
   <g id="PathCollection_1">
    <defs>
     <path d="M 0 3 
C 0.795609 3 1.55874 2.683901 2.12132 2.12132 
C 2.683901 1.55874 3 0.795609 3 0 
C 3 -0.795609 2.683901 -1.55874 2.12132 -2.12132 
C 1.55874 -2.683901 0.795609 -3 0 -3 
C -0.795609 -3 -1.55874 -2.683901 -2.12132 -2.12132 
C -2.683901 -1.55874 -3 -0.795609 -3 0 
C -3 0.795609 -2.683901 1.55874 -2.12132 2.12132 
C -1.55874 2.683901 -0.795609 3 0 3 
z
" id="me1314469a0" style="stroke:#1f77b4;"/>
    </defs>
    <g clip-path="url(#pf216bc4cfc)">
     <use style="fill:#1f77b4;stroke:#1f77b4;" x="66.487836" xlink:href="#me1314469a0" y="117.62675"/>
     <use style="fill:#1f77b4;stroke:#1f77b4;" x="97.231637" xlink:href="#me1314469a0" y="214.756364"/>
     <use style="fill:#1f77b4;stroke:#1f77b4;" x="127.975439" xlink:href="#me1314469a0" y="155.795896"/>
     <use style="fill:#1f77b4;stroke:#1f77b4;" x="158.719241" xlink:href="#me1314469a0" y="187.758676"/>
     <use style="fill:#1f77b4;stroke:#1f77b4;" x="189.463042" xlink:href="#me1314469a0" y="176.587218"/>
     <use style="fill:#1f77b4;stroke:#1f77b4;" x="220.206844" xlink:href="#me1314469a0" y="124.76407"/>
     <use style="fill:#1f77b4;stroke:#1f77b4;" x="250.950646" xlink:href="#me1314469a0" y="133.142663"/>
     <use style="fill:#1f77b4;stroke:#1f77b4;" x="281.694447" xlink:href="#me1314469a0" y="17.083636"/>
     <use style="fill:#1f77b4;stroke:#1f77b4;" x="312.438249" xlink:href="#me1314469a0" y="116.385477"/>
     <use style="fill:#1f77b4;stroke:#1f77b4;" x="343.182051" xlink:href="#me1314469a0" y="143.383165"/>
    </g>
   </g>
   <g id="matplotlib.axis_1">
    <g id="xtick_1">
     <g id="line2d_1">
      <defs>
       <path d="M 0 0 
L 0 3.5 
" id="m218e6e7eba" style="stroke:#000000;stroke-width:0.8;"/>
      </defs>
      <g>
       <use style="stroke:#000000;stroke-width:0.8;" x="66.487836" xlink:href="#m218e6e7eba" y="224.64"/>
      </g>
     </g>
     <g id="text_1">
      <!-- 80 -->
      <g transform="translate(61.487836 238.515)scale(0.1 -0.1)">
       <defs>
        <path d="M 175 1375 
Q 175 1675 325 1962 
Q 475 2250 825 2425 
Q 525 2600 425 2812 
Q 325 3025 312 3300 
Q 300 3575 387 3775 
Q 475 3975 650 4150 
Q 825 4325 1037 4387 
Q 1250 4450 1500 4450 
Q 1750 4450 1950 4400 
Q 2150 4350 2375 4187 
Q 2600 4025 2700 3725 
Q 2800 3425 2687 3025 
Q 2575 2625 2100 2400 
Q 2525 2275 2700 2012 
Q 2875 1750 2875 1375 
Q 2875 1000 2762 775 
Q 2650 550 2512 400 
Q 2375 250 2137 162 
Q 1900 75 1537 75 
Q 1175 75 912 162 
Q 650 250 475 425 
Q 300 600 237 837 
Q 175 1075 175 1375 
z
M 687 1400 
Q 675 1100 787 875 
Q 900 650 1200 587 
Q 1500 525 1825 600 
Q 2150 675 2275 950 
Q 2400 1225 2362 1500 
Q 2325 1775 2050 1962 
Q 1775 2150 1450 2125 
Q 1125 2100 912 1900 
Q 700 1700 687 1400 
z
M 775 3350 
Q 775 3100 950 2875 
Q 1125 2650 1500 2650 
Q 1875 2650 2062 2875 
Q 2250 3100 2237 3412 
Q 2225 3725 2012 3875 
Q 1800 4025 1437 4000 
Q 1075 3975 925 3787 
Q 775 3600 775 3350 
z
" id="SimHei-38" transform="scale(0.015625)"/>
        <path d="M 225 2537 
Q 250 3200 412 3587 
Q 575 3975 875 4225 
Q 1175 4475 1612 4475 
Q 2050 4475 2375 4112 
Q 2700 3750 2800 3200 
Q 2900 2650 2862 1937 
Q 2825 1225 2612 775 
Q 2400 325 1975 150 
Q 1550 -25 1125 187 
Q 700 400 525 750 
Q 350 1100 275 1487 
Q 200 1875 225 2537 
z
M 750 2687 
Q 675 2000 800 1462 
Q 925 925 1212 700 
Q 1500 475 1800 612 
Q 2100 750 2237 1162 
Q 2375 1575 2375 2062 
Q 2375 2550 2337 2950 
Q 2300 3350 2112 3675 
Q 1925 4000 1612 4012 
Q 1300 4025 1062 3700 
Q 825 3375 750 2687 
z
" id="SimHei-30" transform="scale(0.015625)"/>
       </defs>
       <use xlink:href="#SimHei-38"/>
       <use x="50" xlink:href="#SimHei-30"/>
      </g>
     </g>
    </g>
    <g id="xtick_2">
     <g id="line2d_2">
      <g>
       <use style="stroke:#000000;stroke-width:0.8;" x="127.975439" xlink:href="#m218e6e7eba" y="224.64"/>
      </g>
     </g>
     <g id="text_2">
      <!-- 90 -->
      <g transform="translate(122.975439 238.515)scale(0.1 -0.1)">
       <defs>
        <path d="M 800 75 
Q 1350 1000 1700 1750 
Q 1075 1650 662 1912 
Q 250 2175 162 2625 
Q 75 3075 175 3437 
Q 275 3800 487 4037 
Q 700 4275 1000 4375 
Q 1300 4475 1537 4475 
Q 1775 4475 2025 4375 
Q 2275 4275 2475 4075 
Q 2675 3875 2750 3662 
Q 2825 3450 2825 3112 
Q 2825 2775 2575 2250 
Q 2325 1725 1350 75 
L 800 75 
z
M 662 2875 
Q 700 2550 937 2337 
Q 1175 2125 1450 2150 
Q 1725 2175 1887 2300 
Q 2050 2425 2200 2725 
Q 2300 3100 2250 3362 
Q 2200 3625 1987 3800 
Q 1775 3975 1525 3975 
Q 1375 4000 1137 3900 
Q 900 3800 762 3500 
Q 625 3200 662 2875 
z
" id="SimHei-39" transform="scale(0.015625)"/>
       </defs>
       <use xlink:href="#SimHei-39"/>
       <use x="50" xlink:href="#SimHei-30"/>
      </g>
     </g>
    </g>
    <g id="xtick_3">
     <g id="line2d_3">
      <g>
       <use style="stroke:#000000;stroke-width:0.8;" x="189.463042" xlink:href="#m218e6e7eba" y="224.64"/>
      </g>
     </g>
     <g id="text_3">
      <!-- 100 -->
      <g transform="translate(181.963042 238.515)scale(0.1 -0.1)">
       <defs>
        <path d="M 1400 3600 
Q 1075 3275 575 2975 
L 575 3450 
Q 1200 3875 1600 4450 
L 1900 4450 
L 1900 150 
L 1400 150 
L 1400 3600 
z
" id="SimHei-31" transform="scale(0.015625)"/>
       </defs>
       <use xlink:href="#SimHei-31"/>
       <use x="50" xlink:href="#SimHei-30"/>
       <use x="100" xlink:href="#SimHei-30"/>
      </g>
     </g>
    </g>
    <g id="xtick_4">
     <g id="line2d_4">
      <g>
       <use style="stroke:#000000;stroke-width:0.8;" x="250.950646" xlink:href="#m218e6e7eba" y="224.64"/>
      </g>
     </g>
     <g id="text_4">
      <!-- 110 -->
      <g transform="translate(243.450646 238.515)scale(0.1 -0.1)">
       <use xlink:href="#SimHei-31"/>
       <use x="50" xlink:href="#SimHei-31"/>
       <use x="100" xlink:href="#SimHei-30"/>
      </g>
     </g>
    </g>
    <g id="xtick_5">
     <g id="line2d_5">
      <g>
       <use style="stroke:#000000;stroke-width:0.8;" x="312.438249" xlink:href="#m218e6e7eba" y="224.64"/>
      </g>
     </g>
     <g id="text_5">
      <!-- 120 -->
      <g transform="translate(304.938249 238.515)scale(0.1 -0.1)">
       <defs>
        <path d="M 300 250 
Q 325 625 650 925 
Q 975 1225 1475 1862 
Q 1975 2500 2125 2850 
Q 2275 3200 2237 3450 
Q 2200 3700 2000 3862 
Q 1800 4025 1537 4000 
Q 1275 3975 1037 3800 
Q 800 3625 675 3275 
L 200 3350 
Q 400 3925 712 4187 
Q 1025 4450 1450 4475 
Q 1700 4500 1900 4462 
Q 2100 4425 2312 4287 
Q 2525 4150 2662 3875 
Q 2800 3600 2762 3212 
Q 2725 2825 2375 2287 
Q 2025 1750 1025 600 
L 2825 600 
L 2825 150 
L 300 150 
L 300 250 
z
" id="SimHei-32" transform="scale(0.015625)"/>
       </defs>
       <use xlink:href="#SimHei-31"/>
       <use x="50" xlink:href="#SimHei-32"/>
       <use x="100" xlink:href="#SimHei-30"/>
      </g>
     </g>
    </g>
    <g id="text_6">
     <!-- 隐藏层神经元个数 -->
     <g transform="translate(164.834943 251.89)scale(0.1 -0.1)">
      <defs>
       <path d="M 4050 5075 
Q 3850 4900 3700 4650 
L 5250 4650 
Q 5000 4225 4925 4137 
Q 4850 4050 4675 3675 
L 5650 3675 
Q 5625 3375 5625 2925 
L 5625 2350 
Q 5625 1950 5650 1625 
L 3600 1625 
Q 3100 1625 2725 1600 
L 2725 2025 
Q 3075 2000 3575 2000 
L 5175 2000 
L 5175 2475 
L 3600 2475 
Q 3100 2475 2725 2450 
L 2725 2875 
Q 3100 2825 3575 2825 
L 5175 2825 
L 5175 3325 
L 3800 3325 
Q 3325 3325 2850 3300 
L 2850 3575 
Q 2725 3450 2600 3300 
Q 2375 3450 2175 3575 
Q 2625 3950 2887 4312 
Q 3150 4675 3425 5300 
Q 3675 5175 4050 5075 
z
M 2250 4775 
Q 2125 4350 1975 3900 
Q 1825 3450 1725 2900 
Q 2125 2375 2200 2037 
Q 2275 1700 2225 1412 
Q 2175 1125 1937 1012 
Q 1700 900 1350 800 
Q 1275 1075 1075 1300 
Q 1425 1325 1612 1387 
Q 1800 1450 1762 1762 
Q 1725 2075 1575 2325 
Q 1425 2575 1250 2825 
Q 1350 3175 1462 3587 
Q 1575 4000 1650 4425 
L 925 4425 
L 925 -525 
L 450 -525 
Q 475 25 475 475 
L 475 3725 
Q 475 4375 450 4775 
L 2250 4775 
z
M 3600 1050 
Q 3575 850 3575 600 
L 3575 200 
Q 3575 -125 3950 -125 
L 4300 -125 
Q 4600 -100 4650 25 
Q 4700 150 4725 475 
Q 5000 325 5250 275 
Q 5100 -325 4912 -425 
Q 4725 -525 4075 -537 
Q 3425 -550 3275 -462 
Q 3125 -375 3125 -75 
L 3125 375 
Q 3125 775 3100 1050 
L 3600 1050 
z
M 3000 3700 
Q 3350 3675 3800 3675 
L 4200 3675 
Q 4350 4050 4500 4300 
L 3475 4300 
Q 3300 4075 3000 3700 
z
M 2875 900 
Q 2750 750 2587 375 
Q 2425 0 2225 -350 
Q 2025 -225 1775 -150 
Q 2025 200 2137 462 
Q 2250 725 2375 1100 
Q 2600 1000 2875 900 
z
M 5550 1225 
Q 5700 975 5850 700 
Q 6000 425 6175 125 
Q 5950 50 5750 -75 
Q 5575 300 5437 525 
Q 5300 750 5150 1025 
Q 5325 1100 5550 1225 
z
M 4275 1425 
Q 4350 1250 4437 1075 
Q 4525 900 4600 650 
Q 4375 575 4175 500 
L 4050 875 
Q 4025 1000 3850 1275 
Q 4100 1325 4275 1425 
z
" id="SimHei-9690" transform="scale(0.015625)"/>
       <path d="M 3600 1250 
L 3600 1650 
L 2650 1650 
L 2650 1250 
L 3600 1250 
z
M 5325 3600 
Q 5175 3875 4975 4050 
Q 5200 4175 5325 4300 
Q 5475 4100 5700 3825 
Q 5500 3750 5325 3600 
z
M 3100 2000 
L 3100 2500 
L 2650 2500 
L 2650 2000 
L 3100 2000 
z
M 3100 425 
L 3100 900 
L 2650 900 
L 2650 425 
L 3100 425 
z
M 3725 4000 
L 3725 4325 
L 2600 4325 
L 2600 3900 
L 2150 3900 
Q 2175 4125 2175 4325 
L 1200 4325 
Q 850 4325 475 4275 
L 475 4725 
Q 850 4700 1200 4675 
L 2175 4675 
Q 2175 4850 2150 5225 
L 2625 5225 
Q 2600 4850 2600 4675 
L 3725 4675 
Q 3725 4875 3700 5250 
L 4200 5250 
Q 4150 4875 4150 4675 
L 5250 4675 
Q 5525 4675 5975 4725 
L 5975 4275 
Q 5600 4325 5250 4325 
L 4150 4325 
Q 4150 4150 4175 4000 
L 3725 4000 
z
M 4125 3950 
Q 4400 3925 4625 3925 
Q 4600 3675 4600 3550 
L 5050 3550 
Q 5450 3550 5925 3575 
L 5925 3175 
Q 5475 3200 5050 3200 
L 4625 3200 
Q 4675 2500 4762 2025 
Q 4850 1550 4925 1225 
Q 5075 1525 5175 1937 
Q 5275 2350 5325 2800 
Q 5500 2700 5850 2575 
Q 5750 2325 5587 1775 
Q 5425 1225 5150 700 
Q 5375 275 5525 100 
Q 5675 -75 5700 87 
Q 5725 250 5750 550 
Q 5925 375 6175 300 
Q 6025 -600 5775 -600 
Q 5550 -600 5300 -325 
Q 5050 -50 4850 325 
Q 4600 25 4337 -187 
Q 4075 -400 3775 -625 
Q 3625 -375 3450 -225 
Q 3650 -125 3875 25 
Q 3625 50 2225 50 
Q 2250 450 2250 950 
L 2250 2025 
Q 2250 2475 2225 2900 
Q 3525 2875 3975 2900 
L 3975 2500 
L 3500 2500 
L 3500 2000 
L 4000 2000 
L 4000 900 
L 3500 900 
L 3500 425 
L 4000 425 
L 4000 75 
Q 4325 350 4650 775 
Q 4425 1425 4337 2025 
Q 4250 2625 4200 3200 
L 1925 3200 
Q 1925 1650 1900 1187 
Q 1875 725 1762 262 
Q 1650 -200 1400 -675 
Q 1175 -550 925 -475 
Q 1225 -50 1337 425 
Q 1450 900 1475 1400 
L 1100 1400 
Q 1100 1000 1000 612 
Q 900 225 600 -250 
Q 450 -125 200 0 
Q 400 225 537 562 
Q 675 900 700 1400 
Q 525 1400 275 1375 
L 275 1825 
Q 650 1800 1075 1800 
L 1475 1800 
L 1475 2375 
L 575 2375 
Q 600 2700 600 3050 
Q 600 3425 575 3725 
L 1000 3725 
Q 975 3425 975 3125 
L 975 2775 
L 1475 2775 
Q 1475 3275 1450 3550 
L 4150 3550 
Q 4150 3725 4125 3950 
z
" id="SimHei-85cf" transform="scale(0.015625)"/>
       <path d="M 5425 5025 
Q 5400 4500 5400 4175 
Q 5400 3875 5425 3425 
L 1475 3425 
Q 1475 2325 1375 1400 
Q 1275 475 725 -650 
Q 525 -500 275 -375 
Q 575 50 725 587 
Q 875 1125 950 1850 
Q 1025 2575 1025 3400 
Q 1025 4250 1000 5025 
L 5425 5025 
z
M 5075 1575 
Q 5450 1575 5900 1600 
L 5900 1125 
Q 5450 1150 5075 1150 
L 3525 1150 
Q 3100 425 2625 -25 
Q 3475 0 4825 50 
Q 4600 300 4300 600 
Q 4500 775 4675 925 
Q 5325 300 5900 -350 
Q 5725 -500 5475 -700 
Q 5325 -525 5150 -325 
Q 4325 -350 3412 -425 
Q 2500 -500 2150 -600 
Q 2050 -300 1925 -50 
Q 2175 25 2475 375 
Q 2775 725 2950 1150 
L 2425 1150 
Q 2125 1150 1600 1125 
L 1600 1600 
Q 2125 1575 2500 1575 
L 5075 1575 
z
M 4975 3850 
L 4975 4600 
L 1475 4600 
L 1475 3850 
L 4975 3850 
z
M 4475 2750 
Q 4975 2750 5400 2775 
L 5400 2300 
Q 5075 2325 4525 2325 
L 2925 2325 
Q 2525 2325 2075 2300 
L 2075 2775 
Q 2525 2750 2925 2750 
L 4475 2750 
z
" id="SimHei-5c42" transform="scale(0.015625)"/>
       <path d="M 4125 4250 
Q 4125 4900 4100 5225 
L 4600 5225 
Q 4575 4800 4575 4250 
L 5925 4250 
Q 5900 3625 5900 2425 
Q 5900 1250 5925 675 
L 5425 675 
L 5425 1100 
L 4575 1100 
Q 4575 -50 4600 -675 
L 4100 -675 
Q 4125 -25 4125 1100 
L 3250 1100 
L 3250 550 
L 2775 550 
Q 2800 1200 2800 2400 
Q 2800 3600 2775 4250 
L 4125 4250 
z
M 2425 3925 
Q 2375 3725 2175 3300 
Q 1975 2875 1750 2475 
L 1750 2175 
Q 1900 2300 2050 2450 
Q 2300 2100 2575 1675 
Q 2350 1550 2175 1400 
Q 2075 1575 1750 2125 
L 1750 175 
Q 1750 -150 1775 -625 
L 1275 -625 
Q 1300 -150 1300 150 
L 1300 1950 
Q 1100 1675 575 1225 
Q 425 1400 225 1575 
Q 750 1975 1150 2475 
Q 1550 2975 1775 3525 
L 1150 3525 
Q 800 3525 400 3500 
L 400 3950 
Q 775 3925 1125 3925 
L 2425 3925 
z
M 4125 2875 
L 4125 3850 
L 3250 3850 
L 3250 2875 
L 4125 2875 
z
M 5425 2875 
L 5425 3850 
L 4575 3850 
L 4575 2875 
L 5425 2875 
z
M 4125 1525 
L 4125 2450 
L 3250 2450 
L 3250 1525 
L 4125 1525 
z
M 5425 1525 
L 5425 2450 
L 4575 2450 
L 4575 1525 
L 5425 1525 
z
M 1550 5225 
Q 1775 4925 2075 4450 
Q 1875 4350 1650 4150 
Q 1475 4525 1150 4975 
Q 1400 5100 1550 5225 
z
" id="SimHei-795e" transform="scale(0.015625)"/>
       <path d="M 2025 4750 
Q 1875 4550 1650 4175 
Q 1425 3800 925 3050 
Q 1100 3050 1900 3100 
Q 2175 3500 2375 3925 
Q 2575 3725 2850 3625 
Q 2600 3325 2250 2850 
Q 1900 2375 1200 1525 
Q 2175 1650 2600 1750 
Q 2575 1600 2575 1325 
Q 2350 1275 1750 1200 
Q 1150 1125 625 1000 
Q 600 1175 450 1450 
Q 725 1575 1012 1900 
Q 1300 2225 1625 2700 
Q 1350 2700 1037 2662 
Q 725 2625 525 2575 
Q 475 2750 325 3025 
Q 600 3200 950 3800 
Q 1300 4400 1525 5025 
Q 1700 4875 2025 4750 
z
M 4925 1875 
Q 5325 1875 5675 1900 
L 5675 1450 
Q 5350 1475 4950 1475 
L 4550 1475 
L 4550 0 
L 5275 0 
Q 5625 0 6025 25 
L 6025 -425 
Q 5625 -400 5275 -400 
L 3325 -400 
Q 3000 -400 2475 -425 
L 2475 25 
Q 3000 0 3325 0 
L 4075 0 
L 4075 1475 
L 3725 1475 
Q 3300 1475 2900 1450 
L 2900 1900 
Q 3300 1875 3725 1875 
L 4925 1875 
z
M 5500 4650 
Q 5375 4400 5175 4100 
Q 4975 3800 4650 3425 
Q 5750 2700 6100 2475 
Q 5900 2275 5725 2050 
Q 5400 2375 4400 3125 
Q 4075 2825 3737 2587 
Q 3400 2350 2825 2000 
Q 2675 2250 2475 2425 
Q 2900 2575 3237 2775 
Q 3575 2975 4025 3400 
Q 4475 3825 4750 4250 
L 3675 4250 
Q 3225 4250 2825 4225 
L 2825 4675 
Q 3225 4650 3675 4650 
L 5500 4650 
z
M 2650 650 
Q 2650 500 2675 225 
Q 2225 150 1637 25 
Q 1050 -100 575 -225 
Q 450 75 350 300 
Q 1050 375 1400 437 
Q 1750 500 2650 650 
z
" id="SimHei-7ecf" transform="scale(0.015625)"/>
       <path d="M 4900 3175 
Q 5200 3175 5650 3200 
L 5650 2675 
Q 5200 2700 4900 2700 
L 4075 2700 
L 4075 425 
Q 4075 75 4450 75 
L 5175 75 
Q 5425 75 5525 775 
Q 5800 600 6075 550 
Q 5950 -325 5300 -375 
L 4150 -375 
Q 3575 -375 3575 225 
L 3575 2700 
L 2675 2700 
Q 2775 400 900 -600 
Q 725 -375 400 -175 
Q 2250 500 2150 2700 
L 1500 2700 
Q 1125 2700 650 2675 
L 650 3200 
Q 1125 3175 1500 3175 
L 4900 3175 
z
M 4450 4775 
Q 4675 4775 5150 4800 
L 5150 4325 
Q 4700 4350 4450 4350 
L 1875 4350 
Q 1575 4350 1200 4325 
L 1200 4800 
Q 1575 4775 1850 4775 
L 4450 4775 
z
" id="SimHei-5143" transform="scale(0.015625)"/>
       <path d="M 3425 4825 
Q 4475 3275 6150 2775 
Q 5900 2475 5775 2200 
Q 4150 2900 3150 4425 
Q 2225 2950 675 2125 
Q 550 2350 250 2600 
Q 1450 3100 2112 3875 
Q 2775 4650 3000 5275 
Q 3300 5150 3600 5050 
Q 3500 4925 3425 4825 
z
M 2925 2350 
Q 2925 2750 2875 3375 
L 3450 3375 
Q 3425 2950 3425 2325 
L 3425 550 
Q 3425 -25 3450 -625 
L 2900 -625 
Q 2925 0 2925 525 
L 2925 2350 
z
" id="SimHei-4e2a" transform="scale(0.015625)"/>
       <path d="M 4525 4925 
Q 4475 4800 4400 4587 
Q 4325 4375 4175 3825 
L 5325 3825 
Q 5575 3825 5925 3850 
L 5925 3400 
Q 5650 3425 5500 3425 
Q 5500 3025 5362 2162 
Q 5225 1300 4875 675 
Q 5125 375 5437 137 
Q 5750 -100 6025 -200 
Q 5725 -425 5625 -625 
Q 5325 -450 5075 -225 
Q 4825 0 4575 325 
Q 4300 25 3987 -187 
Q 3675 -400 3200 -650 
Q 3075 -425 2850 -300 
Q 3225 -150 3650 125 
Q 4075 400 4300 675 
Q 4125 1025 3962 1425 
Q 3800 1825 3675 2475 
Q 3600 2275 3425 1950 
Q 3250 2050 3000 2150 
Q 3400 2850 3650 3675 
Q 3900 4500 3975 5100 
Q 4275 4975 4525 4925 
z
M 2100 2250 
Q 2000 2150 1875 1925 
L 3250 1925 
Q 3100 1300 2725 675 
Q 3125 525 3350 400 
Q 3225 225 3125 25 
Q 2900 175 2450 325 
Q 1950 -225 725 -650 
Q 600 -375 400 -275 
Q 1575 0 2000 475 
Q 1300 650 850 775 
Q 1000 1000 1250 1525 
Q 1000 1525 425 1500 
L 425 1950 
Q 900 1925 1400 1925 
Q 1500 2150 1550 2425 
Q 1825 2325 2100 2250 
z
M 1775 3950 
Q 1775 4550 1750 5100 
L 2250 5100 
Q 2225 4575 2225 3950 
Q 3075 3950 3425 3975 
L 3425 3525 
Q 3075 3550 2225 3550 
Q 2225 2825 2250 2425 
L 1750 2425 
Q 1775 2775 1775 3300 
Q 1650 3100 1300 2787 
Q 950 2475 650 2300 
Q 525 2525 275 2625 
Q 500 2700 875 2975 
Q 1250 3250 1450 3550 
Q 950 3550 500 3525 
L 500 3975 
Q 925 3950 1775 3950 
z
M 3975 3175 
Q 4200 1700 4600 1125 
Q 4850 1700 4937 2287 
Q 5025 2875 5050 3425 
L 4075 3425 
L 3975 3175 
z
M 1450 1000 
Q 1750 925 2275 800 
Q 2475 1050 2650 1525 
L 1725 1525 
Q 1600 1275 1450 1000 
z
M 3325 4825 
Q 3200 4625 3125 4450 
Q 3050 4275 2925 4025 
Q 2725 4125 2525 4175 
Q 2725 4500 2900 5000 
Q 3150 4875 3325 4825 
z
M 2575 3375 
Q 2900 3050 3200 2725 
Q 3050 2600 2875 2425 
Q 2525 2850 2300 3100 
Q 2450 3225 2575 3375 
z
M 925 5000 
Q 1275 4650 1500 4300 
L 1125 4075 
Q 950 4425 600 4725 
Q 825 4875 925 5000 
z
" id="SimHei-6570" transform="scale(0.015625)"/>
      </defs>
      <use xlink:href="#SimHei-9690"/>
      <use x="100" xlink:href="#SimHei-85cf"/>
      <use x="200" xlink:href="#SimHei-5c42"/>
      <use x="300" xlink:href="#SimHei-795e"/>
      <use x="400" xlink:href="#SimHei-7ecf"/>
      <use x="500" xlink:href="#SimHei-5143"/>
      <use x="600" xlink:href="#SimHei-4e2a"/>
      <use x="700" xlink:href="#SimHei-6570"/>
     </g>
    </g>
   </g>
   <g id="matplotlib.axis_2">
    <g id="ytick_1">
     <g id="line2d_6">
      <defs>
       <path d="M 0 0 
L -3.5 0 
" id="md2d8dc8603" style="stroke:#000000;stroke-width:0.8;"/>
      </defs>
      <g>
       <use style="stroke:#000000;stroke-width:0.8;" x="52.653125" xlink:href="#md2d8dc8603" y="210.194685"/>
      </g>
     </g>
     <g id="text_7">
      <!-- 0.850 -->
      <g transform="translate(20.653125 213.632185)scale(0.1 -0.1)">
       <defs>
        <path d="M 1075 125 
L 500 125 
L 500 675 
L 1075 675 
L 1075 125 
z
" id="SimHei-2e" transform="scale(0.015625)"/>
        <path d="M 550 1325 
Q 725 650 1150 575 
Q 1575 500 1837 662 
Q 2100 825 2212 1087 
Q 2325 1350 2312 1675 
Q 2300 2000 2137 2225 
Q 1975 2450 1725 2525 
Q 1475 2600 1162 2525 
Q 850 2450 650 2175 
L 225 2225 
Q 275 2375 700 4375 
L 2675 4375 
L 2675 3925 
L 1075 3925 
Q 950 3250 825 2850 
Q 1200 3025 1525 3012 
Q 1850 3000 2150 2862 
Q 2450 2725 2587 2487 
Q 2725 2250 2787 2012 
Q 2850 1775 2837 1500 
Q 2825 1225 2725 937 
Q 2625 650 2425 462 
Q 2225 275 1937 162 
Q 1650 50 1275 75 
Q 900 100 562 350 
Q 225 600 100 1200 
L 550 1325 
z
" id="SimHei-35" transform="scale(0.015625)"/>
       </defs>
       <use xlink:href="#SimHei-30"/>
       <use x="50" xlink:href="#SimHei-2e"/>
       <use x="100" xlink:href="#SimHei-38"/>
       <use x="150" xlink:href="#SimHei-35"/>
       <use x="200" xlink:href="#SimHei-30"/>
      </g>
     </g>
    </g>
    <g id="ytick_2">
     <g id="line2d_7">
      <g>
       <use style="stroke:#000000;stroke-width:0.8;" x="52.653125" xlink:href="#md2d8dc8603" y="175.218715"/>
      </g>
     </g>
     <g id="text_8">
      <!-- 0.855 -->
      <g transform="translate(20.653125 178.656215)scale(0.1 -0.1)">
       <use xlink:href="#SimHei-30"/>
       <use x="50" xlink:href="#SimHei-2e"/>
       <use x="100" xlink:href="#SimHei-38"/>
       <use x="150" xlink:href="#SimHei-35"/>
       <use x="200" xlink:href="#SimHei-35"/>
      </g>
     </g>
    </g>
    <g id="ytick_3">
     <g id="line2d_8">
      <g>
       <use style="stroke:#000000;stroke-width:0.8;" x="52.653125" xlink:href="#md2d8dc8603" y="140.242745"/>
      </g>
     </g>
     <g id="text_9">
      <!-- 0.860 -->
      <g transform="translate(20.653125 143.680245)scale(0.1 -0.1)">
       <defs>
        <path d="M 250 1612 
Q 275 1975 387 2225 
Q 500 2475 725 2850 
L 1750 4450 
L 2325 4450 
L 1275 2800 
Q 1950 2975 2350 2750 
Q 2750 2525 2887 2237 
Q 3025 1950 3037 1612 
Q 3050 1275 2937 950 
Q 2825 625 2537 362 
Q 2250 100 1737 75 
Q 1225 50 862 262 
Q 500 475 362 862 
Q 225 1250 250 1612 
z
M 1025 787 
Q 1250 550 1625 525 
Q 2000 500 2250 775 
Q 2500 1050 2500 1575 
Q 2500 2100 2187 2300 
Q 1875 2500 1487 2450 
Q 1100 2400 925 2075 
Q 750 1750 775 1387 
Q 800 1025 1025 787 
z
" id="SimHei-36" transform="scale(0.015625)"/>
       </defs>
       <use xlink:href="#SimHei-30"/>
       <use x="50" xlink:href="#SimHei-2e"/>
       <use x="100" xlink:href="#SimHei-38"/>
       <use x="150" xlink:href="#SimHei-36"/>
       <use x="200" xlink:href="#SimHei-30"/>
      </g>
     </g>
    </g>
    <g id="ytick_4">
     <g id="line2d_9">
      <g>
       <use style="stroke:#000000;stroke-width:0.8;" x="52.653125" xlink:href="#md2d8dc8603" y="105.266774"/>
      </g>
     </g>
     <g id="text_10">
      <!-- 0.865 -->
      <g transform="translate(20.653125 108.704274)scale(0.1 -0.1)">
       <use xlink:href="#SimHei-30"/>
       <use x="50" xlink:href="#SimHei-2e"/>
       <use x="100" xlink:href="#SimHei-38"/>
       <use x="150" xlink:href="#SimHei-36"/>
       <use x="200" xlink:href="#SimHei-35"/>
      </g>
     </g>
    </g>
    <g id="ytick_5">
     <g id="line2d_10">
      <g>
       <use style="stroke:#000000;stroke-width:0.8;" x="52.653125" xlink:href="#md2d8dc8603" y="70.290804"/>
      </g>
     </g>
     <g id="text_11">
      <!-- 0.870 -->
      <g transform="translate(20.653125 73.728304)scale(0.1 -0.1)">
       <defs>
        <path d="M 850 150 
Q 1300 2050 2425 3925 
L 275 3925 
L 275 4375 
L 2950 4375 
L 2950 3950 
Q 1775 2050 1400 150 
L 850 150 
z
" id="SimHei-37" transform="scale(0.015625)"/>
       </defs>
       <use xlink:href="#SimHei-30"/>
       <use x="50" xlink:href="#SimHei-2e"/>
       <use x="100" xlink:href="#SimHei-38"/>
       <use x="150" xlink:href="#SimHei-37"/>
       <use x="200" xlink:href="#SimHei-30"/>
      </g>
     </g>
    </g>
    <g id="ytick_6">
     <g id="line2d_11">
      <g>
       <use style="stroke:#000000;stroke-width:0.8;" x="52.653125" xlink:href="#md2d8dc8603" y="35.314834"/>
      </g>
     </g>
     <g id="text_12">
      <!-- 0.875 -->
      <g transform="translate(20.653125 38.752334)scale(0.1 -0.1)">
       <use xlink:href="#SimHei-30"/>
       <use x="50" xlink:href="#SimHei-2e"/>
       <use x="100" xlink:href="#SimHei-38"/>
       <use x="150" xlink:href="#SimHei-37"/>
       <use x="200" xlink:href="#SimHei-35"/>
      </g>
     </g>
    </g>
    <g id="text_13">
     <!-- accuracy（测试集） -->
     <g transform="translate(15.403125 160.92)rotate(-90)scale(0.1 -0.1)">
      <defs>
       <path d="M 2875 125 
L 2275 125 
Q 2225 175 2200 262 
Q 2175 350 2175 475 
Q 2000 275 1750 175 
Q 1500 75 1225 75 
Q 825 75 550 275 
Q 275 475 275 850 
Q 275 1225 525 1450 
Q 775 1675 1300 1750 
Q 1650 1800 1912 1875 
Q 2175 1950 2175 2075 
Q 2175 2225 2062 2375 
Q 1950 2525 1575 2525 
Q 1275 2525 1137 2412 
Q 1000 2300 950 2100 
L 400 2100 
Q 450 2500 762 2737 
Q 1075 2975 1575 2975 
Q 2125 2975 2400 2725 
Q 2675 2475 2675 2025 
L 2675 650 
Q 2675 500 2725 375 
Q 2775 250 2875 125 
z
M 2175 1050 
L 2175 1550 
Q 2025 1500 1887 1462 
Q 1750 1425 1425 1375 
Q 1050 1325 937 1200 
Q 825 1075 825 900 
Q 825 750 937 637 
Q 1050 525 1275 525 
Q 1500 525 1762 650 
Q 2025 775 2175 1050 
z
" id="SimHei-61" transform="scale(0.015625)"/>
       <path d="M 2850 1250 
Q 2850 725 2487 400 
Q 2125 75 1575 75 
Q 1025 75 625 462 
Q 225 850 225 1525 
Q 225 2200 625 2587 
Q 1025 2975 1575 2975 
Q 2125 2975 2450 2687 
Q 2775 2400 2775 2000 
L 2225 2000 
Q 2200 2300 2012 2412 
Q 1825 2525 1575 2525 
Q 1275 2525 1025 2287 
Q 775 2050 775 1525 
Q 775 1000 1025 762 
Q 1275 525 1575 525 
Q 1900 525 2100 700 
Q 2300 875 2300 1250 
L 2850 1250 
z
" id="SimHei-63" transform="scale(0.015625)"/>
       <path d="M 2800 125 
L 2300 125 
L 2300 650 
Q 2100 375 1862 225 
Q 1625 75 1250 75 
Q 800 75 575 325 
Q 350 575 350 950 
L 350 2925 
L 850 2925 
L 850 1125 
Q 850 825 1000 650 
Q 1150 475 1400 475 
Q 1725 475 2012 812 
Q 2300 1150 2300 1650 
L 2300 2925 
L 2800 2925 
L 2800 125 
z
" id="SimHei-75" transform="scale(0.015625)"/>
       <path d="M 2500 2425 
Q 2025 2500 1700 2287 
Q 1375 2075 1150 1550 
L 1150 125 
L 650 125 
L 650 2925 
L 1150 2925 
L 1150 2200 
Q 1375 2600 1712 2787 
Q 2050 2975 2500 2975 
L 2500 2425 
z
" id="SimHei-72" transform="scale(0.015625)"/>
       <path d="M 2900 2925 
L 1750 -100 
Q 1650 -450 1450 -625 
Q 1250 -800 950 -800 
Q 825 -800 712 -787 
Q 600 -775 500 -725 
L 500 -225 
Q 600 -275 700 -300 
Q 800 -325 875 -325 
Q 1075 -325 1150 -262 
Q 1225 -200 1300 25 
L 200 2925 
L 750 2925 
L 1550 725 
L 1575 725 
L 2350 2925 
L 2900 2925 
z
" id="SimHei-79" transform="scale(0.015625)"/>
       <path d="M 5425 5100 
L 5700 4775 
Q 4275 3725 4325 2350 
Q 4350 1025 5675 50 
L 5400 -275 
Q 3875 825 3925 2500 
Q 3925 3875 5425 5100 
z
" id="SimHei-ff08" transform="scale(0.015625)"/>
       <path d="M 4025 4725 
Q 4000 4475 4000 4000 
L 4000 2225 
Q 4000 1775 4025 1350 
L 3550 1350 
L 3550 4325 
L 2350 4325 
L 2350 1325 
L 1900 1325 
Q 1925 1775 1925 2225 
L 1925 4000 
Q 1925 4200 1900 4725 
L 4025 4725 
z
M 5900 5075 
Q 5875 4800 5875 4375 
L 5875 0 
Q 5875 -325 5650 -425 
Q 5425 -525 4975 -600 
Q 4925 -325 4775 -50 
Q 5125 -50 5262 -25 
Q 5400 0 5400 250 
L 5400 4375 
Q 5400 4775 5375 5075 
L 5900 5075 
z
M 3275 3725 
Q 3225 3400 3200 2325 
Q 3175 1250 2837 550 
Q 2500 -150 2075 -600 
Q 1850 -400 1600 -325 
Q 2200 250 2475 962 
Q 2750 1675 2762 2475 
Q 2775 3275 2725 3800 
Q 3000 3750 3275 3725 
z
M 4950 4275 
Q 4925 4000 4925 3575 
L 4925 1825 
Q 4925 1300 4950 850 
L 4450 850 
Q 4475 1150 4475 1825 
L 4475 3575 
Q 4475 4000 4450 4275 
L 4950 4275 
z
M 1700 1675 
Q 1375 1075 1112 487 
Q 850 -100 725 -400 
Q 500 -200 200 -25 
Q 475 300 762 850 
Q 1050 1400 1250 2000 
Q 1475 1825 1700 1675 
z
M 3400 1050 
Q 3800 650 4300 -125 
Q 4100 -225 3875 -450 
Q 3475 275 3025 750 
Q 3225 875 3400 1050 
z
M 600 3525 
Q 1125 3125 1500 2775 
Q 1300 2575 1150 2375 
Q 825 2775 300 3150 
Q 450 3300 600 3525 
z
M 1350 4000 
Q 950 4375 475 4675 
Q 625 4850 775 5050 
Q 1300 4700 1675 4375 
Q 1500 4250 1350 4000 
z
" id="SimHei-6d4b" transform="scale(0.015625)"/>
       <path d="M 3950 3825 
Q 3925 4325 3925 4550 
Q 3925 4800 3900 5225 
Q 4200 5150 4450 5125 
Q 4425 4825 4425 4600 
L 4425 3825 
L 5150 3825 
Q 5500 3825 5875 3850 
L 5875 3400 
Q 5525 3425 5125 3425 
L 4450 3425 
Q 4500 2750 4587 2212 
Q 4675 1675 4837 1112 
Q 5000 550 5212 225 
Q 5425 -100 5500 200 
Q 5575 500 5600 900 
Q 5800 625 6100 525 
Q 5975 -275 5750 -487 
Q 5525 -700 5250 -537 
Q 4975 -375 4737 62 
Q 4500 500 4337 1075 
Q 4175 1650 4100 2262 
Q 4025 2875 3975 3425 
L 2800 3425 
Q 2300 3425 1875 3400 
L 1875 3850 
Q 2275 3825 2775 3825 
L 3950 3825 
z
M 1500 3175 
Q 1475 2675 1475 2175 
L 1475 625 
Q 1825 950 2125 1225 
Q 2225 1000 2375 800 
Q 1900 425 1125 -350 
Q 1000 -125 825 50 
Q 1025 175 1025 525 
L 1025 2725 
Q 625 2725 300 2700 
L 300 3200 
Q 625 3175 825 3175 
L 1500 3175 
z
M 3775 2175 
Q 3500 2200 3250 2200 
L 3250 575 
Q 3575 675 3900 800 
Q 3900 525 3950 325 
Q 3575 250 3150 125 
Q 2725 0 2275 -175 
Q 2200 100 2025 300 
Q 2425 350 2800 475 
L 2800 2200 
Q 2525 2200 2225 2175 
L 2225 2650 
Q 2600 2625 3000 2625 
Q 3425 2625 3775 2650 
L 3775 2175 
z
M 925 4975 
Q 1275 4650 1700 4100 
Q 1525 3925 1325 3775 
Q 1175 4050 575 4650 
Q 775 4825 925 4975 
z
M 5150 5150 
Q 5325 5000 5850 4375 
Q 5575 4200 5425 4050 
Q 5125 4525 4775 4875 
Q 4925 4975 5150 5150 
z
" id="SimHei-8bd5" transform="scale(0.015625)"/>
       <path d="M 2275 4925 
Q 2125 4800 2025 4662 
Q 1925 4525 1850 4350 
L 4925 4350 
Q 5300 4350 5750 4375 
L 5750 3975 
L 3650 3975 
L 3650 3575 
L 4625 3575 
Q 4925 3575 5325 3600 
L 5325 3175 
Q 4925 3200 4625 3200 
L 3650 3200 
L 3650 2800 
L 4675 2800 
Q 5000 2800 5425 2825 
L 5425 2400 
Q 5000 2425 4675 2425 
L 3650 2425 
L 3650 2075 
L 4875 2075 
Q 5275 2075 5675 2100 
L 5675 1675 
Q 5300 1700 4900 1700 
L 1650 1700 
L 1650 1500 
L 1150 1500 
Q 1200 1950 1200 2325 
L 1200 3475 
Q 1050 3250 937 3125 
Q 825 3000 675 2825 
Q 500 3000 300 3125 
Q 475 3325 875 3825 
Q 1275 4325 1462 4650 
Q 1650 4975 1725 5225 
Q 1950 5100 2275 4925 
z
M 2975 1200 
Q 2975 1300 2950 1625 
L 3475 1625 
Q 3450 1275 3450 1200 
L 5050 1200 
Q 5500 1200 5925 1225 
L 5925 825 
L 4150 825 
Q 4500 525 4925 362 
Q 5350 200 6100 25 
Q 5875 -225 5775 -475 
Q 5275 -300 4962 -162 
Q 4650 -25 4387 137 
Q 4125 300 3950 462 
Q 3775 625 3575 825 
L 3450 825 
L 3450 250 
Q 3450 -275 3500 -650 
L 2950 -650 
Q 2975 -300 2975 250 
L 2975 825 
L 2875 825 
Q 2700 575 2475 375 
Q 2250 175 1987 12 
Q 1725 -150 1425 -300 
Q 1125 -450 700 -575 
Q 600 -325 400 -75 
Q 925 50 1475 262 
Q 2025 475 2300 825 
L 500 825 
L 500 1225 
Q 800 1200 1400 1200 
L 2975 1200 
z
M 3150 2800 
L 3150 3200 
L 1650 3200 
L 1650 2800 
L 3150 2800 
z
M 3150 3575 
L 3150 3975 
L 1650 3975 
L 1650 3575 
L 3150 3575 
z
M 3150 2075 
L 3150 2425 
L 1650 2425 
L 1650 2075 
L 3150 2075 
z
M 3450 5250 
Q 3575 5150 3712 5000 
Q 3850 4850 4000 4650 
Q 3850 4525 3575 4375 
Q 3425 4575 3325 4700 
Q 3225 4825 3075 4950 
Q 3275 5075 3450 5250 
z
" id="SimHei-96c6" transform="scale(0.015625)"/>
       <path d="M 1000 5100 
Q 2500 3875 2500 2500 
Q 2550 825 1025 -275 
L 750 50 
Q 2075 1025 2100 2350 
Q 2150 3725 725 4775 
L 1000 5100 
z
" id="SimHei-ff09" transform="scale(0.015625)"/>
      </defs>
      <use xlink:href="#SimHei-61"/>
      <use x="50" xlink:href="#SimHei-63"/>
      <use x="100" xlink:href="#SimHei-63"/>
      <use x="150" xlink:href="#SimHei-75"/>
      <use x="200" xlink:href="#SimHei-72"/>
      <use x="250" xlink:href="#SimHei-61"/>
      <use x="300" xlink:href="#SimHei-63"/>
      <use x="350" xlink:href="#SimHei-79"/>
      <use x="400" xlink:href="#SimHei-ff08"/>
      <use x="500" xlink:href="#SimHei-6d4b"/>
      <use x="600" xlink:href="#SimHei-8bd5"/>
      <use x="700" xlink:href="#SimHei-96c6"/>
      <use x="800" xlink:href="#SimHei-ff09"/>
     </g>
    </g>
   </g>
   <g id="line2d_12">
    <path clip-path="url(#pf216bc4cfc)" d="M 66.487836 117.62675 
L 97.231637 214.756364 
L 127.975439 155.795896 
L 158.719241 187.758676 
L 189.463042 176.587218 
L 220.206844 124.76407 
L 250.950646 133.142663 
L 281.694447 17.083636 
L 312.438249 116.385477 
L 343.182051 143.383165 
" style="fill:none;stroke:#1f77b4;stroke-linecap:square;stroke-width:1.5;"/>
   </g>
   <g id="patch_3">
    <path d="M 52.653125 224.64 
L 52.653125 7.2 
" style="fill:none;stroke:#000000;stroke-linecap:square;stroke-linejoin:miter;stroke-width:0.8;"/>
   </g>
   <g id="patch_4">
    <path d="M 357.016761 224.64 
L 357.016761 7.2 
" style="fill:none;stroke:#000000;stroke-linecap:square;stroke-linejoin:miter;stroke-width:0.8;"/>
   </g>
   <g id="patch_5">
    <path d="M 52.653125 224.64 
L 357.016761 224.64 
" style="fill:none;stroke:#000000;stroke-linecap:square;stroke-linejoin:miter;stroke-width:0.8;"/>
   </g>
   <g id="patch_6">
    <path d="M 52.653125 7.2 
L 357.016761 7.2 
" style="fill:none;stroke:#000000;stroke-linecap:square;stroke-linejoin:miter;stroke-width:0.8;"/>
   </g>
   <g id="text_14">
    <!-- 0.86 -->
    <g transform="translate(56.487836 116.37675)scale(0.1 -0.1)">
     <use xlink:href="#SimHei-30"/>
     <use x="50" xlink:href="#SimHei-2e"/>
     <use x="100" xlink:href="#SimHei-38"/>
     <use x="150" xlink:href="#SimHei-36"/>
    </g>
   </g>
   <g id="text_15">
    <!-- 0.85 -->
    <g transform="translate(87.231637 213.506364)scale(0.1 -0.1)">
     <use xlink:href="#SimHei-30"/>
     <use x="50" xlink:href="#SimHei-2e"/>
     <use x="100" xlink:href="#SimHei-38"/>
     <use x="150" xlink:href="#SimHei-35"/>
    </g>
   </g>
   <g id="text_16">
    <!-- 0.86 -->
    <g transform="translate(117.975439 154.545896)scale(0.1 -0.1)">
     <use xlink:href="#SimHei-30"/>
     <use x="50" xlink:href="#SimHei-2e"/>
     <use x="100" xlink:href="#SimHei-38"/>
     <use x="150" xlink:href="#SimHei-36"/>
    </g>
   </g>
   <g id="text_17">
    <!-- 0.85 -->
    <g transform="translate(148.719241 186.508676)scale(0.1 -0.1)">
     <use xlink:href="#SimHei-30"/>
     <use x="50" xlink:href="#SimHei-2e"/>
     <use x="100" xlink:href="#SimHei-38"/>
     <use x="150" xlink:href="#SimHei-35"/>
    </g>
   </g>
   <g id="text_18">
    <!-- 0.85 -->
    <g transform="translate(179.463042 175.337218)scale(0.1 -0.1)">
     <use xlink:href="#SimHei-30"/>
     <use x="50" xlink:href="#SimHei-2e"/>
     <use x="100" xlink:href="#SimHei-38"/>
     <use x="150" xlink:href="#SimHei-35"/>
    </g>
   </g>
   <g id="text_19">
    <!-- 0.86 -->
    <g transform="translate(210.206844 123.51407)scale(0.1 -0.1)">
     <use xlink:href="#SimHei-30"/>
     <use x="50" xlink:href="#SimHei-2e"/>
     <use x="100" xlink:href="#SimHei-38"/>
     <use x="150" xlink:href="#SimHei-36"/>
    </g>
   </g>
   <g id="text_20">
    <!-- 0.86 -->
    <g transform="translate(240.950646 131.892663)scale(0.1 -0.1)">
     <use xlink:href="#SimHei-30"/>
     <use x="50" xlink:href="#SimHei-2e"/>
     <use x="100" xlink:href="#SimHei-38"/>
     <use x="150" xlink:href="#SimHei-36"/>
    </g>
   </g>
   <g id="text_21">
    <!-- 0.88 -->
    <g transform="translate(271.694447 15.833636)scale(0.1 -0.1)">
     <use xlink:href="#SimHei-30"/>
     <use x="50" xlink:href="#SimHei-2e"/>
     <use x="100" xlink:href="#SimHei-38"/>
     <use x="150" xlink:href="#SimHei-38"/>
    </g>
   </g>
   <g id="text_22">
    <!-- 0.86 -->
    <g transform="translate(302.438249 115.135477)scale(0.1 -0.1)">
     <use xlink:href="#SimHei-30"/>
     <use x="50" xlink:href="#SimHei-2e"/>
     <use x="100" xlink:href="#SimHei-38"/>
     <use x="150" xlink:href="#SimHei-36"/>
    </g>
   </g>
   <g id="text_23">
    <!-- 0.86 -->
    <g transform="translate(333.182051 142.133165)scale(0.1 -0.1)">
     <use xlink:href="#SimHei-30"/>
     <use x="50" xlink:href="#SimHei-2e"/>
     <use x="100" xlink:href="#SimHei-38"/>
     <use x="150" xlink:href="#SimHei-36"/>
    </g>
   </g>
   <g id="legend_1">
    <g id="patch_7">
     <path d="M 59.653125 28.45 
L 131.653125 28.45 
Q 133.653125 28.45 133.653125 26.45 
L 133.653125 14.2 
Q 133.653125 12.2 131.653125 12.2 
L 59.653125 12.2 
Q 57.653125 12.2 57.653125 14.2 
L 57.653125 26.45 
Q 57.653125 28.45 59.653125 28.45 
z
" style="fill:#ffffff;opacity:0.8;stroke:#cccccc;stroke-linejoin:miter;"/>
    </g>
    <g id="line2d_13">
     <path d="M 61.653125 19.7 
L 81.653125 19.7 
" style="fill:none;stroke:#1f77b4;stroke-linecap:square;stroke-width:1.5;"/>
    </g>
    <g id="line2d_14"/>
    <g id="text_24">
     <!-- accuracy -->
     <g transform="translate(89.653125 23.2)scale(0.1 -0.1)">
      <use xlink:href="#SimHei-61"/>
      <use x="50" xlink:href="#SimHei-63"/>
      <use x="100" xlink:href="#SimHei-63"/>
      <use x="150" xlink:href="#SimHei-75"/>
      <use x="200" xlink:href="#SimHei-72"/>
      <use x="250" xlink:href="#SimHei-61"/>
      <use x="300" xlink:href="#SimHei-63"/>
      <use x="350" xlink:href="#SimHei-79"/>
     </g>
    </g>
   </g>
  </g>
 </g>
 <defs>
  <clipPath id="pf216bc4cfc">
   <rect height="217.44" width="304.363636" x="52.653125" y="7.2"/>
  </clipPath>
 </defs>
</svg>
