<?xml version="1.0" encoding="utf-8" standalone="no"?>
<!DOCTYPE svg PUBLIC "-//W3C//DTD SVG 1.1//EN"
  "http://www.w3.org/Graphics/SVG/1.1/DTD/svg11.dtd">
<svg height="280.89pt" version="1.1" viewBox="0 0 276.229867 280.89" width="276.229867pt" xmlns="http://www.w3.org/2000/svg" xmlns:xlink="http://www.w3.org/1999/xlink">
 <metadata>
  <rdf:RDF xmlns:cc="http://creativecommons.org/ns#" xmlns:dc="http://purl.org/dc/elements/1.1/" xmlns:rdf="http://www.w3.org/1999/02/22-rdf-syntax-ns#">
   <cc:Work>
    <dc:type rdf:resource="http://purl.org/dc/dcmitype/StillImage"/>
    <dc:date>2023-09-25T23:56:52.417779</dc:date>
    <dc:format>image/svg+xml</dc:format>
    <dc:creator>
     <cc:Agent>
      <dc:title>Matplotlib v3.4.3, https://matplotlib.org/</dc:title>
     </cc:Agent>
    </dc:creator>
   </cc:Work>
  </rdf:RDF>
 </metadata>
 <defs>
  <style type="text/css">*{stroke-linecap:butt;stroke-linejoin:round;}</style>
 </defs>
 <g id="figure_1">
  <g id="patch_1">
   <path d="M 0 280.89 
L 276.229867 280.89 
L 276.229867 0 
L 0 0 
z
" style="fill:none;"/>
  </g>
  <g id="axes_1">
   <g id="patch_2">
    <path d="M 133.32 46.674 
C 116.314205 46.674 99.581253 50.973433 84.681847 59.171284 
C 69.782442 67.369136 57.194678 79.202353 48.092633 93.567235 
C 38.990588 107.932116 33.666329 124.367721 32.616458 141.341077 
C 31.566587 158.314433 34.824792 175.280898 42.087176 190.657986 
L 133.32 147.57 
L 133.32 46.674 
z
" style="fill:#1f77b4;"/>
   </g>
   <g id="patch_3">
    <path d="M 42.087176 190.657986 
C 49.96265 207.333209 62.261189 221.534413 77.640259 231.711365 
C 93.019329 241.888317 110.898193 247.65672 129.325157 248.386884 
L 133.32 147.57 
L 42.087176 190.657986 
z
" style="fill:#ff7f0e;"/>
   </g>
   <g id="patch_4">
    <path d="M 129.325157 248.386884 
C 136.912219 248.687519 144.509028 248.13074 151.971184 246.727129 
C 159.433339 245.323518 166.713259 243.082025 173.672564 240.045258 
L 133.32 147.57 
L 129.325157 248.386884 
z
" style="fill:#2ca02c;"/>
   </g>
   <g id="patch_5">
    <path d="M 173.672564 240.045258 
C 179.29844 237.590347 184.688575 234.627162 189.775884 231.19258 
C 194.863194 227.757999 199.626484 223.86633 204.006473 219.566009 
L 133.32 147.57 
L 173.672564 240.045258 
z
" style="fill:#d62728;"/>
   </g>
   <g id="patch_6">
    <path d="M 204.006473 219.566009 
C 208.114805 215.532404 211.870352 211.154537 215.231973 206.480368 
C 218.593595 201.806198 221.548971 196.852856 224.065726 191.674603 
L 133.32 147.57 
L 204.006473 219.566009 
z
" style="fill:#9467bd;"/>
   </g>
   <g id="patch_7">
    <path d="M 224.065726 191.674603 
C 225.747644 188.214039 227.230233 184.660097 228.506229 181.030195 
C 229.782224 177.400294 230.849538 173.700372 231.702939 169.948565 
L 133.32 147.57 
L 224.065726 191.674603 
z
" style="fill:#8c564b;"/>
   </g>
   <g id="patch_8">
    <path d="M 231.702939 169.948565 
C 232.514076 166.38256 233.130733 162.77509 233.550178 159.14213 
C 233.969624 155.509169 234.191238 151.856089 234.214039 148.199066 
L 133.32 147.57 
L 231.702939 169.948565 
z
" style="fill:#e377c2;"/>
   </g>
   <g id="patch_9">
    <path d="M 234.214039 148.199066 
C 234.230132 145.617908 234.14717 143.037082 233.965334 140.462286 
C 233.783498 137.887491 233.502923 135.320621 233.124229 132.767343 
L 133.32 147.57 
L 234.214039 148.199066 
z
" style="fill:#7f7f7f;"/>
   </g>
   <g id="patch_10">
    <path d="M 233.124229 132.767343 
C 232.834654 130.814936 232.487851 128.871446 232.084267 126.939383 
C 231.680683 125.00732 231.220493 123.087515 230.70429 121.182448 
L 133.32 147.57 
L 233.124229 132.767343 
z
" style="fill:#bcbd22;"/>
   </g>
   <g id="patch_11">
    <path d="M 230.70429 121.182448 
C 230.316875 119.75268 229.898021 118.331617 229.448031 116.920293 
C 228.998041 115.508969 228.517024 114.107727 228.005331 112.717584 
L 133.32 147.57 
L 230.70429 121.182448 
z
" style="fill:#17becf;"/>
   </g>
   <g id="patch_12">
    <path d="M 228.005331 112.717584 
C 227.497115 111.336888 226.95876 109.967474 226.390653 108.610323 
C 225.822545 107.253173 225.224821 105.908611 224.597908 104.577602 
L 133.32 147.57 
L 228.005331 112.717584 
z
" style="fill:#1f77b4;"/>
   </g>
   <g id="patch_13">
    <path d="M 224.597908 104.577602 
C 224.256583 103.852928 223.906639 103.132344 223.548153 102.416005 
C 223.189666 101.699665 222.822661 100.98762 222.447217 100.280021 
L 133.32 147.57 
L 224.597908 104.577602 
z
" style="fill:#ff7f0e;"/>
   </g>
   <g id="patch_14">
    <path d="M 222.447217 100.280021 
C 222.108334 99.641331 221.762596 99.006302 221.410063 98.375044 
C 221.057529 97.743787 220.698221 97.116337 220.332199 96.492803 
L 133.32 147.57 
L 222.447217 100.280021 
z
" style="fill:#2ca02c;"/>
   </g>
   <g id="patch_15">
    <path d="M 220.332199 96.492803 
C 220.000996 95.928585 219.664314 95.367603 219.322199 94.809934 
C 218.980085 94.252266 218.632554 93.697939 218.279656 93.14703 
L 133.32 147.57 
L 220.332199 96.492803 
z
" style="fill:#d62728;"/>
   </g>
   <g id="patch_16">
    <path d="M 218.279656 93.14703 
C 217.947571 92.628612 217.610748 92.113245 217.269228 91.600992 
C 216.927709 91.088739 216.581509 90.579623 216.23067 90.073708 
L 133.32 147.57 
L 218.279656 93.14703 
z
" style="fill:#9467bd;"/>
   </g>
   <g id="patch_17">
    <path d="M 216.23067 90.073708 
C 215.891303 89.584335 215.54761 89.097976 215.199632 88.614689 
C 214.851653 88.131401 214.499403 87.651204 214.142921 87.174154 
L 133.32 147.57 
L 216.23067 90.073708 
z
" style="fill:#8c564b;"/>
   </g>
   <g id="patch_18">
    <path d="M 214.142921 87.174154 
C 213.794976 86.708526 213.443013 86.245914 213.087072 85.786369 
C 212.731131 85.326824 212.371226 84.870364 212.007396 84.417039 
L 133.32 147.57 
L 214.142921 87.174154 
z
" style="fill:#e377c2;"/>
   </g>
   <g id="patch_19">
    <path d="M 212.007396 84.417039 
C 211.645667 83.966331 211.280072 83.518739 210.910651 83.074313 
C 210.541231 82.629887 210.167999 82.188643 209.790996 81.75063 
L 133.32 147.57 
L 212.007396 84.417039 
z
" style="fill:#7f7f7f;"/>
   </g>
   <g id="patch_20">
    <path d="M 209.790996 81.75063 
C 209.415088 81.313888 209.035446 80.880375 208.652111 80.450138 
C 208.268775 80.0199 207.881761 79.592955 207.491111 79.169349 
L 133.32 147.57 
L 209.790996 81.75063 
z
" style="fill:#bcbd22;"/>
   </g>
   <g id="patch_21">
    <path d="M 207.491111 79.169349 
C 207.119226 78.76609 206.744058 78.365872 206.365646 77.968732 
C 205.987233 77.571593 205.605588 77.177546 205.220748 76.786632 
L 133.32 147.57 
L 207.491111 79.169349 
z
" style="fill:#17becf;"/>
   </g>
   <g id="patch_22">
    <path d="M 205.220748 76.786632 
C 204.840028 76.399901 204.456193 76.016249 204.069283 75.635712 
C 203.682372 75.255175 203.292397 74.877765 202.899396 74.50352 
L 133.32 147.57 
L 205.220748 76.786632 
z
" style="fill:#1f77b4;"/>
   </g>
   <g id="patch_23">
    <path d="M 202.899396 74.50352 
C 202.516722 74.139109 202.131191 73.77771 201.742838 73.419356 
C 201.354486 73.061002 200.963324 72.705704 200.569389 72.353496 
L 133.32 147.57 
L 202.899396 74.50352 
z
" style="fill:#ff7f0e;"/>
   </g>
   <g id="patch_24">
    <path d="M 200.569389 72.353496 
C 200.183583 72.008556 199.795129 71.666589 199.404061 71.327626 
C 199.012993 70.988662 198.619323 70.652713 198.223086 70.319808 
L 133.32 147.57 
L 200.569389 72.353496 
z
" style="fill:#2ca02c;"/>
   </g>
   <g id="patch_25">
    <path d="M 198.223086 70.319808 
C 197.836482 69.994996 197.447445 69.67309 197.056008 69.354119 
C 196.664571 69.035147 196.270745 68.719119 195.874564 68.40606 
L 133.32 147.57 
L 198.223086 70.319808 
z
" style="fill:#d62728;"/>
   </g>
   <g id="patch_26">
    <path d="M 195.874564 68.40606 
C 195.5001 68.110162 195.123541 67.816925 194.744916 67.526371 
C 194.366291 67.235817 193.985609 66.947953 193.6029 66.662801 
L 133.32 147.57 
L 195.874564 68.40606 
z
" style="fill:#9467bd;"/>
   </g>
   <g id="patch_27">
    <path d="M 193.6029 66.662801 
C 193.224225 66.380656 192.843575 66.101173 192.460977 65.824372 
C 192.078378 65.547571 191.693841 65.27346 191.307394 65.002059 
L 133.32 147.57 
L 193.6029 66.662801 
z
" style="fill:#8c564b;"/>
   </g>
   <g id="patch_28">
    <path d="M 191.307394 65.002059 
C 190.933303 64.739335 190.55743 64.479156 190.179802 64.22154 
C 189.802174 63.963925 189.4228 63.708879 189.041705 63.45642 
L 133.32 147.57 
L 191.307394 65.002059 
z
" style="fill:#e377c2;"/>
   </g>
   <g id="patch_29">
    <path d="M 189.041705 63.45642 
C 188.662708 63.20535 188.282019 62.956845 187.899663 62.710922 
C 187.517308 62.464998 187.133294 62.221662 186.747649 61.980929 
L 133.32 147.57 
L 189.041705 63.45642 
z
" style="fill:#7f7f7f;"/>
   </g>
   <g id="patch_30">
    <path d="M 186.747649 61.980929 
C 186.36485 61.741972 185.980453 61.505587 185.594482 61.271788 
C 185.208512 61.03799 184.820977 60.806783 184.431904 60.578184 
L 133.32 147.57 
L 186.747649 61.980929 
z
" style="fill:#bcbd22;"/>
   </g>
   <g id="patch_31">
    <path d="M 184.431904 60.578184 
C 184.048617 60.352984 183.663846 60.13032 183.277616 59.910206 
C 182.891385 59.690092 182.503705 59.472533 182.114599 59.257544 
L 133.32 147.57 
L 184.431904 60.578184 
z
" style="fill:#17becf;"/>
   </g>
   <g id="patch_32">
    <path d="M 182.114599 59.257544 
C 181.7321 59.046205 181.348233 58.837353 180.963021 58.631002 
C 180.577809 58.424651 180.19126 58.220804 179.8034 58.019476 
L 133.32 147.57 
L 182.114599 59.257544 
z
" style="fill:#1f77b4;"/>
   </g>
   <g id="patch_33">
    <path d="M 179.8034 58.019476 
C 179.417772 57.819306 179.030856 57.62163 178.642675 57.426459 
C 178.254494 57.231288 177.865056 57.038627 177.474386 56.848487 
L 133.32 147.57 
L 179.8034 58.019476 
z
" style="fill:#ff7f0e;"/>
   </g>
   <g id="patch_34">
    <path d="M 177.474386 56.848487 
C 177.108605 56.67046 176.74175 56.494647 176.373842 56.321058 
C 176.005934 56.147468 175.636979 55.976105 175.266999 55.806978 
L 133.32 147.57 
L 177.474386 56.848487 
z
" style="fill:#2ca02c;"/>
   </g>
   <g id="patch_35">
    <path d="M 175.266999 55.806978 
C 174.903121 55.640641 174.538257 55.47647 174.172426 55.314474 
C 173.806595 55.152477 173.439804 54.992658 173.072071 54.835025 
L 133.32 147.57 
L 175.266999 55.806978 
z
" style="fill:#d62728;"/>
   </g>
   <g id="patch_36">
    <path d="M 173.072071 54.835025 
C 172.705881 54.678052 172.338764 54.523251 171.97074 54.370627 
C 171.602716 54.218004 171.233791 54.067562 170.863985 53.919309 
L 133.32 147.57 
L 173.072071 54.835025 
z
" style="fill:#9467bd;"/>
   </g>
   <g id="patch_37">
    <path d="M 170.863985 53.919309 
C 170.494957 53.771368 170.125058 53.625609 169.754308 53.482041 
C 169.383557 53.338473 169.011961 53.197097 168.639539 53.057921 
L 133.32 147.57 
L 170.863985 53.919309 
z
" style="fill:#8c564b;"/>
   </g>
   <g id="patch_38">
    <path d="M 168.639539 53.057921 
C 168.278117 52.922857 167.915923 52.789866 167.552975 52.658956 
C 167.190027 52.528046 166.826331 52.39922 166.461906 52.272482 
L 133.32 147.57 
L 168.639539 53.057921 
z
" style="fill:#e377c2;"/>
   </g>
   <g id="patch_39">
    <path d="M 166.461906 52.272482 
C 166.10461 52.148224 165.746619 52.025977 165.387948 51.905746 
C 165.029277 51.785515 164.669933 51.667301 164.309933 51.551112 
L 133.32 147.57 
L 166.461906 52.272482 
z
" style="fill:#7f7f7f;"/>
   </g>
   <g id="patch_40">
    <path d="M 164.309933 51.551112 
C 163.96031 51.438272 163.610073 51.327342 163.259238 51.218327 
C 162.908403 51.109313 162.556976 51.002215 162.204971 50.89704 
L 133.32 147.57 
L 164.309933 51.551112 
z
" style="fill:#bcbd22;"/>
   </g>
   <g id="patch_41">
    <path d="M 162.204971 50.89704 
C 161.856181 50.792824 161.506829 50.690498 161.156931 50.590064 
C 160.807034 50.48963 160.456595 50.39109 160.105631 50.294449 
L 133.32 147.57 
L 162.204971 50.89704 
z
" style="fill:#17becf;"/>
   </g>
   <g id="patch_42">
    <path d="M 160.105631 50.294449 
C 159.755475 50.198031 159.404802 50.103504 159.053625 50.010873 
C 158.702449 49.918241 158.350775 49.827507 157.998619 49.738673 
L 133.32 147.57 
L 160.105631 50.294449 
z
" style="fill:#1f77b4;"/>
   </g>
   <g id="patch_43">
    <path d="M 157.998619 49.738673 
C 157.649716 49.65066 157.300345 49.564514 156.95052 49.480238 
C 156.600695 49.395963 156.250422 49.31356 155.899716 49.233032 
L 133.32 147.57 
L 157.998619 49.738673 
z
" style="fill:#ff7f0e;"/>
   </g>
   <g id="patch_44">
    <path d="M 155.899716 49.233032 
C 155.564542 49.156071 155.228977 49.080824 154.893034 49.007294 
C 154.557091 48.933764 154.220774 48.861952 153.884097 48.791861 
L 133.32 147.57 
L 155.899716 49.233032 
z
" style="fill:#2ca02c;"/>
   </g>
   <g id="patch_45">
    <path d="M 153.884097 48.791861 
C 153.551525 48.722625 153.218606 48.655068 152.885352 48.589195 
C 152.552098 48.523321 152.218513 48.459131 151.884611 48.396626 
L 133.32 147.57 
L 153.884097 48.791861 
z
" style="fill:#d62728;"/>
   </g>
   <g id="patch_46">
    <path d="M 151.884611 48.396626 
C 151.570496 48.337826 151.256103 48.280518 150.941443 48.224705 
C 150.626783 48.168892 150.311859 48.114575 149.996683 48.061754 
L 133.32 147.57 
L 151.884611 48.396626 
z
" style="fill:#9467bd;"/>
   </g>
   <g id="patch_47">
    <path d="M 149.996683 48.061754 
C 149.697225 48.011567 149.397541 47.962733 149.097642 47.915252 
C 148.797742 47.867771 148.49763 47.821644 148.197314 47.776872 
L 133.32 147.57 
L 149.996683 48.061754 
z
" style="fill:#8c564b;"/>
   </g>
   <g id="patch_48">
    <path d="M 148.197314 47.776872 
C 147.898657 47.732348 147.599802 47.689165 147.300758 47.647324 
C 147.001713 47.605483 146.702483 47.564984 146.403075 47.52583 
L 133.32 147.57 
L 148.197314 47.776872 
z
" style="fill:#e377c2;"/>
   </g>
   <g id="patch_49">
    <path d="M 146.403075 47.52583 
C 146.114479 47.488089 145.825721 47.451598 145.536809 47.416356 
C 145.247897 47.381114 144.958834 47.347123 144.669628 47.314383 
L 133.32 147.57 
L 146.403075 47.52583 
z
" style="fill:#7f7f7f;"/>
   </g>
   <g id="patch_50">
    <path d="M 144.669628 47.314383 
C 144.410427 47.28504 144.151112 47.256701 143.89169 47.229369 
C 143.632269 47.202037 143.372742 47.175711 143.113116 47.150392 
L 133.32 147.57 
L 144.669628 47.314383 
z
" style="fill:#bcbd22;"/>
   </g>
   <g id="patch_51">
    <path d="M 143.113116 47.150392 
C 142.863508 47.12605 142.61381 47.102638 142.364028 47.080158 
C 142.114245 47.057678 141.864379 47.036129 141.614436 47.015512 
L 133.32 147.57 
L 143.113116 47.150392 
z
" style="fill:#17becf;"/>
   </g>
   <g id="patch_52">
    <path d="M 141.614436 47.015512 
C 141.367001 46.995101 141.11949 46.975605 140.871911 46.957021 
C 140.624332 46.938438 140.376684 46.920769 140.128974 46.904014 
L 133.32 147.57 
L 141.614436 47.015512 
z
" style="fill:#1f77b4;"/>
   </g>
   <g id="patch_53">
    <path d="M 140.128974 46.904014 
C 139.908044 46.889071 139.687065 46.874854 139.466041 46.861366 
C 139.245017 46.847877 139.023949 46.835116 138.802841 46.823083 
L 133.32 147.57 
L 140.128974 46.904014 
z
" style="fill:#ff7f0e;"/>
   </g>
   <g id="patch_54">
    <path d="M 138.802841 46.823083 
C 138.597646 46.811916 138.392418 46.801376 138.187159 46.791463 
C 137.981899 46.78155 137.77661 46.772264 137.571294 46.763605 
L 133.32 147.57 
L 138.802841 46.823083 
z
" style="fill:#2ca02c;"/>
   </g>
   <g id="patch_55">
    <path d="M 137.571294 46.763605 
C 137.414584 46.756996 137.257858 46.750752 137.101118 46.744874 
C 136.944378 46.738996 136.787625 46.733484 136.63086 46.728337 
L 133.32 147.57 
L 137.571294 46.763605 
z
" style="fill:#d62728;"/>
   </g>
   <g id="patch_56">
    <path d="M 136.63086 46.728337 
C 136.490023 46.723713 136.349176 46.719384 136.20832 46.71535 
C 136.067465 46.711316 135.926601 46.707577 135.78573 46.704134 
L 133.32 147.57 
L 136.63086 46.728337 
z
" style="fill:#9467bd;"/>
   </g>
   <g id="patch_57">
    <path d="M 135.78573 46.704134 
C 135.713617 46.702371 135.641503 46.700685 135.569386 46.699077 
C 135.49727 46.697469 135.425152 46.695938 135.353033 46.694485 
L 133.32 147.57 
L 135.78573 46.704134 
z
" style="fill:#8c564b;"/>
   </g>
   <g id="patch_58">
    <path d="M 135.353033 46.694485 
C 135.287622 46.693166 135.22221 46.691912 135.156797 46.690721 
C 135.091384 46.68953 135.02597 46.688402 134.960554 46.687338 
L 133.32 147.57 
L 135.353033 46.694485 
z
" style="fill:#e377c2;"/>
   </g>
   <g id="patch_59">
    <path d="M 134.960554 46.687338 
C 134.895139 46.686275 134.829723 46.685275 134.764305 46.684338 
C 134.698888 46.683401 134.63347 46.682529 134.568051 46.681719 
L 133.32 147.57 
L 134.960554 46.687338 
z
" style="fill:#7f7f7f;"/>
   </g>
   <g id="patch_60">
    <path d="M 134.568051 46.681719 
C 134.506825 46.680962 134.445599 46.68026 134.384373 46.679614 
C 134.323146 46.678968 134.261919 46.678378 134.200691 46.677844 
L 133.32 147.57 
L 134.568051 46.681719 
z
" style="fill:#bcbd22;"/>
   </g>
   <g id="patch_61">
    <path d="M 134.200691 46.677844 
C 134.142818 46.677339 134.084945 46.676883 134.027071 46.676478 
C 133.969197 46.676072 133.911323 46.675716 133.853449 46.67541 
L 133.32 147.57 
L 134.200691 46.677844 
z
" style="fill:#17becf;"/>
   </g>
   <g id="patch_62">
    <path d="M 133.853449 46.67541 
C 133.79893 46.675122 133.74441 46.674878 133.689891 46.674678 
C 133.635371 46.674478 133.580851 46.674322 133.526332 46.674211 
L 133.32 147.57 
L 133.853449 46.67541 
z
" style="fill:#1f77b4;"/>
   </g>
   <g id="patch_63">
    <path d="M 133.526332 46.674211 
C 133.517944 46.674194 133.509556 46.674178 133.501169 46.674163 
C 133.492781 46.674148 133.484393 46.674134 133.476006 46.674121 
L 133.32 147.57 
L 133.526332 46.674211 
z
" style="fill:#ff7f0e;"/>
   </g>
   <g id="patch_64">
    <path d="M 133.476006 46.674121 
C 133.469295 46.67411 133.462585 46.674101 133.455875 46.674091 
C 133.449165 46.674082 133.442455 46.674074 133.435745 46.674066 
L 133.32 147.57 
L 133.476006 46.674121 
z
" style="fill:#2ca02c;"/>
   </g>
   <g id="patch_65">
    <path d="M 133.435745 46.674066 
C 133.429035 46.674059 133.422324 46.674052 133.415614 46.674045 
C 133.408904 46.674039 133.402194 46.674033 133.395484 46.674028 
L 133.32 147.57 
L 133.435745 46.674066 
z
" style="fill:#d62728;"/>
   </g>
   <g id="patch_66">
    <path d="M 133.395484 46.674028 
C 133.39129 46.674025 133.387096 46.674022 133.382902 46.67402 
C 133.378708 46.674017 133.374515 46.674015 133.370321 46.674013 
L 133.32 147.57 
L 133.395484 46.674028 
z
" style="fill:#9467bd;"/>
   </g>
   <g id="patch_67">
    <path d="M 133.370321 46.674013 
C 133.367804 46.674011 133.365288 46.67401 133.362772 46.674009 
C 133.360255 46.674008 133.357739 46.674007 133.355223 46.674006 
L 133.32 147.57 
L 133.370321 46.674013 
z
" style="fill:#8c564b;"/>
   </g>
   <g id="patch_68">
    <path d="M 133.355223 46.674006 
C 133.353545 46.674006 133.351868 46.674005 133.35019 46.674005 
C 133.348513 46.674004 133.346835 46.674004 133.345158 46.674003 
L 133.32 147.57 
L 133.355223 46.674006 
z
" style="fill:#e377c2;"/>
   </g>
   <g id="patch_69">
    <path d="M 133.345158 46.674003 
C 133.34348 46.674003 133.341803 46.674002 133.340125 46.674002 
C 133.338447 46.674002 133.33677 46.674001 133.335092 46.674001 
L 133.32 147.57 
L 133.345158 46.674003 
z
" style="fill:#7f7f7f;"/>
   </g>
   <g id="patch_70">
    <path d="M 133.335092 46.674001 
C 133.333415 46.674001 133.331737 46.674001 133.33006 46.674001 
C 133.328382 46.674 133.326705 46.674 133.325027 46.674 
L 133.32 147.57 
L 133.335092 46.674001 
z
" style="fill:#bcbd22;"/>
   </g>
   <g id="patch_71">
    <path d="M 133.325027 46.674 
C 133.324188 46.674 133.32335 46.674 133.322511 46.674 
C 133.321672 46.674 133.320833 46.674 133.319995 46.674 
L 133.32 147.57 
L 133.325027 46.674 
z
" style="fill:#17becf;"/>
   </g>
   <g id="patch_72">
    <path clip-path="url(#p2a48e2ecb0)" d="M 133.32 218.1972 
C 152.050552 218.1972 170.016471 210.755473 183.260972 197.510972 
C 196.505473 184.266471 203.9472 166.300552 203.9472 147.57 
C 203.9472 128.839448 196.505473 110.873529 183.260972 97.629028 
C 170.016471 84.384527 152.050552 76.9428 133.32 76.9428 
C 114.589448 76.9428 96.623529 84.384527 83.379028 97.629028 
C 70.134527 110.873529 62.6928 128.839448 62.6928 147.57 
C 62.6928 166.300552 70.134527 184.266471 83.379028 197.510972 
C 96.623529 210.755473 114.589448 218.1972 133.32 218.1972 
z
" style="fill:#ffffff;"/>
   </g>
   <g id="matplotlib.axis_1"/>
   <g id="matplotlib.axis_2"/>
   <g id="text_1">
    <!-- http -->
    <g transform="translate(19.569896 90.979458)scale(0.1 -0.1)">
     <defs>
      <path d="M 2800 125 
L 2300 125 
L 2300 1925 
Q 2300 2225 2150 2400 
Q 2000 2575 1750 2575 
Q 1425 2575 1137 2237 
Q 850 1900 850 1400 
L 850 125 
L 350 125 
L 350 4400 
L 850 4400 
L 850 2400 
Q 1050 2675 1287 2825 
Q 1525 2975 1900 2975 
Q 2350 2975 2575 2725 
Q 2800 2475 2800 2100 
L 2800 125 
z
" id="SimHei-68" transform="scale(0.015625)"/>
      <path d="M 2750 200 
Q 2625 150 2462 112 
Q 2300 75 2025 75 
Q 1575 75 1300 325 
Q 1025 575 1025 1025 
L 1025 2525 
L 175 2525 
L 175 2925 
L 1025 2925 
L 1025 3900 
L 1525 3900 
L 1525 2925 
L 2550 2925 
L 2550 2525 
L 1525 2525 
L 1525 1000 
Q 1525 800 1625 662 
Q 1725 525 2000 525 
Q 2275 525 2450 575 
Q 2625 625 2750 700 
L 2750 200 
z
" id="SimHei-74" transform="scale(0.015625)"/>
      <path d="M 2825 1525 
Q 2825 800 2475 425 
Q 2125 50 1625 50 
Q 1350 50 1150 162 
Q 950 275 800 500 
L 800 -800 
L 300 -800 
L 300 2925 
L 800 2925 
L 800 2550 
Q 950 2775 1150 2875 
Q 1350 2975 1625 2975 
Q 2125 2975 2475 2612 
Q 2825 2250 2825 1525 
z
M 2275 1525 
Q 2275 2000 2087 2262 
Q 1900 2525 1525 2525 
Q 1225 2525 1012 2262 
Q 800 2000 800 1525 
Q 800 1050 1012 775 
Q 1225 500 1525 500 
Q 1900 500 2087 775 
Q 2275 1050 2275 1525 
z
" id="SimHei-70" transform="scale(0.015625)"/>
     </defs>
     <use xlink:href="#SimHei-68"/>
     <use x="50" xlink:href="#SimHei-74"/>
     <use x="100" xlink:href="#SimHei-74"/>
     <use x="150" xlink:href="#SimHei-70"/>
    </g>
   </g>
   <g id="text_2">
    <!-- 32.0% -->
    <g transform="translate(48.376738 104.480149)scale(0.1 -0.1)">
     <defs>
      <path d="M 250 1225 
L 700 1300 
Q 800 975 1025 762 
Q 1250 550 1587 562 
Q 1925 575 2125 837 
Q 2325 1100 2300 1437 
Q 2275 1775 2037 1962 
Q 1800 2150 1275 2225 
L 1275 2550 
Q 1800 2600 2037 2825 
Q 2275 3050 2250 3412 
Q 2225 3775 1925 3937 
Q 1625 4100 1287 3975 
Q 950 3850 750 3275 
L 300 3350 
Q 450 3800 712 4100 
Q 975 4400 1425 4450 
Q 1875 4500 2212 4337 
Q 2550 4175 2687 3837 
Q 2825 3500 2725 3100 
Q 2625 2700 2150 2400 
Q 2500 2250 2687 1950 
Q 2875 1650 2812 1162 
Q 2750 675 2375 375 
Q 2000 75 1525 87 
Q 1050 100 700 387 
Q 350 675 250 1225 
z
" id="SimHei-33" transform="scale(0.015625)"/>
      <path d="M 300 250 
Q 325 625 650 925 
Q 975 1225 1475 1862 
Q 1975 2500 2125 2850 
Q 2275 3200 2237 3450 
Q 2200 3700 2000 3862 
Q 1800 4025 1537 4000 
Q 1275 3975 1037 3800 
Q 800 3625 675 3275 
L 200 3350 
Q 400 3925 712 4187 
Q 1025 4450 1450 4475 
Q 1700 4500 1900 4462 
Q 2100 4425 2312 4287 
Q 2525 4150 2662 3875 
Q 2800 3600 2762 3212 
Q 2725 2825 2375 2287 
Q 2025 1750 1025 600 
L 2825 600 
L 2825 150 
L 300 150 
L 300 250 
z
" id="SimHei-32" transform="scale(0.015625)"/>
      <path d="M 1075 125 
L 500 125 
L 500 675 
L 1075 675 
L 1075 125 
z
" id="SimHei-2e" transform="scale(0.015625)"/>
      <path d="M 225 2537 
Q 250 3200 412 3587 
Q 575 3975 875 4225 
Q 1175 4475 1612 4475 
Q 2050 4475 2375 4112 
Q 2700 3750 2800 3200 
Q 2900 2650 2862 1937 
Q 2825 1225 2612 775 
Q 2400 325 1975 150 
Q 1550 -25 1125 187 
Q 700 400 525 750 
Q 350 1100 275 1487 
Q 200 1875 225 2537 
z
M 750 2687 
Q 675 2000 800 1462 
Q 925 925 1212 700 
Q 1500 475 1800 612 
Q 2100 750 2237 1162 
Q 2375 1575 2375 2062 
Q 2375 2550 2337 2950 
Q 2300 3350 2112 3675 
Q 1925 4000 1612 4012 
Q 1300 4025 1062 3700 
Q 825 3375 750 2687 
z
" id="SimHei-30" transform="scale(0.015625)"/>
      <path d="M 1400 3325 
Q 1400 2600 1187 2400 
Q 975 2200 775 2200 
Q 575 2200 362 2400 
Q 150 2600 150 3325 
Q 150 4050 362 4250 
Q 575 4450 775 4450 
Q 975 4450 1187 4250 
Q 1400 4050 1400 3325 
z
M 2625 4375 
L 700 75 
L 500 150 
L 2425 4450 
L 2625 4375 
z
M 2975 1200 
Q 2975 475 2762 275 
Q 2550 75 2350 75 
Q 2150 75 1937 275 
Q 1725 475 1725 1200 
Q 1725 1925 1937 2125 
Q 2150 2325 2350 2325 
Q 2550 2325 2762 2125 
Q 2975 1925 2975 1200 
z
M 1000 3325 
Q 1000 3775 950 3925 
Q 900 4075 775 4075 
Q 650 4075 600 3925 
Q 550 3775 550 3325 
Q 550 2875 600 2725 
Q 650 2575 775 2575 
Q 900 2575 950 2725 
Q 1000 2875 1000 3325 
z
M 2575 1200 
Q 2575 1650 2525 1800 
Q 2475 1950 2350 1950 
Q 2225 1950 2175 1800 
Q 2125 1650 2125 1200 
Q 2125 750 2175 600 
Q 2225 450 2350 450 
Q 2475 450 2525 600 
Q 2575 750 2575 1200 
z
" id="SimHei-25" transform="scale(0.015625)"/>
     </defs>
     <use xlink:href="#SimHei-33"/>
     <use x="50" xlink:href="#SimHei-32"/>
     <use x="100" xlink:href="#SimHei-2e"/>
     <use x="150" xlink:href="#SimHei-30"/>
     <use x="200" xlink:href="#SimHei-25"/>
    </g>
   </g>
   <g id="text_3">
    <!-- private -->
    <g transform="translate(37.072285 242.938001)scale(0.1 -0.1)">
     <defs>
      <path d="M 2500 2425 
Q 2025 2500 1700 2287 
Q 1375 2075 1150 1550 
L 1150 125 
L 650 125 
L 650 2925 
L 1150 2925 
L 1150 2200 
Q 1375 2600 1712 2787 
Q 2050 2975 2500 2975 
L 2500 2425 
z
" id="SimHei-72" transform="scale(0.015625)"/>
      <path d="M 1800 3725 
L 1300 3725 
L 1300 4375 
L 1800 4375 
L 1800 3725 
z
M 1800 125 
L 1300 125 
L 1300 2925 
L 1800 2925 
L 1800 125 
z
" id="SimHei-69" transform="scale(0.015625)"/>
      <path d="M 2875 2925 
L 1825 75 
L 1275 75 
L 225 2925 
L 750 2925 
L 1525 750 
L 1575 750 
L 2350 2925 
L 2875 2925 
z
" id="SimHei-76" transform="scale(0.015625)"/>
      <path d="M 2875 125 
L 2275 125 
Q 2225 175 2200 262 
Q 2175 350 2175 475 
Q 2000 275 1750 175 
Q 1500 75 1225 75 
Q 825 75 550 275 
Q 275 475 275 850 
Q 275 1225 525 1450 
Q 775 1675 1300 1750 
Q 1650 1800 1912 1875 
Q 2175 1950 2175 2075 
Q 2175 2225 2062 2375 
Q 1950 2525 1575 2525 
Q 1275 2525 1137 2412 
Q 1000 2300 950 2100 
L 400 2100 
Q 450 2500 762 2737 
Q 1075 2975 1575 2975 
Q 2125 2975 2400 2725 
Q 2675 2475 2675 2025 
L 2675 650 
Q 2675 500 2725 375 
Q 2775 250 2875 125 
z
M 2175 1050 
L 2175 1550 
Q 2025 1500 1887 1462 
Q 1750 1425 1425 1375 
Q 1050 1325 937 1200 
Q 825 1075 825 900 
Q 825 750 937 637 
Q 1050 525 1275 525 
Q 1500 525 1762 650 
Q 2025 775 2175 1050 
z
" id="SimHei-61" transform="scale(0.015625)"/>
      <path d="M 2850 1075 
Q 2800 625 2450 350 
Q 2100 75 1625 75 
Q 1025 75 637 462 
Q 250 850 250 1525 
Q 250 2200 637 2587 
Q 1025 2975 1625 2975 
Q 2150 2975 2487 2637 
Q 2825 2300 2825 1525 
L 800 1525 
Q 800 975 1037 750 
Q 1275 525 1625 525 
Q 1900 525 2075 662 
Q 2250 800 2300 1075 
L 2850 1075 
z
M 2250 1925 
Q 2200 2275 2025 2412 
Q 1850 2550 1575 2550 
Q 1325 2550 1125 2412 
Q 925 2275 825 1925 
L 2250 1925 
z
" id="SimHei-65" transform="scale(0.015625)"/>
     </defs>
     <use xlink:href="#SimHei-70"/>
     <use x="50" xlink:href="#SimHei-72"/>
     <use x="100" xlink:href="#SimHei-69"/>
     <use x="150" xlink:href="#SimHei-76"/>
     <use x="200" xlink:href="#SimHei-61"/>
     <use x="250" xlink:href="#SimHei-74"/>
     <use x="300" xlink:href="#SimHei-65"/>
    </g>
   </g>
   <g id="text_4">
    <!-- 17.3% -->
    <g transform="translate(73.49222 221.90266)scale(0.1 -0.1)">
     <defs>
      <path d="M 1400 3600 
Q 1075 3275 575 2975 
L 575 3450 
Q 1200 3875 1600 4450 
L 1900 4450 
L 1900 150 
L 1400 150 
L 1400 3600 
z
" id="SimHei-31" transform="scale(0.015625)"/>
      <path d="M 850 150 
Q 1300 2050 2425 3925 
L 275 3925 
L 275 4375 
L 2950 4375 
L 2950 3950 
Q 1775 2050 1400 150 
L 850 150 
z
" id="SimHei-37" transform="scale(0.015625)"/>
     </defs>
     <use xlink:href="#SimHei-31"/>
     <use x="50" xlink:href="#SimHei-37"/>
     <use x="100" xlink:href="#SimHei-2e"/>
     <use x="150" xlink:href="#SimHei-33"/>
     <use x="200" xlink:href="#SimHei-25"/>
    </g>
   </g>
   <g id="text_5">
    <!-- domain_u -->
    <g transform="translate(153.836302 259.416279)scale(0.1 -0.1)">
     <defs>
      <path d="M 2750 125 
L 2250 125 
L 2250 500 
Q 2100 275 1900 175 
Q 1700 75 1425 75 
Q 925 75 575 437 
Q 225 800 225 1525 
Q 225 2250 575 2625 
Q 925 3000 1425 3000 
Q 1700 3000 1900 2887 
Q 2100 2775 2250 2550 
L 2250 4400 
L 2750 4400 
L 2750 125 
z
M 2250 1525 
Q 2250 2000 2037 2275 
Q 1825 2550 1525 2550 
Q 1150 2550 962 2275 
Q 775 2000 775 1525 
Q 775 1050 962 787 
Q 1150 525 1525 525 
Q 1825 525 2037 787 
Q 2250 1050 2250 1525 
z
" id="SimHei-64" transform="scale(0.015625)"/>
      <path d="M 2925 1525 
Q 2925 875 2525 475 
Q 2125 75 1575 75 
Q 1025 75 625 475 
Q 225 875 225 1525 
Q 225 2175 625 2575 
Q 1025 2975 1575 2975 
Q 2125 2975 2525 2575 
Q 2925 2175 2925 1525 
z
M 2375 1525 
Q 2375 2025 2125 2275 
Q 1875 2525 1575 2525 
Q 1275 2525 1025 2275 
Q 775 2025 775 1525 
Q 775 1025 1025 775 
Q 1275 525 1575 525 
Q 1875 525 2125 775 
Q 2375 1025 2375 1525 
z
" id="SimHei-6f" transform="scale(0.015625)"/>
      <path d="M 3050 125 
L 2550 125 
L 2550 2150 
Q 2550 2300 2500 2400 
Q 2450 2500 2300 2500 
Q 2125 2500 1975 2312 
Q 1825 2125 1825 1825 
L 1825 125 
L 1325 125 
L 1325 2150 
Q 1325 2300 1275 2400 
Q 1225 2500 1075 2500 
Q 900 2500 750 2312 
Q 600 2125 600 1825 
L 600 125 
L 100 125 
L 100 2925 
L 600 2925 
L 600 2550 
Q 725 2750 900 2862 
Q 1075 2975 1275 2975 
Q 1475 2975 1612 2862 
Q 1750 2750 1800 2550 
Q 1925 2750 2087 2862 
Q 2250 2975 2450 2975 
Q 2750 2975 2900 2812 
Q 3050 2650 3050 2350 
L 3050 125 
z
" id="SimHei-6d" transform="scale(0.015625)"/>
      <path d="M 2800 125 
L 2300 125 
L 2300 1925 
Q 2300 2225 2150 2400 
Q 2000 2575 1750 2575 
Q 1425 2575 1137 2237 
Q 850 1900 850 1400 
L 850 125 
L 350 125 
L 350 2925 
L 850 2925 
L 850 2400 
Q 1050 2675 1287 2825 
Q 1525 2975 1900 2975 
Q 2350 2975 2575 2725 
Q 2800 2475 2800 2100 
L 2800 125 
z
" id="SimHei-6e" transform="scale(0.015625)"/>
      <path d="M 3150 -850 
L 0 -850 
L 0 -550 
L 3150 -550 
L 3150 -850 
z
" id="SimHei-5f" transform="scale(0.015625)"/>
      <path d="M 2800 125 
L 2300 125 
L 2300 650 
Q 2100 375 1862 225 
Q 1625 75 1250 75 
Q 800 75 575 325 
Q 350 575 350 950 
L 350 2925 
L 850 2925 
L 850 1125 
Q 850 825 1000 650 
Q 1150 475 1400 475 
Q 1725 475 2012 812 
Q 2300 1150 2300 1650 
L 2300 2925 
L 2800 2925 
L 2800 125 
z
" id="SimHei-75" transform="scale(0.015625)"/>
     </defs>
     <use xlink:href="#SimHei-64"/>
     <use x="50" xlink:href="#SimHei-6f"/>
     <use x="100" xlink:href="#SimHei-6d"/>
     <use x="150" xlink:href="#SimHei-61"/>
     <use x="200" xlink:href="#SimHei-69"/>
     <use x="250" xlink:href="#SimHei-6e"/>
     <use x="300" xlink:href="#SimHei-5f"/>
     <use x="350" xlink:href="#SimHei-75"/>
    </g>
   </g>
   <g id="text_6">
    <!-- 7.2% -->
    <g transform="translate(139.173506 234.666059)scale(0.1 -0.1)">
     <use xlink:href="#SimHei-37"/>
     <use x="50" xlink:href="#SimHei-2e"/>
     <use x="100" xlink:href="#SimHei-32"/>
     <use x="150" xlink:href="#SimHei-25"/>
    </g>
   </g>
   <g id="text_7">
    <!-- smtp -->
    <g transform="translate(195.421473 242.367338)scale(0.1 -0.1)">
     <defs>
      <path d="M 2750 900 
Q 2750 500 2437 287 
Q 2125 75 1650 75 
Q 1050 75 725 312 
Q 400 550 400 1000 
L 900 1000 
Q 900 700 1112 600 
Q 1325 500 1625 500 
Q 1925 500 2075 612 
Q 2225 725 2225 900 
Q 2225 1025 2100 1150 
Q 1975 1275 1475 1350 
Q 900 1425 687 1637 
Q 475 1850 475 2200 
Q 475 2500 762 2737 
Q 1050 2975 1600 2975 
Q 2100 2975 2387 2750 
Q 2675 2525 2675 2150 
L 2175 2150 
Q 2175 2375 2012 2462 
Q 1850 2550 1600 2550 
Q 1275 2550 1137 2437 
Q 1000 2325 1000 2175 
Q 1000 2000 1125 1900 
Q 1250 1800 1650 1750 
Q 2300 1650 2525 1437 
Q 2750 1225 2750 900 
z
" id="SimHei-73" transform="scale(0.015625)"/>
     </defs>
     <use xlink:href="#SimHei-73"/>
     <use x="50" xlink:href="#SimHei-6d"/>
     <use x="100" xlink:href="#SimHei-74"/>
     <use x="150" xlink:href="#SimHei-70"/>
    </g>
   </g>
   <g id="text_8">
    <!-- 5.8% -->
    <g transform="translate(171.307502 221.461693)scale(0.1 -0.1)">
     <defs>
      <path d="M 550 1325 
Q 725 650 1150 575 
Q 1575 500 1837 662 
Q 2100 825 2212 1087 
Q 2325 1350 2312 1675 
Q 2300 2000 2137 2225 
Q 1975 2450 1725 2525 
Q 1475 2600 1162 2525 
Q 850 2450 650 2175 
L 225 2225 
Q 275 2375 700 4375 
L 2675 4375 
L 2675 3925 
L 1075 3925 
Q 950 3250 825 2850 
Q 1200 3025 1525 3012 
Q 1850 3000 2150 2862 
Q 2450 2725 2587 2487 
Q 2725 2250 2787 2012 
Q 2850 1775 2837 1500 
Q 2825 1225 2725 937 
Q 2625 650 2425 462 
Q 2225 275 1937 162 
Q 1650 50 1275 75 
Q 900 100 562 350 
Q 225 600 100 1200 
L 550 1325 
z
" id="SimHei-35" transform="scale(0.015625)"/>
      <path d="M 175 1375 
Q 175 1675 325 1962 
Q 475 2250 825 2425 
Q 525 2600 425 2812 
Q 325 3025 312 3300 
Q 300 3575 387 3775 
Q 475 3975 650 4150 
Q 825 4325 1037 4387 
Q 1250 4450 1500 4450 
Q 1750 4450 1950 4400 
Q 2150 4350 2375 4187 
Q 2600 4025 2700 3725 
Q 2800 3425 2687 3025 
Q 2575 2625 2100 2400 
Q 2525 2275 2700 2012 
Q 2875 1750 2875 1375 
Q 2875 1000 2762 775 
Q 2650 550 2512 400 
Q 2375 250 2137 162 
Q 1900 75 1537 75 
Q 1175 75 912 162 
Q 650 250 475 425 
Q 300 600 237 837 
Q 175 1075 175 1375 
z
M 687 1400 
Q 675 1100 787 875 
Q 900 650 1200 587 
Q 1500 525 1825 600 
Q 2150 675 2275 950 
Q 2400 1225 2362 1500 
Q 2325 1775 2050 1962 
Q 1775 2150 1450 2125 
Q 1125 2100 912 1900 
Q 700 1700 687 1400 
z
M 775 3350 
Q 775 3100 950 2875 
Q 1125 2650 1500 2650 
Q 1875 2650 2062 2875 
Q 2250 3100 2237 3412 
Q 2225 3725 2012 3875 
Q 1800 4025 1437 4000 
Q 1075 3975 925 3787 
Q 775 3600 775 3350 
z
" id="SimHei-38" transform="scale(0.015625)"/>
     </defs>
     <use xlink:href="#SimHei-35"/>
     <use x="50" xlink:href="#SimHei-2e"/>
     <use x="100" xlink:href="#SimHei-38"/>
     <use x="150" xlink:href="#SimHei-25"/>
    </g>
   </g>
   <g id="text_9">
    <!-- ftp_data -->
    <g transform="translate(223.423171 215.183905)scale(0.1 -0.1)">
     <defs>
      <path d="M 2850 3825 
Q 2725 3900 2550 3950 
Q 2375 4000 2100 4000 
Q 1825 4000 1725 3862 
Q 1625 3725 1625 3525 
L 1625 2925 
L 2650 2925 
L 2650 2525 
L 1625 2525 
L 1625 125 
L 1125 125 
L 1125 2525 
L 275 2525 
L 275 2925 
L 1125 2925 
L 1125 3500 
Q 1125 3950 1400 4200 
Q 1675 4450 2125 4450 
Q 2400 4450 2562 4412 
Q 2725 4375 2850 4325 
L 2850 3825 
z
" id="SimHei-66" transform="scale(0.015625)"/>
     </defs>
     <use xlink:href="#SimHei-66"/>
     <use x="50" xlink:href="#SimHei-74"/>
     <use x="100" xlink:href="#SimHei-70"/>
     <use x="150" xlink:href="#SimHei-5f"/>
     <use x="200" xlink:href="#SimHei-64"/>
     <use x="250" xlink:href="#SimHei-61"/>
     <use x="300" xlink:href="#SimHei-74"/>
     <use x="350" xlink:href="#SimHei-61"/>
    </g>
   </g>
   <g id="text_10">
    <!-- 5.4% -->
    <g transform="translate(192.945177 200.456313)scale(0.1 -0.1)">
     <defs>
      <path d="M 2000 1100 
L 75 1100 
L 75 1525 
L 2100 4450 
L 2475 4450 
L 2475 1525 
L 3075 1525 
L 3075 1100 
L 2475 1100 
L 2475 150 
L 2000 150 
L 2000 1100 
z
M 2000 1525 
L 2000 3500 
L 600 1525 
L 2000 1525 
z
" id="SimHei-34" transform="scale(0.015625)"/>
     </defs>
     <use xlink:href="#SimHei-35"/>
     <use x="50" xlink:href="#SimHei-2e"/>
     <use x="100" xlink:href="#SimHei-34"/>
     <use x="150" xlink:href="#SimHei-25"/>
    </g>
   </g>
   <g id="text_11">
    <!-- eco_i -->
    <g transform="translate(238.024852 187.130121)scale(0.1 -0.1)">
     <defs>
      <path d="M 2850 1250 
Q 2850 725 2487 400 
Q 2125 75 1575 75 
Q 1025 75 625 462 
Q 225 850 225 1525 
Q 225 2200 625 2587 
Q 1025 2975 1575 2975 
Q 2125 2975 2450 2687 
Q 2775 2400 2775 2000 
L 2225 2000 
Q 2200 2300 2012 2412 
Q 1825 2525 1575 2525 
Q 1275 2525 1025 2287 
Q 775 2050 775 1525 
Q 775 1000 1025 762 
Q 1275 525 1575 525 
Q 1900 525 2100 700 
Q 2300 875 2300 1250 
L 2850 1250 
z
" id="SimHei-63" transform="scale(0.015625)"/>
     </defs>
     <use xlink:href="#SimHei-65"/>
     <use x="50" xlink:href="#SimHei-63"/>
     <use x="100" xlink:href="#SimHei-6f"/>
     <use x="150" xlink:href="#SimHei-5f"/>
     <use x="200" xlink:href="#SimHei-69"/>
    </g>
   </g>
   <g id="text_12">
    <!-- 3.6% -->
    <g transform="translate(204.228295 178.823666)scale(0.1 -0.1)">
     <defs>
      <path d="M 250 1612 
Q 275 1975 387 2225 
Q 500 2475 725 2850 
L 1750 4450 
L 2325 4450 
L 1275 2800 
Q 1950 2975 2350 2750 
Q 2750 2525 2887 2237 
Q 3025 1950 3037 1612 
Q 3050 1275 2937 950 
Q 2825 625 2537 362 
Q 2250 100 1737 75 
Q 1225 50 862 262 
Q 500 475 362 862 
Q 225 1250 250 1612 
z
M 1025 787 
Q 1250 550 1625 525 
Q 2000 500 2250 775 
Q 2500 1050 2500 1575 
Q 2500 2100 2187 2300 
Q 1875 2500 1487 2450 
Q 1100 2400 925 2075 
Q 750 1750 775 1387 
Q 800 1025 1025 787 
z
" id="SimHei-36" transform="scale(0.015625)"/>
     </defs>
     <use xlink:href="#SimHei-33"/>
     <use x="50" xlink:href="#SimHei-2e"/>
     <use x="100" xlink:href="#SimHei-36"/>
     <use x="150" xlink:href="#SimHei-25"/>
    </g>
   </g>
   <g id="text_13">
    <!-- other -->
    <g transform="translate(243.573196 163.111843)scale(0.1 -0.1)">
     <use xlink:href="#SimHei-6f"/>
     <use x="50" xlink:href="#SimHei-74"/>
     <use x="100" xlink:href="#SimHei-68"/>
     <use x="150" xlink:href="#SimHei-65"/>
     <use x="200" xlink:href="#SimHei-72"/>
    </g>
   </g>
   <g id="text_14">
    <!-- 3.5% -->
    <g transform="translate(208.515652 160.21881)scale(0.1 -0.1)">
     <use xlink:href="#SimHei-33"/>
     <use x="50" xlink:href="#SimHei-2e"/>
     <use x="100" xlink:href="#SimHei-35"/>
     <use x="150" xlink:href="#SimHei-25"/>
    </g>
   </g>
   <g id="text_15">
    <!-- ecr_i -->
    <g transform="translate(244.029867 142.505421)scale(0.1 -0.1)">
     <use xlink:href="#SimHei-65"/>
     <use x="50" xlink:href="#SimHei-63"/>
     <use x="100" xlink:href="#SimHei-72"/>
     <use x="150" xlink:href="#SimHei-5f"/>
     <use x="200" xlink:href="#SimHei-69"/>
    </g>
   </g>
   <g id="text_16">
    <!-- 2.4% -->
    <g transform="translate(208.868534 144.340944)scale(0.1 -0.1)">
     <use xlink:href="#SimHei-32"/>
     <use x="50" xlink:href="#SimHei-2e"/>
     <use x="100" xlink:href="#SimHei-34"/>
     <use x="150" xlink:href="#SimHei-25"/>
    </g>
   </g>
   <g id="text_17">
    <!--   -->
    <g transform="translate(241.960694 127.688821)scale(0.1 -0.1)">
     <defs>
      <path id="SimHei-20" transform="scale(0.015625)"/>
     </defs>
     <use xlink:href="#SimHei-20"/>
    </g>
   </g>
   <g id="text_18">
    <!--   -->
    <g transform="translate(214.769627 132.846475)scale(0.1 -0.1)">
     <use xlink:href="#SimHei-20"/>
    </g>
   </g>
   <g id="text_19">
    <!--   -->
    <g transform="translate(239.060834 116.667823)scale(0.1 -0.1)">
     <use xlink:href="#SimHei-20"/>
    </g>
   </g>
   <g id="text_20">
    <!--   -->
    <g transform="translate(212.528826 124.330249)scale(0.1 -0.1)">
     <use xlink:href="#SimHei-20"/>
    </g>
   </g>
   <g id="text_21">
    <!--   -->
    <g transform="translate(235.697718 107.526856)scale(0.1 -0.1)">
     <use xlink:href="#SimHei-20"/>
    </g>
   </g>
   <g id="text_22">
    <!--   -->
    <g transform="translate(209.930055 117.266775)scale(0.1 -0.1)">
     <use xlink:href="#SimHei-20"/>
    </g>
   </g>
   <g id="text_23">
    <!--   -->
    <g transform="translate(232.570968 100.713105)scale(0.1 -0.1)">
     <use xlink:href="#SimHei-20"/>
    </g>
   </g>
   <g id="text_24">
    <!--   -->
    <g transform="translate(207.51393 112.001604)scale(0.1 -0.1)">
     <use xlink:href="#SimHei-20"/>
    </g>
   </g>
   <g id="text_25">
    <!--   -->
    <g transform="translate(230.219069 96.268049)scale(0.1 -0.1)">
     <use xlink:href="#SimHei-20"/>
    </g>
   </g>
   <g id="text_26">
    <!--   -->
    <g transform="translate(205.696553 108.566788)scale(0.1 -0.1)">
     <use xlink:href="#SimHei-20"/>
    </g>
   </g>
   <g id="text_27">
    <!--   -->
    <g transform="translate(227.922419 92.346428)scale(0.1 -0.1)">
     <use xlink:href="#SimHei-20"/>
    </g>
   </g>
   <g id="text_28">
    <!--   -->
    <g transform="translate(203.921869 105.536444)scale(0.1 -0.1)">
     <use xlink:href="#SimHei-20"/>
    </g>
   </g>
   <g id="text_29">
    <!--   -->
    <g transform="translate(225.664151 88.816591)scale(0.1 -0.1)">
     <use xlink:href="#SimHei-20"/>
    </g>
   </g>
   <g id="text_30">
    <!--   -->
    <g transform="translate(202.176844 102.808843)scale(0.1 -0.1)">
     <use xlink:href="#SimHei-20"/>
    </g>
   </g>
   <g id="text_31">
    <!--   -->
    <g transform="translate(223.387595 85.531658)scale(0.1 -0.1)">
     <use xlink:href="#SimHei-20"/>
    </g>
   </g>
   <g id="text_32">
    <!--   -->
    <g transform="translate(200.417687 100.270486)scale(0.1 -0.1)">
     <use xlink:href="#SimHei-20"/>
    </g>
   </g>
   <g id="text_33">
    <!--   -->
    <g transform="translate(221.063779 82.420506)scale(0.1 -0.1)">
     <use xlink:href="#SimHei-20"/>
    </g>
   </g>
   <g id="text_34">
    <!--   -->
    <g transform="translate(198.622011 97.866414)scale(0.1 -0.1)">
     <use xlink:href="#SimHei-20"/>
    </g>
   </g>
   <g id="text_35">
    <!--   -->
    <g transform="translate(218.669716 79.437244)scale(0.1 -0.1)">
     <use xlink:href="#SimHei-20"/>
    </g>
   </g>
   <g id="text_36">
    <!--   -->
    <g transform="translate(196.772053 95.561166)scale(0.1 -0.1)">
     <use xlink:href="#SimHei-20"/>
    </g>
   </g>
   <g id="text_37">
    <!--   -->
    <g transform="translate(216.185322 76.550651)scale(0.1 -0.1)">
     <use xlink:href="#SimHei-20"/>
    </g>
   </g>
   <g id="text_38">
    <!--   -->
    <g transform="translate(194.852294 93.330617)scale(0.1 -0.1)">
     <use xlink:href="#SimHei-20"/>
    </g>
   </g>
   <g id="text_39">
    <!--   -->
    <g transform="translate(213.67021 73.821106)scale(0.1 -0.1)">
     <use xlink:href="#SimHei-20"/>
    </g>
   </g>
   <g id="text_40">
    <!--   -->
    <g transform="translate(192.908799 91.221423)scale(0.1 -0.1)">
     <use xlink:href="#SimHei-20"/>
    </g>
   </g>
   <g id="text_41">
    <!-- ...... -->
    <g transform="translate(211.144211 61.49697)scale(0.1 -0.1)">
     <use xlink:href="#SimHei-2e"/>
     <use x="50" xlink:href="#SimHei-2e"/>
     <use x="100" xlink:href="#SimHei-2e"/>
     <use x="150" xlink:href="#SimHei-2e"/>
     <use x="200" xlink:href="#SimHei-2e"/>
     <use x="250" xlink:href="#SimHei-2e"/>
    </g>
    <!--  -->
    <g transform="translate(211.144211 70.99697)scale(0.1 -0.1)"/>
    <!-- (22.8%) -->
    <g transform="translate(211.144211 81.012595)scale(0.1 -0.1)">
     <defs>
      <path d="M 2975 -200 
L 2700 -475 
Q 2075 125 1762 775 
Q 1450 1425 1450 2250 
Q 1450 3075 1762 3725 
Q 2075 4375 2700 5000 
L 2975 4725 
Q 2400 4175 2112 3587 
Q 1825 3000 1825 2250 
Q 1825 1500 2112 912 
Q 2400 325 2975 -200 
z
" id="SimHei-28" transform="scale(0.015625)"/>
      <path d="M 1675 2250 
Q 1675 1425 1362 775 
Q 1050 125 425 -475 
L 150 -200 
Q 725 325 1012 912 
Q 1300 1500 1300 2250 
Q 1300 3000 1012 3587 
Q 725 4175 150 4725 
L 425 5000 
Q 1050 4375 1362 3725 
Q 1675 3075 1675 2250 
z
" id="SimHei-29" transform="scale(0.015625)"/>
     </defs>
     <use xlink:href="#SimHei-28"/>
     <use x="50" xlink:href="#SimHei-32"/>
     <use x="100" xlink:href="#SimHei-32"/>
     <use x="150" xlink:href="#SimHei-2e"/>
     <use x="200" xlink:href="#SimHei-38"/>
     <use x="250" xlink:href="#SimHei-25"/>
     <use x="300" xlink:href="#SimHei-29"/>
    </g>
   </g>
   <g id="text_42">
    <!--   -->
    <g transform="translate(190.95689 89.238355)scale(0.1 -0.1)">
     <use xlink:href="#SimHei-20"/>
    </g>
   </g>
   <g id="text_43">
    <!--   -->
    <g transform="translate(208.585122 68.816791)scale(0.1 -0.1)">
     <use xlink:href="#SimHei-20"/>
    </g>
   </g>
   <g id="text_44">
    <!--   -->
    <g transform="translate(188.979412 87.354452)scale(0.1 -0.1)">
     <use xlink:href="#SimHei-20"/>
    </g>
   </g>
   <g id="text_45">
    <!--   -->
    <g transform="translate(206.012467 66.515888)scale(0.1 -0.1)">
     <use xlink:href="#SimHei-20"/>
    </g>
   </g>
   <g id="text_46">
    <!--   -->
    <g transform="translate(186.991452 85.576482)scale(0.1 -0.1)">
     <use xlink:href="#SimHei-20"/>
    </g>
   </g>
   <g id="text_47">
    <!--   -->
    <g transform="translate(203.429609 64.345031)scale(0.1 -0.1)">
     <use xlink:href="#SimHei-20"/>
    </g>
   </g>
   <g id="text_48">
    <!--   -->
    <g transform="translate(184.995607 83.899001)scale(0.1 -0.1)">
     <use xlink:href="#SimHei-20"/>
    </g>
   </g>
   <g id="text_49">
    <!--   -->
    <g transform="translate(200.887408 62.334509)scale(0.1 -0.1)">
     <use xlink:href="#SimHei-20"/>
    </g>
   </g>
   <g id="text_50">
    <!--   -->
    <g transform="translate(183.031179 82.345416)scale(0.1 -0.1)">
     <use xlink:href="#SimHei-20"/>
    </g>
   </g>
   <g id="text_51">
    <!--   -->
    <g transform="translate(198.375074 60.462309)scale(0.1 -0.1)">
     <use xlink:href="#SimHei-20"/>
    </g>
   </g>
   <g id="text_52">
    <!--   -->
    <g transform="translate(181.08983 80.898716)scale(0.1 -0.1)">
     <use xlink:href="#SimHei-20"/>
    </g>
   </g>
   <g id="text_53">
    <!--   -->
    <g transform="translate(195.865782 58.699194)scale(0.1 -0.1)">
     <use xlink:href="#SimHei-20"/>
    </g>
   </g>
   <g id="text_54">
    <!--   -->
    <g transform="translate(179.150832 79.536309)scale(0.1 -0.1)">
     <use xlink:href="#SimHei-20"/>
    </g>
   </g>
   <g id="text_55">
    <!--   -->
    <g transform="translate(193.35763 57.037514)scale(0.1 -0.1)">
     <use xlink:href="#SimHei-20"/>
    </g>
   </g>
   <g id="text_56">
    <!--   -->
    <g transform="translate(177.212714 78.252283)scale(0.1 -0.1)">
     <use xlink:href="#SimHei-20"/>
    </g>
   </g>
   <g id="text_57">
    <!--   -->
    <g transform="translate(190.82193 55.454467)scale(0.1 -0.1)">
     <use xlink:href="#SimHei-20"/>
    </g>
   </g>
   <g id="text_58">
    <!--   -->
    <g transform="translate(175.25331 77.02902)scale(0.1 -0.1)">
     <use xlink:href="#SimHei-20"/>
    </g>
   </g>
   <g id="text_59">
    <!--   -->
    <g transform="translate(188.273377 53.956727)scale(0.1 -0.1)">
     <use xlink:href="#SimHei-20"/>
    </g>
   </g>
   <g id="text_60">
    <!--   -->
    <g transform="translate(173.283973 75.871675)scale(0.1 -0.1)">
     <use xlink:href="#SimHei-20"/>
    </g>
   </g>
   <g id="text_61">
    <!--   -->
    <g transform="translate(185.727323 52.549602)scale(0.1 -0.1)">
     <use xlink:href="#SimHei-20"/>
    </g>
   </g>
   <g id="text_62">
    <!--   -->
    <g transform="translate(171.316568 74.784352)scale(0.1 -0.1)">
     <use xlink:href="#SimHei-20"/>
    </g>
   </g>
   <g id="text_63">
    <!--   -->
    <g transform="translate(183.174942 51.224605)scale(0.1 -0.1)">
     <use xlink:href="#SimHei-20"/>
    </g>
   </g>
   <g id="text_64">
    <!--   -->
    <g transform="translate(169.344274 73.76049)scale(0.1 -0.1)">
     <use xlink:href="#SimHei-20"/>
    </g>
   </g>
   <g id="text_65">
    <!--   -->
    <g transform="translate(180.679226 50.008663)scale(0.1 -0.1)">
     <use xlink:href="#SimHei-20"/>
    </g>
   </g>
   <g id="text_66">
    <!--   -->
    <g transform="translate(167.415766 72.820899)scale(0.1 -0.1)">
     <use xlink:href="#SimHei-20"/>
    </g>
   </g>
   <g id="text_67">
    <!--   -->
    <g transform="translate(178.257668 48.901421)scale(0.1 -0.1)">
     <use xlink:href="#SimHei-20"/>
    </g>
   </g>
   <g id="text_68">
    <!--   -->
    <g transform="translate(165.544562 71.965303)scale(0.1 -0.1)">
     <use xlink:href="#SimHei-20"/>
    </g>
   </g>
   <g id="text_69">
    <!--   -->
    <g transform="translate(175.835814 47.86319)scale(0.1 -0.1)">
     <use xlink:href="#SimHei-20"/>
    </g>
   </g>
   <g id="text_70">
    <!--   -->
    <g transform="translate(163.673129 71.163033)scale(0.1 -0.1)">
     <use xlink:href="#SimHei-20"/>
    </g>
   </g>
   <g id="text_71">
    <!--   -->
    <g transform="translate(173.397738 46.885745)scale(0.1 -0.1)">
     <use xlink:href="#SimHei-20"/>
    </g>
   </g>
   <g id="text_72">
    <!--   -->
    <g transform="translate(161.789161 70.407735)scale(0.1 -0.1)">
     <use xlink:href="#SimHei-20"/>
    </g>
   </g>
   <g id="text_73">
    <!--   -->
    <g transform="translate(170.976272 45.980352)scale(0.1 -0.1)">
     <use xlink:href="#SimHei-20"/>
    </g>
   </g>
   <g id="text_74">
    <!--   -->
    <g transform="translate(159.918029 69.708113)scale(0.1 -0.1)">
     <use xlink:href="#SimHei-20"/>
    </g>
   </g>
   <g id="text_75">
    <!--   -->
    <g transform="translate(168.594743 45.15182)scale(0.1 -0.1)">
     <use xlink:href="#SimHei-20"/>
    </g>
   </g>
   <g id="text_76">
    <!--   -->
    <g transform="translate(158.077756 69.067884)scale(0.1 -0.1)">
     <use xlink:href="#SimHei-20"/>
    </g>
   </g>
   <g id="text_77">
    <!--   -->
    <g transform="translate(166.253162 44.39566)scale(0.1 -0.1)">
     <use xlink:href="#SimHei-20"/>
    </g>
   </g>
   <g id="text_78">
    <!--   -->
    <g transform="translate(156.268353 68.483578)scale(0.1 -0.1)">
     <use xlink:href="#SimHei-20"/>
    </g>
   </g>
   <g id="text_79">
    <!--   -->
    <g transform="translate(163.940625 43.70457)scale(0.1 -0.1)">
     <use xlink:href="#SimHei-20"/>
    </g>
   </g>
   <g id="text_80">
    <!--   -->
    <g transform="translate(154.481392 67.949554)scale(0.1 -0.1)">
     <use xlink:href="#SimHei-20"/>
    </g>
   </g>
   <g id="text_81">
    <!--   -->
    <g transform="translate(161.626988 43.06746)scale(0.1 -0.1)">
     <use xlink:href="#SimHei-20"/>
    </g>
   </g>
   <g id="text_82">
    <!--   -->
    <g transform="translate(152.693582 67.457242)scale(0.1 -0.1)">
     <use xlink:href="#SimHei-20"/>
    </g>
   </g>
   <g id="text_83">
    <!--   -->
    <g transform="translate(159.313572 42.483762)scale(0.1 -0.1)">
     <use xlink:href="#SimHei-20"/>
    </g>
   </g>
   <g id="text_84">
    <!--   -->
    <g transform="translate(150.905942 67.006203)scale(0.1 -0.1)">
     <use xlink:href="#SimHei-20"/>
    </g>
   </g>
   <g id="text_85">
    <!--   -->
    <g transform="translate(157.050337 41.963523)scale(0.1 -0.1)">
     <use xlink:href="#SimHei-20"/>
    </g>
   </g>
   <g id="text_86">
    <!--   -->
    <g transform="translate(149.157079 66.6042)scale(0.1 -0.1)">
     <use xlink:href="#SimHei-20"/>
    </g>
   </g>
   <g id="text_87">
    <!--   -->
    <g transform="translate(154.841887 41.503614)scale(0.1 -0.1)">
     <use xlink:href="#SimHei-20"/>
    </g>
   </g>
   <g id="text_88">
    <!--   -->
    <g transform="translate(147.450549 66.248815)scale(0.1 -0.1)">
     <use xlink:href="#SimHei-20"/>
    </g>
   </g>
   <g id="text_89">
    <!--   -->
    <g transform="translate(152.703587 41.102676)scale(0.1 -0.1)">
     <use xlink:href="#SimHei-20"/>
    </g>
   </g>
   <g id="text_90">
    <!--   -->
    <g transform="translate(145.798226 65.939)scale(0.1 -0.1)">
     <use xlink:href="#SimHei-20"/>
    </g>
   </g>
   <g id="text_91">
    <!--   -->
    <g transform="translate(150.675406 40.762277)scale(0.1 -0.1)">
     <use xlink:href="#SimHei-20"/>
    </g>
   </g>
   <g id="text_92">
    <!--   -->
    <g transform="translate(144.230995 65.675964)scale(0.1 -0.1)">
     <use xlink:href="#SimHei-20"/>
    </g>
   </g>
   <g id="text_93">
    <!--   -->
    <g transform="translate(148.698834 40.467556)scale(0.1 -0.1)">
     <use xlink:href="#SimHei-20"/>
    </g>
   </g>
   <g id="text_94">
    <!--   -->
    <g transform="translate(142.703644 65.448225)scale(0.1 -0.1)">
     <use xlink:href="#SimHei-20"/>
    </g>
   </g>
   <g id="text_95">
    <!--   -->
    <g transform="translate(146.75849 40.213492)scale(0.1 -0.1)">
     <use xlink:href="#SimHei-20"/>
    </g>
   </g>
   <g id="text_96">
    <!--   -->
    <g transform="translate(141.204288 65.251903)scale(0.1 -0.1)">
     <use xlink:href="#SimHei-20"/>
    </g>
   </g>
   <g id="text_97">
    <!--   -->
    <g transform="translate(144.948859 40.007806)scale(0.1 -0.1)">
     <use xlink:href="#SimHei-20"/>
    </g>
   </g>
   <g id="text_98">
    <!--   -->
    <g transform="translate(139.805937 65.092964)scale(0.1 -0.1)">
     <use xlink:href="#SimHei-20"/>
    </g>
   </g>
   <g id="text_99">
    <!--   -->
    <g transform="translate(143.26843 39.843674)scale(0.1 -0.1)">
     <use xlink:href="#SimHei-20"/>
    </g>
   </g>
   <g id="text_100">
    <!--   -->
    <g transform="translate(138.507423 64.966134)scale(0.1 -0.1)">
     <use xlink:href="#SimHei-20"/>
    </g>
   </g>
   <g id="text_101">
    <!--   -->
    <g transform="translate(141.627102 39.708224)scale(0.1 -0.1)">
     <use xlink:href="#SimHei-20"/>
    </g>
   </g>
   <g id="text_102">
    <!--   -->
    <g transform="translate(137.239124 64.861468)scale(0.1 -0.1)">
     <use xlink:href="#SimHei-20"/>
    </g>
   </g>
   <g id="text_103">
    <!--   -->
    <g transform="translate(140.080645 39.603002)scale(0.1 -0.1)">
     <use xlink:href="#SimHei-20"/>
    </g>
   </g>
   <g id="text_104">
    <!--   -->
    <g transform="translate(136.044135 64.780161)scale(0.1 -0.1)">
     <use xlink:href="#SimHei-20"/>
    </g>
   </g>
   <g id="text_105">
    <!--   -->
    <g transform="translate(138.673874 39.526109)scale(0.1 -0.1)">
     <use xlink:href="#SimHei-20"/>
    </g>
   </g>
   <g id="text_106">
    <!--   -->
    <g transform="translate(134.957085 64.720743)scale(0.1 -0.1)">
     <use xlink:href="#SimHei-20"/>
    </g>
   </g>
   <g id="text_107">
    <!--   -->
    <g transform="translate(137.47923 39.474862)scale(0.1 -0.1)">
     <use xlink:href="#SimHei-20"/>
    </g>
   </g>
   <g id="text_108">
    <!--   -->
    <g transform="translate(134.03395 64.681143)scale(0.1 -0.1)">
     <use xlink:href="#SimHei-20"/>
    </g>
   </g>
   <g id="text_109">
    <!--   -->
    <g transform="translate(136.497152 39.442385)scale(0.1 -0.1)">
     <use xlink:href="#SimHei-20"/>
    </g>
   </g>
   <g id="text_110">
    <!--   -->
    <g transform="translate(133.275072 64.656048)scale(0.1 -0.1)">
     <use xlink:href="#SimHei-20"/>
    </g>
   </g>
   <g id="text_111">
    <!--   -->
    <g transform="translate(135.794325 39.424485)scale(0.1 -0.1)">
     <use xlink:href="#SimHei-20"/>
    </g>
   </g>
   <g id="text_112">
    <!--   -->
    <g transform="translate(132.731979 64.642216)scale(0.1 -0.1)">
     <use xlink:href="#SimHei-20"/>
    </g>
   </g>
   <g id="text_113">
    <!--   -->
    <g transform="translate(135.340477 39.415293)scale(0.1 -0.1)">
     <use xlink:href="#SimHei-20"/>
    </g>
   </g>
   <g id="text_114">
    <!--   -->
    <g transform="translate(132.381278 64.635113)scale(0.1 -0.1)">
     <use xlink:href="#SimHei-20"/>
    </g>
   </g>
   <g id="text_115">
    <!--   -->
    <g transform="translate(134.908736 39.408272)scale(0.1 -0.1)">
     <use xlink:href="#SimHei-20"/>
    </g>
   </g>
   <g id="text_116">
    <!--   -->
    <g transform="translate(132.04766 64.629687)scale(0.1 -0.1)">
     <use xlink:href="#SimHei-20"/>
    </g>
   </g>
   <g id="text_117">
    <!--   -->
    <g transform="translate(134.49081 39.403076)scale(0.1 -0.1)">
     <use xlink:href="#SimHei-20"/>
    </g>
   </g>
   <g id="text_118">
    <!--   -->
    <g transform="translate(131.724717 64.625672)scale(0.1 -0.1)">
     <use xlink:href="#SimHei-20"/>
    </g>
   </g>
   <g id="text_119">
    <!--   -->
    <g transform="translate(134.097778 39.399625)scale(0.1 -0.1)">
     <use xlink:href="#SimHei-20"/>
    </g>
   </g>
   <g id="text_120">
    <!--   -->
    <g transform="translate(131.42101 64.623006)scale(0.1 -0.1)">
     <use xlink:href="#SimHei-20"/>
    </g>
   </g>
   <g id="text_121">
    <!--   -->
    <g transform="translate(133.72688 39.397646)scale(0.1 -0.1)">
     <use xlink:href="#SimHei-20"/>
    </g>
   </g>
   <g id="text_122">
    <!--   -->
    <g transform="translate(131.134407 64.621476)scale(0.1 -0.1)">
     <use xlink:href="#SimHei-20"/>
    </g>
   </g>
   <g id="text_123">
    <!--   -->
    <g transform="translate(133.519285 39.397079)scale(0.1 -0.1)">
     <use xlink:href="#SimHei-20"/>
    </g>
   </g>
   <g id="text_124">
    <!--   -->
    <g transform="translate(130.973993 64.621038)scale(0.1 -0.1)">
     <use xlink:href="#SimHei-20"/>
    </g>
   </g>
   <g id="text_125">
    <!--   -->
    <g transform="translate(133.469463 39.397001)scale(0.1 -0.1)">
     <use xlink:href="#SimHei-20"/>
    </g>
   </g>
   <g id="text_126">
    <!--   -->
    <g transform="translate(130.935494 64.620978)scale(0.1 -0.1)">
     <use xlink:href="#SimHei-20"/>
    </g>
   </g>
   <g id="text_127">
    <!--   -->
    <g transform="translate(133.425176 39.39695)scale(0.1 -0.1)">
     <use xlink:href="#SimHei-20"/>
    </g>
   </g>
   <g id="text_128">
    <!--   -->
    <g transform="translate(130.901272 64.620939)scale(0.1 -0.1)">
     <use xlink:href="#SimHei-20"/>
    </g>
   </g>
   <g id="text_129">
    <!--   -->
    <g transform="translate(133.389192 39.396922)scale(0.1 -0.1)">
     <use xlink:href="#SimHei-20"/>
    </g>
   </g>
   <g id="text_130">
    <!--   -->
    <g transform="translate(130.873467 64.620917)scale(0.1 -0.1)">
     <use xlink:href="#SimHei-20"/>
    </g>
   </g>
   <g id="text_131">
    <!--   -->
    <g transform="translate(133.367049 39.39691)scale(0.1 -0.1)">
     <use xlink:href="#SimHei-20"/>
    </g>
   </g>
   <g id="text_132">
    <!--   -->
    <g transform="translate(130.856356 64.620908)scale(0.1 -0.1)">
     <use xlink:href="#SimHei-20"/>
    </g>
   </g>
   <g id="text_133">
    <!--   -->
    <g transform="translate(133.353209 39.396905)scale(0.1 -0.1)">
     <use xlink:href="#SimHei-20"/>
    </g>
   </g>
   <g id="text_134">
    <!--   -->
    <g transform="translate(130.845662 64.620904)scale(0.1 -0.1)">
     <use xlink:href="#SimHei-20"/>
    </g>
   </g>
   <g id="text_135">
    <!--   -->
    <g transform="translate(133.342138 39.396902)scale(0.1 -0.1)">
     <use xlink:href="#SimHei-20"/>
    </g>
   </g>
   <g id="text_136">
    <!--   -->
    <g transform="translate(130.837106 64.620902)scale(0.1 -0.1)">
     <use xlink:href="#SimHei-20"/>
    </g>
   </g>
   <g id="text_137">
    <!--   -->
    <g transform="translate(133.331066 39.396901)scale(0.1 -0.1)">
     <use xlink:href="#SimHei-20"/>
    </g>
   </g>
   <g id="text_138">
    <!--   -->
    <g transform="translate(130.828551 64.6209)scale(0.1 -0.1)">
     <use xlink:href="#SimHei-20"/>
    </g>
   </g>
   <g id="text_139">
    <!--   -->
    <g transform="translate(133.322762 39.3969)scale(0.1 -0.1)">
     <use xlink:href="#SimHei-20"/>
    </g>
   </g>
   <g id="text_140">
    <!--   -->
    <g transform="translate(130.822134 64.6209)scale(0.1 -0.1)">
     <use xlink:href="#SimHei-20"/>
    </g>
   </g>
   <g id="text_141">
    <!-- service -->
    <g transform="translate(112.32 15.45)scale(0.12 -0.12)">
     <use xlink:href="#SimHei-73"/>
     <use x="50" xlink:href="#SimHei-65"/>
     <use x="100" xlink:href="#SimHei-72"/>
     <use x="150" xlink:href="#SimHei-76"/>
     <use x="200" xlink:href="#SimHei-69"/>
     <use x="250" xlink:href="#SimHei-63"/>
     <use x="300" xlink:href="#SimHei-65"/>
    </g>
   </g>
  </g>
 </g>
 <defs>
  <clipPath id="p2a48e2ecb0">
   <rect height="252.24" width="252.24" x="7.2" y="21.45"/>
  </clipPath>
 </defs>
</svg>
