<?xml version="1.0" encoding="utf-8" standalone="no"?>
<!DOCTYPE svg PUBLIC "-//W3C//DTD SVG 1.1//EN"
  "http://www.w3.org/Graphics/SVG/1.1/DTD/svg11.dtd">
<svg height="276.004062pt" version="1.1" viewBox="0 0 399.223438 276.004062" width="399.223438pt" xmlns="http://www.w3.org/2000/svg" xmlns:xlink="http://www.w3.org/1999/xlink">
 <metadata>
  <rdf:RDF xmlns:cc="http://creativecommons.org/ns#" xmlns:dc="http://purl.org/dc/elements/1.1/" xmlns:rdf="http://www.w3.org/1999/02/22-rdf-syntax-ns#">
   <cc:Work>
    <dc:type rdf:resource="http://purl.org/dc/dcmitype/StillImage"/>
    <dc:date>2023-09-26T15:12:49.998202</dc:date>
    <dc:format>image/svg+xml</dc:format>
    <dc:creator>
     <cc:Agent>
      <dc:title>Matplotlib v3.4.3, https://matplotlib.org/</dc:title>
     </cc:Agent>
    </dc:creator>
   </cc:Work>
  </rdf:RDF>
 </metadata>
 <defs>
  <style type="text/css">*{stroke-linecap:butt;stroke-linejoin:round;}</style>
 </defs>
 <g id="figure_1">
  <g id="patch_1">
   <path d="M 0 276.004062 
L 399.223438 276.004062 
L 399.223438 0 
L 0 0 
z
" style="fill:none;"/>
  </g>
  <g id="axes_1">
   <g id="patch_2">
    <path d="M 57.223438 240.343125 
L 392.023438 240.343125 
L 392.023438 22.903125 
L 57.223438 22.903125 
z
" style="fill:#ffffff;"/>
   </g>
   <g id="patch_3">
    <path clip-path="url(#p17edd04553)" d="M 72.441619 240.343125 
L 117.772374 240.343125 
L 117.772374 132.246496 
L 72.441619 132.246496 
z
" style="fill:#5d887b;"/>
   </g>
   <g id="patch_4">
    <path clip-path="url(#p17edd04553)" d="M 201.95806 240.343125 
L 247.288815 240.343125 
L 247.288815 215.267127 
L 201.95806 215.267127 
z
" style="fill:#5d887b;"/>
   </g>
   <g id="patch_5">
    <path clip-path="url(#p17edd04553)" d="M 331.474501 240.343125 
L 376.805256 240.343125 
L 376.805256 237.703228 
L 331.474501 237.703228 
z
" style="fill:#5d887b;"/>
   </g>
   <g id="patch_6">
    <path clip-path="url(#p17edd04553)" d="M 72.441619 132.246496 
L 117.772374 132.246496 
L 117.772374 33.257411 
L 72.441619 33.257411 
z
" style="fill:#b5d3d9;"/>
   </g>
   <g id="patch_7">
    <path clip-path="url(#p17edd04553)" d="M 201.95806 215.267127 
L 247.288815 215.267127 
L 247.288815 210.10632 
L 201.95806 210.10632 
z
" style="fill:#b5d3d9;"/>
   </g>
   <g id="patch_8">
    <path clip-path="url(#p17edd04553)" d="M 331.474501 237.703228 
L 376.805256 237.703228 
L 376.805256 223.622432 
L 331.474501 223.622432 
z
" style="fill:#b5d3d9;"/>
   </g>
   <g id="matplotlib.axis_1">
    <g id="xtick_1">
     <g id="line2d_1">
      <defs>
       <path d="M 0 0 
L 0 3.5 
" id="mf66d97491b" style="stroke:#000000;stroke-width:0.8;"/>
      </defs>
      <g>
       <use style="stroke:#000000;stroke-width:0.8;" x="95.106996" xlink:href="#mf66d97491b" y="240.343125"/>
      </g>
     </g>
     <g id="text_1">
      <!-- tcp -->
      <g transform="translate(87.606996 254.218125)scale(0.1 -0.1)">
       <defs>
        <path d="M 2750 200 
Q 2625 150 2462 112 
Q 2300 75 2025 75 
Q 1575 75 1300 325 
Q 1025 575 1025 1025 
L 1025 2525 
L 175 2525 
L 175 2925 
L 1025 2925 
L 1025 3900 
L 1525 3900 
L 1525 2925 
L 2550 2925 
L 2550 2525 
L 1525 2525 
L 1525 1000 
Q 1525 800 1625 662 
Q 1725 525 2000 525 
Q 2275 525 2450 575 
Q 2625 625 2750 700 
L 2750 200 
z
" id="SimHei-74" transform="scale(0.015625)"/>
        <path d="M 2850 1250 
Q 2850 725 2487 400 
Q 2125 75 1575 75 
Q 1025 75 625 462 
Q 225 850 225 1525 
Q 225 2200 625 2587 
Q 1025 2975 1575 2975 
Q 2125 2975 2450 2687 
Q 2775 2400 2775 2000 
L 2225 2000 
Q 2200 2300 2012 2412 
Q 1825 2525 1575 2525 
Q 1275 2525 1025 2287 
Q 775 2050 775 1525 
Q 775 1000 1025 762 
Q 1275 525 1575 525 
Q 1900 525 2100 700 
Q 2300 875 2300 1250 
L 2850 1250 
z
" id="SimHei-63" transform="scale(0.015625)"/>
        <path d="M 2825 1525 
Q 2825 800 2475 425 
Q 2125 50 1625 50 
Q 1350 50 1150 162 
Q 950 275 800 500 
L 800 -800 
L 300 -800 
L 300 2925 
L 800 2925 
L 800 2550 
Q 950 2775 1150 2875 
Q 1350 2975 1625 2975 
Q 2125 2975 2475 2612 
Q 2825 2250 2825 1525 
z
M 2275 1525 
Q 2275 2000 2087 2262 
Q 1900 2525 1525 2525 
Q 1225 2525 1012 2262 
Q 800 2000 800 1525 
Q 800 1050 1012 775 
Q 1225 500 1525 500 
Q 1900 500 2087 775 
Q 2275 1050 2275 1525 
z
" id="SimHei-70" transform="scale(0.015625)"/>
       </defs>
       <use xlink:href="#SimHei-74"/>
       <use x="50" xlink:href="#SimHei-63"/>
       <use x="100" xlink:href="#SimHei-70"/>
      </g>
     </g>
    </g>
    <g id="xtick_2">
     <g id="line2d_2">
      <g>
       <use style="stroke:#000000;stroke-width:0.8;" x="224.623438" xlink:href="#mf66d97491b" y="240.343125"/>
      </g>
     </g>
     <g id="text_2">
      <!-- udp -->
      <g transform="translate(217.123438 254.218125)scale(0.1 -0.1)">
       <defs>
        <path d="M 2800 125 
L 2300 125 
L 2300 650 
Q 2100 375 1862 225 
Q 1625 75 1250 75 
Q 800 75 575 325 
Q 350 575 350 950 
L 350 2925 
L 850 2925 
L 850 1125 
Q 850 825 1000 650 
Q 1150 475 1400 475 
Q 1725 475 2012 812 
Q 2300 1150 2300 1650 
L 2300 2925 
L 2800 2925 
L 2800 125 
z
" id="SimHei-75" transform="scale(0.015625)"/>
        <path d="M 2750 125 
L 2250 125 
L 2250 500 
Q 2100 275 1900 175 
Q 1700 75 1425 75 
Q 925 75 575 437 
Q 225 800 225 1525 
Q 225 2250 575 2625 
Q 925 3000 1425 3000 
Q 1700 3000 1900 2887 
Q 2100 2775 2250 2550 
L 2250 4400 
L 2750 4400 
L 2750 125 
z
M 2250 1525 
Q 2250 2000 2037 2275 
Q 1825 2550 1525 2550 
Q 1150 2550 962 2275 
Q 775 2000 775 1525 
Q 775 1050 962 787 
Q 1150 525 1525 525 
Q 1825 525 2037 787 
Q 2250 1050 2250 1525 
z
" id="SimHei-64" transform="scale(0.015625)"/>
       </defs>
       <use xlink:href="#SimHei-75"/>
       <use x="50" xlink:href="#SimHei-64"/>
       <use x="100" xlink:href="#SimHei-70"/>
      </g>
     </g>
    </g>
    <g id="xtick_3">
     <g id="line2d_3">
      <g>
       <use style="stroke:#000000;stroke-width:0.8;" x="354.139879" xlink:href="#mf66d97491b" y="240.343125"/>
      </g>
     </g>
     <g id="text_3">
      <!-- icmp -->
      <g transform="translate(344.139879 254.218125)scale(0.1 -0.1)">
       <defs>
        <path d="M 1800 3725 
L 1300 3725 
L 1300 4375 
L 1800 4375 
L 1800 3725 
z
M 1800 125 
L 1300 125 
L 1300 2925 
L 1800 2925 
L 1800 125 
z
" id="SimHei-69" transform="scale(0.015625)"/>
        <path d="M 3050 125 
L 2550 125 
L 2550 2150 
Q 2550 2300 2500 2400 
Q 2450 2500 2300 2500 
Q 2125 2500 1975 2312 
Q 1825 2125 1825 1825 
L 1825 125 
L 1325 125 
L 1325 2150 
Q 1325 2300 1275 2400 
Q 1225 2500 1075 2500 
Q 900 2500 750 2312 
Q 600 2125 600 1825 
L 600 125 
L 100 125 
L 100 2925 
L 600 2925 
L 600 2550 
Q 725 2750 900 2862 
Q 1075 2975 1275 2975 
Q 1475 2975 1612 2862 
Q 1750 2750 1800 2550 
Q 1925 2750 2087 2862 
Q 2250 2975 2450 2975 
Q 2750 2975 2900 2812 
Q 3050 2650 3050 2350 
L 3050 125 
z
" id="SimHei-6d" transform="scale(0.015625)"/>
       </defs>
       <use xlink:href="#SimHei-69"/>
       <use x="50" xlink:href="#SimHei-63"/>
       <use x="100" xlink:href="#SimHei-6d"/>
       <use x="150" xlink:href="#SimHei-70"/>
      </g>
     </g>
    </g>
    <g id="text_4">
     <!-- 网络协议 -->
     <g transform="translate(204.623438 267.554062)scale(0.1 -0.1)">
      <defs>
       <path d="M 5875 4900 
Q 5825 4575 5825 3975 
L 5825 0 
Q 5825 -400 5537 -462 
Q 5250 -525 4775 -600 
Q 4725 -350 4525 -50 
Q 5025 -75 5175 -25 
Q 5325 25 5325 250 
L 5325 4475 
L 1100 4475 
L 1100 -600 
L 550 -600 
Q 600 -100 600 250 
L 600 3975 
Q 600 4375 550 4900 
L 5875 4900 
z
M 3675 3525 
Q 4050 2800 4175 2600 
Q 4475 3625 4550 4050 
Q 4825 3900 5100 3775 
Q 4975 3600 4825 3150 
Q 4675 2700 4450 2100 
Q 4725 1575 5125 875 
Q 4850 800 4625 675 
L 4175 1575 
Q 4000 1225 3825 962 
Q 3650 700 3350 300 
Q 3175 500 2850 575 
Q 3075 800 3337 1125 
Q 3600 1450 3925 2075 
Q 3575 2800 3200 3300 
Q 3400 3375 3675 3525 
z
M 1725 3800 
Q 1875 3525 2037 3237 
Q 2200 2950 2375 2675 
Q 2675 3675 2725 4050 
Q 3000 3950 3325 3850 
Q 3175 3675 3050 3312 
Q 2925 2950 2650 2200 
Q 2875 1850 3200 1300 
Q 2950 1150 2775 975 
Q 2525 1500 2400 1700 
Q 1950 775 1600 325 
Q 1400 500 1175 575 
Q 1575 1000 2150 2175 
Q 1550 3250 1250 3600 
Q 1475 3700 1725 3800 
z
" id="SimHei-7f51" transform="scale(0.015625)"/>
       <path d="M 2400 3100 
Q 2675 3400 2850 3700 
Q 3025 4000 3187 4362 
Q 3350 4725 3450 5200 
Q 3725 5075 4050 5025 
Q 3900 4800 3725 4450 
L 5750 4450 
Q 5375 3700 5125 3325 
Q 4875 2950 4600 2650 
Q 4925 2425 5375 2275 
Q 5825 2125 6200 2050 
Q 6075 1850 5950 1525 
Q 5700 1600 5500 1675 
Q 5450 1325 5450 1025 
L 5450 125 
Q 5450 -250 5475 -650 
L 5000 -650 
L 5000 -175 
L 3500 -175 
L 3500 -700 
L 3025 -700 
Q 3050 -325 3050 0 
L 3050 1000 
Q 3050 1200 3025 1675 
Q 2875 1600 2600 1500 
Q 2500 1775 2325 1975 
Q 2700 2075 3162 2262 
Q 3625 2450 3900 2675 
Q 3575 3100 3350 3625 
Q 3075 3200 2800 2825 
Q 2650 2975 2400 3100 
z
M 1825 4725 
Q 1650 4500 1425 4037 
Q 1200 3575 900 3050 
L 1600 3050 
Q 1875 3575 2000 3975 
Q 2250 3775 2500 3650 
Q 2350 3475 2050 2937 
Q 1750 2400 1225 1525 
Q 1975 1650 2300 1700 
Q 2275 1375 2300 1225 
Q 1700 1150 1375 1087 
Q 1050 1025 625 925 
Q 550 1200 450 1400 
Q 700 1500 937 1850 
Q 1175 2200 1425 2700 
Q 750 2675 400 2525 
Q 325 2750 225 3025 
Q 525 3175 825 3787 
Q 1125 4400 1275 5000 
Q 1550 4825 1825 4725 
z
M 5000 225 
L 5000 1300 
L 3500 1300 
L 3500 225 
L 5000 225 
z
M 2375 700 
Q 2425 450 2425 250 
Q 2150 200 1637 25 
Q 1125 -150 650 -350 
Q 550 -50 425 200 
Q 1050 325 1462 425 
Q 1875 525 2375 700 
z
M 4275 2975 
Q 4425 3125 4637 3425 
Q 4850 3725 5000 4050 
L 3650 4050 
Q 3900 3425 4275 2975 
z
M 5475 1700 
Q 5125 1850 4812 2000 
Q 4500 2150 4225 2350 
Q 3925 2150 3662 2000 
Q 3400 1850 3075 1700 
L 5475 1700 
z
" id="SimHei-7edc" transform="scale(0.015625)"/>
       <path d="M 3475 3825 
Q 3475 4625 3450 5150 
Q 3725 5075 4050 5050 
Q 3950 4650 3975 3825 
L 5325 3825 
Q 5275 3600 5225 3075 
L 5050 300 
Q 5000 -100 4750 -187 
Q 4500 -275 4050 -375 
Q 3950 -50 3825 175 
Q 4350 200 4462 225 
Q 4575 250 4600 575 
L 4775 3425 
L 3950 3425 
Q 3925 2300 3600 1300 
Q 3275 300 2475 -500 
Q 2325 -300 1875 -150 
Q 2450 150 2925 1075 
Q 3400 2000 3450 3425 
Q 2975 3425 2500 3400 
L 2500 3850 
Q 2975 3825 3475 3825 
z
M 1025 3475 
Q 1025 4675 1000 5075 
L 1550 5075 
Q 1525 4675 1525 3475 
Q 2000 3475 2325 3500 
L 2325 3050 
Q 2000 3075 1525 3075 
L 1525 325 
Q 1525 -25 1550 -575 
L 1000 -575 
Q 1025 -25 1025 325 
L 1025 3075 
Q 525 3075 225 3050 
L 225 3500 
Q 525 3475 1025 3475 
z
M 2975 2500 
Q 2825 2300 2500 1225 
Q 2250 1325 2025 1350 
Q 2375 2275 2425 2625 
Q 2625 2550 2975 2500 
z
M 5725 2675 
Q 6100 1875 6200 1500 
Q 5925 1450 5725 1325 
Q 5575 1850 5300 2475 
Q 5525 2550 5725 2675 
z
" id="SimHei-534f" transform="scale(0.015625)"/>
       <path d="M 2900 4325 
Q 2950 3750 3050 3312 
Q 3150 2875 3350 2425 
Q 3550 1975 3975 1400 
Q 4300 2025 4437 2537 
Q 4575 3050 4675 3550 
Q 4775 4050 4850 4700 
Q 5125 4625 5500 4575 
Q 5350 4350 5300 4137 
Q 5250 3925 5175 3525 
Q 5100 3125 4950 2500 
Q 4800 1875 4350 1000 
Q 4750 600 5150 387 
Q 5550 175 6125 25 
Q 5850 -175 5675 -575 
Q 5025 -200 4725 -12 
Q 4425 175 4000 625 
Q 3550 125 3200 -137 
Q 2850 -400 2450 -675 
Q 2225 -500 1900 -225 
Q 2425 -25 2887 287 
Q 3350 600 3625 1000 
Q 3150 1625 2925 2175 
Q 2700 2725 2587 3187 
Q 2475 3650 2375 4225 
Q 2625 4250 2900 4325 
z
M 1200 -550 
Q 1025 -325 775 -50 
Q 1125 175 1125 550 
L 1125 2775 
L 800 2775 
Q 550 2775 250 2750 
L 250 3250 
Q 550 3200 800 3200 
L 1625 3200 
Q 1600 2775 1600 2225 
L 1600 650 
Q 1875 950 2325 1475 
Q 2425 1350 2650 1075 
Q 2275 700 1900 312 
Q 1525 -75 1200 -550 
z
M 3800 5275 
Q 4075 4075 4225 3300 
Q 3925 3275 3725 3200 
Q 3575 4100 3300 5125 
Q 3525 5200 3800 5275 
z
M 1250 5175 
Q 1650 4500 1850 4100 
Q 1625 4000 1375 3850 
Q 975 4700 825 4925 
Q 1050 5025 1250 5175 
z
" id="SimHei-8bae" transform="scale(0.015625)"/>
      </defs>
      <use xlink:href="#SimHei-7f51"/>
      <use x="100" xlink:href="#SimHei-7edc"/>
      <use x="200" xlink:href="#SimHei-534f"/>
      <use x="300" xlink:href="#SimHei-8bae"/>
     </g>
    </g>
   </g>
   <g id="matplotlib.axis_2">
    <g id="ytick_1">
     <g id="line2d_4">
      <defs>
       <path d="M 0 0 
L -3.5 0 
" id="mbdbdcf4dc5" style="stroke:#000000;stroke-width:0.8;"/>
      </defs>
      <g>
       <use style="stroke:#000000;stroke-width:0.8;" x="57.223438" xlink:href="#mbdbdcf4dc5" y="240.343125"/>
      </g>
     </g>
     <g id="text_5">
      <!-- 0 -->
      <g transform="translate(45.223438 243.780625)scale(0.1 -0.1)">
       <defs>
        <path d="M 225 2537 
Q 250 3200 412 3587 
Q 575 3975 875 4225 
Q 1175 4475 1612 4475 
Q 2050 4475 2375 4112 
Q 2700 3750 2800 3200 
Q 2900 2650 2862 1937 
Q 2825 1225 2612 775 
Q 2400 325 1975 150 
Q 1550 -25 1125 187 
Q 700 400 525 750 
Q 350 1100 275 1487 
Q 200 1875 225 2537 
z
M 750 2687 
Q 675 2000 800 1462 
Q 925 925 1212 700 
Q 1500 475 1800 612 
Q 2100 750 2237 1162 
Q 2375 1575 2375 2062 
Q 2375 2550 2337 2950 
Q 2300 3350 2112 3675 
Q 1925 4000 1612 4012 
Q 1300 4025 1062 3700 
Q 825 3375 750 2687 
z
" id="SimHei-30" transform="scale(0.015625)"/>
       </defs>
       <use xlink:href="#SimHei-30"/>
      </g>
     </g>
    </g>
    <g id="ytick_2">
     <g id="line2d_5">
      <g>
       <use style="stroke:#000000;stroke-width:0.8;" x="57.223438" xlink:href="#mbdbdcf4dc5" y="200.008562"/>
      </g>
     </g>
     <g id="text_6">
      <!-- 20000 -->
      <g transform="translate(25.223438 203.446062)scale(0.1 -0.1)">
       <defs>
        <path d="M 300 250 
Q 325 625 650 925 
Q 975 1225 1475 1862 
Q 1975 2500 2125 2850 
Q 2275 3200 2237 3450 
Q 2200 3700 2000 3862 
Q 1800 4025 1537 4000 
Q 1275 3975 1037 3800 
Q 800 3625 675 3275 
L 200 3350 
Q 400 3925 712 4187 
Q 1025 4450 1450 4475 
Q 1700 4500 1900 4462 
Q 2100 4425 2312 4287 
Q 2525 4150 2662 3875 
Q 2800 3600 2762 3212 
Q 2725 2825 2375 2287 
Q 2025 1750 1025 600 
L 2825 600 
L 2825 150 
L 300 150 
L 300 250 
z
" id="SimHei-32" transform="scale(0.015625)"/>
       </defs>
       <use xlink:href="#SimHei-32"/>
       <use x="50" xlink:href="#SimHei-30"/>
       <use x="100" xlink:href="#SimHei-30"/>
       <use x="150" xlink:href="#SimHei-30"/>
       <use x="200" xlink:href="#SimHei-30"/>
      </g>
     </g>
    </g>
    <g id="ytick_3">
     <g id="line2d_6">
      <g>
       <use style="stroke:#000000;stroke-width:0.8;" x="57.223438" xlink:href="#mbdbdcf4dc5" y="159.673999"/>
      </g>
     </g>
     <g id="text_7">
      <!-- 40000 -->
      <g transform="translate(25.223438 163.111499)scale(0.1 -0.1)">
       <defs>
        <path d="M 2000 1100 
L 75 1100 
L 75 1525 
L 2100 4450 
L 2475 4450 
L 2475 1525 
L 3075 1525 
L 3075 1100 
L 2475 1100 
L 2475 150 
L 2000 150 
L 2000 1100 
z
M 2000 1525 
L 2000 3500 
L 600 1525 
L 2000 1525 
z
" id="SimHei-34" transform="scale(0.015625)"/>
       </defs>
       <use xlink:href="#SimHei-34"/>
       <use x="50" xlink:href="#SimHei-30"/>
       <use x="100" xlink:href="#SimHei-30"/>
       <use x="150" xlink:href="#SimHei-30"/>
       <use x="200" xlink:href="#SimHei-30"/>
      </g>
     </g>
    </g>
    <g id="ytick_4">
     <g id="line2d_7">
      <g>
       <use style="stroke:#000000;stroke-width:0.8;" x="57.223438" xlink:href="#mbdbdcf4dc5" y="119.339435"/>
      </g>
     </g>
     <g id="text_8">
      <!-- 60000 -->
      <g transform="translate(25.223438 122.776935)scale(0.1 -0.1)">
       <defs>
        <path d="M 250 1612 
Q 275 1975 387 2225 
Q 500 2475 725 2850 
L 1750 4450 
L 2325 4450 
L 1275 2800 
Q 1950 2975 2350 2750 
Q 2750 2525 2887 2237 
Q 3025 1950 3037 1612 
Q 3050 1275 2937 950 
Q 2825 625 2537 362 
Q 2250 100 1737 75 
Q 1225 50 862 262 
Q 500 475 362 862 
Q 225 1250 250 1612 
z
M 1025 787 
Q 1250 550 1625 525 
Q 2000 500 2250 775 
Q 2500 1050 2500 1575 
Q 2500 2100 2187 2300 
Q 1875 2500 1487 2450 
Q 1100 2400 925 2075 
Q 750 1750 775 1387 
Q 800 1025 1025 787 
z
" id="SimHei-36" transform="scale(0.015625)"/>
       </defs>
       <use xlink:href="#SimHei-36"/>
       <use x="50" xlink:href="#SimHei-30"/>
       <use x="100" xlink:href="#SimHei-30"/>
       <use x="150" xlink:href="#SimHei-30"/>
       <use x="200" xlink:href="#SimHei-30"/>
      </g>
     </g>
    </g>
    <g id="ytick_5">
     <g id="line2d_8">
      <g>
       <use style="stroke:#000000;stroke-width:0.8;" x="57.223438" xlink:href="#mbdbdcf4dc5" y="79.004872"/>
      </g>
     </g>
     <g id="text_9">
      <!-- 80000 -->
      <g transform="translate(25.223438 82.442372)scale(0.1 -0.1)">
       <defs>
        <path d="M 175 1375 
Q 175 1675 325 1962 
Q 475 2250 825 2425 
Q 525 2600 425 2812 
Q 325 3025 312 3300 
Q 300 3575 387 3775 
Q 475 3975 650 4150 
Q 825 4325 1037 4387 
Q 1250 4450 1500 4450 
Q 1750 4450 1950 4400 
Q 2150 4350 2375 4187 
Q 2600 4025 2700 3725 
Q 2800 3425 2687 3025 
Q 2575 2625 2100 2400 
Q 2525 2275 2700 2012 
Q 2875 1750 2875 1375 
Q 2875 1000 2762 775 
Q 2650 550 2512 400 
Q 2375 250 2137 162 
Q 1900 75 1537 75 
Q 1175 75 912 162 
Q 650 250 475 425 
Q 300 600 237 837 
Q 175 1075 175 1375 
z
M 687 1400 
Q 675 1100 787 875 
Q 900 650 1200 587 
Q 1500 525 1825 600 
Q 2150 675 2275 950 
Q 2400 1225 2362 1500 
Q 2325 1775 2050 1962 
Q 1775 2150 1450 2125 
Q 1125 2100 912 1900 
Q 700 1700 687 1400 
z
M 775 3350 
Q 775 3100 950 2875 
Q 1125 2650 1500 2650 
Q 1875 2650 2062 2875 
Q 2250 3100 2237 3412 
Q 2225 3725 2012 3875 
Q 1800 4025 1437 4000 
Q 1075 3975 925 3787 
Q 775 3600 775 3350 
z
" id="SimHei-38" transform="scale(0.015625)"/>
       </defs>
       <use xlink:href="#SimHei-38"/>
       <use x="50" xlink:href="#SimHei-30"/>
       <use x="100" xlink:href="#SimHei-30"/>
       <use x="150" xlink:href="#SimHei-30"/>
       <use x="200" xlink:href="#SimHei-30"/>
      </g>
     </g>
    </g>
    <g id="ytick_6">
     <g id="line2d_9">
      <g>
       <use style="stroke:#000000;stroke-width:0.8;" x="57.223438" xlink:href="#mbdbdcf4dc5" y="38.670309"/>
      </g>
     </g>
     <g id="text_10">
      <!-- 100000 -->
      <g transform="translate(20.223438 42.107809)scale(0.1 -0.1)">
       <defs>
        <path d="M 1400 3600 
Q 1075 3275 575 2975 
L 575 3450 
Q 1200 3875 1600 4450 
L 1900 4450 
L 1900 150 
L 1400 150 
L 1400 3600 
z
" id="SimHei-31" transform="scale(0.015625)"/>
       </defs>
       <use xlink:href="#SimHei-31"/>
       <use x="50" xlink:href="#SimHei-30"/>
       <use x="100" xlink:href="#SimHei-30"/>
       <use x="150" xlink:href="#SimHei-30"/>
       <use x="200" xlink:href="#SimHei-30"/>
       <use x="250" xlink:href="#SimHei-30"/>
      </g>
     </g>
    </g>
    <g id="text_11">
     <!-- 频数 -->
     <g transform="translate(14.973438 141.623125)rotate(-90)scale(0.1 -0.1)">
      <defs>
       <path d="M 4250 4450 
Q 3575 4450 3125 4425 
L 3125 4850 
Q 3550 4825 3925 4825 
L 5225 4825 
Q 5600 4825 6000 4850 
L 6000 4425 
Q 5600 4450 4700 4450 
Q 4625 4050 4550 3625 
L 5875 3625 
Q 5850 3275 5850 2900 
L 5850 1650 
Q 5850 1300 5875 750 
L 5400 750 
L 5400 3250 
L 3875 3250 
L 3875 800 
L 3400 800 
Q 3425 1275 3425 1650 
L 3425 2825 
Q 3425 3275 3400 3625 
L 4125 3625 
Q 4200 4100 4250 4450 
z
M 1675 2750 
Q 650 2750 350 2725 
L 350 3150 
Q 550 3125 725 3125 
Q 725 4275 700 4625 
L 1200 4625 
Q 1175 4275 1175 3125 
L 1675 3125 
L 1675 4275 
Q 1675 4750 1650 5125 
L 2150 5125 
Q 2125 4750 2125 4250 
Q 2625 4250 3025 4275 
L 3025 3850 
Q 2625 3875 2125 3875 
L 2125 3125 
Q 2850 3125 3150 3150 
L 3150 2725 
Q 2850 2750 2125 2750 
L 1675 2750 
z
M 2150 2600 
Q 2125 2250 2125 1925 
L 2125 1050 
Q 2600 1650 2650 2200 
Q 2875 2100 3175 2075 
Q 2850 1075 2187 450 
Q 1525 -175 700 -500 
Q 550 -250 200 -75 
Q 750 75 1087 237 
Q 1425 400 1675 625 
L 1675 1900 
Q 1675 2250 1650 2600 
L 2150 2600 
z
M 2775 -250 
Q 3400 -75 3737 225 
Q 4075 525 4212 887 
Q 4350 1250 4362 1725 
Q 4375 2200 4350 2750 
Q 4650 2700 4925 2650 
Q 4850 2325 4837 1975 
Q 4825 1625 4750 1112 
Q 4675 600 4300 162 
Q 3925 -275 3250 -650 
Q 3075 -450 2775 -250 
z
M 5850 -650 
Q 5550 -275 4800 250 
Q 4975 425 5075 600 
Q 5825 75 6200 -250 
Q 5975 -425 5850 -650 
z
M 400 1175 
Q 650 1550 900 2375 
Q 1125 2275 1375 2225 
Q 1000 1325 850 1025 
Q 650 1150 400 1175 
z
" id="SimHei-9891" transform="scale(0.015625)"/>
       <path d="M 4525 4925 
Q 4475 4800 4400 4587 
Q 4325 4375 4175 3825 
L 5325 3825 
Q 5575 3825 5925 3850 
L 5925 3400 
Q 5650 3425 5500 3425 
Q 5500 3025 5362 2162 
Q 5225 1300 4875 675 
Q 5125 375 5437 137 
Q 5750 -100 6025 -200 
Q 5725 -425 5625 -625 
Q 5325 -450 5075 -225 
Q 4825 0 4575 325 
Q 4300 25 3987 -187 
Q 3675 -400 3200 -650 
Q 3075 -425 2850 -300 
Q 3225 -150 3650 125 
Q 4075 400 4300 675 
Q 4125 1025 3962 1425 
Q 3800 1825 3675 2475 
Q 3600 2275 3425 1950 
Q 3250 2050 3000 2150 
Q 3400 2850 3650 3675 
Q 3900 4500 3975 5100 
Q 4275 4975 4525 4925 
z
M 2100 2250 
Q 2000 2150 1875 1925 
L 3250 1925 
Q 3100 1300 2725 675 
Q 3125 525 3350 400 
Q 3225 225 3125 25 
Q 2900 175 2450 325 
Q 1950 -225 725 -650 
Q 600 -375 400 -275 
Q 1575 0 2000 475 
Q 1300 650 850 775 
Q 1000 1000 1250 1525 
Q 1000 1525 425 1500 
L 425 1950 
Q 900 1925 1400 1925 
Q 1500 2150 1550 2425 
Q 1825 2325 2100 2250 
z
M 1775 3950 
Q 1775 4550 1750 5100 
L 2250 5100 
Q 2225 4575 2225 3950 
Q 3075 3950 3425 3975 
L 3425 3525 
Q 3075 3550 2225 3550 
Q 2225 2825 2250 2425 
L 1750 2425 
Q 1775 2775 1775 3300 
Q 1650 3100 1300 2787 
Q 950 2475 650 2300 
Q 525 2525 275 2625 
Q 500 2700 875 2975 
Q 1250 3250 1450 3550 
Q 950 3550 500 3525 
L 500 3975 
Q 925 3950 1775 3950 
z
M 3975 3175 
Q 4200 1700 4600 1125 
Q 4850 1700 4937 2287 
Q 5025 2875 5050 3425 
L 4075 3425 
L 3975 3175 
z
M 1450 1000 
Q 1750 925 2275 800 
Q 2475 1050 2650 1525 
L 1725 1525 
Q 1600 1275 1450 1000 
z
M 3325 4825 
Q 3200 4625 3125 4450 
Q 3050 4275 2925 4025 
Q 2725 4125 2525 4175 
Q 2725 4500 2900 5000 
Q 3150 4875 3325 4825 
z
M 2575 3375 
Q 2900 3050 3200 2725 
Q 3050 2600 2875 2425 
Q 2525 2850 2300 3100 
Q 2450 3225 2575 3375 
z
M 925 5000 
Q 1275 4650 1500 4300 
L 1125 4075 
Q 950 4425 600 4725 
Q 825 4875 925 5000 
z
" id="SimHei-6570" transform="scale(0.015625)"/>
      </defs>
      <use xlink:href="#SimHei-9891"/>
      <use x="100" xlink:href="#SimHei-6570"/>
     </g>
    </g>
   </g>
   <g id="patch_9">
    <path d="M 57.223438 240.343125 
L 57.223438 22.903125 
" style="fill:none;stroke:#000000;stroke-linecap:square;stroke-linejoin:miter;stroke-width:0.8;"/>
   </g>
   <g id="patch_10">
    <path d="M 392.023438 240.343125 
L 392.023438 22.903125 
" style="fill:none;stroke:#000000;stroke-linecap:square;stroke-linejoin:miter;stroke-width:0.8;"/>
   </g>
   <g id="patch_11">
    <path d="M 57.223437 240.343125 
L 392.023438 240.343125 
" style="fill:none;stroke:#000000;stroke-linecap:square;stroke-linejoin:miter;stroke-width:0.8;"/>
   </g>
   <g id="patch_12">
    <path d="M 57.223437 22.903125 
L 392.023438 22.903125 
" style="fill:none;stroke:#000000;stroke-linecap:square;stroke-linejoin:miter;stroke-width:0.8;"/>
   </g>
   <g id="text_12">
    <!-- 各网络协议遭受攻击情况 -->
    <g transform="translate(158.623438 16.903125)scale(0.12 -0.12)">
     <defs>
      <path d="M 5100 4425 
Q 4850 4000 4525 3600 
Q 4200 3200 3675 2750 
Q 4050 2500 4750 2325 
Q 5450 2150 6050 2125 
Q 5825 1825 5775 1600 
Q 5050 1750 4412 1962 
Q 3775 2175 3300 2475 
Q 2750 2150 2000 1875 
Q 1250 1600 550 1425 
Q 475 1625 275 1850 
Q 900 1950 1662 2200 
Q 2425 2450 2950 2750 
Q 2525 3150 2100 3900 
Q 1900 3575 1675 3300 
Q 1450 3025 1250 2800 
Q 1050 3000 850 3100 
Q 1200 3400 1587 3950 
Q 1975 4500 2175 5225 
Q 2450 5075 2725 5000 
Q 2600 4850 2375 4425 
L 5100 4425 
z
M 4975 1675 
Q 4950 1125 4950 400 
Q 4950 -325 4975 -575 
L 4475 -575 
L 4475 -225 
L 2050 -225 
L 2050 -625 
L 1550 -625 
Q 1575 -275 1575 400 
Q 1575 1075 1550 1675 
L 4975 1675 
z
M 4475 200 
L 4475 1250 
L 2050 1250 
L 2050 200 
L 4475 200 
z
M 3325 3000 
Q 3875 3450 4300 4025 
L 2500 4025 
Q 2975 3275 3325 3000 
z
" id="SimHei-5404" transform="scale(0.015625)"/>
      <path d="M 3175 4750 
Q 3175 4925 3150 5175 
L 3650 5175 
Q 3625 4875 3625 4750 
L 4175 4750 
Q 4175 4875 4150 5175 
L 4650 5175 
Q 4625 4850 4625 4750 
Q 5375 4750 5800 4775 
L 5800 4375 
Q 5375 4400 4625 4400 
L 4625 4075 
L 5625 4075 
Q 5600 3675 5600 3275 
Q 5600 2900 5625 2450 
L 2175 2450 
Q 2200 2900 2200 3275 
Q 2200 3675 2175 4075 
L 3175 4075 
L 3175 4400 
Q 2350 4400 1950 4375 
L 1950 4775 
Q 2475 4750 3175 4750 
z
M 5400 2100 
Q 5375 1675 5375 1200 
Q 5375 750 5400 300 
L 2500 300 
Q 2525 775 2525 1225 
Q 2525 1700 2500 2100 
L 5400 2100 
z
M 250 -25 
Q 625 250 1225 575 
L 1225 2575 
Q 700 2575 350 2550 
L 350 2975 
Q 850 2950 1700 2950 
Q 1675 2500 1675 2200 
L 1675 625 
Q 2225 0 3762 -25 
Q 5300 -50 6075 75 
Q 5925 -250 5900 -475 
Q 4875 -500 4225 -475 
Q 3575 -450 3137 -412 
Q 2700 -375 2362 -237 
Q 2025 -100 1775 75 
Q 1525 250 1250 87 
Q 975 -75 625 -425 
Q 475 -225 250 -25 
z
M 4925 675 
L 4925 1025 
L 2950 1025 
L 2950 675 
L 4925 675 
z
M 4925 1375 
L 4925 1725 
L 2950 1725 
L 2950 1375 
L 4925 1375 
z
M 1775 3950 
Q 1575 3800 1375 3675 
Q 1075 4200 600 4650 
Q 775 4750 950 4925 
Q 1625 4225 1775 3950 
z
M 4175 4075 
L 4175 4400 
L 3625 4400 
L 3625 4075 
L 4175 4075 
z
M 4175 3425 
L 4175 3750 
L 3625 3750 
L 3625 3425 
L 4175 3425 
z
M 4175 2800 
L 4175 3100 
L 3625 3100 
L 3625 2800 
L 4175 2800 
z
M 3175 2800 
L 3175 3100 
L 2650 3100 
L 2650 2800 
L 3175 2800 
z
M 5150 2800 
L 5150 3100 
L 4625 3100 
L 4625 2800 
L 5150 2800 
z
M 3175 3425 
L 3175 3700 
L 2650 3700 
L 2650 3425 
L 3175 3425 
z
M 5150 3425 
L 5150 3700 
L 4625 3700 
L 4625 3425 
L 5150 3425 
z
" id="SimHei-906d" transform="scale(0.015625)"/>
      <path d="M 4775 2075 
Q 4375 1000 3650 350 
Q 4425 -25 5925 -25 
Q 5675 -275 5575 -525 
Q 4825 -475 4250 -325 
Q 3675 -175 3200 75 
Q 2550 -250 2075 -375 
Q 1600 -500 875 -600 
Q 850 -375 575 -125 
Q 1400 -75 1950 62 
Q 2500 200 2800 375 
Q 2300 800 1900 1625 
Q 1750 1625 1500 1600 
L 1500 2100 
Q 2000 2075 2675 2075 
L 4775 2075 
z
M 5325 4150 
Q 5050 3875 4875 3625 
Q 4700 3375 4500 3100 
L 5850 3100 
Q 5825 2775 5825 2525 
Q 5825 2275 5850 1975 
L 5350 1975 
L 5350 2650 
L 1075 2650 
L 1075 1900 
L 575 1900 
Q 600 2225 600 2475 
Q 600 2725 575 3100 
L 3925 3100 
Q 4125 3350 4312 3675 
Q 4500 4000 4675 4425 
Q 4875 4300 5325 4150 
z
M 5625 4625 
Q 4525 4575 3387 4475 
Q 2250 4375 875 4250 
Q 825 4525 650 4750 
Q 2075 4750 3400 4875 
Q 4725 5000 5275 5175 
Q 5450 4800 5625 4625 
z
M 3225 600 
Q 3675 900 4025 1625 
L 2425 1625 
Q 2725 925 3225 600 
z
M 3175 4350 
Q 3475 3775 3600 3500 
Q 3325 3425 3100 3300 
Q 3000 3625 2700 4125 
Q 2950 4225 3175 4350 
z
M 1750 4200 
Q 2025 3650 2125 3375 
Q 1825 3300 1625 3200 
Q 1575 3450 1275 4025 
Q 1525 4100 1750 4200 
z
" id="SimHei-53d7" transform="scale(0.015625)"/>
      <path d="M 3150 2875 
Q 3000 2500 2750 2175 
Q 2525 2375 2325 2450 
Q 2625 2800 2962 3550 
Q 3300 4300 3525 5225 
Q 3750 5100 4075 5025 
Q 4000 4925 3875 4625 
L 3625 4025 
L 5300 4025 
Q 5675 4025 6075 4050 
L 6075 3575 
Q 5600 3600 5375 3600 
Q 5325 2975 5125 2225 
Q 4925 1475 4575 925 
Q 4800 675 5200 400 
Q 5600 125 6150 -125 
Q 5950 -275 5750 -575 
Q 5475 -400 5062 -100 
Q 4650 200 4275 575 
Q 3800 150 3337 -150 
Q 2875 -450 2500 -625 
Q 2375 -375 2150 -175 
Q 2600 -50 3112 250 
Q 3625 550 3950 925 
Q 3700 1350 3475 1887 
Q 3250 2425 3150 2875 
z
M 2825 1400 
Q 2800 1175 2825 975 
Q 1875 725 1350 587 
Q 825 450 450 300 
Q 350 675 250 850 
Q 850 925 1375 1050 
L 1375 3850 
Q 775 3850 425 3825 
L 425 4275 
Q 825 4250 1175 4250 
L 2000 4250 
Q 2350 4250 2775 4275 
L 2775 3825 
Q 2375 3850 1850 3850 
L 1850 1150 
Q 2325 1275 2825 1400 
z
M 4275 1275 
Q 4525 1700 4687 2312 
Q 4850 2925 4900 3600 
L 3475 3600 
L 3400 3375 
Q 3500 2875 3787 2225 
Q 4075 1575 4275 1275 
z
" id="SimHei-653b" transform="scale(0.015625)"/>
      <path d="M 2950 4075 
L 2950 4575 
Q 2925 4800 2925 5100 
L 3450 5100 
Q 3425 4800 3425 4575 
L 3425 4075 
L 4725 4075 
Q 5175 4075 5525 4100 
L 5525 3625 
Q 5175 3650 4725 3650 
L 3425 3650 
L 3425 2600 
L 5325 2600 
Q 5825 2600 6150 2625 
L 6150 2175 
Q 5825 2200 5325 2200 
L 3425 2200 
L 3425 200 
L 4825 200 
L 4825 1225 
Q 4825 1375 4800 1675 
L 5350 1675 
Q 5325 1350 5325 1225 
L 5325 175 
Q 5325 -200 5350 -575 
L 4825 -575 
L 4825 -200 
L 1050 -200 
Q 1075 100 1075 425 
L 1075 1200 
Q 1075 1300 1050 1650 
L 1600 1650 
Q 1575 1300 1575 1200 
L 1575 200 
L 2950 200 
L 2950 2200 
L 1150 2200 
Q 600 2200 250 2175 
L 250 2625 
Q 600 2600 1125 2600 
L 2950 2600 
L 2950 3650 
L 1675 3650 
Q 1200 3650 875 3625 
L 875 4125 
Q 1175 4100 1675 4075 
L 2950 4075 
z
" id="SimHei-51fb" transform="scale(0.015625)"/>
      <path d="M 2775 1475 
Q 2775 2050 2750 2525 
L 5600 2525 
Q 5575 2100 5575 1725 
L 5575 -150 
Q 5575 -425 5375 -500 
Q 5175 -575 4875 -625 
Q 4850 -400 4700 -150 
Q 5050 -150 5100 -75 
Q 5150 0 5150 475 
L 3225 475 
L 3225 -625 
L 2750 -625 
Q 2775 -50 2775 375 
L 2775 1475 
z
M 2375 3250 
Q 2975 3225 3475 3225 
L 3975 3225 
L 3975 3625 
L 3500 3625 
Q 3075 3625 2625 3600 
L 2625 4025 
Q 3075 4000 3500 4000 
L 3975 4000 
L 3975 4350 
L 3450 4350 
Q 3050 4350 2475 4325 
L 2475 4750 
Q 3075 4725 3450 4725 
L 3975 4725 
Q 3975 4975 3950 5225 
L 4475 5225 
Q 4450 4975 4450 4725 
L 5125 4725 
Q 5550 4725 5925 4750 
L 5925 4325 
Q 5550 4350 5125 4350 
L 4450 4350 
L 4450 4000 
L 4925 4000 
Q 5325 4000 5750 4025 
L 5750 3600 
Q 5300 3625 4925 3625 
L 4450 3625 
L 4450 3225 
L 5175 3225 
Q 5775 3225 6150 3250 
L 6150 2825 
Q 5775 2850 5150 2850 
L 3500 2850 
Q 2850 2850 2375 2825 
L 2375 3250 
z
M 1675 5225 
Q 1650 4800 1650 4400 
L 1650 425 
Q 1650 -100 1675 -600 
L 1150 -600 
Q 1200 -100 1200 425 
L 1200 4325 
Q 1200 4825 1150 5225 
L 1675 5225 
z
M 5125 850 
L 5125 1325 
L 3225 1325 
L 3225 850 
L 5125 850 
z
M 5125 1700 
L 5125 2150 
L 3225 2150 
L 3225 1700 
L 5125 1700 
z
M 1050 3900 
Q 1000 3675 725 2275 
Q 500 2350 250 2375 
Q 425 2750 575 3975 
Q 800 3925 1050 3900 
z
M 1975 3125 
Q 1925 3425 1775 3975 
Q 1950 4000 2200 4075 
Q 2350 3550 2450 3275 
Q 2175 3200 1975 3125 
z
" id="SimHei-60c5" transform="scale(0.015625)"/>
      <path d="M 5450 4875 
Q 5425 4500 5425 3675 
Q 5425 2850 5450 2375 
L 4575 2375 
L 4575 400 
Q 4575 50 4762 25 
Q 4950 0 5200 12 
Q 5450 25 5500 187 
Q 5550 350 5575 825 
Q 5850 675 6150 600 
Q 5975 -175 5775 -287 
Q 5575 -400 5175 -412 
Q 4775 -425 4437 -362 
Q 4100 -300 4100 200 
L 4100 2375 
L 3475 2375 
Q 3500 150 1600 -625 
Q 1525 -375 1275 -150 
Q 3000 375 3000 2375 
L 2325 2375 
Q 2350 2850 2350 3675 
Q 2350 4525 2325 4875 
L 5450 4875 
z
M 4900 2775 
L 4900 4475 
L 2850 4475 
L 2850 2775 
L 4900 2775 
z
M 2025 2200 
Q 1750 1725 1350 1000 
Q 950 275 775 0 
Q 525 175 300 300 
Q 800 975 1600 2500 
Q 1850 2300 2025 2200 
z
M 950 4950 
Q 1100 4775 1350 4462 
Q 1600 4150 1850 3800 
Q 1575 3625 1375 3450 
Q 1075 4025 525 4600 
Q 775 4825 950 4950 
z
" id="SimHei-51b5" transform="scale(0.015625)"/>
     </defs>
     <use xlink:href="#SimHei-5404"/>
     <use x="100" xlink:href="#SimHei-7f51"/>
     <use x="200" xlink:href="#SimHei-7edc"/>
     <use x="300" xlink:href="#SimHei-534f"/>
     <use x="400" xlink:href="#SimHei-8bae"/>
     <use x="500" xlink:href="#SimHei-906d"/>
     <use x="600" xlink:href="#SimHei-53d7"/>
     <use x="700" xlink:href="#SimHei-653b"/>
     <use x="800" xlink:href="#SimHei-51fb"/>
     <use x="900" xlink:href="#SimHei-60c5"/>
     <use x="1000" xlink:href="#SimHei-51b5"/>
    </g>
   </g>
   <g id="legend_1">
    <g id="patch_13">
     <path d="M 323.023438 57.403125 
L 385.023438 57.403125 
Q 387.023438 57.403125 387.023438 55.403125 
L 387.023438 29.903125 
Q 387.023438 27.903125 385.023438 27.903125 
L 323.023438 27.903125 
Q 321.023438 27.903125 321.023438 29.903125 
L 321.023438 55.403125 
Q 321.023438 57.403125 323.023438 57.403125 
z
" style="fill:#ffffff;opacity:0.8;stroke:#cccccc;stroke-linejoin:miter;"/>
    </g>
    <g id="patch_14">
     <path d="M 325.023438 38.903125 
L 345.023438 38.903125 
L 345.023438 31.903125 
L 325.023438 31.903125 
z
" style="fill:#5d887b;"/>
    </g>
    <g id="text_13">
     <!-- Normal -->
     <g transform="translate(353.023438 38.903125)scale(0.1 -0.1)">
      <defs>
       <path d="M 2850 125 
L 2225 125 
L 850 3225 
L 825 3225 
L 825 125 
L 250 125 
L 250 4400 
L 875 4400 
L 2250 1300 
L 2275 1300 
L 2275 4400 
L 2850 4400 
L 2850 125 
z
" id="SimHei-4e" transform="scale(0.015625)"/>
       <path d="M 2925 1525 
Q 2925 875 2525 475 
Q 2125 75 1575 75 
Q 1025 75 625 475 
Q 225 875 225 1525 
Q 225 2175 625 2575 
Q 1025 2975 1575 2975 
Q 2125 2975 2525 2575 
Q 2925 2175 2925 1525 
z
M 2375 1525 
Q 2375 2025 2125 2275 
Q 1875 2525 1575 2525 
Q 1275 2525 1025 2275 
Q 775 2025 775 1525 
Q 775 1025 1025 775 
Q 1275 525 1575 525 
Q 1875 525 2125 775 
Q 2375 1025 2375 1525 
z
" id="SimHei-6f" transform="scale(0.015625)"/>
       <path d="M 2500 2425 
Q 2025 2500 1700 2287 
Q 1375 2075 1150 1550 
L 1150 125 
L 650 125 
L 650 2925 
L 1150 2925 
L 1150 2200 
Q 1375 2600 1712 2787 
Q 2050 2975 2500 2975 
L 2500 2425 
z
" id="SimHei-72" transform="scale(0.015625)"/>
       <path d="M 2875 125 
L 2275 125 
Q 2225 175 2200 262 
Q 2175 350 2175 475 
Q 2000 275 1750 175 
Q 1500 75 1225 75 
Q 825 75 550 275 
Q 275 475 275 850 
Q 275 1225 525 1450 
Q 775 1675 1300 1750 
Q 1650 1800 1912 1875 
Q 2175 1950 2175 2075 
Q 2175 2225 2062 2375 
Q 1950 2525 1575 2525 
Q 1275 2525 1137 2412 
Q 1000 2300 950 2100 
L 400 2100 
Q 450 2500 762 2737 
Q 1075 2975 1575 2975 
Q 2125 2975 2400 2725 
Q 2675 2475 2675 2025 
L 2675 650 
Q 2675 500 2725 375 
Q 2775 250 2875 125 
z
M 2175 1050 
L 2175 1550 
Q 2025 1500 1887 1462 
Q 1750 1425 1425 1375 
Q 1050 1325 937 1200 
Q 825 1075 825 900 
Q 825 750 937 637 
Q 1050 525 1275 525 
Q 1500 525 1762 650 
Q 2025 775 2175 1050 
z
" id="SimHei-61" transform="scale(0.015625)"/>
       <path d="M 1825 125 
L 1325 125 
L 1325 4400 
L 1825 4400 
L 1825 125 
z
" id="SimHei-6c" transform="scale(0.015625)"/>
      </defs>
      <use xlink:href="#SimHei-4e"/>
      <use x="50" xlink:href="#SimHei-6f"/>
      <use x="100" xlink:href="#SimHei-72"/>
      <use x="150" xlink:href="#SimHei-6d"/>
      <use x="200" xlink:href="#SimHei-61"/>
      <use x="250" xlink:href="#SimHei-6c"/>
     </g>
    </g>
    <g id="patch_15">
     <path d="M 325.023438 52.153125 
L 345.023438 52.153125 
L 345.023438 45.153125 
L 325.023438 45.153125 
z
" style="fill:#b5d3d9;"/>
    </g>
    <g id="text_14">
     <!-- Attack -->
     <g transform="translate(353.023438 52.153125)scale(0.1 -0.1)">
      <defs>
       <path d="M 3075 125 
L 2475 125 
L 2125 1450 
L 1025 1450 
L 675 125 
L 75 125 
L 1325 4450 
L 1825 4450 
L 3075 125 
z
M 2000 1925 
L 1600 3450 
L 1550 3450 
L 1150 1925 
L 2000 1925 
z
" id="SimHei-41" transform="scale(0.015625)"/>
       <path d="M 2925 125 
L 2350 125 
L 1450 1650 
L 875 1100 
L 875 125 
L 375 125 
L 375 4400 
L 875 4400 
L 875 1675 
L 2125 2925 
L 2750 2925 
L 1775 1975 
L 2925 125 
z
" id="SimHei-6b" transform="scale(0.015625)"/>
      </defs>
      <use xlink:href="#SimHei-41"/>
      <use x="50" xlink:href="#SimHei-74"/>
      <use x="100" xlink:href="#SimHei-74"/>
      <use x="150" xlink:href="#SimHei-61"/>
      <use x="200" xlink:href="#SimHei-63"/>
      <use x="250" xlink:href="#SimHei-6b"/>
     </g>
    </g>
   </g>
  </g>
 </g>
 <defs>
  <clipPath id="p17edd04553">
   <rect height="217.44" width="334.8" x="57.223438" y="22.903125"/>
  </clipPath>
 </defs>
</svg>
