<?xml version="1.0" encoding="utf-8" standalone="no"?>
<!DOCTYPE svg PUBLIC "-//W3C//DTD SVG 1.1//EN"
  "http://www.w3.org/Graphics/SVG/1.1/DTD/svg11.dtd">
<svg height="280.8pt" version="1.1" viewBox="0 0 289.524788 280.8" width="289.524788pt" xmlns="http://www.w3.org/2000/svg" xmlns:xlink="http://www.w3.org/1999/xlink">
 <metadata>
  <rdf:RDF xmlns:cc="http://creativecommons.org/ns#" xmlns:dc="http://purl.org/dc/elements/1.1/" xmlns:rdf="http://www.w3.org/1999/02/22-rdf-syntax-ns#">
   <cc:Work>
    <dc:type rdf:resource="http://purl.org/dc/dcmitype/StillImage"/>
    <dc:date>2023-09-26T19:25:37.758562</dc:date>
    <dc:format>image/svg+xml</dc:format>
    <dc:creator>
     <cc:Agent>
      <dc:title>Matplotlib v3.4.3, https://matplotlib.org/</dc:title>
     </cc:Agent>
    </dc:creator>
   </cc:Work>
  </rdf:RDF>
 </metadata>
 <defs>
  <style type="text/css">*{stroke-linecap:butt;stroke-linejoin:round;}</style>
 </defs>
 <g id="figure_1">
  <g id="patch_1">
   <path d="M 0 280.8 
L 289.524788 280.8 
L 289.524788 0 
L 0 0 
z
" style="fill:none;"/>
  </g>
  <g id="axes_1">
   <g id="patch_2">
    <path d="M 140.4 33.84 
C 122.439551 33.84 104.76726 38.38079 89.031447 47.038845 
C 73.295633 55.696899 60.00123 68.194397 50.388223 83.365681 
C 40.775216 98.536964 35.15207 115.895214 34.043262 133.821404 
C 32.934455 151.747594 36.375565 169.666505 44.045637 185.906817 
L 140.4 140.4 
L 140.4 33.84 
z
" style="fill:#1f77b4;"/>
   </g>
   <g id="patch_3">
    <path d="M 44.045637 185.906817 
C 52.363217 203.518137 65.35216 218.516554 81.594565 229.26481 
C 97.836969 240.013065 116.7195 246.105289 136.180898 246.876442 
L 140.4 140.4 
L 44.045637 185.906817 
z
" style="fill:#ff7f0e;"/>
   </g>
   <g id="patch_4">
    <path d="M 136.180898 246.876442 
C 144.193875 247.193955 152.217147 246.605919 160.098205 245.123514 
C 167.979264 243.641108 175.667856 241.273785 183.017837 238.066543 
L 140.4 140.4 
L 136.180898 246.876442 
z
" style="fill:#2ca02c;"/>
   </g>
   <g id="patch_5">
    <path d="M 183.017837 238.066543 
C 188.959532 235.473821 194.652253 232.344291 200.025149 228.716902 
C 205.398045 225.089514 210.428732 220.979378 215.054601 216.43765 
L 140.4 140.4 
L 183.017837 238.066543 
z
" style="fill:#d62728;"/>
   </g>
   <g id="patch_6">
    <path d="M 215.054601 216.43765 
C 219.393562 212.17761 223.359934 207.553983 226.910267 202.61742 
C 230.4606 197.680856 233.581882 192.449448 236.23992 186.980503 
L 140.4 140.4 
L 215.054601 216.43765 
z
" style="fill:#9467bd;"/>
   </g>
   <g id="patch_7">
    <path d="M 236.23992 186.980503 
C 238.016255 183.325674 239.582073 179.572224 240.929699 175.738551 
C 242.277326 171.904877 243.404555 167.997253 244.305863 164.034831 
L 140.4 140.4 
L 236.23992 186.980503 
z
" style="fill:#8c564b;"/>
   </g>
   <g id="patch_8">
    <path d="M 244.305863 164.034831 
C 245.162535 160.268641 245.813809 156.458658 246.256801 152.621754 
C 246.699793 148.78485 246.933848 144.926697 246.957929 141.06438 
L 140.4 140.4 
L 244.305863 164.034831 
z
" style="fill:#e377c2;"/>
   </g>
   <g id="patch_9">
    <path d="M 246.957929 141.06438 
C 246.974926 138.338323 246.887306 135.612618 246.695262 132.893281 
C 246.503219 130.173944 246.206894 127.462977 245.80694 124.766366 
L 140.4 140.4 
L 246.957929 141.06438 
z
" style="fill:#7f7f7f;"/>
   </g>
   <g id="patch_10">
    <path d="M 245.80694 124.766366 
C 245.501109 122.704356 245.134838 120.651765 244.708598 118.611241 
C 244.282358 116.570718 243.796334 114.543141 243.251153 112.531129 
L 140.4 140.4 
L 245.80694 124.766366 
z
" style="fill:#bcbd22;"/>
   </g>
   <g id="patch_11">
    <path d="M 243.251153 112.531129 
C 242.84199 111.021098 242.399622 109.520262 241.924371 108.02971 
C 241.44912 106.539159 240.941101 105.059255 240.400683 103.591074 
L 140.4 140.4 
L 243.251153 112.531129 
z
" style="fill:#17becf;"/>
   </g>
   <g id="patch_12">
    <path d="M 240.400683 103.591074 
C 239.863937 102.13287 239.295361 100.68658 238.695361 99.253243 
C 238.095362 97.819906 237.464083 96.399865 236.801977 94.994137 
L 140.4 140.4 
L 240.400683 103.591074 
z
" style="fill:#1f77b4;"/>
   </g>
   <g id="patch_13">
    <path d="M 236.801977 94.994137 
C 236.441491 94.228782 236.071903 93.467747 235.693292 92.711195 
C 235.314681 91.954642 234.927073 91.202625 234.530552 90.455303 
L 140.4 140.4 
L 236.801977 94.994137 
z
" style="fill:#ff7f0e;"/>
   </g>
   <g id="patch_14">
    <path d="M 234.530552 90.455303 
C 234.172646 89.780759 233.807499 89.110081 233.435176 88.443387 
C 233.062852 87.776692 232.683373 87.114019 232.296804 86.455482 
L 140.4 140.4 
L 234.530552 90.455303 
z
" style="fill:#2ca02c;"/>
   </g>
   <g id="patch_15">
    <path d="M 232.296804 86.455482 
C 231.947009 85.859591 231.591426 85.267116 231.230106 84.678142 
C 230.868786 84.089168 230.501746 83.503722 230.129038 82.921888 
L 140.4 140.4 
L 232.296804 86.455482 
z
" style="fill:#d62728;"/>
   </g>
   <g id="patch_16">
    <path d="M 230.129038 82.921888 
C 229.77831 82.374367 229.422578 81.830068 229.061887 81.289059 
C 228.701196 80.74805 228.335561 80.210354 227.965027 79.676038 
L 140.4 140.4 
L 230.129038 82.921888 
z
" style="fill:#9467bd;"/>
   </g>
   <g id="patch_17">
    <path d="M 227.965027 79.676038 
C 227.60661 79.159193 227.243623 78.645531 226.87611 78.135114 
C 226.508597 77.624696 226.136572 77.117542 225.760079 76.613712 
L 140.4 140.4 
L 227.965027 79.676038 
z
" style="fill:#8c564b;"/>
   </g>
   <g id="patch_18">
    <path d="M 225.760079 76.613712 
C 225.3926 76.121945 225.020879 75.633363 224.644957 75.148021 
C 224.269035 74.662678 223.888926 74.180594 223.504672 73.701821 
L 140.4 140.4 
L 225.760079 76.613712 
z
" style="fill:#e377c2;"/>
   </g>
   <g id="patch_19">
    <path d="M 223.504672 73.701821 
C 223.122636 73.225811 222.736517 72.753093 222.346359 72.283718 
C 221.9562 71.814343 221.562016 71.348328 221.16385 70.885727 
L 140.4 140.4 
L 223.504672 73.701821 
z
" style="fill:#7f7f7f;"/>
   </g>
   <g id="patch_20">
    <path d="M 221.16385 70.885727 
C 220.766839 70.424468 220.365885 69.966618 219.96103 69.512229 
C 219.556176 69.05784 219.147436 68.606927 218.734856 68.159541 
L 140.4 140.4 
L 221.16385 70.885727 
z
" style="fill:#bcbd22;"/>
   </g>
   <g id="patch_21">
    <path d="M 218.734856 68.159541 
C 218.342094 67.733645 217.945866 67.310959 217.54621 66.891525 
C 217.146554 66.472092 216.743485 66.055924 216.337042 65.643065 
L 140.4 140.4 
L 218.734856 68.159541 
z
" style="fill:#17becf;"/>
   </g>
   <g id="patch_22">
    <path d="M 216.337042 65.643065 
C 215.934949 65.234625 215.529567 64.829435 215.120936 64.427536 
C 214.712305 64.025636 214.300438 63.62704 213.885376 63.231787 
L 140.4 140.4 
L 216.337042 65.643065 
z
" style="fill:#1f77b4;"/>
   </g>
   <g id="patch_23">
    <path d="M 213.885376 63.231787 
C 213.481219 62.846918 213.074045 62.465231 212.663892 62.08676 
C 212.253738 61.708289 211.840618 61.333046 211.424569 60.961066 
L 140.4 140.4 
L 213.885376 63.231787 
z
" style="fill:#ff7f0e;"/>
   </g>
   <g id="patch_24">
    <path d="M 211.424569 60.961066 
C 211.017105 60.596762 210.606844 60.235598 210.193823 59.877606 
C 209.780802 59.519615 209.365032 59.164807 208.946552 58.813213 
L 140.4 140.4 
L 211.424569 60.961066 
z
" style="fill:#2ca02c;"/>
   </g>
   <g id="patch_25">
    <path d="M 208.946552 58.813213 
C 208.538245 58.470167 208.127368 58.13019 207.713957 57.793313 
C 207.300546 57.456435 206.884612 57.122666 206.46619 56.792033 
L 140.4 140.4 
L 208.946552 58.813213 
z
" style="fill:#d62728;"/>
   </g>
   <g id="patch_26">
    <path d="M 206.46619 56.792033 
C 206.070705 56.479525 205.673007 56.169826 205.273128 55.862961 
C 204.873248 55.556096 204.471196 55.252072 204.067002 54.950913 
L 140.4 140.4 
L 206.46619 56.792033 
z
" style="fill:#9467bd;"/>
   </g>
   <g id="patch_27">
    <path d="M 204.067002 54.950913 
C 203.66707 54.652929 203.265051 54.357756 202.860974 54.065417 
C 202.456898 53.773077 202.050774 53.483578 201.642633 53.196941 
L 140.4 140.4 
L 204.067002 54.950913 
z
" style="fill:#8c564b;"/>
   </g>
   <g id="patch_28">
    <path d="M 201.642633 53.196941 
C 201.247541 52.919468 200.850568 52.644684 200.451741 52.372607 
C 200.052914 52.100529 199.652243 51.831166 199.249755 51.564534 
L 140.4 140.4 
L 201.642633 53.196941 
z
" style="fill:#e377c2;"/>
   </g>
   <g id="patch_29">
    <path d="M 199.249755 51.564534 
C 198.849483 51.299371 198.447423 51.036916 198.043602 50.777187 
C 197.639782 50.517458 197.234212 50.260461 196.826918 50.006214 
L 140.4 140.4 
L 199.249755 51.564534 
z
" style="fill:#7f7f7f;"/>
   </g>
   <g id="patch_30">
    <path d="M 196.826918 50.006214 
C 196.42263 49.753843 196.016653 49.504188 195.609015 49.257265 
C 195.201378 49.010341 194.792088 48.766155 194.381174 48.524723 
L 140.4 140.4 
L 196.826918 50.006214 
z
" style="fill:#bcbd22;"/>
   </g>
   <g id="patch_31">
    <path d="M 194.381174 48.524723 
C 193.97637 48.286882 193.569999 48.051718 193.162087 47.819247 
C 192.754175 47.586777 192.344731 47.357005 191.933782 47.129946 
L 140.4 140.4 
L 194.381174 48.524723 
z
" style="fill:#17becf;"/>
   </g>
   <g id="patch_32">
    <path d="M 191.933782 47.129946 
C 191.529811 46.906743 191.124394 46.686167 190.717558 46.468232 
C 190.310721 46.250297 189.902473 46.035008 189.492839 45.822377 
L 140.4 140.4 
L 191.933782 47.129946 
z
" style="fill:#1f77b4;"/>
   </g>
   <g id="patch_33">
    <path d="M 189.492839 45.822377 
C 189.085563 45.610971 188.676927 45.402197 188.266955 45.19607 
C 187.856982 44.989943 187.445683 44.786466 187.033082 44.585652 
L 140.4 140.4 
L 189.492839 45.822377 
z
" style="fill:#ff7f0e;"/>
   </g>
   <g id="patch_34">
    <path d="M 187.033082 44.585652 
C 186.646766 44.397631 186.259317 44.211949 185.870756 44.028615 
C 185.482195 43.84528 185.092528 43.664298 184.701778 43.485677 
L 140.4 140.4 
L 187.033082 44.585652 
z
" style="fill:#2ca02c;"/>
   </g>
   <g id="patch_35">
    <path d="M 184.701778 43.485677 
C 184.317473 43.310002 183.932126 43.136615 183.545759 42.965524 
C 183.159391 42.794434 182.772009 42.625643 182.383634 42.45916 
L 140.4 140.4 
L 184.701778 43.485677 
z
" style="fill:#d62728;"/>
   </g>
   <g id="patch_36">
    <path d="M 182.383634 42.45916 
C 181.996887 42.293376 181.609161 42.129884 181.220477 41.968693 
C 180.831793 41.807502 180.442158 41.648614 180.051592 41.492039 
L 140.4 140.4 
L 182.383634 42.45916 
z
" style="fill:#9467bd;"/>
   </g>
   <g id="patch_37">
    <path d="M 180.051592 41.492039 
C 179.661848 41.335793 179.271184 41.181852 178.879621 41.030224 
C 178.488057 40.878596 178.095601 40.729284 177.702272 40.582296 
L 140.4 140.4 
L 180.051592 41.492039 
z
" style="fill:#8c564b;"/>
   </g>
   <g id="patch_38">
    <path d="M 177.702272 40.582296 
C 177.320561 40.439649 176.938034 40.299192 176.554712 40.160934 
C 176.171389 40.022675 175.787277 39.886616 175.402393 39.752764 
L 140.4 140.4 
L 177.702272 40.582296 
z
" style="fill:#e377c2;"/>
   </g>
   <g id="patch_39">
    <path d="M 175.402393 39.752764 
C 175.02504 39.621531 174.646952 39.492421 174.268147 39.36544 
C 173.889341 39.23846 173.509825 39.11361 173.129616 38.990899 
L 140.4 140.4 
L 175.402393 39.752764 
z
" style="fill:#7f7f7f;"/>
   </g>
   <g id="patch_40">
    <path d="M 173.129616 38.990899 
C 172.760366 38.871724 172.390467 38.754567 172.019938 38.639432 
C 171.649408 38.524298 171.278252 38.411188 170.906487 38.300108 
L 140.4 140.4 
L 173.129616 38.990899 
z
" style="fill:#bcbd22;"/>
   </g>
   <g id="patch_41">
    <path d="M 170.906487 38.300108 
C 170.538117 38.190043 170.169153 38.081972 169.799614 37.9759 
C 169.430074 37.869828 169.059962 37.765756 168.689296 37.66369 
L 140.4 140.4 
L 170.906487 38.300108 
z
" style="fill:#17becf;"/>
   </g>
   <g id="patch_42">
    <path d="M 168.689296 37.66369 
C 168.319484 37.561859 167.949124 37.462026 167.578234 37.364195 
C 167.207344 37.266363 166.835928 37.170535 166.464003 37.076714 
L 140.4 140.4 
L 168.689296 37.66369 
z
" style="fill:#1f77b4;"/>
   </g>
   <g id="patch_43">
    <path d="M 166.464003 37.076714 
C 166.095513 36.98376 165.726529 36.892778 165.357067 36.803772 
C 164.987604 36.714766 164.617668 36.627737 164.247274 36.542689 
L 140.4 140.4 
L 166.464003 37.076714 
z
" style="fill:#ff7f0e;"/>
   </g>
   <g id="patch_44">
    <path d="M 164.247274 36.542689 
C 163.893284 36.461407 163.538882 36.381936 163.18408 36.304278 
C 162.829278 36.22662 162.474081 36.150777 162.118503 36.076751 
L 140.4 140.4 
L 164.247274 36.542689 
z
" style="fill:#2ca02c;"/>
   </g>
   <g id="patch_45">
    <path d="M 162.118503 36.076751 
C 161.767262 36.003628 161.415654 35.93228 161.063692 35.862708 
C 160.71173 35.793136 160.359419 35.725343 160.006773 35.659329 
L 140.4 140.4 
L 162.118503 36.076751 
z
" style="fill:#d62728;"/>
   </g>
   <g id="patch_46">
    <path d="M 160.006773 35.659329 
C 159.675024 35.597228 159.342982 35.536703 159.010658 35.477757 
C 158.678334 35.418811 158.345732 35.361444 158.012862 35.305658 
L 140.4 140.4 
L 160.006773 35.659329 
z
" style="fill:#9467bd;"/>
   </g>
   <g id="patch_47">
    <path d="M 158.012862 35.305658 
C 157.696593 35.252654 157.380086 35.201078 157.063351 35.150932 
C 156.746616 35.100786 156.429657 35.052069 156.112482 35.004784 
L 140.4 140.4 
L 158.012862 35.305658 
z
" style="fill:#8c564b;"/>
   </g>
   <g id="patch_48">
    <path d="M 156.112482 35.004784 
C 155.79706 34.957761 155.481428 34.912153 155.165596 34.867963 
C 154.849764 34.823773 154.533735 34.781002 154.21752 34.739649 
L 140.4 140.4 
L 156.112482 35.004784 
z
" style="fill:#e377c2;"/>
   </g>
   <g id="patch_49">
    <path d="M 154.21752 34.739649 
C 153.912723 34.69979 153.607755 34.66125 153.302624 34.62403 
C 152.997494 34.58681 152.692204 34.55091 152.386763 34.516332 
L 140.4 140.4 
L 154.21752 34.739649 
z
" style="fill:#7f7f7f;"/>
   </g>
   <g id="patch_50">
    <path d="M 152.386763 34.516332 
C 152.11301 34.485341 151.839138 34.455413 151.565153 34.426546 
C 151.291169 34.39768 151.017073 34.369876 150.742873 34.343135 
L 140.4 140.4 
L 152.386763 34.516332 
z
" style="fill:#bcbd22;"/>
   </g>
   <g id="patch_51">
    <path d="M 150.742873 34.343135 
C 150.479252 34.317426 150.215537 34.292701 149.951732 34.268958 
C 149.687928 34.245216 149.424035 34.222457 149.160061 34.200683 
L 140.4 140.4 
L 150.742873 34.343135 
z
" style="fill:#17becf;"/>
   </g>
   <g id="patch_52">
    <path d="M 149.160061 34.200683 
C 148.898735 34.179127 148.637331 34.158536 148.375853 34.138909 
C 148.114375 34.119283 147.852826 34.100622 147.59121 34.082927 
L 140.4 140.4 
L 149.160061 34.200683 
z
" style="fill:#1f77b4;"/>
   </g>
   <g id="patch_53">
    <path d="M 147.59121 34.082927 
C 147.357877 34.067144 147.124493 34.05213 146.891062 34.037884 
C 146.65763 34.023638 146.424152 34.010161 146.190632 33.997452 
L 140.4 140.4 
L 147.59121 34.082927 
z
" style="fill:#ff7f0e;"/>
   </g>
   <g id="patch_54">
    <path d="M 146.190632 33.997452 
C 145.973918 33.985658 145.757168 33.974526 145.540386 33.964057 
C 145.323604 33.953587 145.106791 33.94378 144.889949 33.934635 
L 140.4 140.4 
L 146.190632 33.997452 
z
" style="fill:#2ca02c;"/>
   </g>
   <g id="patch_55">
    <path d="M 144.889949 33.934635 
C 144.724441 33.927655 144.558917 33.921061 144.393379 33.914853 
C 144.22784 33.908645 144.062287 33.902823 143.896722 33.897387 
L 140.4 140.4 
L 144.889949 33.934635 
z
" style="fill:#d62728;"/>
   </g>
   <g id="patch_56">
    <path d="M 143.896722 33.897387 
C 143.747978 33.892504 143.599225 33.887932 143.450462 33.883671 
C 143.301699 33.879411 143.152928 33.875462 143.004148 33.871825 
L 140.4 140.4 
L 143.896722 33.897387 
z
" style="fill:#9467bd;"/>
   </g>
   <g id="patch_57">
    <path d="M 143.004148 33.871825 
C 142.927988 33.869963 142.851825 33.868183 142.77566 33.866485 
C 142.699496 33.864786 142.623329 33.86317 142.547161 33.861635 
L 140.4 140.4 
L 143.004148 33.871825 
z
" style="fill:#8c564b;"/>
   </g>
   <g id="patch_58">
    <path d="M 142.547161 33.861635 
C 142.478079 33.860242 142.408995 33.858917 142.339909 33.857659 
C 142.270824 33.856401 142.201738 33.855211 142.13265 33.854087 
L 140.4 140.4 
L 142.547161 33.861635 
z
" style="fill:#e377c2;"/>
   </g>
   <g id="patch_59">
    <path d="M 142.13265 33.854087 
C 142.063563 33.852964 141.994474 33.851907 141.925384 33.850918 
C 141.856295 33.849929 141.787204 33.849007 141.718113 33.848153 
L 140.4 140.4 
L 142.13265 33.854087 
z
" style="fill:#7f7f7f;"/>
   </g>
   <g id="patch_60">
    <path d="M 141.718113 33.848153 
C 141.65345 33.847353 141.588787 33.846612 141.524123 33.845929 
C 141.459459 33.845247 141.394795 33.844624 141.33013 33.844059 
L 140.4 140.4 
L 141.718113 33.848153 
z
" style="fill:#bcbd22;"/>
   </g>
   <g id="patch_61">
    <path d="M 141.33013 33.844059 
C 141.269008 33.843526 141.207886 33.843045 141.146764 33.842617 
C 141.085641 33.842188 141.024518 33.841813 140.963395 33.841489 
L 140.4 140.4 
L 141.33013 33.844059 
z
" style="fill:#17becf;"/>
   </g>
   <g id="patch_62">
    <path d="M 140.963395 33.841489 
C 140.905816 33.841185 140.848236 33.840927 140.790655 33.840716 
C 140.733075 33.840505 140.675495 33.840341 140.617914 33.840223 
L 140.4 140.4 
L 140.963395 33.841489 
z
" style="fill:#1f77b4;"/>
   </g>
   <g id="patch_63">
    <path d="M 140.617914 33.840223 
C 140.609056 33.840205 140.600197 33.840188 140.591339 33.840172 
C 140.58248 33.840156 140.573622 33.840141 140.564763 33.840127 
L 140.4 140.4 
L 140.617914 33.840223 
z
" style="fill:#ff7f0e;"/>
   </g>
   <g id="patch_64">
    <path d="M 140.564763 33.840127 
C 140.557676 33.840116 140.55059 33.840106 140.543503 33.840097 
C 140.536416 33.840087 140.529329 33.840078 140.522242 33.84007 
L 140.4 140.4 
L 140.564763 33.840127 
z
" style="fill:#2ca02c;"/>
   </g>
   <g id="patch_65">
    <path d="M 140.522242 33.84007 
C 140.515155 33.840062 140.508069 33.840055 140.500982 33.840048 
C 140.493895 33.840041 140.486808 33.840035 140.479721 33.84003 
L 140.4 140.4 
L 140.522242 33.84007 
z
" style="fill:#d62728;"/>
   </g>
   <g id="patch_66">
    <path d="M 140.479721 33.84003 
C 140.475292 33.840027 140.470863 33.840023 140.466433 33.840021 
C 140.462004 33.840018 140.457575 33.840015 140.453146 33.840013 
L 140.4 140.4 
L 140.479721 33.84003 
z
" style="fill:#9467bd;"/>
   </g>
   <g id="patch_67">
    <path d="M 140.453146 33.840013 
C 140.450488 33.840012 140.44783 33.840011 140.445173 33.84001 
C 140.442515 33.840008 140.439858 33.840007 140.4372 33.840006 
L 140.4 140.4 
L 140.453146 33.840013 
z
" style="fill:#8c564b;"/>
   </g>
   <g id="patch_68">
    <path d="M 140.4372 33.840006 
C 140.435428 33.840006 140.433657 33.840005 140.431885 33.840005 
C 140.430113 33.840004 140.428342 33.840004 140.42657 33.840003 
L 140.4 140.4 
L 140.4372 33.840006 
z
" style="fill:#e377c2;"/>
   </g>
   <g id="patch_69">
    <path d="M 140.42657 33.840003 
C 140.424798 33.840003 140.423026 33.840002 140.421255 33.840002 
C 140.419483 33.840002 140.417711 33.840001 140.41594 33.840001 
L 140.4 140.4 
L 140.42657 33.840003 
z
" style="fill:#7f7f7f;"/>
   </g>
   <g id="patch_70">
    <path d="M 140.41594 33.840001 
C 140.414168 33.840001 140.412396 33.840001 140.410625 33.840001 
C 140.408853 33.84 140.407081 33.84 140.405309 33.84 
L 140.4 140.4 
L 140.41594 33.840001 
z
" style="fill:#bcbd22;"/>
   </g>
   <g id="patch_71">
    <path d="M 140.405309 33.84 
C 140.404424 33.84 140.403538 33.84 140.402652 33.84 
C 140.401766 33.84 140.40088 33.84 140.399994 33.84 
L 140.4 140.4 
L 140.405309 33.84 
z
" style="fill:#17becf;"/>
   </g>
   <g id="patch_72">
    <path clip-path="url(#p28929f735e)" d="M 140.4 214.992 
C 160.18203 214.992 179.156502 207.132516 193.144509 193.144509 
C 207.132516 179.156502 214.992 160.18203 214.992 140.4 
C 214.992 120.61797 207.132516 101.643498 193.144509 87.655491 
C 179.156502 73.667484 160.18203 65.808 140.4 65.808 
C 120.61797 65.808 101.643498 73.667484 87.655491 87.655491 
C 73.667484 101.643498 65.808 120.61797 65.808 140.4 
C 65.808 160.18203 73.667484 179.156502 87.655491 193.144509 
C 101.643498 207.132516 120.61797 214.992 140.4 214.992 
z
" style="fill:#ffffff;"/>
   </g>
   <g id="matplotlib.axis_1"/>
   <g id="matplotlib.axis_2"/>
   <g id="text_1">
    <!-- http -->
    <g transform="translate(21.387045 80.474749)scale(0.1 -0.1)">
     <defs>
      <path d="M 2800 125 
L 2300 125 
L 2300 1925 
Q 2300 2225 2150 2400 
Q 2000 2575 1750 2575 
Q 1425 2575 1137 2237 
Q 850 1900 850 1400 
L 850 125 
L 350 125 
L 350 4400 
L 850 4400 
L 850 2400 
Q 1050 2675 1287 2825 
Q 1525 2975 1900 2975 
Q 2350 2975 2575 2725 
Q 2800 2475 2800 2100 
L 2800 125 
z
" id="SimHei-68" transform="scale(0.015625)"/>
      <path d="M 2750 200 
Q 2625 150 2462 112 
Q 2300 75 2025 75 
Q 1575 75 1300 325 
Q 1025 575 1025 1025 
L 1025 2525 
L 175 2525 
L 175 2925 
L 1025 2925 
L 1025 3900 
L 1525 3900 
L 1525 2925 
L 2550 2925 
L 2550 2525 
L 1525 2525 
L 1525 1000 
Q 1525 800 1625 662 
Q 1725 525 2000 525 
Q 2275 525 2450 575 
Q 2625 625 2750 700 
L 2750 200 
z
" id="SimHei-74" transform="scale(0.015625)"/>
      <path d="M 2825 1525 
Q 2825 800 2475 425 
Q 2125 50 1625 50 
Q 1350 50 1150 162 
Q 950 275 800 500 
L 800 -800 
L 300 -800 
L 300 2925 
L 800 2925 
L 800 2550 
Q 950 2775 1150 2875 
Q 1350 2975 1625 2975 
Q 2125 2975 2475 2612 
Q 2825 2250 2825 1525 
z
M 2275 1525 
Q 2275 2000 2087 2262 
Q 1900 2525 1525 2525 
Q 1225 2525 1012 2262 
Q 800 2000 800 1525 
Q 800 1050 1012 775 
Q 1225 500 1525 500 
Q 1900 500 2087 775 
Q 2275 1050 2275 1525 
z
" id="SimHei-70" transform="scale(0.015625)"/>
     </defs>
     <use xlink:href="#SimHei-68"/>
     <use x="50" xlink:href="#SimHei-74"/>
     <use x="100" xlink:href="#SimHei-74"/>
     <use x="150" xlink:href="#SimHei-70"/>
    </g>
   </g>
   <g id="text_2">
    <!-- 32.0% -->
    <g transform="translate(51.389989 94.733329)scale(0.1 -0.1)">
     <defs>
      <path d="M 250 1225 
L 700 1300 
Q 800 975 1025 762 
Q 1250 550 1587 562 
Q 1925 575 2125 837 
Q 2325 1100 2300 1437 
Q 2275 1775 2037 1962 
Q 1800 2150 1275 2225 
L 1275 2550 
Q 1800 2600 2037 2825 
Q 2275 3050 2250 3412 
Q 2225 3775 1925 3937 
Q 1625 4100 1287 3975 
Q 950 3850 750 3275 
L 300 3350 
Q 450 3800 712 4100 
Q 975 4400 1425 4450 
Q 1875 4500 2212 4337 
Q 2550 4175 2687 3837 
Q 2825 3500 2725 3100 
Q 2625 2700 2150 2400 
Q 2500 2250 2687 1950 
Q 2875 1650 2812 1162 
Q 2750 675 2375 375 
Q 2000 75 1525 87 
Q 1050 100 700 387 
Q 350 675 250 1225 
z
" id="SimHei-33" transform="scale(0.015625)"/>
      <path d="M 300 250 
Q 325 625 650 925 
Q 975 1225 1475 1862 
Q 1975 2500 2125 2850 
Q 2275 3200 2237 3450 
Q 2200 3700 2000 3862 
Q 1800 4025 1537 4000 
Q 1275 3975 1037 3800 
Q 800 3625 675 3275 
L 200 3350 
Q 400 3925 712 4187 
Q 1025 4450 1450 4475 
Q 1700 4500 1900 4462 
Q 2100 4425 2312 4287 
Q 2525 4150 2662 3875 
Q 2800 3600 2762 3212 
Q 2725 2825 2375 2287 
Q 2025 1750 1025 600 
L 2825 600 
L 2825 150 
L 300 150 
L 300 250 
z
" id="SimHei-32" transform="scale(0.015625)"/>
      <path d="M 1075 125 
L 500 125 
L 500 675 
L 1075 675 
L 1075 125 
z
" id="SimHei-2e" transform="scale(0.015625)"/>
      <path d="M 225 2537 
Q 250 3200 412 3587 
Q 575 3975 875 4225 
Q 1175 4475 1612 4475 
Q 2050 4475 2375 4112 
Q 2700 3750 2800 3200 
Q 2900 2650 2862 1937 
Q 2825 1225 2612 775 
Q 2400 325 1975 150 
Q 1550 -25 1125 187 
Q 700 400 525 750 
Q 350 1100 275 1487 
Q 200 1875 225 2537 
z
M 750 2687 
Q 675 2000 800 1462 
Q 925 925 1212 700 
Q 1500 475 1800 612 
Q 2100 750 2237 1162 
Q 2375 1575 2375 2062 
Q 2375 2550 2337 2950 
Q 2300 3350 2112 3675 
Q 1925 4000 1612 4012 
Q 1300 4025 1062 3700 
Q 825 3375 750 2687 
z
" id="SimHei-30" transform="scale(0.015625)"/>
      <path d="M 1400 3325 
Q 1400 2600 1187 2400 
Q 975 2200 775 2200 
Q 575 2200 362 2400 
Q 150 2600 150 3325 
Q 150 4050 362 4250 
Q 575 4450 775 4450 
Q 975 4450 1187 4250 
Q 1400 4050 1400 3325 
z
M 2625 4375 
L 700 75 
L 500 150 
L 2425 4450 
L 2625 4375 
z
M 2975 1200 
Q 2975 475 2762 275 
Q 2550 75 2350 75 
Q 2150 75 1937 275 
Q 1725 475 1725 1200 
Q 1725 1925 1937 2125 
Q 2150 2325 2350 2325 
Q 2550 2325 2762 2125 
Q 2975 1925 2975 1200 
z
M 1000 3325 
Q 1000 3775 950 3925 
Q 900 4075 775 4075 
Q 650 4075 600 3925 
Q 550 3775 550 3325 
Q 550 2875 600 2725 
Q 650 2575 775 2575 
Q 900 2575 950 2725 
Q 1000 2875 1000 3325 
z
M 2575 1200 
Q 2575 1650 2525 1800 
Q 2475 1950 2350 1950 
Q 2225 1950 2175 1800 
Q 2125 1650 2125 1200 
Q 2125 750 2175 600 
Q 2225 450 2350 450 
Q 2475 450 2525 600 
Q 2575 750 2575 1200 
z
" id="SimHei-25" transform="scale(0.015625)"/>
     </defs>
     <use xlink:href="#SimHei-33"/>
     <use x="50" xlink:href="#SimHei-32"/>
     <use x="100" xlink:href="#SimHei-2e"/>
     <use x="150" xlink:href="#SimHei-30"/>
     <use x="200" xlink:href="#SimHei-25"/>
    </g>
   </g>
   <g id="text_3">
    <!-- private -->
    <g transform="translate(40.714021 240.96379)scale(0.1 -0.1)">
     <defs>
      <path d="M 2500 2425 
Q 2025 2500 1700 2287 
Q 1375 2075 1150 1550 
L 1150 125 
L 650 125 
L 650 2925 
L 1150 2925 
L 1150 2200 
Q 1375 2600 1712 2787 
Q 2050 2975 2500 2975 
L 2500 2425 
z
" id="SimHei-72" transform="scale(0.015625)"/>
      <path d="M 1800 3725 
L 1300 3725 
L 1300 4375 
L 1800 4375 
L 1800 3725 
z
M 1800 125 
L 1300 125 
L 1300 2925 
L 1800 2925 
L 1800 125 
z
" id="SimHei-69" transform="scale(0.015625)"/>
      <path d="M 2875 2925 
L 1825 75 
L 1275 75 
L 225 2925 
L 750 2925 
L 1525 750 
L 1575 750 
L 2350 2925 
L 2875 2925 
z
" id="SimHei-76" transform="scale(0.015625)"/>
      <path d="M 2875 125 
L 2275 125 
Q 2225 175 2200 262 
Q 2175 350 2175 475 
Q 2000 275 1750 175 
Q 1500 75 1225 75 
Q 825 75 550 275 
Q 275 475 275 850 
Q 275 1225 525 1450 
Q 775 1675 1300 1750 
Q 1650 1800 1912 1875 
Q 2175 1950 2175 2075 
Q 2175 2225 2062 2375 
Q 1950 2525 1575 2525 
Q 1275 2525 1137 2412 
Q 1000 2300 950 2100 
L 400 2100 
Q 450 2500 762 2737 
Q 1075 2975 1575 2975 
Q 2125 2975 2400 2725 
Q 2675 2475 2675 2025 
L 2675 650 
Q 2675 500 2725 375 
Q 2775 250 2875 125 
z
M 2175 1050 
L 2175 1550 
Q 2025 1500 1887 1462 
Q 1750 1425 1425 1375 
Q 1050 1325 937 1200 
Q 825 1075 825 900 
Q 825 750 937 637 
Q 1050 525 1275 525 
Q 1500 525 1762 650 
Q 2025 775 2175 1050 
z
" id="SimHei-61" transform="scale(0.015625)"/>
      <path d="M 2850 1075 
Q 2800 625 2450 350 
Q 2100 75 1625 75 
Q 1025 75 637 462 
Q 250 850 250 1525 
Q 250 2200 637 2587 
Q 1025 2975 1625 2975 
Q 2150 2975 2487 2637 
Q 2825 2300 2825 1525 
L 800 1525 
Q 800 975 1037 750 
Q 1275 525 1625 525 
Q 1900 525 2075 662 
Q 2250 800 2300 1075 
L 2850 1075 
z
M 2250 1925 
Q 2200 2275 2025 2412 
Q 1850 2550 1575 2550 
Q 1325 2550 1125 2412 
Q 925 2275 825 1925 
L 2250 1925 
z
" id="SimHei-65" transform="scale(0.015625)"/>
     </defs>
     <use xlink:href="#SimHei-70"/>
     <use x="50" xlink:href="#SimHei-72"/>
     <use x="100" xlink:href="#SimHei-69"/>
     <use x="150" xlink:href="#SimHei-76"/>
     <use x="200" xlink:href="#SimHei-61"/>
     <use x="250" xlink:href="#SimHei-74"/>
     <use x="300" xlink:href="#SimHei-65"/>
    </g>
   </g>
   <g id="text_4">
    <!-- 17.3% -->
    <g transform="translate(77.91538 218.747588)scale(0.1 -0.1)">
     <defs>
      <path d="M 1400 3600 
Q 1075 3275 575 2975 
L 575 3450 
Q 1200 3875 1600 4450 
L 1900 4450 
L 1900 150 
L 1400 150 
L 1400 3600 
z
" id="SimHei-31" transform="scale(0.015625)"/>
      <path d="M 850 150 
Q 1300 2050 2425 3925 
L 275 3925 
L 275 4375 
L 2950 4375 
L 2950 3950 
Q 1775 2050 1400 150 
L 850 150 
z
" id="SimHei-37" transform="scale(0.015625)"/>
     </defs>
     <use xlink:href="#SimHei-31"/>
     <use x="50" xlink:href="#SimHei-37"/>
     <use x="100" xlink:href="#SimHei-2e"/>
     <use x="150" xlink:href="#SimHei-33"/>
     <use x="200" xlink:href="#SimHei-25"/>
    </g>
   </g>
   <g id="text_5">
    <!-- domain_u -->
    <g transform="translate(162.068026 258.369303)scale(0.1 -0.1)">
     <defs>
      <path d="M 2750 125 
L 2250 125 
L 2250 500 
Q 2100 275 1900 175 
Q 1700 75 1425 75 
Q 925 75 575 437 
Q 225 800 225 1525 
Q 225 2250 575 2625 
Q 925 3000 1425 3000 
Q 1700 3000 1900 2887 
Q 2100 2775 2250 2550 
L 2250 4400 
L 2750 4400 
L 2750 125 
z
M 2250 1525 
Q 2250 2000 2037 2275 
Q 1825 2550 1525 2550 
Q 1150 2550 962 2275 
Q 775 2000 775 1525 
Q 775 1050 962 787 
Q 1150 525 1525 525 
Q 1825 525 2037 787 
Q 2250 1050 2250 1525 
z
" id="SimHei-64" transform="scale(0.015625)"/>
      <path d="M 2925 1525 
Q 2925 875 2525 475 
Q 2125 75 1575 75 
Q 1025 75 625 475 
Q 225 875 225 1525 
Q 225 2175 625 2575 
Q 1025 2975 1575 2975 
Q 2125 2975 2525 2575 
Q 2925 2175 2925 1525 
z
M 2375 1525 
Q 2375 2025 2125 2275 
Q 1875 2525 1575 2525 
Q 1275 2525 1025 2275 
Q 775 2025 775 1525 
Q 775 1025 1025 775 
Q 1275 525 1575 525 
Q 1875 525 2125 775 
Q 2375 1025 2375 1525 
z
" id="SimHei-6f" transform="scale(0.015625)"/>
      <path d="M 3050 125 
L 2550 125 
L 2550 2150 
Q 2550 2300 2500 2400 
Q 2450 2500 2300 2500 
Q 2125 2500 1975 2312 
Q 1825 2125 1825 1825 
L 1825 125 
L 1325 125 
L 1325 2150 
Q 1325 2300 1275 2400 
Q 1225 2500 1075 2500 
Q 900 2500 750 2312 
Q 600 2125 600 1825 
L 600 125 
L 100 125 
L 100 2925 
L 600 2925 
L 600 2550 
Q 725 2750 900 2862 
Q 1075 2975 1275 2975 
Q 1475 2975 1612 2862 
Q 1750 2750 1800 2550 
Q 1925 2750 2087 2862 
Q 2250 2975 2450 2975 
Q 2750 2975 2900 2812 
Q 3050 2650 3050 2350 
L 3050 125 
z
" id="SimHei-6d" transform="scale(0.015625)"/>
      <path d="M 2800 125 
L 2300 125 
L 2300 1925 
Q 2300 2225 2150 2400 
Q 2000 2575 1750 2575 
Q 1425 2575 1137 2237 
Q 850 1900 850 1400 
L 850 125 
L 350 125 
L 350 2925 
L 850 2925 
L 850 2400 
Q 1050 2675 1287 2825 
Q 1525 2975 1900 2975 
Q 2350 2975 2575 2725 
Q 2800 2475 2800 2100 
L 2800 125 
z
" id="SimHei-6e" transform="scale(0.015625)"/>
      <path d="M 3150 -850 
L 0 -850 
L 0 -550 
L 3150 -550 
L 3150 -850 
z
" id="SimHei-5f" transform="scale(0.015625)"/>
      <path d="M 2800 125 
L 2300 125 
L 2300 650 
Q 2100 375 1862 225 
Q 1625 75 1250 75 
Q 800 75 575 325 
Q 350 575 350 950 
L 350 2925 
L 850 2925 
L 850 1125 
Q 850 825 1000 650 
Q 1150 475 1400 475 
Q 1725 475 2012 812 
Q 2300 1150 2300 1650 
L 2300 2925 
L 2800 2925 
L 2800 125 
z
" id="SimHei-75" transform="scale(0.015625)"/>
     </defs>
     <use xlink:href="#SimHei-64"/>
     <use x="50" xlink:href="#SimHei-6f"/>
     <use x="100" xlink:href="#SimHei-6d"/>
     <use x="150" xlink:href="#SimHei-61"/>
     <use x="200" xlink:href="#SimHei-69"/>
     <use x="250" xlink:href="#SimHei-6e"/>
     <use x="300" xlink:href="#SimHei-5f"/>
     <use x="350" xlink:href="#SimHei-75"/>
    </g>
   </g>
   <g id="text_6">
    <!-- 7.2% -->
    <g transform="translate(147.143474 232.227487)scale(0.1 -0.1)">
     <use xlink:href="#SimHei-37"/>
     <use x="50" xlink:href="#SimHei-2e"/>
     <use x="100" xlink:href="#SimHei-32"/>
     <use x="150" xlink:href="#SimHei-25"/>
    </g>
   </g>
   <g id="text_7">
    <!-- smtp -->
    <g transform="translate(205.987664 240.361092)scale(0.1 -0.1)">
     <defs>
      <path d="M 2750 900 
Q 2750 500 2437 287 
Q 2125 75 1650 75 
Q 1050 75 725 312 
Q 400 550 400 1000 
L 900 1000 
Q 900 700 1112 600 
Q 1325 500 1625 500 
Q 1925 500 2075 612 
Q 2225 725 2225 900 
Q 2225 1025 2100 1150 
Q 1975 1275 1475 1350 
Q 900 1425 687 1637 
Q 475 1850 475 2200 
Q 475 2500 762 2737 
Q 1050 2975 1600 2975 
Q 2100 2975 2387 2750 
Q 2675 2525 2675 2150 
L 2175 2150 
Q 2175 2375 2012 2462 
Q 1850 2550 1600 2550 
Q 1275 2550 1137 2437 
Q 1000 2325 1000 2175 
Q 1000 2000 1125 1900 
Q 1250 1800 1650 1750 
Q 2300 1650 2525 1437 
Q 2750 1225 2750 900 
z
" id="SimHei-73" transform="scale(0.015625)"/>
     </defs>
     <use xlink:href="#SimHei-73"/>
     <use x="50" xlink:href="#SimHei-6d"/>
     <use x="100" xlink:href="#SimHei-74"/>
     <use x="150" xlink:href="#SimHei-70"/>
    </g>
   </g>
   <g id="text_8">
    <!-- 5.8% -->
    <g transform="translate(181.081377 218.281867)scale(0.1 -0.1)">
     <defs>
      <path d="M 550 1325 
Q 725 650 1150 575 
Q 1575 500 1837 662 
Q 2100 825 2212 1087 
Q 2325 1350 2312 1675 
Q 2300 2000 2137 2225 
Q 1975 2450 1725 2525 
Q 1475 2600 1162 2525 
Q 850 2450 650 2175 
L 225 2225 
Q 275 2375 700 4375 
L 2675 4375 
L 2675 3925 
L 1075 3925 
Q 950 3250 825 2850 
Q 1200 3025 1525 3012 
Q 1850 3000 2150 2862 
Q 2450 2725 2587 2487 
Q 2725 2250 2787 2012 
Q 2850 1775 2837 1500 
Q 2825 1225 2725 937 
Q 2625 650 2425 462 
Q 2225 275 1937 162 
Q 1650 50 1275 75 
Q 900 100 562 350 
Q 225 600 100 1200 
L 550 1325 
z
" id="SimHei-35" transform="scale(0.015625)"/>
      <path d="M 175 1375 
Q 175 1675 325 1962 
Q 475 2250 825 2425 
Q 525 2600 425 2812 
Q 325 3025 312 3300 
Q 300 3575 387 3775 
Q 475 3975 650 4150 
Q 825 4325 1037 4387 
Q 1250 4450 1500 4450 
Q 1750 4450 1950 4400 
Q 2150 4350 2375 4187 
Q 2600 4025 2700 3725 
Q 2800 3425 2687 3025 
Q 2575 2625 2100 2400 
Q 2525 2275 2700 2012 
Q 2875 1750 2875 1375 
Q 2875 1000 2762 775 
Q 2650 550 2512 400 
Q 2375 250 2137 162 
Q 1900 75 1537 75 
Q 1175 75 912 162 
Q 650 250 475 425 
Q 300 600 237 837 
Q 175 1075 175 1375 
z
M 687 1400 
Q 675 1100 787 875 
Q 900 650 1200 587 
Q 1500 525 1825 600 
Q 2150 675 2275 950 
Q 2400 1225 2362 1500 
Q 2325 1775 2050 1962 
Q 1775 2150 1450 2125 
Q 1125 2100 912 1900 
Q 700 1700 687 1400 
z
M 775 3350 
Q 775 3100 950 2875 
Q 1125 2650 1500 2650 
Q 1875 2650 2062 2875 
Q 2250 3100 2237 3412 
Q 2225 3725 2012 3875 
Q 1800 4025 1437 4000 
Q 1075 3975 925 3787 
Q 775 3600 775 3350 
z
" id="SimHei-38" transform="scale(0.015625)"/>
     </defs>
     <use xlink:href="#SimHei-35"/>
     <use x="50" xlink:href="#SimHei-2e"/>
     <use x="100" xlink:href="#SimHei-38"/>
     <use x="150" xlink:href="#SimHei-25"/>
    </g>
   </g>
   <g id="text_9">
    <!-- ftp_data -->
    <g transform="translate(235.561294 211.651662)scale(0.1 -0.1)">
     <defs>
      <path d="M 2850 3825 
Q 2725 3900 2550 3950 
Q 2375 4000 2100 4000 
Q 1825 4000 1725 3862 
Q 1625 3725 1625 3525 
L 1625 2925 
L 2650 2925 
L 2650 2525 
L 1625 2525 
L 1625 125 
L 1125 125 
L 1125 2525 
L 275 2525 
L 275 2925 
L 1125 2925 
L 1125 3500 
Q 1125 3950 1400 4200 
Q 1675 4450 2125 4450 
Q 2400 4450 2562 4412 
Q 2725 4375 2850 4325 
L 2850 3825 
z
" id="SimHei-66" transform="scale(0.015625)"/>
     </defs>
     <use xlink:href="#SimHei-66"/>
     <use x="50" xlink:href="#SimHei-74"/>
     <use x="100" xlink:href="#SimHei-70"/>
     <use x="150" xlink:href="#SimHei-5f"/>
     <use x="200" xlink:href="#SimHei-64"/>
     <use x="250" xlink:href="#SimHei-61"/>
     <use x="300" xlink:href="#SimHei-74"/>
     <use x="350" xlink:href="#SimHei-61"/>
    </g>
   </g>
   <g id="text_10">
    <!-- 5.4% -->
    <g transform="translate(203.933727 196.097307)scale(0.1 -0.1)">
     <defs>
      <path d="M 2000 1100 
L 75 1100 
L 75 1525 
L 2100 4450 
L 2475 4450 
L 2475 1525 
L 3075 1525 
L 3075 1100 
L 2475 1100 
L 2475 150 
L 2000 150 
L 2000 1100 
z
M 2000 1525 
L 2000 3500 
L 600 1525 
L 2000 1525 
z
" id="SimHei-34" transform="scale(0.015625)"/>
     </defs>
     <use xlink:href="#SimHei-35"/>
     <use x="50" xlink:href="#SimHei-2e"/>
     <use x="100" xlink:href="#SimHei-34"/>
     <use x="150" xlink:href="#SimHei-25"/>
    </g>
   </g>
   <g id="text_11">
    <!-- eco_i -->
    <g transform="translate(250.982669 182.026312)scale(0.1 -0.1)">
     <defs>
      <path d="M 2850 1250 
Q 2850 725 2487 400 
Q 2125 75 1575 75 
Q 1025 75 625 462 
Q 225 850 225 1525 
Q 225 2200 625 2587 
Q 1025 2975 1575 2975 
Q 2125 2975 2450 2687 
Q 2775 2400 2775 2000 
L 2225 2000 
Q 2200 2300 2012 2412 
Q 1825 2525 1575 2525 
Q 1275 2525 1025 2287 
Q 775 2050 775 1525 
Q 775 1000 1025 762 
Q 1275 525 1575 525 
Q 1900 525 2100 700 
Q 2300 875 2300 1250 
L 2850 1250 
z
" id="SimHei-63" transform="scale(0.015625)"/>
     </defs>
     <use xlink:href="#SimHei-65"/>
     <use x="50" xlink:href="#SimHei-63"/>
     <use x="100" xlink:href="#SimHei-6f"/>
     <use x="150" xlink:href="#SimHei-5f"/>
     <use x="200" xlink:href="#SimHei-69"/>
    </g>
   </g>
   <g id="text_12">
    <!-- 3.6% -->
    <g transform="translate(215.850244 173.250268)scale(0.1 -0.1)">
     <defs>
      <path d="M 250 1612 
Q 275 1975 387 2225 
Q 500 2475 725 2850 
L 1750 4450 
L 2325 4450 
L 1275 2800 
Q 1950 2975 2350 2750 
Q 2750 2525 2887 2237 
Q 3025 1950 3037 1612 
Q 3050 1275 2937 950 
Q 2825 625 2537 362 
Q 2250 100 1737 75 
Q 1225 50 862 262 
Q 500 475 362 862 
Q 225 1250 250 1612 
z
M 1025 787 
Q 1250 550 1625 525 
Q 2000 500 2250 775 
Q 2500 1050 2500 1575 
Q 2500 2100 2187 2300 
Q 1875 2500 1487 2450 
Q 1100 2400 925 2075 
Q 750 1750 775 1387 
Q 800 1025 1025 787 
z
" id="SimHei-36" transform="scale(0.015625)"/>
     </defs>
     <use xlink:href="#SimHei-33"/>
     <use x="50" xlink:href="#SimHei-2e"/>
     <use x="100" xlink:href="#SimHei-36"/>
     <use x="150" xlink:href="#SimHei-25"/>
    </g>
   </g>
   <g id="text_13">
    <!-- other -->
    <g transform="translate(256.842481 156.65643)scale(0.1 -0.1)">
     <use xlink:href="#SimHei-6f"/>
     <use x="50" xlink:href="#SimHei-74"/>
     <use x="100" xlink:href="#SimHei-68"/>
     <use x="150" xlink:href="#SimHei-65"/>
     <use x="200" xlink:href="#SimHei-72"/>
    </g>
   </g>
   <g id="text_14">
    <!-- 3.5% -->
    <g transform="translate(220.378281 153.600991)scale(0.1 -0.1)">
     <use xlink:href="#SimHei-33"/>
     <use x="50" xlink:href="#SimHei-2e"/>
     <use x="100" xlink:href="#SimHei-35"/>
     <use x="150" xlink:href="#SimHei-25"/>
    </g>
   </g>
   <g id="text_15">
    <!-- ecr_i -->
    <g transform="translate(257.324788 134.896515)scale(0.1 -0.1)">
     <use xlink:href="#SimHei-65"/>
     <use x="50" xlink:href="#SimHei-63"/>
     <use x="100" xlink:href="#SimHei-72"/>
     <use x="150" xlink:href="#SimHei-5f"/>
     <use x="200" xlink:href="#SimHei-69"/>
    </g>
   </g>
   <g id="text_16">
    <!-- 2.4% -->
    <g transform="translate(220.750973 136.831789)scale(0.1 -0.1)">
     <use xlink:href="#SimHei-32"/>
     <use x="50" xlink:href="#SimHei-2e"/>
     <use x="100" xlink:href="#SimHei-34"/>
     <use x="150" xlink:href="#SimHei-25"/>
    </g>
   </g>
   <g id="text_17">
    <!--   -->
    <g transform="translate(255.139458 119.244866)scale(0.1 -0.1)">
     <defs>
      <path id="SimHei-20" transform="scale(0.015625)"/>
     </defs>
     <use xlink:href="#SimHei-20"/>
    </g>
   </g>
   <g id="text_18">
    <!--   -->
    <g transform="translate(226.562308 124.692055)scale(0.1 -0.1)">
     <use xlink:href="#SimHei-20"/>
    </g>
   </g>
   <g id="text_19">
    <!--   -->
    <g transform="translate(252.076808 107.605181)scale(0.1 -0.1)">
     <use xlink:href="#SimHei-20"/>
    </g>
   </g>
   <g id="text_20">
    <!--   -->
    <g transform="translate(224.195715 115.697754)scale(0.1 -0.1)">
     <use xlink:href="#SimHei-20"/>
    </g>
   </g>
   <g id="text_21">
    <!--   -->
    <g transform="translate(248.524897 97.951068)scale(0.1 -0.1)">
     <use xlink:href="#SimHei-20"/>
    </g>
   </g>
   <g id="text_22">
    <!--   -->
    <g transform="translate(221.451057 108.237757)scale(0.1 -0.1)">
     <use xlink:href="#SimHei-20"/>
    </g>
   </g>
   <g id="text_23">
    <!--   -->
    <g transform="translate(245.222621 90.754814)scale(0.1 -0.1)">
     <use xlink:href="#SimHei-20"/>
    </g>
   </g>
   <g id="text_24">
    <!--   -->
    <g transform="translate(218.899298 102.677015)scale(0.1 -0.1)">
     <use xlink:href="#SimHei-20"/>
    </g>
   </g>
   <g id="text_25">
    <!--   -->
    <g transform="translate(242.738693 86.060225)scale(0.1 -0.1)">
     <use xlink:href="#SimHei-20"/>
    </g>
   </g>
   <g id="text_26">
    <!--   -->
    <g transform="translate(216.979899 99.049379)scale(0.1 -0.1)">
     <use xlink:href="#SimHei-20"/>
    </g>
   </g>
   <g id="text_27">
    <!--   -->
    <g transform="translate(240.313116 81.918456)scale(0.1 -0.1)">
     <use xlink:href="#SimHei-20"/>
    </g>
   </g>
   <g id="text_28">
    <!--   -->
    <g transform="translate(215.10559 95.848921)scale(0.1 -0.1)">
     <use xlink:href="#SimHei-20"/>
    </g>
   </g>
   <g id="text_29">
    <!--   -->
    <g transform="translate(237.928076 78.190465)scale(0.1 -0.1)">
     <use xlink:href="#SimHei-20"/>
    </g>
   </g>
   <g id="text_30">
    <!--   -->
    <g transform="translate(213.262604 92.9682)scale(0.1 -0.1)">
     <use xlink:href="#SimHei-20"/>
    </g>
   </g>
   <g id="text_31">
    <!--   -->
    <g transform="translate(235.523721 74.721125)scale(0.1 -0.1)">
     <use xlink:href="#SimHei-20"/>
    </g>
   </g>
   <g id="text_32">
    <!--   -->
    <g transform="translate(211.404693 90.287347)scale(0.1 -0.1)">
     <use xlink:href="#SimHei-20"/>
    </g>
   </g>
   <g id="text_33">
    <!--   -->
    <g transform="translate(233.069453 71.435323)scale(0.1 -0.1)">
     <use xlink:href="#SimHei-20"/>
    </g>
   </g>
   <g id="text_34">
    <!--   -->
    <g transform="translate(209.508214 87.748318)scale(0.1 -0.1)">
     <use xlink:href="#SimHei-20"/>
    </g>
   </g>
   <g id="text_35">
    <!--   -->
    <g transform="translate(230.540994 68.284589)scale(0.1 -0.1)">
     <use xlink:href="#SimHei-20"/>
    </g>
   </g>
   <g id="text_36">
    <!--   -->
    <g transform="translate(207.554405 85.31366)scale(0.1 -0.1)">
     <use xlink:href="#SimHei-20"/>
    </g>
   </g>
   <g id="text_37">
    <!--   -->
    <g transform="translate(227.917133 65.235952)scale(0.1 -0.1)">
     <use xlink:href="#SimHei-20"/>
    </g>
   </g>
   <g id="text_38">
    <!--   -->
    <g transform="translate(205.526876 82.957895)scale(0.1 -0.1)">
     <use xlink:href="#SimHei-20"/>
    </g>
   </g>
   <g id="text_39">
    <!--   -->
    <g transform="translate(225.260831 62.353178)scale(0.1 -0.1)">
     <use xlink:href="#SimHei-20"/>
    </g>
   </g>
   <g id="text_40">
    <!--   -->
    <g transform="translate(203.474279 80.730296)scale(0.1 -0.1)">
     <use xlink:href="#SimHei-20"/>
    </g>
   </g>
   <g id="text_41">
    <!-- ...... -->
    <g transform="translate(222.593029 49.884977)scale(0.1 -0.1)">
     <use xlink:href="#SimHei-2e"/>
     <use x="50" xlink:href="#SimHei-2e"/>
     <use x="100" xlink:href="#SimHei-2e"/>
     <use x="150" xlink:href="#SimHei-2e"/>
     <use x="200" xlink:href="#SimHei-2e"/>
     <use x="250" xlink:href="#SimHei-2e"/>
    </g>
    <!--  -->
    <g transform="translate(222.593029 59.384977)scale(0.1 -0.1)"/>
    <!-- (22.8%) -->
    <g transform="translate(222.593029 69.400602)scale(0.1 -0.1)">
     <defs>
      <path d="M 2975 -200 
L 2700 -475 
Q 2075 125 1762 775 
Q 1450 1425 1450 2250 
Q 1450 3075 1762 3725 
Q 2075 4375 2700 5000 
L 2975 4725 
Q 2400 4175 2112 3587 
Q 1825 3000 1825 2250 
Q 1825 1500 2112 912 
Q 2400 325 2975 -200 
z
" id="SimHei-28" transform="scale(0.015625)"/>
      <path d="M 1675 2250 
Q 1675 1425 1362 775 
Q 1050 125 425 -475 
L 150 -200 
Q 725 325 1012 912 
Q 1300 1500 1300 2250 
Q 1300 3000 1012 3587 
Q 725 4175 150 4725 
L 425 5000 
Q 1050 4375 1362 3725 
Q 1675 3075 1675 2250 
z
" id="SimHei-29" transform="scale(0.015625)"/>
     </defs>
     <use xlink:href="#SimHei-28"/>
     <use x="50" xlink:href="#SimHei-32"/>
     <use x="100" xlink:href="#SimHei-32"/>
     <use x="150" xlink:href="#SimHei-2e"/>
     <use x="200" xlink:href="#SimHei-38"/>
     <use x="250" xlink:href="#SimHei-25"/>
     <use x="300" xlink:href="#SimHei-29"/>
    </g>
   </g>
   <g id="text_42">
    <!--   -->
    <g transform="translate(201.412795 78.635905)scale(0.1 -0.1)">
     <use xlink:href="#SimHei-20"/>
    </g>
   </g>
   <g id="text_43">
    <!--   -->
    <g transform="translate(219.890281 57.067936)scale(0.1 -0.1)">
     <use xlink:href="#SimHei-20"/>
    </g>
   </g>
   <g id="text_44">
    <!--   -->
    <g transform="translate(199.324308 76.646246)scale(0.1 -0.1)">
     <use xlink:href="#SimHei-20"/>
    </g>
   </g>
   <g id="text_45">
    <!--   -->
    <g transform="translate(217.173205 54.637867)scale(0.1 -0.1)">
     <use xlink:href="#SimHei-20"/>
    </g>
   </g>
   <g id="text_46">
    <!--   -->
    <g transform="translate(197.22475 74.768466)scale(0.1 -0.1)">
     <use xlink:href="#SimHei-20"/>
    </g>
   </g>
   <g id="text_47">
    <!--   -->
    <g transform="translate(214.445353 52.345144)scale(0.1 -0.1)">
     <use xlink:href="#SimHei-20"/>
    </g>
   </g>
   <g id="text_48">
    <!--   -->
    <g transform="translate(195.116864 72.996816)scale(0.1 -0.1)">
     <use xlink:href="#SimHei-20"/>
    </g>
   </g>
   <g id="text_49">
    <!--   -->
    <g transform="translate(211.76044 50.221757)scale(0.1 -0.1)">
     <use xlink:href="#SimHei-20"/>
    </g>
   </g>
   <g id="text_50">
    <!--   -->
    <g transform="translate(193.042158 71.356017)scale(0.1 -0.1)">
     <use xlink:href="#SimHei-20"/>
    </g>
   </g>
   <g id="text_51">
    <!--   -->
    <g transform="translate(209.107072 48.244458)scale(0.1 -0.1)">
     <use xlink:href="#SimHei-20"/>
    </g>
   </g>
   <g id="text_52">
    <!--   -->
    <g transform="translate(190.991828 69.828104)scale(0.1 -0.1)">
     <use xlink:href="#SimHei-20"/>
    </g>
   </g>
   <g id="text_53">
    <!--   -->
    <g transform="translate(206.456915 46.382367)scale(0.1 -0.1)">
     <use xlink:href="#SimHei-20"/>
    </g>
   </g>
   <g id="text_54">
    <!--   -->
    <g transform="translate(188.94398 68.389216)scale(0.1 -0.1)">
     <use xlink:href="#SimHei-20"/>
    </g>
   </g>
   <g id="text_55">
    <!--   -->
    <g transform="translate(203.807963 44.627405)scale(0.1 -0.1)">
     <use xlink:href="#SimHei-20"/>
    </g>
   </g>
   <g id="text_56">
    <!--   -->
    <g transform="translate(186.897062 67.033109)scale(0.1 -0.1)">
     <use xlink:href="#SimHei-20"/>
    </g>
   </g>
   <g id="text_57">
    <!--   -->
    <g transform="translate(201.129917 42.955491)scale(0.1 -0.1)">
     <use xlink:href="#SimHei-20"/>
    </g>
   </g>
   <g id="text_58">
    <!--   -->
    <g transform="translate(184.827663 65.741175)scale(0.1 -0.1)">
     <use xlink:href="#SimHei-20"/>
    </g>
   </g>
   <g id="text_59">
    <!--   -->
    <g transform="translate(198.438296 41.373672)scale(0.1 -0.1)">
     <use xlink:href="#SimHei-20"/>
    </g>
   </g>
   <g id="text_60">
    <!--   -->
    <g transform="translate(182.747774 64.51886)scale(0.1 -0.1)">
     <use xlink:href="#SimHei-20"/>
    </g>
   </g>
   <g id="text_61">
    <!--   -->
    <g transform="translate(195.749314 39.887556)scale(0.1 -0.1)">
     <use xlink:href="#SimHei-20"/>
    </g>
   </g>
   <g id="text_62">
    <!--   -->
    <g transform="translate(180.669924 63.370497)scale(0.1 -0.1)">
     <use xlink:href="#SimHei-20"/>
    </g>
   </g>
   <g id="text_63">
    <!--   -->
    <g transform="translate(193.05365 38.488177)scale(0.1 -0.1)">
     <use xlink:href="#SimHei-20"/>
    </g>
   </g>
   <g id="text_64">
    <!--   -->
    <g transform="translate(178.586911 62.28916)scale(0.1 -0.1)">
     <use xlink:href="#SimHei-20"/>
    </g>
   </g>
   <g id="text_65">
    <!--   -->
    <g transform="translate(190.417832 37.203976)scale(0.1 -0.1)">
     <use xlink:href="#SimHei-20"/>
    </g>
   </g>
   <g id="text_66">
    <!--   -->
    <g transform="translate(176.550143 61.296822)scale(0.1 -0.1)">
     <use xlink:href="#SimHei-20"/>
    </g>
   </g>
   <g id="text_67">
    <!--   -->
    <g transform="translate(187.860335 36.034577)scale(0.1 -0.1)">
     <use xlink:href="#SimHei-20"/>
    </g>
   </g>
   <g id="text_68">
    <!--   -->
    <g transform="translate(174.573895 60.393195)scale(0.1 -0.1)">
     <use xlink:href="#SimHei-20"/>
    </g>
   </g>
   <g id="text_69">
    <!--   -->
    <g transform="translate(185.302525 34.938062)scale(0.1 -0.1)">
     <use xlink:href="#SimHei-20"/>
    </g>
   </g>
   <g id="text_70">
    <!--   -->
    <g transform="translate(172.597406 59.545889)scale(0.1 -0.1)">
     <use xlink:href="#SimHei-20"/>
    </g>
   </g>
   <g id="text_71">
    <!--   -->
    <g transform="translate(182.727583 33.905746)scale(0.1 -0.1)">
     <use xlink:href="#SimHei-20"/>
    </g>
   </g>
   <g id="text_72">
    <!--   -->
    <g transform="translate(170.607678 58.74819)scale(0.1 -0.1)">
     <use xlink:href="#SimHei-20"/>
    </g>
   </g>
   <g id="text_73">
    <!--   -->
    <g transform="translate(180.170183 32.949527)scale(0.1 -0.1)">
     <use xlink:href="#SimHei-20"/>
    </g>
   </g>
   <g id="text_74">
    <!--   -->
    <g transform="translate(168.631505 58.009294)scale(0.1 -0.1)">
     <use xlink:href="#SimHei-20"/>
    </g>
   </g>
   <g id="text_75">
    <!--   -->
    <g transform="translate(177.654961 32.074484)scale(0.1 -0.1)">
     <use xlink:href="#SimHei-20"/>
    </g>
   </g>
   <g id="text_76">
    <!--   -->
    <g transform="translate(166.687925 57.333124)scale(0.1 -0.1)">
     <use xlink:href="#SimHei-20"/>
    </g>
   </g>
   <g id="text_77">
    <!--   -->
    <g transform="translate(175.181931 31.275876)scale(0.1 -0.1)">
     <use xlink:href="#SimHei-20"/>
    </g>
   </g>
   <g id="text_78">
    <!--   -->
    <g transform="translate(164.776947 56.716017)scale(0.1 -0.1)">
     <use xlink:href="#SimHei-20"/>
    </g>
   </g>
   <g id="text_79">
    <!--   -->
    <g transform="translate(172.739575 30.54599)scale(0.1 -0.1)">
     <use xlink:href="#SimHei-20"/>
    </g>
   </g>
   <g id="text_80">
    <!--   -->
    <g transform="translate(162.889672 56.152015)scale(0.1 -0.1)">
     <use xlink:href="#SimHei-20"/>
    </g>
   </g>
   <g id="text_81">
    <!--   -->
    <g transform="translate(170.296058 29.873114)scale(0.1 -0.1)">
     <use xlink:href="#SimHei-20"/>
    </g>
   </g>
   <g id="text_82">
    <!--   -->
    <g transform="translate(161.001499 55.632065)scale(0.1 -0.1)">
     <use xlink:href="#SimHei-20"/>
    </g>
   </g>
   <g id="text_83">
    <!--   -->
    <g transform="translate(167.852773 29.256649)scale(0.1 -0.1)">
     <use xlink:href="#SimHei-20"/>
    </g>
   </g>
   <g id="text_84">
    <!--   -->
    <g transform="translate(159.113507 55.155706)scale(0.1 -0.1)">
     <use xlink:href="#SimHei-20"/>
    </g>
   </g>
   <g id="text_85">
    <!--   -->
    <g transform="translate(165.462488 28.707206)scale(0.1 -0.1)">
     <use xlink:href="#SimHei-20"/>
    </g>
   </g>
   <g id="text_86">
    <!--   -->
    <g transform="translate(157.266468 54.731136)scale(0.1 -0.1)">
     <use xlink:href="#SimHei-20"/>
    </g>
   </g>
   <g id="text_87">
    <!--   -->
    <g transform="translate(163.130061 28.221479)scale(0.1 -0.1)">
     <use xlink:href="#SimHei-20"/>
    </g>
   </g>
   <g id="text_88">
    <!--   -->
    <g transform="translate(155.464138 54.355802)scale(0.1 -0.1)">
     <use xlink:href="#SimHei-20"/>
    </g>
   </g>
   <g id="text_89">
    <!--   -->
    <g transform="translate(160.871724 27.798033)scale(0.1 -0.1)">
     <use xlink:href="#SimHei-20"/>
    </g>
   </g>
   <g id="text_90">
    <!--   -->
    <g transform="translate(153.719059 54.028594)scale(0.1 -0.1)">
     <use xlink:href="#SimHei-20"/>
    </g>
   </g>
   <g id="text_91">
    <!--   -->
    <g transform="translate(158.729686 27.438525)scale(0.1 -0.1)">
     <use xlink:href="#SimHei-20"/>
    </g>
   </g>
   <g id="text_92">
    <!--   -->
    <g transform="translate(152.063849 53.750792)scale(0.1 -0.1)">
     <use xlink:href="#SimHei-20"/>
    </g>
   </g>
   <g id="text_93">
    <!--   -->
    <g transform="translate(156.642155 27.12726)scale(0.1 -0.1)">
     <use xlink:href="#SimHei-20"/>
    </g>
   </g>
   <g id="text_94">
    <!--   -->
    <g transform="translate(150.450756 53.510269)scale(0.1 -0.1)">
     <use xlink:href="#SimHei-20"/>
    </g>
   </g>
   <g id="text_95">
    <!--   -->
    <g transform="translate(154.592887 26.858933)scale(0.1 -0.1)">
     <use xlink:href="#SimHei-20"/>
    </g>
   </g>
   <g id="text_96">
    <!--   -->
    <g transform="translate(148.867231 53.302925)scale(0.1 -0.1)">
     <use xlink:href="#SimHei-20"/>
    </g>
   </g>
   <g id="text_97">
    <!--   -->
    <g transform="translate(152.681669 26.641701)scale(0.1 -0.1)">
     <use xlink:href="#SimHei-20"/>
    </g>
   </g>
   <g id="text_98">
    <!--   -->
    <g transform="translate(147.39038 53.135064)scale(0.1 -0.1)">
     <use xlink:href="#SimHei-20"/>
    </g>
   </g>
   <g id="text_99">
    <!--   -->
    <g transform="translate(150.906906 26.468354)scale(0.1 -0.1)">
     <use xlink:href="#SimHei-20"/>
    </g>
   </g>
   <g id="text_100">
    <!--   -->
    <g transform="translate(146.018972 53.001115)scale(0.1 -0.1)">
     <use xlink:href="#SimHei-20"/>
    </g>
   </g>
   <g id="text_101">
    <!--   -->
    <g transform="translate(149.173438 26.3253)scale(0.1 -0.1)">
     <use xlink:href="#SimHei-20"/>
    </g>
   </g>
   <g id="text_102">
    <!--   -->
    <g transform="translate(144.679475 52.890573)scale(0.1 -0.1)">
     <use xlink:href="#SimHei-20"/>
    </g>
   </g>
   <g id="text_103">
    <!--   -->
    <g transform="translate(147.540168 26.214172)scale(0.1 -0.1)">
     <use xlink:href="#SimHei-20"/>
    </g>
   </g>
   <g id="text_104">
    <!--   -->
    <g transform="translate(143.417402 52.804701)scale(0.1 -0.1)">
     <use xlink:href="#SimHei-20"/>
    </g>
   </g>
   <g id="text_105">
    <!--   -->
    <g transform="translate(146.054425 26.132962)scale(0.1 -0.1)">
     <use xlink:href="#SimHei-20"/>
    </g>
   </g>
   <g id="text_106">
    <!--   -->
    <g transform="translate(142.269328 52.741948)scale(0.1 -0.1)">
     <use xlink:href="#SimHei-20"/>
    </g>
   </g>
   <g id="text_107">
    <!--   -->
    <g transform="translate(144.792717 26.078838)scale(0.1 -0.1)">
     <use xlink:href="#SimHei-20"/>
    </g>
   </g>
   <g id="text_108">
    <!--   -->
    <g transform="translate(141.294372 52.700125)scale(0.1 -0.1)">
     <use xlink:href="#SimHei-20"/>
    </g>
   </g>
   <g id="text_109">
    <!--   -->
    <g transform="translate(143.755508 26.044538)scale(0.1 -0.1)">
     <use xlink:href="#SimHei-20"/>
    </g>
   </g>
   <g id="text_110">
    <!--   -->
    <g transform="translate(140.492893 52.673621)scale(0.1 -0.1)">
     <use xlink:href="#SimHei-20"/>
    </g>
   </g>
   <g id="text_111">
    <!--   -->
    <g transform="translate(143.013226 26.025633)scale(0.1 -0.1)">
     <use xlink:href="#SimHei-20"/>
    </g>
   </g>
   <g id="text_112">
    <!--   -->
    <g transform="translate(139.919311 52.659012)scale(0.1 -0.1)">
     <use xlink:href="#SimHei-20"/>
    </g>
   </g>
   <g id="text_113">
    <!--   -->
    <g transform="translate(142.5339 26.015925)scale(0.1 -0.1)">
     <use xlink:href="#SimHei-20"/>
    </g>
   </g>
   <g id="text_114">
    <!--   -->
    <g transform="translate(139.548923 52.65151)scale(0.1 -0.1)">
     <use xlink:href="#SimHei-20"/>
    </g>
   </g>
   <g id="text_115">
    <!--   -->
    <g transform="translate(142.077923 26.00851)scale(0.1 -0.1)">
     <use xlink:href="#SimHei-20"/>
    </g>
   </g>
   <g id="text_116">
    <!--   -->
    <g transform="translate(139.196577 52.645781)scale(0.1 -0.1)">
     <use xlink:href="#SimHei-20"/>
    </g>
   </g>
   <g id="text_117">
    <!--   -->
    <g transform="translate(141.636536 26.003022)scale(0.1 -0.1)">
     <use xlink:href="#SimHei-20"/>
    </g>
   </g>
   <g id="text_118">
    <!--   -->
    <g transform="translate(138.855505 52.64154)scale(0.1 -0.1)">
     <use xlink:href="#SimHei-20"/>
    </g>
   </g>
   <g id="text_119">
    <!--   -->
    <g transform="translate(141.22144 25.999378)scale(0.1 -0.1)">
     <use xlink:href="#SimHei-20"/>
    </g>
   </g>
   <g id="text_120">
    <!--   -->
    <g transform="translate(138.534749 52.638724)scale(0.1 -0.1)">
     <use xlink:href="#SimHei-20"/>
    </g>
   </g>
   <g id="text_121">
    <!--   -->
    <g transform="translate(140.829721 25.997288)scale(0.1 -0.1)">
     <use xlink:href="#SimHei-20"/>
    </g>
   </g>
   <g id="text_122">
    <!--   -->
    <g transform="translate(138.232057 52.637109)scale(0.1 -0.1)">
     <use xlink:href="#SimHei-20"/>
    </g>
   </g>
   <g id="text_123">
    <!--   -->
    <g transform="translate(140.610473 25.996689)scale(0.1 -0.1)">
     <use xlink:href="#SimHei-20"/>
    </g>
   </g>
   <g id="text_124">
    <!--   -->
    <g transform="translate(138.062638 52.636646)scale(0.1 -0.1)">
     <use xlink:href="#SimHei-20"/>
    </g>
   </g>
   <g id="text_125">
    <!--   -->
    <g transform="translate(140.557853 25.996606)scale(0.1 -0.1)">
     <use xlink:href="#SimHei-20"/>
    </g>
   </g>
   <g id="text_126">
    <!--   -->
    <g transform="translate(138.021977 52.636582)scale(0.1 -0.1)">
     <use xlink:href="#SimHei-20"/>
    </g>
   </g>
   <g id="text_127">
    <!--   -->
    <g transform="translate(140.51108 25.996553)scale(0.1 -0.1)">
     <use xlink:href="#SimHei-20"/>
    </g>
   </g>
   <g id="text_128">
    <!--   -->
    <g transform="translate(137.985834 52.636541)scale(0.1 -0.1)">
     <use xlink:href="#SimHei-20"/>
    </g>
   </g>
   <g id="text_129">
    <!--   -->
    <g transform="translate(140.473077 25.996523)scale(0.1 -0.1)">
     <use xlink:href="#SimHei-20"/>
    </g>
   </g>
   <g id="text_130">
    <!--   -->
    <g transform="translate(137.956468 52.636518)scale(0.1 -0.1)">
     <use xlink:href="#SimHei-20"/>
    </g>
   </g>
   <g id="text_131">
    <!--   -->
    <g transform="translate(140.44969 25.996511)scale(0.1 -0.1)">
     <use xlink:href="#SimHei-20"/>
    </g>
   </g>
   <g id="text_132">
    <!--   -->
    <g transform="translate(137.938397 52.636508)scale(0.1 -0.1)">
     <use xlink:href="#SimHei-20"/>
    </g>
   </g>
   <g id="text_133">
    <!--   -->
    <g transform="translate(140.435074 25.996505)scale(0.1 -0.1)">
     <use xlink:href="#SimHei-20"/>
    </g>
   </g>
   <g id="text_134">
    <!--   -->
    <g transform="translate(137.927102 52.636504)scale(0.1 -0.1)">
     <use xlink:href="#SimHei-20"/>
    </g>
   </g>
   <g id="text_135">
    <!--   -->
    <g transform="translate(140.42338 25.996502)scale(0.1 -0.1)">
     <use xlink:href="#SimHei-20"/>
    </g>
   </g>
   <g id="text_136">
    <!--   -->
    <g transform="translate(137.918067 52.636502)scale(0.1 -0.1)">
     <use xlink:href="#SimHei-20"/>
    </g>
   </g>
   <g id="text_137">
    <!--   -->
    <g transform="translate(140.411687 25.996501)scale(0.1 -0.1)">
     <use xlink:href="#SimHei-20"/>
    </g>
   </g>
   <g id="text_138">
    <!--   -->
    <g transform="translate(137.909031 52.6365)scale(0.1 -0.1)">
     <use xlink:href="#SimHei-20"/>
    </g>
   </g>
   <g id="text_139">
    <!--   -->
    <g transform="translate(140.402917 25.9965)scale(0.1 -0.1)">
     <use xlink:href="#SimHei-20"/>
    </g>
   </g>
   <g id="text_140">
    <!--   -->
    <g transform="translate(137.902254 52.6365)scale(0.1 -0.1)">
     <use xlink:href="#SimHei-20"/>
    </g>
   </g>
   <g id="text_141">
    <!--     -->
    <g transform="translate(107.4 147.72)scale(0.12 -0.12)">
     <defs>
      <path d="M 3700 -575 
L 3225 -575 
Q 3250 25 3250 550 
L 3250 4025 
Q 3250 4450 3225 4950 
L 5550 4950 
Q 5525 4600 5500 4187 
Q 5475 3775 5425 3562 
Q 5375 3350 5125 3250 
Q 4875 3150 4475 3100 
Q 4400 3400 4250 3600 
Q 4875 3600 4950 3737 
Q 5025 3875 5025 4525 
L 3700 4525 
L 3700 2850 
L 5775 2850 
Q 5675 2200 5525 1687 
Q 5375 1175 5125 675 
Q 5550 175 6100 -75 
Q 5925 -225 5750 -500 
Q 5275 -175 4850 300 
Q 4550 -125 4025 -600 
Q 3900 -375 3750 -200 
Q 4100 50 4525 650 
Q 4200 1075 3875 2425 
L 3700 2425 
L 3700 -575 
z
M 2675 4925 
Q 2650 4725 2650 4000 
L 2650 300 
Q 2650 -225 2425 -337 
Q 2200 -450 1800 -550 
Q 1700 -175 1550 50 
Q 1900 50 2050 75 
Q 2200 100 2200 450 
L 2200 1700 
L 1225 1700 
Q 1175 1075 1050 550 
Q 925 25 700 -475 
Q 500 -300 225 -175 
Q 525 375 637 862 
Q 750 1350 787 1850 
Q 825 2350 825 3425 
Q 825 4500 800 4925 
L 2675 4925 
z
M 2200 2125 
L 2200 3125 
L 1275 3125 
L 1250 2125 
L 2200 2125 
z
M 2200 3550 
L 2200 4500 
L 1275 4500 
L 1275 3550 
L 2200 3550 
z
M 4325 2425 
Q 4525 1475 4800 1050 
Q 5100 1625 5225 2425 
L 4325 2425 
z
" id="SimHei-670d" transform="scale(0.015625)"/>
      <path d="M 2850 4950 
Q 2650 4775 2500 4550 
L 5275 4550 
Q 5050 4175 4687 3750 
Q 4325 3325 3775 2950 
Q 4125 2725 4725 2612 
Q 5325 2500 6150 2475 
Q 5950 2250 5875 1950 
Q 5175 2000 4500 2200 
Q 3825 2400 3375 2675 
Q 2575 2300 1925 2125 
Q 1275 1950 650 1850 
Q 550 2150 350 2375 
Q 900 2375 1600 2525 
Q 2300 2675 2975 2950 
Q 2450 3450 2075 3975 
Q 1650 3450 1200 3100 
Q 1025 3300 750 3400 
Q 1450 3900 1775 4362 
Q 2100 4825 2250 5225 
Q 2575 5050 2850 4950 
z
M 2800 1650 
Q 2850 1950 2850 2350 
Q 3150 2300 3450 2275 
Q 3375 2125 3300 1650 
L 5325 1650 
Q 5300 1350 5275 962 
Q 5250 575 5187 125 
Q 5125 -325 4825 -400 
Q 4525 -475 3875 -550 
Q 3825 -225 3625 0 
Q 4350 0 4500 50 
Q 4650 100 4700 325 
L 4775 1275 
L 3250 1275 
Q 2900 200 2262 -125 
Q 1625 -450 900 -700 
Q 825 -475 550 -175 
Q 1150 -125 1800 200 
Q 2450 525 2725 1275 
L 2150 1275 
Q 1400 1275 1050 1225 
L 1050 1675 
Q 1425 1650 2175 1650 
L 2800 1650 
z
M 3400 3225 
Q 3900 3525 4375 4175 
L 2500 4175 
Q 2975 3550 3400 3225 
z
" id="SimHei-52a1" transform="scale(0.015625)"/>
      <path d="M 2125 3875 
Q 1750 4375 1325 4725 
Q 1525 4875 1675 5050 
L 2525 4225 
Q 2400 4125 2200 3875 
L 3025 3875 
L 3025 4550 
Q 3025 4900 3000 5125 
L 3525 5125 
Q 3500 4850 3500 4550 
L 3500 3875 
L 4325 3875 
Q 4125 4050 4000 4150 
Q 4450 4575 4800 5175 
Q 5000 5000 5275 4825 
Q 5100 4675 4912 4475 
Q 4725 4275 4400 3875 
L 5025 3875 
Q 5425 3875 5900 3900 
L 5900 3450 
Q 5425 3475 5025 3475 
L 3500 3475 
L 3500 3050 
Q 3500 2650 3525 2175 
L 3175 2175 
Q 3475 2075 3675 2000 
Q 3575 1875 3525 1575 
L 5025 1575 
Q 5525 1575 6025 1600 
L 6025 1150 
Q 5550 1175 5050 1175 
L 3675 1175 
Q 4050 600 4712 275 
Q 5375 -50 6050 -175 
Q 5850 -350 5725 -675 
Q 4975 -450 4350 -37 
Q 3725 375 3300 950 
Q 3050 350 2425 -50 
Q 1800 -450 775 -700 
Q 650 -425 475 -225 
Q 1375 -100 2012 225 
Q 2650 550 2900 1175 
L 1625 1175 
Q 1025 1175 525 1150 
L 525 1600 
Q 950 1575 1600 1575 
L 3025 1575 
Q 3075 1825 3100 2175 
L 3000 2175 
Q 3025 2675 3025 3050 
L 3025 3325 
Q 2725 2900 2237 2550 
Q 1750 2200 925 1825 
Q 850 2025 625 2275 
Q 1175 2400 1725 2737 
Q 2275 3075 2600 3475 
L 1550 3475 
Q 1050 3475 600 3425 
L 600 3900 
Q 1075 3875 1550 3875 
L 2125 3875 
z
M 4100 3450 
Q 4850 3000 5800 2350 
Q 5575 2125 5425 1925 
Q 4700 2550 3825 3075 
Q 3975 3250 4100 3450 
z
" id="SimHei-7c7b" transform="scale(0.015625)"/>
      <path d="M 2625 1775 
Q 2650 2325 2650 2700 
L 2650 3000 
L 1825 3000 
Q 1725 2375 1425 2000 
Q 1125 1625 775 1425 
Q 650 1650 375 1900 
Q 850 2075 1062 2362 
Q 1275 2650 1350 3000 
Q 900 3000 375 2975 
L 375 3450 
Q 925 3425 1400 3425 
Q 1425 3950 1425 4475 
Q 1075 4475 700 4450 
L 700 4900 
Q 1050 4875 1525 4875 
L 3000 4875 
Q 3275 4875 3650 4900 
L 3650 4450 
Q 3325 4475 3125 4475 
L 3125 3425 
Q 3450 3425 3825 3450 
L 3825 2975 
Q 3450 3000 3125 3000 
L 3125 2675 
Q 3125 2225 3150 1775 
L 2625 1775 
z
M 3000 1175 
Q 3000 1375 2975 1725 
L 3500 1725 
Q 3475 1375 3475 1175 
L 4550 1175 
Q 5050 1175 5450 1200 
L 5450 725 
Q 4975 750 4550 750 
L 3475 750 
L 3475 -50 
L 5275 -50 
Q 5700 -50 6100 -25 
L 6100 -500 
Q 5725 -475 5300 -475 
L 1250 -475 
Q 775 -475 400 -500 
L 400 -25 
Q 775 -50 1250 -50 
L 3000 -50 
L 3000 750 
L 2025 750 
Q 1500 750 975 725 
L 1050 1200 
Q 1500 1175 2025 1175 
L 3000 1175 
z
M 5775 5200 
Q 5750 4775 5750 4325 
L 5750 2400 
Q 5775 1950 5612 1775 
Q 5450 1600 4900 1525 
Q 4825 1775 4675 2100 
Q 5175 2075 5237 2150 
Q 5300 2225 5300 2525 
L 5300 4325 
Q 5300 4775 5275 5200 
L 5775 5200 
z
M 4600 4750 
Q 4575 4450 4575 3975 
L 4575 3200 
Q 4575 2825 4600 2425 
L 4100 2425 
Q 4125 2825 4125 3200 
L 4125 3975 
Q 4125 4450 4100 4750 
L 4600 4750 
z
M 2650 3425 
L 2650 4475 
L 1875 4475 
Q 1850 3750 1850 3425 
L 2650 3425 
z
" id="SimHei-578b" transform="scale(0.015625)"/>
     </defs>
     <use xlink:href="#SimHei-670d"/>
     <use x="100" xlink:href="#SimHei-20"/>
     <use x="150" xlink:href="#SimHei-52a1"/>
     <use x="250" xlink:href="#SimHei-20"/>
     <use x="300" xlink:href="#SimHei-7c7b"/>
     <use x="400" xlink:href="#SimHei-20"/>
     <use x="450" xlink:href="#SimHei-578b"/>
    </g>
   </g>
  </g>
 </g>
 <defs>
  <clipPath id="p28929f735e">
   <rect height="266.4" width="266.4" x="7.2" y="7.2"/>
  </clipPath>
 </defs>
</svg>
