<?xml version="1.0" encoding="utf-8" standalone="no"?>
<!DOCTYPE svg PUBLIC "-//W3C//DTD SVG 1.1//EN"
  "http://www.w3.org/Graphics/SVG/1.1/DTD/svg11.dtd">
<svg height="280.8pt" version="1.1" viewBox="0 0 353.30621 280.8" width="353.30621pt" xmlns="http://www.w3.org/2000/svg" xmlns:xlink="http://www.w3.org/1999/xlink">
 <metadata>
  <rdf:RDF xmlns:cc="http://creativecommons.org/ns#" xmlns:dc="http://purl.org/dc/elements/1.1/" xmlns:rdf="http://www.w3.org/1999/02/22-rdf-syntax-ns#">
   <cc:Work>
    <dc:type rdf:resource="http://purl.org/dc/dcmitype/StillImage"/>
    <dc:date>2023-09-26T21:50:12.662041</dc:date>
    <dc:format>image/svg+xml</dc:format>
    <dc:creator>
     <cc:Agent>
      <dc:title>Matplotlib v3.4.3, https://matplotlib.org/</dc:title>
     </cc:Agent>
    </dc:creator>
   </cc:Work>
  </rdf:RDF>
 </metadata>
 <defs>
  <style type="text/css">*{stroke-linecap:butt;stroke-linejoin:round;}</style>
 </defs>
 <g id="figure_1">
  <g id="patch_1">
   <path d="M 0 280.8 
L 353.30621 280.8 
L 353.30621 0 
L 0 0 
z
" style="fill:none;"/>
  </g>
  <g id="axes_1">
   <g id="patch_2">
    <path d="M 181.653106 33.84 
C 157.392664 33.84 133.844798 42.125037 114.929129 57.31604 
C 96.013461 72.507042 82.841169 93.711631 77.604828 117.400231 
C 72.368486 141.088832 75.375697 165.869884 86.1259 187.618497 
C 96.876103 209.367111 114.73779 226.805689 136.737822 237.031521 
L 181.653106 140.4 
L 181.653106 33.84 
z
" style="fill:#6fa0ac;"/>
   </g>
   <g id="patch_3">
    <path d="M 136.737822 237.031521 
C 151.198413 243.752946 166.98503 247.143465 182.930239 246.952346 
C 198.875449 246.761228 214.576265 242.993301 228.871599 235.927208 
C 243.166933 228.861115 255.695496 218.675439 265.53079 206.123418 
C 275.366085 193.571398 282.259541 178.970262 285.701382 163.399778 
C 289.143224 147.829295 289.046464 131.682978 285.418259 116.154863 
C 281.790054 100.626748 274.722099 86.109279 264.737076 73.676035 
C 254.752053 61.24279 242.102316 51.208 227.723322 44.313743 
C 213.344328 37.419486 197.599481 33.840003 181.653126 33.84 
L 181.653106 140.4 
L 136.737822 237.031521 
z
" style="fill:#b5d3d9;"/>
   </g>
   <g id="patch_4">
    <path clip-path="url(#p4f4bf252ae)" d="M 181.653106 214.992 
C 201.435136 214.992 220.409608 207.132516 234.397615 193.144509 
C 248.385623 179.156502 256.245106 160.18203 256.245106 140.4 
C 256.245106 120.61797 248.385623 101.643498 234.397615 87.655491 
C 220.409608 73.667484 201.435136 65.808 181.653106 65.808 
C 161.871077 65.808 142.896605 73.667484 128.908597 87.655491 
C 114.92059 101.643498 107.061106 120.61797 107.061106 140.4 
C 107.061106 160.18203 114.92059 179.156502 128.908597 193.144509 
C 142.896605 207.132516 161.871077 214.992 181.653106 214.992 
z
" style="fill:#ffffff;"/>
   </g>
   <g id="matplotlib.axis_1"/>
   <g id="matplotlib.axis_2"/>
   <g id="text_1">
    <!-- 训练集未出现 -->
    <g transform="translate(7.2 118.479161)scale(0.1 -0.1)">
     <defs>
      <path d="M 1650 3300 
Q 1625 2725 1625 2225 
L 1625 675 
Q 1950 1125 2050 1275 
Q 2175 1125 2350 900 
Q 2025 500 1800 212 
Q 1575 -75 1325 -425 
Q 1150 -200 950 -50 
Q 1150 225 1150 625 
L 1150 2875 
L 975 2875 
Q 600 2875 300 2850 
L 300 3325 
Q 600 3300 975 3300 
L 1650 3300 
z
M 3425 4600 
Q 3375 4350 3387 3362 
Q 3400 2375 3337 1887 
Q 3275 1400 3087 837 
Q 2900 275 2450 -375 
Q 2225 -200 1975 -125 
Q 2550 500 2762 1362 
Q 2975 2225 2950 3337 
Q 2925 4450 2900 4675 
Q 3150 4625 3425 4600 
z
M 5875 4700 
Q 5850 4500 5850 3975 
L 5850 625 
Q 5850 125 5875 -400 
L 5400 -400 
Q 5425 125 5425 600 
L 5425 3975 
Q 5425 4500 5400 4700 
L 5875 4700 
z
M 4600 175 
L 4125 175 
Q 4150 725 4150 1150 
L 4150 3600 
Q 4150 4050 4125 4350 
L 4600 4350 
L 4600 175 
z
M 1000 5150 
Q 1650 4600 2100 4100 
Q 1875 3925 1750 3750 
Q 1050 4550 700 4800 
Q 850 4950 1000 5150 
z
" id="SimHei-8bad" transform="scale(0.015625)"/>
      <path d="M 3300 3825 
Q 2950 3825 2400 3800 
L 2400 4250 
Q 2950 4225 3325 4225 
L 3625 4225 
Q 3875 4950 3900 5175 
Q 4200 5025 4450 4925 
Q 4350 4825 4262 4612 
Q 4175 4400 4100 4225 
L 5025 4225 
Q 5425 4225 5900 4250 
L 5900 3800 
Q 5550 3825 5025 3825 
L 3975 3825 
Q 3850 3525 3700 3150 
L 4675 3150 
Q 4650 2875 4650 2475 
L 4650 1975 
L 4975 1975 
Q 5350 1975 5800 2000 
L 5800 1550 
Q 5350 1575 4975 1575 
L 4650 1575 
L 4650 125 
Q 4650 -300 4462 -425 
Q 4275 -550 3650 -625 
Q 3625 -375 3450 -100 
Q 4075 -125 4137 -25 
Q 4200 75 4200 325 
L 4200 1575 
L 3425 1575 
Q 3250 1575 3100 1562 
Q 2950 1550 2750 1475 
Q 2650 1725 2550 1950 
Q 2800 2025 3125 2775 
Q 2950 2775 2450 2750 
L 2450 3175 
Q 3025 3150 3250 3150 
Q 3400 3525 3500 3825 
L 3300 3825 
z
M 1650 2950 
Q 1875 3300 2100 3900 
Q 2325 3725 2575 3600 
Q 2325 3275 2025 2750 
Q 1725 2225 1075 1350 
Q 1300 1400 2400 1575 
Q 2350 1300 2375 1150 
Q 1825 1100 650 825 
Q 525 1075 400 1275 
Q 625 1400 887 1737 
Q 1150 2075 1450 2575 
Q 1300 2600 1012 2562 
Q 725 2525 450 2450 
Q 350 2675 250 2925 
Q 500 3075 812 3725 
Q 1125 4375 1325 5000 
Q 1600 4825 1850 4750 
Q 1600 4375 1387 3962 
Q 1175 3550 800 2925 
Q 1375 2925 1650 2950 
z
M 2425 700 
Q 2400 425 2425 250 
Q 2000 150 1462 -25 
Q 925 -200 475 -425 
Q 400 -150 300 125 
Q 950 275 1187 337 
Q 1425 400 2425 700 
z
M 3725 875 
Q 3650 800 3287 400 
Q 2925 0 2475 -475 
Q 2300 -250 2150 -125 
Q 2425 100 2750 462 
Q 3075 825 3325 1225 
Q 3475 1050 3725 875 
z
M 5275 1225 
Q 5925 375 6200 -100 
Q 5950 -200 5750 -375 
Q 5475 175 4900 950 
Q 5075 1050 5275 1225 
z
M 4200 1975 
L 4200 2775 
L 3575 2775 
Q 3325 2250 3175 1975 
L 4200 1975 
z
" id="SimHei-7ec3" transform="scale(0.015625)"/>
      <path d="M 2275 4925 
Q 2125 4800 2025 4662 
Q 1925 4525 1850 4350 
L 4925 4350 
Q 5300 4350 5750 4375 
L 5750 3975 
L 3650 3975 
L 3650 3575 
L 4625 3575 
Q 4925 3575 5325 3600 
L 5325 3175 
Q 4925 3200 4625 3200 
L 3650 3200 
L 3650 2800 
L 4675 2800 
Q 5000 2800 5425 2825 
L 5425 2400 
Q 5000 2425 4675 2425 
L 3650 2425 
L 3650 2075 
L 4875 2075 
Q 5275 2075 5675 2100 
L 5675 1675 
Q 5300 1700 4900 1700 
L 1650 1700 
L 1650 1500 
L 1150 1500 
Q 1200 1950 1200 2325 
L 1200 3475 
Q 1050 3250 937 3125 
Q 825 3000 675 2825 
Q 500 3000 300 3125 
Q 475 3325 875 3825 
Q 1275 4325 1462 4650 
Q 1650 4975 1725 5225 
Q 1950 5100 2275 4925 
z
M 2975 1200 
Q 2975 1300 2950 1625 
L 3475 1625 
Q 3450 1275 3450 1200 
L 5050 1200 
Q 5500 1200 5925 1225 
L 5925 825 
L 4150 825 
Q 4500 525 4925 362 
Q 5350 200 6100 25 
Q 5875 -225 5775 -475 
Q 5275 -300 4962 -162 
Q 4650 -25 4387 137 
Q 4125 300 3950 462 
Q 3775 625 3575 825 
L 3450 825 
L 3450 250 
Q 3450 -275 3500 -650 
L 2950 -650 
Q 2975 -300 2975 250 
L 2975 825 
L 2875 825 
Q 2700 575 2475 375 
Q 2250 175 1987 12 
Q 1725 -150 1425 -300 
Q 1125 -450 700 -575 
Q 600 -325 400 -75 
Q 925 50 1475 262 
Q 2025 475 2300 825 
L 500 825 
L 500 1225 
Q 800 1200 1400 1200 
L 2975 1200 
z
M 3150 2800 
L 3150 3200 
L 1650 3200 
L 1650 2800 
L 3150 2800 
z
M 3150 3575 
L 3150 3975 
L 1650 3975 
L 1650 3575 
L 3150 3575 
z
M 3150 2075 
L 3150 2425 
L 1650 2425 
L 1650 2075 
L 3150 2075 
z
M 3450 5250 
Q 3575 5150 3712 5000 
Q 3850 4850 4000 4650 
Q 3850 4525 3575 4375 
Q 3425 4575 3325 4700 
Q 3225 4825 3075 4950 
Q 3275 5075 3450 5250 
z
" id="SimHei-96c6" transform="scale(0.015625)"/>
      <path d="M 2875 4150 
Q 2875 4900 2850 5225 
L 3400 5225 
Q 3375 4925 3375 4150 
L 4475 4150 
Q 4950 4150 5375 4175 
L 5375 3725 
Q 4950 3750 4475 3750 
L 3375 3750 
L 3375 2750 
L 4850 2750 
Q 5400 2750 5875 2775 
L 5875 2325 
Q 5400 2350 4875 2350 
L 3675 2350 
Q 4125 1675 4662 1187 
Q 5200 700 6175 425 
Q 5850 275 5725 -100 
Q 5050 150 4462 650 
Q 3875 1150 3375 2050 
L 3375 300 
Q 3375 -175 3400 -575 
L 2825 -575 
Q 2875 -175 2875 300 
L 2875 2125 
Q 2275 1150 1700 650 
Q 1125 150 675 -150 
Q 575 75 225 300 
Q 650 450 1312 1000 
Q 1975 1550 2475 2350 
L 1225 2350 
Q 675 2350 375 2325 
L 375 2775 
Q 750 2750 1275 2750 
L 2875 2750 
L 2875 3750 
L 1825 3750 
Q 1225 3750 850 3725 
L 850 4175 
Q 1225 4150 1775 4150 
L 2875 4150 
z
" id="SimHei-672a" transform="scale(0.015625)"/>
      <path d="M 1475 4550 
Q 1450 4225 1450 3950 
L 1450 2950 
L 2925 2950 
L 2925 4425 
Q 2925 4775 2900 5125 
L 3425 5125 
Q 3400 4825 3400 4425 
L 3400 2950 
L 4900 2950 
L 4900 3875 
Q 4900 4275 4875 4525 
L 5400 4525 
Q 5375 4275 5375 3850 
L 5375 3175 
Q 5375 2775 5400 2525 
L 3400 2525 
L 3400 225 
L 5125 225 
L 5125 1275 
Q 5125 1650 5100 1925 
L 5625 1925 
Q 5600 1650 5600 1300 
L 5600 175 
Q 5600 -325 5625 -650 
L 5125 -650 
L 5125 -200 
L 675 -200 
Q 700 100 700 525 
L 700 1275 
Q 700 1700 675 1950 
L 1200 1950 
Q 1175 1700 1175 1275 
L 1175 225 
L 2925 225 
L 2925 2525 
L 950 2525 
Q 975 2775 975 3150 
L 975 3925 
Q 975 4250 950 4550 
L 1475 4550 
z
" id="SimHei-51fa" transform="scale(0.015625)"/>
      <path d="M 4650 3850 
Q 4550 3575 4512 2975 
Q 4475 2375 4350 1700 
L 4850 1700 
Q 4825 1450 4825 1025 
L 4825 225 
Q 4825 -150 4962 -175 
Q 5100 -200 5275 -187 
Q 5450 -175 5525 -12 
Q 5600 150 5625 575 
Q 5875 425 6175 375 
Q 6050 -150 5925 -337 
Q 5800 -525 5400 -575 
L 4900 -575 
Q 4350 -575 4350 -100 
L 4350 1650 
Q 4125 850 3700 312 
Q 3275 -225 2425 -675 
Q 2300 -475 2000 -325 
Q 2800 0 3175 387 
Q 3550 775 3775 1375 
Q 4000 1975 4037 2625 
Q 4075 3275 4050 3925 
Q 4375 3875 4650 3850 
z
M 1850 4625 
Q 2125 4625 2525 4650 
L 2525 4175 
Q 2125 4200 1675 4200 
L 1675 2825 
Q 2025 2825 2425 2850 
L 2425 2375 
Q 2025 2400 1675 2400 
L 1675 875 
Q 2100 975 2550 1125 
Q 2525 850 2525 650 
Q 1700 450 1200 275 
Q 700 100 450 -25 
Q 375 325 250 575 
Q 650 625 1225 750 
L 1225 2400 
Q 825 2400 450 2375 
L 450 2850 
Q 825 2825 1225 2825 
L 1225 4200 
Q 775 4200 425 4175 
L 425 4650 
Q 725 4625 1000 4625 
L 1850 4625 
z
M 5750 4875 
Q 5725 4475 5725 4075 
L 5725 2400 
Q 5725 1925 5750 1575 
L 5275 1575 
L 5275 4475 
L 3375 4475 
L 3375 1550 
L 2900 1550 
Q 2925 1975 2925 2500 
L 2925 3875 
Q 2925 4425 2900 4875 
L 5750 4875 
z
" id="SimHei-73b0" transform="scale(0.015625)"/>
     </defs>
     <use xlink:href="#SimHei-8bad"/>
     <use x="100" xlink:href="#SimHei-7ec3"/>
     <use x="200" xlink:href="#SimHei-96c6"/>
     <use x="300" xlink:href="#SimHei-672a"/>
     <use x="400" xlink:href="#SimHei-51fa"/>
     <use x="500" xlink:href="#SimHei-73b0"/>
    </g>
   </g>
   <g id="text_2">
    <!-- 43.1% -->
    <g transform="translate(80.71207 123.662697)scale(0.1 -0.1)">
     <defs>
      <path d="M 2000 1100 
L 75 1100 
L 75 1525 
L 2100 4450 
L 2475 4450 
L 2475 1525 
L 3075 1525 
L 3075 1100 
L 2475 1100 
L 2475 150 
L 2000 150 
L 2000 1100 
z
M 2000 1525 
L 2000 3500 
L 600 1525 
L 2000 1525 
z
" id="SimHei-34" transform="scale(0.015625)"/>
      <path d="M 250 1225 
L 700 1300 
Q 800 975 1025 762 
Q 1250 550 1587 562 
Q 1925 575 2125 837 
Q 2325 1100 2300 1437 
Q 2275 1775 2037 1962 
Q 1800 2150 1275 2225 
L 1275 2550 
Q 1800 2600 2037 2825 
Q 2275 3050 2250 3412 
Q 2225 3775 1925 3937 
Q 1625 4100 1287 3975 
Q 950 3850 750 3275 
L 300 3350 
Q 450 3800 712 4100 
Q 975 4400 1425 4450 
Q 1875 4500 2212 4337 
Q 2550 4175 2687 3837 
Q 2825 3500 2725 3100 
Q 2625 2700 2150 2400 
Q 2500 2250 2687 1950 
Q 2875 1650 2812 1162 
Q 2750 675 2375 375 
Q 2000 75 1525 87 
Q 1050 100 700 387 
Q 350 675 250 1225 
z
" id="SimHei-33" transform="scale(0.015625)"/>
      <path d="M 1075 125 
L 500 125 
L 500 675 
L 1075 675 
L 1075 125 
z
" id="SimHei-2e" transform="scale(0.015625)"/>
      <path d="M 1400 3600 
Q 1075 3275 575 2975 
L 575 3450 
Q 1200 3875 1600 4450 
L 1900 4450 
L 1900 150 
L 1400 150 
L 1400 3600 
z
" id="SimHei-31" transform="scale(0.015625)"/>
      <path d="M 1400 3325 
Q 1400 2600 1187 2400 
Q 975 2200 775 2200 
Q 575 2200 362 2400 
Q 150 2600 150 3325 
Q 150 4050 362 4250 
Q 575 4450 775 4450 
Q 975 4450 1187 4250 
Q 1400 4050 1400 3325 
z
M 2625 4375 
L 700 75 
L 500 150 
L 2425 4450 
L 2625 4375 
z
M 2975 1200 
Q 2975 475 2762 275 
Q 2550 75 2350 75 
Q 2150 75 1937 275 
Q 1725 475 1725 1200 
Q 1725 1925 1937 2125 
Q 2150 2325 2350 2325 
Q 2550 2325 2762 2125 
Q 2975 1925 2975 1200 
z
M 1000 3325 
Q 1000 3775 950 3925 
Q 900 4075 775 4075 
Q 650 4075 600 3925 
Q 550 3775 550 3325 
Q 550 2875 600 2725 
Q 650 2575 775 2575 
Q 900 2575 950 2725 
Q 1000 2875 1000 3325 
z
M 2575 1200 
Q 2575 1650 2525 1800 
Q 2475 1950 2350 1950 
Q 2225 1950 2175 1800 
Q 2125 1650 2125 1200 
Q 2125 750 2175 600 
Q 2225 450 2350 450 
Q 2475 450 2525 600 
Q 2575 750 2575 1200 
z
" id="SimHei-25" transform="scale(0.015625)"/>
     </defs>
     <use xlink:href="#SimHei-34"/>
     <use x="50" xlink:href="#SimHei-33"/>
     <use x="100" xlink:href="#SimHei-2e"/>
     <use x="150" xlink:href="#SimHei-31"/>
     <use x="200" xlink:href="#SimHei-25"/>
    </g>
   </g>
   <g id="text_3">
    <!-- 训练集出现 -->
    <g transform="translate(296.10621 169.078663)scale(0.1 -0.1)">
     <use xlink:href="#SimHei-8bad"/>
     <use x="100" xlink:href="#SimHei-7ec3"/>
     <use x="200" xlink:href="#SimHei-96c6"/>
     <use x="300" xlink:href="#SimHei-51fa"/>
     <use x="400" xlink:href="#SimHei-73b0"/>
    </g>
   </g>
   <g id="text_4">
    <!-- 56.9% -->
    <g transform="translate(257.594141 162.762312)scale(0.1 -0.1)">
     <defs>
      <path d="M 550 1325 
Q 725 650 1150 575 
Q 1575 500 1837 662 
Q 2100 825 2212 1087 
Q 2325 1350 2312 1675 
Q 2300 2000 2137 2225 
Q 1975 2450 1725 2525 
Q 1475 2600 1162 2525 
Q 850 2450 650 2175 
L 225 2225 
Q 275 2375 700 4375 
L 2675 4375 
L 2675 3925 
L 1075 3925 
Q 950 3250 825 2850 
Q 1200 3025 1525 3012 
Q 1850 3000 2150 2862 
Q 2450 2725 2587 2487 
Q 2725 2250 2787 2012 
Q 2850 1775 2837 1500 
Q 2825 1225 2725 937 
Q 2625 650 2425 462 
Q 2225 275 1937 162 
Q 1650 50 1275 75 
Q 900 100 562 350 
Q 225 600 100 1200 
L 550 1325 
z
" id="SimHei-35" transform="scale(0.015625)"/>
      <path d="M 250 1612 
Q 275 1975 387 2225 
Q 500 2475 725 2850 
L 1750 4450 
L 2325 4450 
L 1275 2800 
Q 1950 2975 2350 2750 
Q 2750 2525 2887 2237 
Q 3025 1950 3037 1612 
Q 3050 1275 2937 950 
Q 2825 625 2537 362 
Q 2250 100 1737 75 
Q 1225 50 862 262 
Q 500 475 362 862 
Q 225 1250 250 1612 
z
M 1025 787 
Q 1250 550 1625 525 
Q 2000 500 2250 775 
Q 2500 1050 2500 1575 
Q 2500 2100 2187 2300 
Q 1875 2500 1487 2450 
Q 1100 2400 925 2075 
Q 750 1750 775 1387 
Q 800 1025 1025 787 
z
" id="SimHei-36" transform="scale(0.015625)"/>
      <path d="M 800 75 
Q 1350 1000 1700 1750 
Q 1075 1650 662 1912 
Q 250 2175 162 2625 
Q 75 3075 175 3437 
Q 275 3800 487 4037 
Q 700 4275 1000 4375 
Q 1300 4475 1537 4475 
Q 1775 4475 2025 4375 
Q 2275 4275 2475 4075 
Q 2675 3875 2750 3662 
Q 2825 3450 2825 3112 
Q 2825 2775 2575 2250 
Q 2325 1725 1350 75 
L 800 75 
z
M 662 2875 
Q 700 2550 937 2337 
Q 1175 2125 1450 2150 
Q 1725 2175 1887 2300 
Q 2050 2425 2200 2725 
Q 2300 3100 2250 3362 
Q 2200 3625 1987 3800 
Q 1775 3975 1525 3975 
Q 1375 4000 1137 3900 
Q 900 3800 762 3500 
Q 625 3200 662 2875 
z
" id="SimHei-39" transform="scale(0.015625)"/>
     </defs>
     <use xlink:href="#SimHei-35"/>
     <use x="50" xlink:href="#SimHei-36"/>
     <use x="100" xlink:href="#SimHei-2e"/>
     <use x="150" xlink:href="#SimHei-39"/>
     <use x="200" xlink:href="#SimHei-25"/>
    </g>
   </g>
   <g id="text_5">
    <!-- 测试集中攻击类型 -->
    <g transform="translate(133.653106 147.72)scale(0.12 -0.12)">
     <defs>
      <path d="M 4025 4725 
Q 4000 4475 4000 4000 
L 4000 2225 
Q 4000 1775 4025 1350 
L 3550 1350 
L 3550 4325 
L 2350 4325 
L 2350 1325 
L 1900 1325 
Q 1925 1775 1925 2225 
L 1925 4000 
Q 1925 4200 1900 4725 
L 4025 4725 
z
M 5900 5075 
Q 5875 4800 5875 4375 
L 5875 0 
Q 5875 -325 5650 -425 
Q 5425 -525 4975 -600 
Q 4925 -325 4775 -50 
Q 5125 -50 5262 -25 
Q 5400 0 5400 250 
L 5400 4375 
Q 5400 4775 5375 5075 
L 5900 5075 
z
M 3275 3725 
Q 3225 3400 3200 2325 
Q 3175 1250 2837 550 
Q 2500 -150 2075 -600 
Q 1850 -400 1600 -325 
Q 2200 250 2475 962 
Q 2750 1675 2762 2475 
Q 2775 3275 2725 3800 
Q 3000 3750 3275 3725 
z
M 4950 4275 
Q 4925 4000 4925 3575 
L 4925 1825 
Q 4925 1300 4950 850 
L 4450 850 
Q 4475 1150 4475 1825 
L 4475 3575 
Q 4475 4000 4450 4275 
L 4950 4275 
z
M 1700 1675 
Q 1375 1075 1112 487 
Q 850 -100 725 -400 
Q 500 -200 200 -25 
Q 475 300 762 850 
Q 1050 1400 1250 2000 
Q 1475 1825 1700 1675 
z
M 3400 1050 
Q 3800 650 4300 -125 
Q 4100 -225 3875 -450 
Q 3475 275 3025 750 
Q 3225 875 3400 1050 
z
M 600 3525 
Q 1125 3125 1500 2775 
Q 1300 2575 1150 2375 
Q 825 2775 300 3150 
Q 450 3300 600 3525 
z
M 1350 4000 
Q 950 4375 475 4675 
Q 625 4850 775 5050 
Q 1300 4700 1675 4375 
Q 1500 4250 1350 4000 
z
" id="SimHei-6d4b" transform="scale(0.015625)"/>
      <path d="M 3950 3825 
Q 3925 4325 3925 4550 
Q 3925 4800 3900 5225 
Q 4200 5150 4450 5125 
Q 4425 4825 4425 4600 
L 4425 3825 
L 5150 3825 
Q 5500 3825 5875 3850 
L 5875 3400 
Q 5525 3425 5125 3425 
L 4450 3425 
Q 4500 2750 4587 2212 
Q 4675 1675 4837 1112 
Q 5000 550 5212 225 
Q 5425 -100 5500 200 
Q 5575 500 5600 900 
Q 5800 625 6100 525 
Q 5975 -275 5750 -487 
Q 5525 -700 5250 -537 
Q 4975 -375 4737 62 
Q 4500 500 4337 1075 
Q 4175 1650 4100 2262 
Q 4025 2875 3975 3425 
L 2800 3425 
Q 2300 3425 1875 3400 
L 1875 3850 
Q 2275 3825 2775 3825 
L 3950 3825 
z
M 1500 3175 
Q 1475 2675 1475 2175 
L 1475 625 
Q 1825 950 2125 1225 
Q 2225 1000 2375 800 
Q 1900 425 1125 -350 
Q 1000 -125 825 50 
Q 1025 175 1025 525 
L 1025 2725 
Q 625 2725 300 2700 
L 300 3200 
Q 625 3175 825 3175 
L 1500 3175 
z
M 3775 2175 
Q 3500 2200 3250 2200 
L 3250 575 
Q 3575 675 3900 800 
Q 3900 525 3950 325 
Q 3575 250 3150 125 
Q 2725 0 2275 -175 
Q 2200 100 2025 300 
Q 2425 350 2800 475 
L 2800 2200 
Q 2525 2200 2225 2175 
L 2225 2650 
Q 2600 2625 3000 2625 
Q 3425 2625 3775 2650 
L 3775 2175 
z
M 925 4975 
Q 1275 4650 1700 4100 
Q 1525 3925 1325 3775 
Q 1175 4050 575 4650 
Q 775 4825 925 4975 
z
M 5150 5150 
Q 5325 5000 5850 4375 
Q 5575 4200 5425 4050 
Q 5125 4525 4775 4875 
Q 4925 4975 5150 5150 
z
" id="SimHei-8bd5" transform="scale(0.015625)"/>
      <path d="M 3475 5200 
Q 3450 4500 3450 3875 
L 5625 3875 
Q 5600 3375 5600 2500 
Q 5600 1650 5625 1225 
L 5075 1225 
L 5075 1600 
L 3450 1600 
L 3450 525 
Q 3450 225 3475 -600 
L 2875 -600 
Q 2925 -150 2925 450 
L 2925 1600 
L 1300 1600 
L 1300 1225 
L 750 1225 
Q 775 1600 775 2500 
Q 775 3425 750 3875 
L 2925 3875 
Q 2925 4550 2900 5200 
L 3475 5200 
z
M 5075 2000 
L 5075 3475 
L 3450 3475 
L 3450 2000 
L 5075 2000 
z
M 2925 2000 
L 2925 3475 
L 1300 3475 
L 1300 2000 
L 2925 2000 
z
" id="SimHei-4e2d" transform="scale(0.015625)"/>
      <path d="M 3150 2875 
Q 3000 2500 2750 2175 
Q 2525 2375 2325 2450 
Q 2625 2800 2962 3550 
Q 3300 4300 3525 5225 
Q 3750 5100 4075 5025 
Q 4000 4925 3875 4625 
L 3625 4025 
L 5300 4025 
Q 5675 4025 6075 4050 
L 6075 3575 
Q 5600 3600 5375 3600 
Q 5325 2975 5125 2225 
Q 4925 1475 4575 925 
Q 4800 675 5200 400 
Q 5600 125 6150 -125 
Q 5950 -275 5750 -575 
Q 5475 -400 5062 -100 
Q 4650 200 4275 575 
Q 3800 150 3337 -150 
Q 2875 -450 2500 -625 
Q 2375 -375 2150 -175 
Q 2600 -50 3112 250 
Q 3625 550 3950 925 
Q 3700 1350 3475 1887 
Q 3250 2425 3150 2875 
z
M 2825 1400 
Q 2800 1175 2825 975 
Q 1875 725 1350 587 
Q 825 450 450 300 
Q 350 675 250 850 
Q 850 925 1375 1050 
L 1375 3850 
Q 775 3850 425 3825 
L 425 4275 
Q 825 4250 1175 4250 
L 2000 4250 
Q 2350 4250 2775 4275 
L 2775 3825 
Q 2375 3850 1850 3850 
L 1850 1150 
Q 2325 1275 2825 1400 
z
M 4275 1275 
Q 4525 1700 4687 2312 
Q 4850 2925 4900 3600 
L 3475 3600 
L 3400 3375 
Q 3500 2875 3787 2225 
Q 4075 1575 4275 1275 
z
" id="SimHei-653b" transform="scale(0.015625)"/>
      <path d="M 2950 4075 
L 2950 4575 
Q 2925 4800 2925 5100 
L 3450 5100 
Q 3425 4800 3425 4575 
L 3425 4075 
L 4725 4075 
Q 5175 4075 5525 4100 
L 5525 3625 
Q 5175 3650 4725 3650 
L 3425 3650 
L 3425 2600 
L 5325 2600 
Q 5825 2600 6150 2625 
L 6150 2175 
Q 5825 2200 5325 2200 
L 3425 2200 
L 3425 200 
L 4825 200 
L 4825 1225 
Q 4825 1375 4800 1675 
L 5350 1675 
Q 5325 1350 5325 1225 
L 5325 175 
Q 5325 -200 5350 -575 
L 4825 -575 
L 4825 -200 
L 1050 -200 
Q 1075 100 1075 425 
L 1075 1200 
Q 1075 1300 1050 1650 
L 1600 1650 
Q 1575 1300 1575 1200 
L 1575 200 
L 2950 200 
L 2950 2200 
L 1150 2200 
Q 600 2200 250 2175 
L 250 2625 
Q 600 2600 1125 2600 
L 2950 2600 
L 2950 3650 
L 1675 3650 
Q 1200 3650 875 3625 
L 875 4125 
Q 1175 4100 1675 4075 
L 2950 4075 
z
" id="SimHei-51fb" transform="scale(0.015625)"/>
      <path d="M 2125 3875 
Q 1750 4375 1325 4725 
Q 1525 4875 1675 5050 
L 2525 4225 
Q 2400 4125 2200 3875 
L 3025 3875 
L 3025 4550 
Q 3025 4900 3000 5125 
L 3525 5125 
Q 3500 4850 3500 4550 
L 3500 3875 
L 4325 3875 
Q 4125 4050 4000 4150 
Q 4450 4575 4800 5175 
Q 5000 5000 5275 4825 
Q 5100 4675 4912 4475 
Q 4725 4275 4400 3875 
L 5025 3875 
Q 5425 3875 5900 3900 
L 5900 3450 
Q 5425 3475 5025 3475 
L 3500 3475 
L 3500 3050 
Q 3500 2650 3525 2175 
L 3175 2175 
Q 3475 2075 3675 2000 
Q 3575 1875 3525 1575 
L 5025 1575 
Q 5525 1575 6025 1600 
L 6025 1150 
Q 5550 1175 5050 1175 
L 3675 1175 
Q 4050 600 4712 275 
Q 5375 -50 6050 -175 
Q 5850 -350 5725 -675 
Q 4975 -450 4350 -37 
Q 3725 375 3300 950 
Q 3050 350 2425 -50 
Q 1800 -450 775 -700 
Q 650 -425 475 -225 
Q 1375 -100 2012 225 
Q 2650 550 2900 1175 
L 1625 1175 
Q 1025 1175 525 1150 
L 525 1600 
Q 950 1575 1600 1575 
L 3025 1575 
Q 3075 1825 3100 2175 
L 3000 2175 
Q 3025 2675 3025 3050 
L 3025 3325 
Q 2725 2900 2237 2550 
Q 1750 2200 925 1825 
Q 850 2025 625 2275 
Q 1175 2400 1725 2737 
Q 2275 3075 2600 3475 
L 1550 3475 
Q 1050 3475 600 3425 
L 600 3900 
Q 1075 3875 1550 3875 
L 2125 3875 
z
M 4100 3450 
Q 4850 3000 5800 2350 
Q 5575 2125 5425 1925 
Q 4700 2550 3825 3075 
Q 3975 3250 4100 3450 
z
" id="SimHei-7c7b" transform="scale(0.015625)"/>
      <path d="M 2625 1775 
Q 2650 2325 2650 2700 
L 2650 3000 
L 1825 3000 
Q 1725 2375 1425 2000 
Q 1125 1625 775 1425 
Q 650 1650 375 1900 
Q 850 2075 1062 2362 
Q 1275 2650 1350 3000 
Q 900 3000 375 2975 
L 375 3450 
Q 925 3425 1400 3425 
Q 1425 3950 1425 4475 
Q 1075 4475 700 4450 
L 700 4900 
Q 1050 4875 1525 4875 
L 3000 4875 
Q 3275 4875 3650 4900 
L 3650 4450 
Q 3325 4475 3125 4475 
L 3125 3425 
Q 3450 3425 3825 3450 
L 3825 2975 
Q 3450 3000 3125 3000 
L 3125 2675 
Q 3125 2225 3150 1775 
L 2625 1775 
z
M 3000 1175 
Q 3000 1375 2975 1725 
L 3500 1725 
Q 3475 1375 3475 1175 
L 4550 1175 
Q 5050 1175 5450 1200 
L 5450 725 
Q 4975 750 4550 750 
L 3475 750 
L 3475 -50 
L 5275 -50 
Q 5700 -50 6100 -25 
L 6100 -500 
Q 5725 -475 5300 -475 
L 1250 -475 
Q 775 -475 400 -500 
L 400 -25 
Q 775 -50 1250 -50 
L 3000 -50 
L 3000 750 
L 2025 750 
Q 1500 750 975 725 
L 1050 1200 
Q 1500 1175 2025 1175 
L 3000 1175 
z
M 5775 5200 
Q 5750 4775 5750 4325 
L 5750 2400 
Q 5775 1950 5612 1775 
Q 5450 1600 4900 1525 
Q 4825 1775 4675 2100 
Q 5175 2075 5237 2150 
Q 5300 2225 5300 2525 
L 5300 4325 
Q 5300 4775 5275 5200 
L 5775 5200 
z
M 4600 4750 
Q 4575 4450 4575 3975 
L 4575 3200 
Q 4575 2825 4600 2425 
L 4100 2425 
Q 4125 2825 4125 3200 
L 4125 3975 
Q 4125 4450 4100 4750 
L 4600 4750 
z
M 2650 3425 
L 2650 4475 
L 1875 4475 
Q 1850 3750 1850 3425 
L 2650 3425 
z
" id="SimHei-578b" transform="scale(0.015625)"/>
     </defs>
     <use xlink:href="#SimHei-6d4b"/>
     <use x="100" xlink:href="#SimHei-8bd5"/>
     <use x="200" xlink:href="#SimHei-96c6"/>
     <use x="300" xlink:href="#SimHei-4e2d"/>
     <use x="400" xlink:href="#SimHei-653b"/>
     <use x="500" xlink:href="#SimHei-51fb"/>
     <use x="600" xlink:href="#SimHei-7c7b"/>
     <use x="700" xlink:href="#SimHei-578b"/>
    </g>
   </g>
  </g>
 </g>
 <defs>
  <clipPath id="p4f4bf252ae">
   <rect height="266.4" width="266.4" x="48.453106" y="7.2"/>
  </clipPath>
 </defs>
</svg>
