<?xml version="1.0" encoding="utf-8" standalone="no"?>
<!DOCTYPE svg PUBLIC "-//W3C//DTD SVG 1.1//EN"
  "http://www.w3.org/Graphics/SVG/1.1/DTD/svg11.dtd">
<svg height="247.543125pt" version="1.1" viewBox="0 0 261.236961 247.543125" width="261.236961pt" xmlns="http://www.w3.org/2000/svg" xmlns:xlink="http://www.w3.org/1999/xlink">
 <metadata>
  <rdf:RDF xmlns:cc="http://creativecommons.org/ns#" xmlns:dc="http://purl.org/dc/elements/1.1/" xmlns:rdf="http://www.w3.org/1999/02/22-rdf-syntax-ns#">
   <cc:Work>
    <dc:type rdf:resource="http://purl.org/dc/dcmitype/StillImage"/>
    <dc:date>2023-09-24T20:25:17.680463</dc:date>
    <dc:format>image/svg+xml</dc:format>
    <dc:creator>
     <cc:Agent>
      <dc:title>Matplotlib v3.4.3, https://matplotlib.org/</dc:title>
     </cc:Agent>
    </dc:creator>
   </cc:Work>
  </rdf:RDF>
 </metadata>
 <defs>
  <style type="text/css">*{stroke-linecap:butt;stroke-linejoin:round;}</style>
 </defs>
 <g id="figure_1">
  <g id="patch_1">
   <path d="M 0 247.543125 
L 261.236961 247.543125 
L 261.236961 0 
L 0 0 
z
" style="fill:none;"/>
  </g>
  <g id="axes_1">
   <g id="patch_2">
    <path d="M 130.618481 44.647125 
C 110.816715 44.647125 91.596564 51.409507 76.157289 63.808649 
C 60.718014 76.207792 49.966576 93.515321 45.692589 112.850341 
C 41.418602 132.18536 43.873137 152.412057 52.647627 170.163628 
C 61.422117 187.915199 76.001115 202.14885 93.957898 210.495339 
L 130.618481 131.623125 
L 130.618481 44.647125 
z
" style="fill:#6fa0ac;"/>
   </g>
   <g id="patch_3">
    <path d="M 93.957898 210.495339 
C 105.760867 215.981476 118.646159 218.748872 131.660898 218.592878 
C 144.675637 218.436884 157.490897 215.361441 169.158981 209.593982 
C 180.827064 203.826522 191.05308 195.512808 199.080807 185.267645 
C 207.108534 175.022482 212.735085 163.104799 215.544372 150.395917 
C 218.353659 137.687036 218.274682 124.508151 215.313282 111.833851 
C 212.351882 99.159551 206.582902 87.310158 198.432965 77.161942 
C 190.283027 67.013727 179.958106 58.823168 168.221738 53.195964 
C 156.48537 47.568759 143.634171 44.647127 130.618498 44.647125 
L 130.618481 131.623125 
L 93.957898 210.495339 
z
" style="fill:#b5d3d9;"/>
   </g>
   <g id="matplotlib.axis_1"/>
   <g id="matplotlib.axis_2"/>
   <g id="text_1">
    <!-- Normal -->
    <g transform="translate(7.2 113.785562)scale(0.1 -0.1)">
     <defs>
      <path d="M 2850 125 
L 2225 125 
L 850 3225 
L 825 3225 
L 825 125 
L 250 125 
L 250 4400 
L 875 4400 
L 2250 1300 
L 2275 1300 
L 2275 4400 
L 2850 4400 
L 2850 125 
z
" id="SimHei-4e" transform="scale(0.015625)"/>
      <path d="M 2925 1525 
Q 2925 875 2525 475 
Q 2125 75 1575 75 
Q 1025 75 625 475 
Q 225 875 225 1525 
Q 225 2175 625 2575 
Q 1025 2975 1575 2975 
Q 2125 2975 2525 2575 
Q 2925 2175 2925 1525 
z
M 2375 1525 
Q 2375 2025 2125 2275 
Q 1875 2525 1575 2525 
Q 1275 2525 1025 2275 
Q 775 2025 775 1525 
Q 775 1025 1025 775 
Q 1275 525 1575 525 
Q 1875 525 2125 775 
Q 2375 1025 2375 1525 
z
" id="SimHei-6f" transform="scale(0.015625)"/>
      <path d="M 2500 2425 
Q 2025 2500 1700 2287 
Q 1375 2075 1150 1550 
L 1150 125 
L 650 125 
L 650 2925 
L 1150 2925 
L 1150 2200 
Q 1375 2600 1712 2787 
Q 2050 2975 2500 2975 
L 2500 2425 
z
" id="SimHei-72" transform="scale(0.015625)"/>
      <path d="M 3050 125 
L 2550 125 
L 2550 2150 
Q 2550 2300 2500 2400 
Q 2450 2500 2300 2500 
Q 2125 2500 1975 2312 
Q 1825 2125 1825 1825 
L 1825 125 
L 1325 125 
L 1325 2150 
Q 1325 2300 1275 2400 
Q 1225 2500 1075 2500 
Q 900 2500 750 2312 
Q 600 2125 600 1825 
L 600 125 
L 100 125 
L 100 2925 
L 600 2925 
L 600 2550 
Q 725 2750 900 2862 
Q 1075 2975 1275 2975 
Q 1475 2975 1612 2862 
Q 1750 2750 1800 2550 
Q 1925 2750 2087 2862 
Q 2250 2975 2450 2975 
Q 2750 2975 2900 2812 
Q 3050 2650 3050 2350 
L 3050 125 
z
" id="SimHei-6d" transform="scale(0.015625)"/>
      <path d="M 2875 125 
L 2275 125 
Q 2225 175 2200 262 
Q 2175 350 2175 475 
Q 2000 275 1750 175 
Q 1500 75 1225 75 
Q 825 75 550 275 
Q 275 475 275 850 
Q 275 1225 525 1450 
Q 775 1675 1300 1750 
Q 1650 1800 1912 1875 
Q 2175 1950 2175 2075 
Q 2175 2225 2062 2375 
Q 1950 2525 1575 2525 
Q 1275 2525 1137 2412 
Q 1000 2300 950 2100 
L 400 2100 
Q 450 2500 762 2737 
Q 1075 2975 1575 2975 
Q 2125 2975 2400 2725 
Q 2675 2475 2675 2025 
L 2675 650 
Q 2675 500 2725 375 
Q 2775 250 2875 125 
z
M 2175 1050 
L 2175 1550 
Q 2025 1500 1887 1462 
Q 1750 1425 1425 1375 
Q 1050 1325 937 1200 
Q 825 1075 825 900 
Q 825 750 937 637 
Q 1050 525 1275 525 
Q 1500 525 1762 650 
Q 2025 775 2175 1050 
z
" id="SimHei-61" transform="scale(0.015625)"/>
      <path d="M 1825 125 
L 1325 125 
L 1325 4400 
L 1825 4400 
L 1825 125 
z
" id="SimHei-6c" transform="scale(0.015625)"/>
     </defs>
     <use xlink:href="#SimHei-4e"/>
     <use x="50" xlink:href="#SimHei-6f"/>
     <use x="100" xlink:href="#SimHei-72"/>
     <use x="150" xlink:href="#SimHei-6d"/>
     <use x="200" xlink:href="#SimHei-61"/>
     <use x="250" xlink:href="#SimHei-6c"/>
    </g>
   </g>
   <g id="text_2">
    <!-- 43.1% -->
    <g transform="translate(67.162946 123.171954)scale(0.1 -0.1)">
     <defs>
      <path d="M 2000 1100 
L 75 1100 
L 75 1525 
L 2100 4450 
L 2475 4450 
L 2475 1525 
L 3075 1525 
L 3075 1100 
L 2475 1100 
L 2475 150 
L 2000 150 
L 2000 1100 
z
M 2000 1525 
L 2000 3500 
L 600 1525 
L 2000 1525 
z
" id="SimHei-34" transform="scale(0.015625)"/>
      <path d="M 250 1225 
L 700 1300 
Q 800 975 1025 762 
Q 1250 550 1587 562 
Q 1925 575 2125 837 
Q 2325 1100 2300 1437 
Q 2275 1775 2037 1962 
Q 1800 2150 1275 2225 
L 1275 2550 
Q 1800 2600 2037 2825 
Q 2275 3050 2250 3412 
Q 2225 3775 1925 3937 
Q 1625 4100 1287 3975 
Q 950 3850 750 3275 
L 300 3350 
Q 450 3800 712 4100 
Q 975 4400 1425 4450 
Q 1875 4500 2212 4337 
Q 2550 4175 2687 3837 
Q 2825 3500 2725 3100 
Q 2625 2700 2150 2400 
Q 2500 2250 2687 1950 
Q 2875 1650 2812 1162 
Q 2750 675 2375 375 
Q 2000 75 1525 87 
Q 1050 100 700 387 
Q 350 675 250 1225 
z
" id="SimHei-33" transform="scale(0.015625)"/>
      <path d="M 1075 125 
L 500 125 
L 500 675 
L 1075 675 
L 1075 125 
z
" id="SimHei-2e" transform="scale(0.015625)"/>
      <path d="M 1400 3600 
Q 1075 3275 575 2975 
L 575 3450 
Q 1200 3875 1600 4450 
L 1900 4450 
L 1900 150 
L 1400 150 
L 1400 3600 
z
" id="SimHei-31" transform="scale(0.015625)"/>
      <path d="M 1400 3325 
Q 1400 2600 1187 2400 
Q 975 2200 775 2200 
Q 575 2200 362 2400 
Q 150 2600 150 3325 
Q 150 4050 362 4250 
Q 575 4450 775 4450 
Q 975 4450 1187 4250 
Q 1400 4050 1400 3325 
z
M 2625 4375 
L 700 75 
L 500 150 
L 2425 4450 
L 2625 4375 
z
M 2975 1200 
Q 2975 475 2762 275 
Q 2550 75 2350 75 
Q 2150 75 1937 275 
Q 1725 475 1725 1200 
Q 1725 1925 1937 2125 
Q 2150 2325 2350 2325 
Q 2550 2325 2762 2125 
Q 2975 1925 2975 1200 
z
M 1000 3325 
Q 1000 3775 950 3925 
Q 900 4075 775 4075 
Q 650 4075 600 3925 
Q 550 3775 550 3325 
Q 550 2875 600 2725 
Q 650 2575 775 2575 
Q 900 2575 950 2725 
Q 1000 2875 1000 3325 
z
M 2575 1200 
Q 2575 1650 2525 1800 
Q 2475 1950 2350 1950 
Q 2225 1950 2175 1800 
Q 2125 1650 2125 1200 
Q 2125 750 2175 600 
Q 2225 450 2350 450 
Q 2475 450 2525 600 
Q 2575 750 2575 1200 
z
" id="SimHei-25" transform="scale(0.015625)"/>
     </defs>
     <use xlink:href="#SimHei-34"/>
     <use x="50" xlink:href="#SimHei-33"/>
     <use x="100" xlink:href="#SimHei-2e"/>
     <use x="150" xlink:href="#SimHei-31"/>
     <use x="200" xlink:href="#SimHei-25"/>
    </g>
   </g>
   <g id="text_3">
    <!-- Attack -->
    <g transform="translate(224.036961 155.085696)scale(0.1 -0.1)">
     <defs>
      <path d="M 3075 125 
L 2475 125 
L 2125 1450 
L 1025 1450 
L 675 125 
L 75 125 
L 1325 4450 
L 1825 4450 
L 3075 125 
z
M 2000 1925 
L 1600 3450 
L 1550 3450 
L 1150 1925 
L 2000 1925 
z
" id="SimHei-41" transform="scale(0.015625)"/>
      <path d="M 2750 200 
Q 2625 150 2462 112 
Q 2300 75 2025 75 
Q 1575 75 1300 325 
Q 1025 575 1025 1025 
L 1025 2525 
L 175 2525 
L 175 2925 
L 1025 2925 
L 1025 3900 
L 1525 3900 
L 1525 2925 
L 2550 2925 
L 2550 2525 
L 1525 2525 
L 1525 1000 
Q 1525 800 1625 662 
Q 1725 525 2000 525 
Q 2275 525 2450 575 
Q 2625 625 2750 700 
L 2750 200 
z
" id="SimHei-74" transform="scale(0.015625)"/>
      <path d="M 2850 1250 
Q 2850 725 2487 400 
Q 2125 75 1575 75 
Q 1025 75 625 462 
Q 225 850 225 1525 
Q 225 2200 625 2587 
Q 1025 2975 1575 2975 
Q 2125 2975 2450 2687 
Q 2775 2400 2775 2000 
L 2225 2000 
Q 2200 2300 2012 2412 
Q 1825 2525 1575 2525 
Q 1275 2525 1025 2287 
Q 775 2050 775 1525 
Q 775 1000 1025 762 
Q 1275 525 1575 525 
Q 1900 525 2100 700 
Q 2300 875 2300 1250 
L 2850 1250 
z
" id="SimHei-63" transform="scale(0.015625)"/>
      <path d="M 2925 125 
L 2350 125 
L 1450 1650 
L 875 1100 
L 875 125 
L 375 125 
L 375 4400 
L 875 4400 
L 875 1675 
L 2125 2925 
L 2750 2925 
L 1775 1975 
L 2925 125 
z
" id="SimHei-6b" transform="scale(0.015625)"/>
     </defs>
     <use xlink:href="#SimHei-41"/>
     <use x="50" xlink:href="#SimHei-74"/>
     <use x="100" xlink:href="#SimHei-74"/>
     <use x="150" xlink:href="#SimHei-61"/>
     <use x="200" xlink:href="#SimHei-63"/>
     <use x="250" xlink:href="#SimHei-6b"/>
    </g>
   </g>
   <g id="text_4">
    <!-- 56.9% -->
    <g transform="translate(169.074016 145.6993)scale(0.1 -0.1)">
     <defs>
      <path d="M 550 1325 
Q 725 650 1150 575 
Q 1575 500 1837 662 
Q 2100 825 2212 1087 
Q 2325 1350 2312 1675 
Q 2300 2000 2137 2225 
Q 1975 2450 1725 2525 
Q 1475 2600 1162 2525 
Q 850 2450 650 2175 
L 225 2225 
Q 275 2375 700 4375 
L 2675 4375 
L 2675 3925 
L 1075 3925 
Q 950 3250 825 2850 
Q 1200 3025 1525 3012 
Q 1850 3000 2150 2862 
Q 2450 2725 2587 2487 
Q 2725 2250 2787 2012 
Q 2850 1775 2837 1500 
Q 2825 1225 2725 937 
Q 2625 650 2425 462 
Q 2225 275 1937 162 
Q 1650 50 1275 75 
Q 900 100 562 350 
Q 225 600 100 1200 
L 550 1325 
z
" id="SimHei-35" transform="scale(0.015625)"/>
      <path d="M 250 1612 
Q 275 1975 387 2225 
Q 500 2475 725 2850 
L 1750 4450 
L 2325 4450 
L 1275 2800 
Q 1950 2975 2350 2750 
Q 2750 2525 2887 2237 
Q 3025 1950 3037 1612 
Q 3050 1275 2937 950 
Q 2825 625 2537 362 
Q 2250 100 1737 75 
Q 1225 50 862 262 
Q 500 475 362 862 
Q 225 1250 250 1612 
z
M 1025 787 
Q 1250 550 1625 525 
Q 2000 500 2250 775 
Q 2500 1050 2500 1575 
Q 2500 2100 2187 2300 
Q 1875 2500 1487 2450 
Q 1100 2400 925 2075 
Q 750 1750 775 1387 
Q 800 1025 1025 787 
z
" id="SimHei-36" transform="scale(0.015625)"/>
      <path d="M 800 75 
Q 1350 1000 1700 1750 
Q 1075 1650 662 1912 
Q 250 2175 162 2625 
Q 75 3075 175 3437 
Q 275 3800 487 4037 
Q 700 4275 1000 4375 
Q 1300 4475 1537 4475 
Q 1775 4475 2025 4375 
Q 2275 4275 2475 4075 
Q 2675 3875 2750 3662 
Q 2825 3450 2825 3112 
Q 2825 2775 2575 2250 
Q 2325 1725 1350 75 
L 800 75 
z
M 662 2875 
Q 700 2550 937 2337 
Q 1175 2125 1450 2150 
Q 1725 2175 1887 2300 
Q 2050 2425 2200 2725 
Q 2300 3100 2250 3362 
Q 2200 3625 1987 3800 
Q 1775 3975 1525 3975 
Q 1375 4000 1137 3900 
Q 900 3800 762 3500 
Q 625 3200 662 2875 
z
" id="SimHei-39" transform="scale(0.015625)"/>
     </defs>
     <use xlink:href="#SimHei-35"/>
     <use x="50" xlink:href="#SimHei-36"/>
     <use x="100" xlink:href="#SimHei-2e"/>
     <use x="150" xlink:href="#SimHei-39"/>
     <use x="200" xlink:href="#SimHei-25"/>
    </g>
   </g>
   <g id="text_5">
    <!-- 测试集类别统计 -->
    <g transform="translate(88.618481 16.903125)scale(0.12 -0.12)">
     <defs>
      <path d="M 4025 4725 
Q 4000 4475 4000 4000 
L 4000 2225 
Q 4000 1775 4025 1350 
L 3550 1350 
L 3550 4325 
L 2350 4325 
L 2350 1325 
L 1900 1325 
Q 1925 1775 1925 2225 
L 1925 4000 
Q 1925 4200 1900 4725 
L 4025 4725 
z
M 5900 5075 
Q 5875 4800 5875 4375 
L 5875 0 
Q 5875 -325 5650 -425 
Q 5425 -525 4975 -600 
Q 4925 -325 4775 -50 
Q 5125 -50 5262 -25 
Q 5400 0 5400 250 
L 5400 4375 
Q 5400 4775 5375 5075 
L 5900 5075 
z
M 3275 3725 
Q 3225 3400 3200 2325 
Q 3175 1250 2837 550 
Q 2500 -150 2075 -600 
Q 1850 -400 1600 -325 
Q 2200 250 2475 962 
Q 2750 1675 2762 2475 
Q 2775 3275 2725 3800 
Q 3000 3750 3275 3725 
z
M 4950 4275 
Q 4925 4000 4925 3575 
L 4925 1825 
Q 4925 1300 4950 850 
L 4450 850 
Q 4475 1150 4475 1825 
L 4475 3575 
Q 4475 4000 4450 4275 
L 4950 4275 
z
M 1700 1675 
Q 1375 1075 1112 487 
Q 850 -100 725 -400 
Q 500 -200 200 -25 
Q 475 300 762 850 
Q 1050 1400 1250 2000 
Q 1475 1825 1700 1675 
z
M 3400 1050 
Q 3800 650 4300 -125 
Q 4100 -225 3875 -450 
Q 3475 275 3025 750 
Q 3225 875 3400 1050 
z
M 600 3525 
Q 1125 3125 1500 2775 
Q 1300 2575 1150 2375 
Q 825 2775 300 3150 
Q 450 3300 600 3525 
z
M 1350 4000 
Q 950 4375 475 4675 
Q 625 4850 775 5050 
Q 1300 4700 1675 4375 
Q 1500 4250 1350 4000 
z
" id="SimHei-6d4b" transform="scale(0.015625)"/>
      <path d="M 3950 3825 
Q 3925 4325 3925 4550 
Q 3925 4800 3900 5225 
Q 4200 5150 4450 5125 
Q 4425 4825 4425 4600 
L 4425 3825 
L 5150 3825 
Q 5500 3825 5875 3850 
L 5875 3400 
Q 5525 3425 5125 3425 
L 4450 3425 
Q 4500 2750 4587 2212 
Q 4675 1675 4837 1112 
Q 5000 550 5212 225 
Q 5425 -100 5500 200 
Q 5575 500 5600 900 
Q 5800 625 6100 525 
Q 5975 -275 5750 -487 
Q 5525 -700 5250 -537 
Q 4975 -375 4737 62 
Q 4500 500 4337 1075 
Q 4175 1650 4100 2262 
Q 4025 2875 3975 3425 
L 2800 3425 
Q 2300 3425 1875 3400 
L 1875 3850 
Q 2275 3825 2775 3825 
L 3950 3825 
z
M 1500 3175 
Q 1475 2675 1475 2175 
L 1475 625 
Q 1825 950 2125 1225 
Q 2225 1000 2375 800 
Q 1900 425 1125 -350 
Q 1000 -125 825 50 
Q 1025 175 1025 525 
L 1025 2725 
Q 625 2725 300 2700 
L 300 3200 
Q 625 3175 825 3175 
L 1500 3175 
z
M 3775 2175 
Q 3500 2200 3250 2200 
L 3250 575 
Q 3575 675 3900 800 
Q 3900 525 3950 325 
Q 3575 250 3150 125 
Q 2725 0 2275 -175 
Q 2200 100 2025 300 
Q 2425 350 2800 475 
L 2800 2200 
Q 2525 2200 2225 2175 
L 2225 2650 
Q 2600 2625 3000 2625 
Q 3425 2625 3775 2650 
L 3775 2175 
z
M 925 4975 
Q 1275 4650 1700 4100 
Q 1525 3925 1325 3775 
Q 1175 4050 575 4650 
Q 775 4825 925 4975 
z
M 5150 5150 
Q 5325 5000 5850 4375 
Q 5575 4200 5425 4050 
Q 5125 4525 4775 4875 
Q 4925 4975 5150 5150 
z
" id="SimHei-8bd5" transform="scale(0.015625)"/>
      <path d="M 2275 4925 
Q 2125 4800 2025 4662 
Q 1925 4525 1850 4350 
L 4925 4350 
Q 5300 4350 5750 4375 
L 5750 3975 
L 3650 3975 
L 3650 3575 
L 4625 3575 
Q 4925 3575 5325 3600 
L 5325 3175 
Q 4925 3200 4625 3200 
L 3650 3200 
L 3650 2800 
L 4675 2800 
Q 5000 2800 5425 2825 
L 5425 2400 
Q 5000 2425 4675 2425 
L 3650 2425 
L 3650 2075 
L 4875 2075 
Q 5275 2075 5675 2100 
L 5675 1675 
Q 5300 1700 4900 1700 
L 1650 1700 
L 1650 1500 
L 1150 1500 
Q 1200 1950 1200 2325 
L 1200 3475 
Q 1050 3250 937 3125 
Q 825 3000 675 2825 
Q 500 3000 300 3125 
Q 475 3325 875 3825 
Q 1275 4325 1462 4650 
Q 1650 4975 1725 5225 
Q 1950 5100 2275 4925 
z
M 2975 1200 
Q 2975 1300 2950 1625 
L 3475 1625 
Q 3450 1275 3450 1200 
L 5050 1200 
Q 5500 1200 5925 1225 
L 5925 825 
L 4150 825 
Q 4500 525 4925 362 
Q 5350 200 6100 25 
Q 5875 -225 5775 -475 
Q 5275 -300 4962 -162 
Q 4650 -25 4387 137 
Q 4125 300 3950 462 
Q 3775 625 3575 825 
L 3450 825 
L 3450 250 
Q 3450 -275 3500 -650 
L 2950 -650 
Q 2975 -300 2975 250 
L 2975 825 
L 2875 825 
Q 2700 575 2475 375 
Q 2250 175 1987 12 
Q 1725 -150 1425 -300 
Q 1125 -450 700 -575 
Q 600 -325 400 -75 
Q 925 50 1475 262 
Q 2025 475 2300 825 
L 500 825 
L 500 1225 
Q 800 1200 1400 1200 
L 2975 1200 
z
M 3150 2800 
L 3150 3200 
L 1650 3200 
L 1650 2800 
L 3150 2800 
z
M 3150 3575 
L 3150 3975 
L 1650 3975 
L 1650 3575 
L 3150 3575 
z
M 3150 2075 
L 3150 2425 
L 1650 2425 
L 1650 2075 
L 3150 2075 
z
M 3450 5250 
Q 3575 5150 3712 5000 
Q 3850 4850 4000 4650 
Q 3850 4525 3575 4375 
Q 3425 4575 3325 4700 
Q 3225 4825 3075 4950 
Q 3275 5075 3450 5250 
z
" id="SimHei-96c6" transform="scale(0.015625)"/>
      <path d="M 2125 3875 
Q 1750 4375 1325 4725 
Q 1525 4875 1675 5050 
L 2525 4225 
Q 2400 4125 2200 3875 
L 3025 3875 
L 3025 4550 
Q 3025 4900 3000 5125 
L 3525 5125 
Q 3500 4850 3500 4550 
L 3500 3875 
L 4325 3875 
Q 4125 4050 4000 4150 
Q 4450 4575 4800 5175 
Q 5000 5000 5275 4825 
Q 5100 4675 4912 4475 
Q 4725 4275 4400 3875 
L 5025 3875 
Q 5425 3875 5900 3900 
L 5900 3450 
Q 5425 3475 5025 3475 
L 3500 3475 
L 3500 3050 
Q 3500 2650 3525 2175 
L 3175 2175 
Q 3475 2075 3675 2000 
Q 3575 1875 3525 1575 
L 5025 1575 
Q 5525 1575 6025 1600 
L 6025 1150 
Q 5550 1175 5050 1175 
L 3675 1175 
Q 4050 600 4712 275 
Q 5375 -50 6050 -175 
Q 5850 -350 5725 -675 
Q 4975 -450 4350 -37 
Q 3725 375 3300 950 
Q 3050 350 2425 -50 
Q 1800 -450 775 -700 
Q 650 -425 475 -225 
Q 1375 -100 2012 225 
Q 2650 550 2900 1175 
L 1625 1175 
Q 1025 1175 525 1150 
L 525 1600 
Q 950 1575 1600 1575 
L 3025 1575 
Q 3075 1825 3100 2175 
L 3000 2175 
Q 3025 2675 3025 3050 
L 3025 3325 
Q 2725 2900 2237 2550 
Q 1750 2200 925 1825 
Q 850 2025 625 2275 
Q 1175 2400 1725 2737 
Q 2275 3075 2600 3475 
L 1550 3475 
Q 1050 3475 600 3425 
L 600 3900 
Q 1075 3875 1550 3875 
L 2125 3875 
z
M 4100 3450 
Q 4850 3000 5800 2350 
Q 5575 2125 5425 1925 
Q 4700 2550 3825 3075 
Q 3975 3250 4100 3450 
z
" id="SimHei-7c7b" transform="scale(0.015625)"/>
      <path d="M 3275 4950 
Q 3250 4600 3250 3925 
Q 3250 3250 3275 2975 
L 800 2975 
Q 825 3275 825 3975 
Q 825 4700 800 4950 
L 3275 4950 
z
M 1650 2125 
Q 1650 2400 1625 2925 
Q 1950 2875 2225 2850 
Q 2150 2625 2125 2125 
L 3600 2125 
Q 3575 1850 3575 1375 
L 3525 125 
Q 3500 -275 3200 -400 
Q 2900 -525 2475 -600 
Q 2375 -275 2250 -25 
Q 2725 -25 2900 25 
Q 3075 75 3075 325 
L 3125 1675 
L 2100 1675 
Q 2025 875 1737 400 
Q 1450 -75 650 -675 
Q 475 -400 250 -225 
Q 900 125 1237 575 
Q 1575 1025 1600 1675 
L 1125 1675 
Q 825 1675 450 1650 
L 450 2150 
Q 800 2125 1125 2125 
L 1650 2125 
z
M 5800 5125 
Q 5775 4875 5775 4375 
L 5775 175 
Q 5775 -350 5525 -450 
Q 5275 -550 4700 -650 
Q 4625 -350 4475 -75 
Q 5000 -75 5150 -12 
Q 5300 50 5300 325 
L 5300 4375 
Q 5300 4825 5275 5125 
L 5800 5125 
z
M 4600 4400 
Q 4575 4100 4575 3700 
L 4575 1600 
Q 4575 1125 4600 725 
L 4075 725 
Q 4100 1125 4100 1600 
L 4100 3700 
Q 4100 4100 4075 4400 
L 4600 4400 
z
M 2775 3425 
L 2775 4500 
L 1300 4500 
L 1300 3425 
L 2775 3425 
z
" id="SimHei-522b" transform="scale(0.015625)"/>
      <path d="M 5150 4300 
Q 5525 4300 5950 4325 
L 5950 3875 
Q 5550 3900 5175 3900 
L 3775 3900 
Q 3975 3750 4250 3600 
Q 4050 3450 3837 3162 
Q 3625 2875 3225 2375 
Q 3800 2375 5025 2500 
Q 4925 2625 4625 2975 
Q 4850 3100 5025 3250 
Q 5450 2800 5950 2100 
Q 5700 1950 5525 1775 
Q 5375 1975 5275 2125 
Q 4925 2100 4825 2075 
L 4825 200 
Q 4825 -100 5075 -100 
L 5325 -100 
Q 5550 -100 5625 575 
Q 5850 400 6150 325 
Q 5925 -525 5525 -525 
L 4850 -525 
Q 4350 -525 4350 0 
L 4350 2025 
Q 4000 2000 3875 1975 
Q 3900 1050 3637 462 
Q 3375 -125 2625 -700 
Q 2500 -500 2175 -375 
Q 2575 -125 2850 175 
Q 3125 475 3275 850 
Q 3425 1225 3400 1925 
Q 3025 1900 2725 1825 
Q 2650 2200 2525 2475 
Q 2825 2500 3187 2975 
Q 3550 3450 3675 3900 
L 3275 3900 
Q 2950 3900 2475 3875 
L 2475 4325 
Q 2875 4300 3250 4300 
L 5150 4300 
z
M 1875 4825 
Q 1700 4600 1500 4250 
Q 1300 3900 900 3250 
Q 1375 3275 1650 3275 
Q 1850 3625 1975 3975 
Q 2250 3800 2550 3675 
Q 2375 3500 2075 3037 
Q 1775 2575 1225 1725 
Q 1950 1800 2500 1900 
Q 2375 1600 2375 1425 
Q 2150 1400 1587 1325 
Q 1025 1250 600 1125 
Q 525 1375 425 1625 
Q 700 1700 950 2075 
Q 1200 2450 1450 2900 
Q 1225 2875 925 2837 
Q 625 2800 425 2750 
Q 325 3000 200 3225 
Q 500 3300 862 4025 
Q 1225 4750 1275 5075 
Q 1575 4925 1875 4825 
z
M 2550 825 
Q 2525 575 2550 350 
Q 1975 200 1412 37 
Q 850 -125 550 -250 
Q 450 0 275 275 
Q 900 375 1450 500 
Q 2000 625 2550 825 
z
M 4100 5275 
Q 4375 4825 4500 4575 
Q 4325 4500 4025 4350 
Q 3825 4825 3650 5075 
Q 3950 5175 4100 5275 
z
" id="SimHei-7edf" transform="scale(0.015625)"/>
      <path d="M 3925 3100 
L 3925 4350 
Q 3925 4850 3900 5125 
L 4425 5125 
Q 4400 4800 4400 4550 
L 4400 3100 
L 5425 3100 
Q 5725 3100 6075 3125 
L 6075 2650 
Q 5700 2675 5450 2675 
L 4400 2675 
L 4400 175 
Q 4400 -125 4425 -550 
L 3900 -550 
Q 3925 -125 3925 150 
L 3925 2675 
L 2950 2675 
Q 2575 2675 2200 2650 
L 2200 3125 
Q 2575 3100 2900 3100 
L 3925 3100 
z
M 1775 3150 
Q 1750 2675 1750 2150 
L 1750 625 
Q 2175 1050 2425 1400 
Q 2575 1200 2775 1000 
L 2075 300 
Q 1750 -25 1450 -350 
Q 1275 -125 1125 50 
Q 1300 250 1275 650 
L 1275 2725 
Q 600 2725 275 2700 
L 275 3175 
Q 675 3150 825 3150 
L 1775 3150 
z
M 1150 5050 
Q 1475 4725 2175 4000 
Q 1950 3800 1750 3625 
Q 1425 4100 775 4750 
Q 950 4875 1150 5050 
z
" id="SimHei-8ba1" transform="scale(0.015625)"/>
     </defs>
     <use xlink:href="#SimHei-6d4b"/>
     <use x="100" xlink:href="#SimHei-8bd5"/>
     <use x="200" xlink:href="#SimHei-96c6"/>
     <use x="300" xlink:href="#SimHei-7c7b"/>
     <use x="400" xlink:href="#SimHei-522b"/>
     <use x="500" xlink:href="#SimHei-7edf"/>
     <use x="600" xlink:href="#SimHei-8ba1"/>
    </g>
   </g>
  </g>
 </g>
</svg>
