<?xml version="1.0" encoding="utf-8" standalone="no"?>
<!DOCTYPE svg PUBLIC "-//W3C//DTD SVG 1.1//EN"
  "http://www.w3.org/Graphics/SVG/1.1/DTD/svg11.dtd">
<svg height="280.8pt" version="1.1" viewBox="0 0 280.8 280.8" width="280.8pt" xmlns="http://www.w3.org/2000/svg" xmlns:xlink="http://www.w3.org/1999/xlink">
 <metadata>
  <rdf:RDF xmlns:cc="http://creativecommons.org/ns#" xmlns:dc="http://purl.org/dc/elements/1.1/" xmlns:rdf="http://www.w3.org/1999/02/22-rdf-syntax-ns#">
   <cc:Work>
    <dc:type rdf:resource="http://purl.org/dc/dcmitype/StillImage"/>
    <dc:date>2023-10-05T00:14:47.383284</dc:date>
    <dc:format>image/svg+xml</dc:format>
    <dc:creator>
     <cc:Agent>
      <dc:title>Matplotlib v3.4.3, https://matplotlib.org/</dc:title>
     </cc:Agent>
    </dc:creator>
   </cc:Work>
  </rdf:RDF>
 </metadata>
 <defs>
  <style type="text/css">*{stroke-linecap:butt;stroke-linejoin:round;}</style>
 </defs>
 <g id="figure_1">
  <g id="patch_1">
   <path d="M 0 280.8 
L 280.8 280.8 
L 280.8 0 
L 0 0 
z
" style="fill:none;"/>
  </g>
  <g id="axes_1">
   <g id="patch_2">
    <path d="M 140.4 33.84 
C 121.731445 33.84 103.386597 38.745898 87.210055 48.064398 
C 71.033513 57.382899 57.586271 70.790842 48.220466 86.940042 
L 140.4 140.4 
L 140.4 33.84 
z
" style="fill:#6fa0ac;"/>
   </g>
   <g id="patch_3">
    <path d="M 48.220466 86.940042 
C 42.373722 97.021422 38.220234 107.994018 35.925722 119.420035 
C 33.631211 130.846052 33.226603 142.571478 34.728043 154.128481 
C 36.229483 165.685484 39.616733 176.918287 44.754644 187.378713 
C 49.892555 197.839139 56.711874 207.386191 64.940517 215.638953 
C 73.16916 223.891714 82.696213 230.738946 93.141557 235.907451 
C 103.5869 241.075955 114.809742 244.496066 126.362301 246.031324 
C 137.91486 247.566582 149.64142 247.196294 161.074103 244.935234 
C 172.506786 242.674173 183.491492 238.552817 193.589941 232.735604 
C 203.68839 226.918391 212.764465 219.48373 220.456041 210.728258 
C 228.147617 201.972786 234.351019 192.014516 238.818737 181.250774 
C 243.286455 170.487033 245.95827 159.062903 246.727577 147.434197 
C 247.496885 135.805491 246.353316 124.128951 243.342499 112.870461 
C 240.331681 101.61197 235.494198 90.92328 229.023059 81.230861 
C 222.55192 71.538441 214.53435 62.972935 205.290242 55.876097 
C 196.046133 48.77926 185.700088 43.246749 174.664903 39.499306 
C 163.629718 35.751864 152.054135 33.840001 140.40001 33.84 
L 140.4 140.4 
L 48.220466 86.940042 
z
" style="fill:#b5d3d9;"/>
   </g>
   <g id="patch_4">
    <path clip-path="url(#paf978b5939)" d="M 140.4 214.992 
C 160.18203 214.992 179.156502 207.132516 193.144509 193.144509 
C 207.132516 179.156502 214.992 160.18203 214.992 140.4 
C 214.992 120.61797 207.132516 101.643498 193.144509 87.655491 
C 179.156502 73.667484 160.18203 65.808 140.4 65.808 
C 120.61797 65.808 101.643498 73.667484 87.655491 87.655491 
C 73.667484 101.643498 65.808 120.61797 65.808 140.4 
C 65.808 160.18203 73.667484 179.156502 87.655491 193.144509 
C 101.643498 207.132516 120.61797 214.992 140.4 214.992 
z
" style="fill:#ffffff;"/>
   </g>
   <g id="matplotlib.axis_1"/>
   <g id="matplotlib.axis_2"/>
   <g id="text_1">
    <!-- 训练集未出现 -->
    <g transform="translate(21.89106 42.209744)scale(0.1 -0.1)">
     <defs>
      <path d="M 1650 3300 
Q 1625 2725 1625 2225 
L 1625 675 
Q 1950 1125 2050 1275 
Q 2175 1125 2350 900 
Q 2025 500 1800 212 
Q 1575 -75 1325 -425 
Q 1150 -200 950 -50 
Q 1150 225 1150 625 
L 1150 2875 
L 975 2875 
Q 600 2875 300 2850 
L 300 3325 
Q 600 3300 975 3300 
L 1650 3300 
z
M 3425 4600 
Q 3375 4350 3387 3362 
Q 3400 2375 3337 1887 
Q 3275 1400 3087 837 
Q 2900 275 2450 -375 
Q 2225 -200 1975 -125 
Q 2550 500 2762 1362 
Q 2975 2225 2950 3337 
Q 2925 4450 2900 4675 
Q 3150 4625 3425 4600 
z
M 5875 4700 
Q 5850 4500 5850 3975 
L 5850 625 
Q 5850 125 5875 -400 
L 5400 -400 
Q 5425 125 5425 600 
L 5425 3975 
Q 5425 4500 5400 4700 
L 5875 4700 
z
M 4600 175 
L 4125 175 
Q 4150 725 4150 1150 
L 4150 3600 
Q 4150 4050 4125 4350 
L 4600 4350 
L 4600 175 
z
M 1000 5150 
Q 1650 4600 2100 4100 
Q 1875 3925 1750 3750 
Q 1050 4550 700 4800 
Q 850 4950 1000 5150 
z
" id="SimHei-8bad" transform="scale(0.015625)"/>
      <path d="M 3300 3825 
Q 2950 3825 2400 3800 
L 2400 4250 
Q 2950 4225 3325 4225 
L 3625 4225 
Q 3875 4950 3900 5175 
Q 4200 5025 4450 4925 
Q 4350 4825 4262 4612 
Q 4175 4400 4100 4225 
L 5025 4225 
Q 5425 4225 5900 4250 
L 5900 3800 
Q 5550 3825 5025 3825 
L 3975 3825 
Q 3850 3525 3700 3150 
L 4675 3150 
Q 4650 2875 4650 2475 
L 4650 1975 
L 4975 1975 
Q 5350 1975 5800 2000 
L 5800 1550 
Q 5350 1575 4975 1575 
L 4650 1575 
L 4650 125 
Q 4650 -300 4462 -425 
Q 4275 -550 3650 -625 
Q 3625 -375 3450 -100 
Q 4075 -125 4137 -25 
Q 4200 75 4200 325 
L 4200 1575 
L 3425 1575 
Q 3250 1575 3100 1562 
Q 2950 1550 2750 1475 
Q 2650 1725 2550 1950 
Q 2800 2025 3125 2775 
Q 2950 2775 2450 2750 
L 2450 3175 
Q 3025 3150 3250 3150 
Q 3400 3525 3500 3825 
L 3300 3825 
z
M 1650 2950 
Q 1875 3300 2100 3900 
Q 2325 3725 2575 3600 
Q 2325 3275 2025 2750 
Q 1725 2225 1075 1350 
Q 1300 1400 2400 1575 
Q 2350 1300 2375 1150 
Q 1825 1100 650 825 
Q 525 1075 400 1275 
Q 625 1400 887 1737 
Q 1150 2075 1450 2575 
Q 1300 2600 1012 2562 
Q 725 2525 450 2450 
Q 350 2675 250 2925 
Q 500 3075 812 3725 
Q 1125 4375 1325 5000 
Q 1600 4825 1850 4750 
Q 1600 4375 1387 3962 
Q 1175 3550 800 2925 
Q 1375 2925 1650 2950 
z
M 2425 700 
Q 2400 425 2425 250 
Q 2000 150 1462 -25 
Q 925 -200 475 -425 
Q 400 -150 300 125 
Q 950 275 1187 337 
Q 1425 400 2425 700 
z
M 3725 875 
Q 3650 800 3287 400 
Q 2925 0 2475 -475 
Q 2300 -250 2150 -125 
Q 2425 100 2750 462 
Q 3075 825 3325 1225 
Q 3475 1050 3725 875 
z
M 5275 1225 
Q 5925 375 6200 -100 
Q 5950 -200 5750 -375 
Q 5475 175 4900 950 
Q 5075 1050 5275 1225 
z
M 4200 1975 
L 4200 2775 
L 3575 2775 
Q 3325 2250 3175 1975 
L 4200 1975 
z
" id="SimHei-7ec3" transform="scale(0.015625)"/>
      <path d="M 2275 4925 
Q 2125 4800 2025 4662 
Q 1925 4525 1850 4350 
L 4925 4350 
Q 5300 4350 5750 4375 
L 5750 3975 
L 3650 3975 
L 3650 3575 
L 4625 3575 
Q 4925 3575 5325 3600 
L 5325 3175 
Q 4925 3200 4625 3200 
L 3650 3200 
L 3650 2800 
L 4675 2800 
Q 5000 2800 5425 2825 
L 5425 2400 
Q 5000 2425 4675 2425 
L 3650 2425 
L 3650 2075 
L 4875 2075 
Q 5275 2075 5675 2100 
L 5675 1675 
Q 5300 1700 4900 1700 
L 1650 1700 
L 1650 1500 
L 1150 1500 
Q 1200 1950 1200 2325 
L 1200 3475 
Q 1050 3250 937 3125 
Q 825 3000 675 2825 
Q 500 3000 300 3125 
Q 475 3325 875 3825 
Q 1275 4325 1462 4650 
Q 1650 4975 1725 5225 
Q 1950 5100 2275 4925 
z
M 2975 1200 
Q 2975 1300 2950 1625 
L 3475 1625 
Q 3450 1275 3450 1200 
L 5050 1200 
Q 5500 1200 5925 1225 
L 5925 825 
L 4150 825 
Q 4500 525 4925 362 
Q 5350 200 6100 25 
Q 5875 -225 5775 -475 
Q 5275 -300 4962 -162 
Q 4650 -25 4387 137 
Q 4125 300 3950 462 
Q 3775 625 3575 825 
L 3450 825 
L 3450 250 
Q 3450 -275 3500 -650 
L 2950 -650 
Q 2975 -300 2975 250 
L 2975 825 
L 2875 825 
Q 2700 575 2475 375 
Q 2250 175 1987 12 
Q 1725 -150 1425 -300 
Q 1125 -450 700 -575 
Q 600 -325 400 -75 
Q 925 50 1475 262 
Q 2025 475 2300 825 
L 500 825 
L 500 1225 
Q 800 1200 1400 1200 
L 2975 1200 
z
M 3150 2800 
L 3150 3200 
L 1650 3200 
L 1650 2800 
L 3150 2800 
z
M 3150 3575 
L 3150 3975 
L 1650 3975 
L 1650 3575 
L 3150 3575 
z
M 3150 2075 
L 3150 2425 
L 1650 2425 
L 1650 2075 
L 3150 2075 
z
M 3450 5250 
Q 3575 5150 3712 5000 
Q 3850 4850 4000 4650 
Q 3850 4525 3575 4375 
Q 3425 4575 3325 4700 
Q 3225 4825 3075 4950 
Q 3275 5075 3450 5250 
z
" id="SimHei-96c6" transform="scale(0.015625)"/>
      <path d="M 2875 4150 
Q 2875 4900 2850 5225 
L 3400 5225 
Q 3375 4925 3375 4150 
L 4475 4150 
Q 4950 4150 5375 4175 
L 5375 3725 
Q 4950 3750 4475 3750 
L 3375 3750 
L 3375 2750 
L 4850 2750 
Q 5400 2750 5875 2775 
L 5875 2325 
Q 5400 2350 4875 2350 
L 3675 2350 
Q 4125 1675 4662 1187 
Q 5200 700 6175 425 
Q 5850 275 5725 -100 
Q 5050 150 4462 650 
Q 3875 1150 3375 2050 
L 3375 300 
Q 3375 -175 3400 -575 
L 2825 -575 
Q 2875 -175 2875 300 
L 2875 2125 
Q 2275 1150 1700 650 
Q 1125 150 675 -150 
Q 575 75 225 300 
Q 650 450 1312 1000 
Q 1975 1550 2475 2350 
L 1225 2350 
Q 675 2350 375 2325 
L 375 2775 
Q 750 2750 1275 2750 
L 2875 2750 
L 2875 3750 
L 1825 3750 
Q 1225 3750 850 3725 
L 850 4175 
Q 1225 4150 1775 4150 
L 2875 4150 
z
" id="SimHei-672a" transform="scale(0.015625)"/>
      <path d="M 1475 4550 
Q 1450 4225 1450 3950 
L 1450 2950 
L 2925 2950 
L 2925 4425 
Q 2925 4775 2900 5125 
L 3425 5125 
Q 3400 4825 3400 4425 
L 3400 2950 
L 4900 2950 
L 4900 3875 
Q 4900 4275 4875 4525 
L 5400 4525 
Q 5375 4275 5375 3850 
L 5375 3175 
Q 5375 2775 5400 2525 
L 3400 2525 
L 3400 225 
L 5125 225 
L 5125 1275 
Q 5125 1650 5100 1925 
L 5625 1925 
Q 5600 1650 5600 1300 
L 5600 175 
Q 5600 -325 5625 -650 
L 5125 -650 
L 5125 -200 
L 675 -200 
Q 700 100 700 525 
L 700 1275 
Q 700 1700 675 1950 
L 1200 1950 
Q 1175 1700 1175 1275 
L 1175 225 
L 2925 225 
L 2925 2525 
L 950 2525 
Q 975 2775 975 3150 
L 975 3925 
Q 975 4250 950 4550 
L 1475 4550 
z
" id="SimHei-51fa" transform="scale(0.015625)"/>
      <path d="M 4650 3850 
Q 4550 3575 4512 2975 
Q 4475 2375 4350 1700 
L 4850 1700 
Q 4825 1450 4825 1025 
L 4825 225 
Q 4825 -150 4962 -175 
Q 5100 -200 5275 -187 
Q 5450 -175 5525 -12 
Q 5600 150 5625 575 
Q 5875 425 6175 375 
Q 6050 -150 5925 -337 
Q 5800 -525 5400 -575 
L 4900 -575 
Q 4350 -575 4350 -100 
L 4350 1650 
Q 4125 850 3700 312 
Q 3275 -225 2425 -675 
Q 2300 -475 2000 -325 
Q 2800 0 3175 387 
Q 3550 775 3775 1375 
Q 4000 1975 4037 2625 
Q 4075 3275 4050 3925 
Q 4375 3875 4650 3850 
z
M 1850 4625 
Q 2125 4625 2525 4650 
L 2525 4175 
Q 2125 4200 1675 4200 
L 1675 2825 
Q 2025 2825 2425 2850 
L 2425 2375 
Q 2025 2400 1675 2400 
L 1675 875 
Q 2100 975 2550 1125 
Q 2525 850 2525 650 
Q 1700 450 1200 275 
Q 700 100 450 -25 
Q 375 325 250 575 
Q 650 625 1225 750 
L 1225 2400 
Q 825 2400 450 2375 
L 450 2850 
Q 825 2825 1225 2825 
L 1225 4200 
Q 775 4200 425 4175 
L 425 4650 
Q 725 4625 1000 4625 
L 1850 4625 
z
M 5750 4875 
Q 5725 4475 5725 4075 
L 5725 2400 
Q 5725 1925 5750 1575 
L 5275 1575 
L 5275 4475 
L 3375 4475 
L 3375 1550 
L 2900 1550 
Q 2925 1975 2925 2500 
L 2925 3875 
Q 2925 4425 2900 4875 
L 5750 4875 
z
" id="SimHei-73b0" transform="scale(0.015625)"/>
     </defs>
     <use xlink:href="#SimHei-8bad"/>
     <use x="100" xlink:href="#SimHei-7ec3"/>
     <use x="200" xlink:href="#SimHei-96c6"/>
     <use x="300" xlink:href="#SimHei-672a"/>
     <use x="400" xlink:href="#SimHei-51fa"/>
     <use x="500" xlink:href="#SimHei-73b0"/>
    </g>
   </g>
   <g id="text_2">
    <!-- 16.6% -->
    <g transform="translate(82.688547 64.727239)scale(0.1 -0.1)">
     <defs>
      <path d="M 1400 3600 
Q 1075 3275 575 2975 
L 575 3450 
Q 1200 3875 1600 4450 
L 1900 4450 
L 1900 150 
L 1400 150 
L 1400 3600 
z
" id="SimHei-31" transform="scale(0.015625)"/>
      <path d="M 250 1612 
Q 275 1975 387 2225 
Q 500 2475 725 2850 
L 1750 4450 
L 2325 4450 
L 1275 2800 
Q 1950 2975 2350 2750 
Q 2750 2525 2887 2237 
Q 3025 1950 3037 1612 
Q 3050 1275 2937 950 
Q 2825 625 2537 362 
Q 2250 100 1737 75 
Q 1225 50 862 262 
Q 500 475 362 862 
Q 225 1250 250 1612 
z
M 1025 787 
Q 1250 550 1625 525 
Q 2000 500 2250 775 
Q 2500 1050 2500 1575 
Q 2500 2100 2187 2300 
Q 1875 2500 1487 2450 
Q 1100 2400 925 2075 
Q 750 1750 775 1387 
Q 800 1025 1025 787 
z
" id="SimHei-36" transform="scale(0.015625)"/>
      <path d="M 1075 125 
L 500 125 
L 500 675 
L 1075 675 
L 1075 125 
z
" id="SimHei-2e" transform="scale(0.015625)"/>
      <path d="M 1400 3325 
Q 1400 2600 1187 2400 
Q 975 2200 775 2200 
Q 575 2200 362 2400 
Q 150 2600 150 3325 
Q 150 4050 362 4250 
Q 575 4450 775 4450 
Q 975 4450 1187 4250 
Q 1400 4050 1400 3325 
z
M 2625 4375 
L 700 75 
L 500 150 
L 2425 4450 
L 2625 4375 
z
M 2975 1200 
Q 2975 475 2762 275 
Q 2550 75 2350 75 
Q 2150 75 1937 275 
Q 1725 475 1725 1200 
Q 1725 1925 1937 2125 
Q 2150 2325 2350 2325 
Q 2550 2325 2762 2125 
Q 2975 1925 2975 1200 
z
M 1000 3325 
Q 1000 3775 950 3925 
Q 900 4075 775 4075 
Q 650 4075 600 3925 
Q 550 3775 550 3325 
Q 550 2875 600 2725 
Q 650 2575 775 2575 
Q 900 2575 950 2725 
Q 1000 2875 1000 3325 
z
M 2575 1200 
Q 2575 1650 2525 1800 
Q 2475 1950 2350 1950 
Q 2225 1950 2175 1800 
Q 2125 1650 2125 1200 
Q 2125 750 2175 600 
Q 2225 450 2350 450 
Q 2475 450 2525 600 
Q 2575 750 2575 1200 
z
" id="SimHei-25" transform="scale(0.015625)"/>
     </defs>
     <use xlink:href="#SimHei-31"/>
     <use x="50" xlink:href="#SimHei-36"/>
     <use x="100" xlink:href="#SimHei-2e"/>
     <use x="150" xlink:href="#SimHei-36"/>
     <use x="200" xlink:href="#SimHei-25"/>
    </g>
   </g>
   <g id="text_3">
    <!-- 训练集出现 -->
    <g transform="translate(198.908935 245.348071)scale(0.1 -0.1)">
     <use xlink:href="#SimHei-8bad"/>
     <use x="100" xlink:href="#SimHei-7ec3"/>
     <use x="200" xlink:href="#SimHei-96c6"/>
     <use x="300" xlink:href="#SimHei-51fa"/>
     <use x="400" xlink:href="#SimHei-73b0"/>
    </g>
   </g>
   <g id="text_4">
    <!-- 83.4% -->
    <g transform="translate(173.11145 221.697764)scale(0.1 -0.1)">
     <defs>
      <path d="M 175 1375 
Q 175 1675 325 1962 
Q 475 2250 825 2425 
Q 525 2600 425 2812 
Q 325 3025 312 3300 
Q 300 3575 387 3775 
Q 475 3975 650 4150 
Q 825 4325 1037 4387 
Q 1250 4450 1500 4450 
Q 1750 4450 1950 4400 
Q 2150 4350 2375 4187 
Q 2600 4025 2700 3725 
Q 2800 3425 2687 3025 
Q 2575 2625 2100 2400 
Q 2525 2275 2700 2012 
Q 2875 1750 2875 1375 
Q 2875 1000 2762 775 
Q 2650 550 2512 400 
Q 2375 250 2137 162 
Q 1900 75 1537 75 
Q 1175 75 912 162 
Q 650 250 475 425 
Q 300 600 237 837 
Q 175 1075 175 1375 
z
M 687 1400 
Q 675 1100 787 875 
Q 900 650 1200 587 
Q 1500 525 1825 600 
Q 2150 675 2275 950 
Q 2400 1225 2362 1500 
Q 2325 1775 2050 1962 
Q 1775 2150 1450 2125 
Q 1125 2100 912 1900 
Q 700 1700 687 1400 
z
M 775 3350 
Q 775 3100 950 2875 
Q 1125 2650 1500 2650 
Q 1875 2650 2062 2875 
Q 2250 3100 2237 3412 
Q 2225 3725 2012 3875 
Q 1800 4025 1437 4000 
Q 1075 3975 925 3787 
Q 775 3600 775 3350 
z
" id="SimHei-38" transform="scale(0.015625)"/>
      <path d="M 250 1225 
L 700 1300 
Q 800 975 1025 762 
Q 1250 550 1587 562 
Q 1925 575 2125 837 
Q 2325 1100 2300 1437 
Q 2275 1775 2037 1962 
Q 1800 2150 1275 2225 
L 1275 2550 
Q 1800 2600 2037 2825 
Q 2275 3050 2250 3412 
Q 2225 3775 1925 3937 
Q 1625 4100 1287 3975 
Q 950 3850 750 3275 
L 300 3350 
Q 450 3800 712 4100 
Q 975 4400 1425 4450 
Q 1875 4500 2212 4337 
Q 2550 4175 2687 3837 
Q 2825 3500 2725 3100 
Q 2625 2700 2150 2400 
Q 2500 2250 2687 1950 
Q 2875 1650 2812 1162 
Q 2750 675 2375 375 
Q 2000 75 1525 87 
Q 1050 100 700 387 
Q 350 675 250 1225 
z
" id="SimHei-33" transform="scale(0.015625)"/>
      <path d="M 2000 1100 
L 75 1100 
L 75 1525 
L 2100 4450 
L 2475 4450 
L 2475 1525 
L 3075 1525 
L 3075 1100 
L 2475 1100 
L 2475 150 
L 2000 150 
L 2000 1100 
z
M 2000 1525 
L 2000 3500 
L 600 1525 
L 2000 1525 
z
" id="SimHei-34" transform="scale(0.015625)"/>
     </defs>
     <use xlink:href="#SimHei-38"/>
     <use x="50" xlink:href="#SimHei-33"/>
     <use x="100" xlink:href="#SimHei-2e"/>
     <use x="150" xlink:href="#SimHei-34"/>
     <use x="200" xlink:href="#SimHei-25"/>
    </g>
   </g>
   <g id="text_5">
    <!-- 测试集数据组成 -->
    <g transform="translate(98.4 147.72)scale(0.12 -0.12)">
     <defs>
      <path d="M 4025 4725 
Q 4000 4475 4000 4000 
L 4000 2225 
Q 4000 1775 4025 1350 
L 3550 1350 
L 3550 4325 
L 2350 4325 
L 2350 1325 
L 1900 1325 
Q 1925 1775 1925 2225 
L 1925 4000 
Q 1925 4200 1900 4725 
L 4025 4725 
z
M 5900 5075 
Q 5875 4800 5875 4375 
L 5875 0 
Q 5875 -325 5650 -425 
Q 5425 -525 4975 -600 
Q 4925 -325 4775 -50 
Q 5125 -50 5262 -25 
Q 5400 0 5400 250 
L 5400 4375 
Q 5400 4775 5375 5075 
L 5900 5075 
z
M 3275 3725 
Q 3225 3400 3200 2325 
Q 3175 1250 2837 550 
Q 2500 -150 2075 -600 
Q 1850 -400 1600 -325 
Q 2200 250 2475 962 
Q 2750 1675 2762 2475 
Q 2775 3275 2725 3800 
Q 3000 3750 3275 3725 
z
M 4950 4275 
Q 4925 4000 4925 3575 
L 4925 1825 
Q 4925 1300 4950 850 
L 4450 850 
Q 4475 1150 4475 1825 
L 4475 3575 
Q 4475 4000 4450 4275 
L 4950 4275 
z
M 1700 1675 
Q 1375 1075 1112 487 
Q 850 -100 725 -400 
Q 500 -200 200 -25 
Q 475 300 762 850 
Q 1050 1400 1250 2000 
Q 1475 1825 1700 1675 
z
M 3400 1050 
Q 3800 650 4300 -125 
Q 4100 -225 3875 -450 
Q 3475 275 3025 750 
Q 3225 875 3400 1050 
z
M 600 3525 
Q 1125 3125 1500 2775 
Q 1300 2575 1150 2375 
Q 825 2775 300 3150 
Q 450 3300 600 3525 
z
M 1350 4000 
Q 950 4375 475 4675 
Q 625 4850 775 5050 
Q 1300 4700 1675 4375 
Q 1500 4250 1350 4000 
z
" id="SimHei-6d4b" transform="scale(0.015625)"/>
      <path d="M 3950 3825 
Q 3925 4325 3925 4550 
Q 3925 4800 3900 5225 
Q 4200 5150 4450 5125 
Q 4425 4825 4425 4600 
L 4425 3825 
L 5150 3825 
Q 5500 3825 5875 3850 
L 5875 3400 
Q 5525 3425 5125 3425 
L 4450 3425 
Q 4500 2750 4587 2212 
Q 4675 1675 4837 1112 
Q 5000 550 5212 225 
Q 5425 -100 5500 200 
Q 5575 500 5600 900 
Q 5800 625 6100 525 
Q 5975 -275 5750 -487 
Q 5525 -700 5250 -537 
Q 4975 -375 4737 62 
Q 4500 500 4337 1075 
Q 4175 1650 4100 2262 
Q 4025 2875 3975 3425 
L 2800 3425 
Q 2300 3425 1875 3400 
L 1875 3850 
Q 2275 3825 2775 3825 
L 3950 3825 
z
M 1500 3175 
Q 1475 2675 1475 2175 
L 1475 625 
Q 1825 950 2125 1225 
Q 2225 1000 2375 800 
Q 1900 425 1125 -350 
Q 1000 -125 825 50 
Q 1025 175 1025 525 
L 1025 2725 
Q 625 2725 300 2700 
L 300 3200 
Q 625 3175 825 3175 
L 1500 3175 
z
M 3775 2175 
Q 3500 2200 3250 2200 
L 3250 575 
Q 3575 675 3900 800 
Q 3900 525 3950 325 
Q 3575 250 3150 125 
Q 2725 0 2275 -175 
Q 2200 100 2025 300 
Q 2425 350 2800 475 
L 2800 2200 
Q 2525 2200 2225 2175 
L 2225 2650 
Q 2600 2625 3000 2625 
Q 3425 2625 3775 2650 
L 3775 2175 
z
M 925 4975 
Q 1275 4650 1700 4100 
Q 1525 3925 1325 3775 
Q 1175 4050 575 4650 
Q 775 4825 925 4975 
z
M 5150 5150 
Q 5325 5000 5850 4375 
Q 5575 4200 5425 4050 
Q 5125 4525 4775 4875 
Q 4925 4975 5150 5150 
z
" id="SimHei-8bd5" transform="scale(0.015625)"/>
      <path d="M 4525 4925 
Q 4475 4800 4400 4587 
Q 4325 4375 4175 3825 
L 5325 3825 
Q 5575 3825 5925 3850 
L 5925 3400 
Q 5650 3425 5500 3425 
Q 5500 3025 5362 2162 
Q 5225 1300 4875 675 
Q 5125 375 5437 137 
Q 5750 -100 6025 -200 
Q 5725 -425 5625 -625 
Q 5325 -450 5075 -225 
Q 4825 0 4575 325 
Q 4300 25 3987 -187 
Q 3675 -400 3200 -650 
Q 3075 -425 2850 -300 
Q 3225 -150 3650 125 
Q 4075 400 4300 675 
Q 4125 1025 3962 1425 
Q 3800 1825 3675 2475 
Q 3600 2275 3425 1950 
Q 3250 2050 3000 2150 
Q 3400 2850 3650 3675 
Q 3900 4500 3975 5100 
Q 4275 4975 4525 4925 
z
M 2100 2250 
Q 2000 2150 1875 1925 
L 3250 1925 
Q 3100 1300 2725 675 
Q 3125 525 3350 400 
Q 3225 225 3125 25 
Q 2900 175 2450 325 
Q 1950 -225 725 -650 
Q 600 -375 400 -275 
Q 1575 0 2000 475 
Q 1300 650 850 775 
Q 1000 1000 1250 1525 
Q 1000 1525 425 1500 
L 425 1950 
Q 900 1925 1400 1925 
Q 1500 2150 1550 2425 
Q 1825 2325 2100 2250 
z
M 1775 3950 
Q 1775 4550 1750 5100 
L 2250 5100 
Q 2225 4575 2225 3950 
Q 3075 3950 3425 3975 
L 3425 3525 
Q 3075 3550 2225 3550 
Q 2225 2825 2250 2425 
L 1750 2425 
Q 1775 2775 1775 3300 
Q 1650 3100 1300 2787 
Q 950 2475 650 2300 
Q 525 2525 275 2625 
Q 500 2700 875 2975 
Q 1250 3250 1450 3550 
Q 950 3550 500 3525 
L 500 3975 
Q 925 3950 1775 3950 
z
M 3975 3175 
Q 4200 1700 4600 1125 
Q 4850 1700 4937 2287 
Q 5025 2875 5050 3425 
L 4075 3425 
L 3975 3175 
z
M 1450 1000 
Q 1750 925 2275 800 
Q 2475 1050 2650 1525 
L 1725 1525 
Q 1600 1275 1450 1000 
z
M 3325 4825 
Q 3200 4625 3125 4450 
Q 3050 4275 2925 4025 
Q 2725 4125 2525 4175 
Q 2725 4500 2900 5000 
Q 3150 4875 3325 4825 
z
M 2575 3375 
Q 2900 3050 3200 2725 
Q 3050 2600 2875 2425 
Q 2525 2850 2300 3100 
Q 2450 3225 2575 3375 
z
M 925 5000 
Q 1275 4650 1500 4300 
L 1125 4075 
Q 950 4425 600 4725 
Q 825 4875 925 5000 
z
" id="SimHei-6570" transform="scale(0.015625)"/>
      <path d="M 5750 4775 
Q 5725 4550 5725 4225 
L 5725 3900 
Q 5725 3450 5750 3250 
L 3100 3250 
L 3100 2500 
L 4250 2500 
Q 4250 2725 4225 3175 
L 4700 3175 
Q 4675 2775 4675 2500 
L 5350 2500 
Q 5800 2500 6100 2525 
L 6100 2075 
Q 5800 2100 5375 2100 
L 4675 2100 
L 4675 1425 
L 5775 1425 
Q 5750 950 5750 800 
L 5750 175 
Q 5750 -225 5775 -575 
L 5325 -575 
L 5325 -225 
L 3675 -225 
L 3675 -600 
L 3225 -600 
Q 3250 -325 3250 100 
L 3250 825 
Q 3250 1075 3225 1425 
L 4250 1425 
L 4250 2100 
L 3075 2100 
Q 3050 1375 2887 737 
Q 2725 100 2425 -475 
Q 2200 -325 1950 -250 
Q 2250 150 2387 600 
Q 2525 1050 2600 1562 
Q 2675 2075 2675 2625 
L 2675 3575 
Q 2675 3975 2650 4775 
L 5750 4775 
z
M 1275 4425 
Q 1275 4775 1250 5075 
L 1750 5075 
Q 1725 4800 1725 4425 
L 1725 3775 
Q 1975 3775 2500 3800 
L 2500 3375 
Q 1975 3400 1725 3400 
L 1725 2450 
Q 2050 2625 2400 2850 
Q 2425 2650 2525 2475 
Q 2050 2200 1725 2000 
L 1725 175 
Q 1725 -300 1487 -400 
Q 1250 -500 775 -575 
Q 725 -325 600 -50 
Q 1025 -50 1150 -12 
Q 1275 25 1275 325 
L 1275 1800 
Q 900 1600 525 1325 
Q 450 1525 275 1800 
Q 775 1975 1275 2250 
L 1275 3400 
Q 800 3400 350 3375 
L 350 3800 
Q 800 3775 1275 3775 
L 1275 4425 
z
M 5300 3625 
L 5300 4400 
L 3100 4400 
L 3100 3625 
L 5300 3625 
z
M 5325 150 
L 5325 1075 
L 3675 1075 
L 3675 150 
L 5325 150 
z
" id="SimHei-636e" transform="scale(0.015625)"/>
      <path d="M 6125 -425 
Q 5750 -400 5225 -400 
L 3275 -400 
Q 2775 -400 2400 -425 
L 2400 50 
Q 2725 25 2950 25 
L 2950 3775 
Q 2950 4375 2900 4625 
L 5525 4625 
Q 5500 4400 5500 3775 
L 5500 25 
Q 5825 25 6125 50 
L 6125 -425 
z
M 1725 4825 
Q 1500 4550 1287 4137 
Q 1075 3725 725 3050 
Q 950 3050 1550 3075 
Q 1800 3550 1900 3975 
Q 2075 3825 2450 3675 
Q 2225 3350 1937 2875 
Q 1650 2400 1150 1625 
Q 1950 1725 2425 1775 
L 2425 1350 
Q 2100 1325 1575 1250 
Q 1050 1175 575 1050 
Q 550 1300 400 1575 
Q 675 1675 912 1975 
Q 1150 2275 1375 2725 
Q 1225 2725 950 2687 
Q 675 2650 425 2525 
Q 325 2825 225 3050 
Q 450 3300 712 3862 
Q 975 4425 1150 5075 
Q 1425 4925 1725 4825 
z
M 5025 25 
L 5025 1275 
L 3425 1275 
L 3425 25 
L 5025 25 
z
M 5025 3125 
L 5025 4225 
L 3425 4225 
L 3425 3125 
L 5025 3125 
z
M 5025 1700 
L 5025 2725 
L 3425 2725 
L 3425 1700 
L 5025 1700 
z
M 2375 175 
Q 1875 100 1375 -12 
Q 875 -125 450 -300 
Q 375 -75 250 250 
Q 925 325 1162 375 
Q 1400 425 2375 600 
L 2375 175 
z
" id="SimHei-7ec4" transform="scale(0.015625)"/>
      <path d="M 3500 4000 
Q 3475 4725 3450 5225 
Q 3750 5200 4025 5175 
Q 3975 4850 4000 4000 
L 4725 4000 
Q 5250 4000 5875 4025 
L 5875 3550 
Q 5225 3575 4725 3575 
L 4025 3575 
Q 4050 2625 4350 1500 
Q 4825 2225 5100 3175 
Q 5350 2975 5675 2825 
Q 5475 2600 5225 2075 
Q 4975 1550 4575 975 
Q 4800 525 5062 262 
Q 5325 0 5425 37 
Q 5525 75 5625 900 
Q 5875 700 6150 600 
Q 5975 -425 5762 -537 
Q 5550 -650 5250 -537 
Q 4950 -425 4687 -112 
Q 4425 200 4250 575 
Q 3650 -75 2725 -650 
Q 2600 -425 2350 -250 
Q 2850 -25 3312 350 
Q 3775 725 4000 1050 
Q 3825 1525 3700 2212 
Q 3575 2900 3550 3575 
L 1400 3575 
L 1400 2700 
L 3025 2700 
Q 2975 2250 2950 1775 
L 2875 775 
Q 2850 300 2612 200 
Q 2375 100 1800 50 
Q 1775 275 1600 600 
Q 2225 575 2325 675 
Q 2425 775 2450 1250 
L 2500 2250 
L 1400 2250 
Q 1400 1275 1250 625 
Q 1100 -25 700 -575 
Q 425 -375 200 -300 
Q 525 100 650 462 
Q 775 825 837 1250 
Q 900 1675 912 2450 
Q 925 3225 900 4000 
L 3500 4000 
z
M 4750 5225 
Q 5250 4825 5625 4425 
Q 5400 4250 5225 4075 
Q 4925 4475 4425 4900 
Q 4600 5050 4750 5225 
z
" id="SimHei-6210" transform="scale(0.015625)"/>
     </defs>
     <use xlink:href="#SimHei-6d4b"/>
     <use x="100" xlink:href="#SimHei-8bd5"/>
     <use x="200" xlink:href="#SimHei-96c6"/>
     <use x="300" xlink:href="#SimHei-6570"/>
     <use x="400" xlink:href="#SimHei-636e"/>
     <use x="500" xlink:href="#SimHei-7ec4"/>
     <use x="600" xlink:href="#SimHei-6210"/>
    </g>
   </g>
  </g>
 </g>
 <defs>
  <clipPath id="paf978b5939">
   <rect height="266.4" width="266.4" x="7.2" y="7.2"/>
  </clipPath>
 </defs>
</svg>
