<?xml version="1.0" encoding="utf-8" standalone="no"?>
<!DOCTYPE svg PUBLIC "-//W3C//DTD SVG 1.1//EN"
  "http://www.w3.org/Graphics/SVG/1.1/DTD/svg11.dtd">
<svg height="280.7625pt" version="1.1" viewBox="0 0 265.0125 280.7625" width="265.0125pt" xmlns="http://www.w3.org/2000/svg" xmlns:xlink="http://www.w3.org/1999/xlink">
 <metadata>
  <rdf:RDF xmlns:cc="http://creativecommons.org/ns#" xmlns:dc="http://purl.org/dc/elements/1.1/" xmlns:rdf="http://www.w3.org/1999/02/22-rdf-syntax-ns#">
   <cc:Work>
    <dc:type rdf:resource="http://purl.org/dc/dcmitype/StillImage"/>
    <dc:date>2023-09-25T23:32:59.607706</dc:date>
    <dc:format>image/svg+xml</dc:format>
    <dc:creator>
     <cc:Agent>
      <dc:title>Matplotlib v3.4.3, https://matplotlib.org/</dc:title>
     </cc:Agent>
    </dc:creator>
   </cc:Work>
  </rdf:RDF>
 </metadata>
 <defs>
  <style type="text/css">*{stroke-linecap:butt;stroke-linejoin:round;}</style>
 </defs>
 <g id="figure_1">
  <g id="patch_1">
   <path d="M 0 280.7625 
L 265.0125 280.7625 
L 265.0125 0 
L 0 0 
z
" style="fill:none;"/>
  </g>
  <g id="axes_1">
   <g id="patch_2">
    <path d="M 132.50625 48.01125 
C 121.786913 48.01125 111.136631 49.7306 100.961835 53.103689 
C 90.78704 56.476777 81.218825 61.460142 72.622329 67.863613 
C 64.025832 74.267084 56.511814 82.008156 50.36702 90.791418 
C 44.222225 99.574681 39.525826 109.286966 36.457044 119.557642 
C 33.388262 129.828317 31.986636 140.52505 32.305654 151.239639 
C 32.624672 161.954228 34.660224 172.548623 38.33463 182.618525 
C 42.009036 192.688427 47.274953 202.104094 53.931428 210.506209 
C 60.587903 218.908324 68.54917 226.188632 77.511417 232.069306 
C 86.473663 237.94998 96.321417 242.355251 106.678872 245.117009 
C 117.036328 247.878766 127.770037 248.961426 138.470386 248.323673 
C 149.170734 247.68592 159.699856 245.33597 169.655944 241.363501 
C 179.612032 237.391033 188.866808 231.847228 197.067098 224.943647 
C 205.267388 218.040066 212.307536 209.865656 217.91888 200.732365 
C 223.530224 191.599073 227.640466 181.624577 230.092752 171.189516 
C 232.545038 160.754456 233.307773 149.993281 232.351849 139.316652 
C 231.395925 128.640023 228.73366 118.185502 224.466648 108.352049 
L 132.50625 148.25625 
L 132.50625 48.01125 
z
" style="fill:#6fa0ac;"/>
   </g>
   <g id="patch_3">
    <path d="M 224.466648 108.352049 
C 219.478552 96.856836 212.379011 86.398162 203.536757 77.519222 
C 194.694502 68.640282 184.265312 61.497501 172.790849 56.461854 
L 132.50625 148.25625 
L 224.466648 108.352049 
z
" style="fill:#b5d3d9;"/>
   </g>
   <g id="patch_4">
    <path d="M 172.790849 56.461854 
C 166.458311 53.682777 159.85516 51.566429 153.086961 50.146646 
C 146.318762 48.726863 139.421776 48.011251 132.506264 48.01125 
L 132.50625 148.25625 
L 172.790849 56.461854 
z
" style="fill:#5d887b;"/>
   </g>
   <g id="patch_5">
    <path clip-path="url(#p544aea92c4)" d="M 132.50625 218.42775 
C 151.115949 218.42775 168.965949 211.034038 182.124993 197.874993 
C 195.284038 184.715949 202.67775 166.865949 202.67775 148.25625 
C 202.67775 129.646551 195.284038 111.796551 182.124993 98.637507 
C 168.965949 85.478462 151.115949 78.08475 132.50625 78.08475 
C 113.896551 78.08475 96.046551 85.478462 82.887507 98.637507 
C 69.728462 111.796551 62.33475 129.646551 62.33475 148.25625 
C 62.33475 166.865949 69.728462 184.715949 82.887507 197.874993 
C 96.046551 211.034038 113.896551 218.42775 132.50625 218.42775 
z
" style="fill:#ffffff;"/>
   </g>
   <g id="matplotlib.axis_1"/>
   <g id="matplotlib.axis_2"/>
   <g id="text_1">
    <!-- tcp -->
    <g transform="translate(57.011933 243.263111)scale(0.1 -0.1)">
     <defs>
      <path d="M 2750 200 
Q 2625 150 2462 112 
Q 2300 75 2025 75 
Q 1575 75 1300 325 
Q 1025 575 1025 1025 
L 1025 2525 
L 175 2525 
L 175 2925 
L 1025 2925 
L 1025 3900 
L 1525 3900 
L 1525 2925 
L 2550 2925 
L 2550 2525 
L 1525 2525 
L 1525 1000 
Q 1525 800 1625 662 
Q 1725 525 2000 525 
Q 2275 525 2450 575 
Q 2625 625 2750 700 
L 2750 200 
z
" id="SimHei-74" transform="scale(0.015625)"/>
      <path d="M 2850 1250 
Q 2850 725 2487 400 
Q 2125 75 1575 75 
Q 1025 75 625 462 
Q 225 850 225 1525 
Q 225 2200 625 2587 
Q 1025 2975 1575 2975 
Q 2125 2975 2450 2687 
Q 2775 2400 2775 2000 
L 2225 2000 
Q 2200 2300 2012 2412 
Q 1825 2525 1575 2525 
Q 1275 2525 1025 2287 
Q 775 2050 775 1525 
Q 775 1000 1025 762 
Q 1275 525 1575 525 
Q 1900 525 2100 700 
Q 2300 875 2300 1250 
L 2850 1250 
z
" id="SimHei-63" transform="scale(0.015625)"/>
      <path d="M 2825 1525 
Q 2825 800 2475 425 
Q 2125 50 1625 50 
Q 1350 50 1150 162 
Q 950 275 800 500 
L 800 -800 
L 300 -800 
L 300 2925 
L 800 2925 
L 800 2550 
Q 950 2775 1150 2875 
Q 1350 2975 1625 2975 
Q 2125 2975 2475 2612 
Q 2825 2250 2825 1525 
z
M 2275 1525 
Q 2275 2000 2087 2262 
Q 1900 2525 1525 2525 
Q 1225 2525 1012 2262 
Q 800 2000 800 1525 
Q 800 1050 1012 775 
Q 1225 500 1525 500 
Q 1900 500 2087 775 
Q 2275 1050 2275 1525 
z
" id="SimHei-70" transform="scale(0.015625)"/>
     </defs>
     <use xlink:href="#SimHei-74"/>
     <use x="50" xlink:href="#SimHei-63"/>
     <use x="100" xlink:href="#SimHei-70"/>
    </g>
   </g>
   <g id="text_2">
    <!-- 81.5% -->
    <g transform="translate(73.260642 222.309847)scale(0.1 -0.1)">
     <defs>
      <path d="M 175 1375 
Q 175 1675 325 1962 
Q 475 2250 825 2425 
Q 525 2600 425 2812 
Q 325 3025 312 3300 
Q 300 3575 387 3775 
Q 475 3975 650 4150 
Q 825 4325 1037 4387 
Q 1250 4450 1500 4450 
Q 1750 4450 1950 4400 
Q 2150 4350 2375 4187 
Q 2600 4025 2700 3725 
Q 2800 3425 2687 3025 
Q 2575 2625 2100 2400 
Q 2525 2275 2700 2012 
Q 2875 1750 2875 1375 
Q 2875 1000 2762 775 
Q 2650 550 2512 400 
Q 2375 250 2137 162 
Q 1900 75 1537 75 
Q 1175 75 912 162 
Q 650 250 475 425 
Q 300 600 237 837 
Q 175 1075 175 1375 
z
M 687 1400 
Q 675 1100 787 875 
Q 900 650 1200 587 
Q 1500 525 1825 600 
Q 2150 675 2275 950 
Q 2400 1225 2362 1500 
Q 2325 1775 2050 1962 
Q 1775 2150 1450 2125 
Q 1125 2100 912 1900 
Q 700 1700 687 1400 
z
M 775 3350 
Q 775 3100 950 2875 
Q 1125 2650 1500 2650 
Q 1875 2650 2062 2875 
Q 2250 3100 2237 3412 
Q 2225 3725 2012 3875 
Q 1800 4025 1437 4000 
Q 1075 3975 925 3787 
Q 775 3600 775 3350 
z
" id="SimHei-38" transform="scale(0.015625)"/>
      <path d="M 1400 3600 
Q 1075 3275 575 2975 
L 575 3450 
Q 1200 3875 1600 4450 
L 1900 4450 
L 1900 150 
L 1400 150 
L 1400 3600 
z
" id="SimHei-31" transform="scale(0.015625)"/>
      <path d="M 1075 125 
L 500 125 
L 500 675 
L 1075 675 
L 1075 125 
z
" id="SimHei-2e" transform="scale(0.015625)"/>
      <path d="M 550 1325 
Q 725 650 1150 575 
Q 1575 500 1837 662 
Q 2100 825 2212 1087 
Q 2325 1350 2312 1675 
Q 2300 2000 2137 2225 
Q 1975 2450 1725 2525 
Q 1475 2600 1162 2525 
Q 850 2450 650 2175 
L 225 2225 
Q 275 2375 700 4375 
L 2675 4375 
L 2675 3925 
L 1075 3925 
Q 950 3250 825 2850 
Q 1200 3025 1525 3012 
Q 1850 3000 2150 2862 
Q 2450 2725 2587 2487 
Q 2725 2250 2787 2012 
Q 2850 1775 2837 1500 
Q 2825 1225 2725 937 
Q 2625 650 2425 462 
Q 2225 275 1937 162 
Q 1650 50 1275 75 
Q 900 100 562 350 
Q 225 600 100 1200 
L 550 1325 
z
" id="SimHei-35" transform="scale(0.015625)"/>
      <path d="M 1400 3325 
Q 1400 2600 1187 2400 
Q 975 2200 775 2200 
Q 575 2200 362 2400 
Q 150 2600 150 3325 
Q 150 4050 362 4250 
Q 575 4450 775 4450 
Q 975 4450 1187 4250 
Q 1400 4050 1400 3325 
z
M 2625 4375 
L 700 75 
L 500 150 
L 2425 4450 
L 2625 4375 
z
M 2975 1200 
Q 2975 475 2762 275 
Q 2550 75 2350 75 
Q 2150 75 1937 275 
Q 1725 475 1725 1200 
Q 1725 1925 1937 2125 
Q 2150 2325 2350 2325 
Q 2550 2325 2762 2125 
Q 2975 1925 2975 1200 
z
M 1000 3325 
Q 1000 3775 950 3925 
Q 900 4075 775 4075 
Q 650 4075 600 3925 
Q 550 3775 550 3325 
Q 550 2875 600 2725 
Q 650 2575 775 2575 
Q 900 2575 950 2725 
Q 1000 2875 1000 3325 
z
M 2575 1200 
Q 2575 1650 2525 1800 
Q 2475 1950 2350 1950 
Q 2225 1950 2175 1800 
Q 2125 1650 2125 1200 
Q 2125 750 2175 600 
Q 2225 450 2350 450 
Q 2475 450 2525 600 
Q 2575 750 2575 1200 
z
" id="SimHei-25" transform="scale(0.015625)"/>
     </defs>
     <use xlink:href="#SimHei-38"/>
     <use x="50" xlink:href="#SimHei-31"/>
     <use x="100" xlink:href="#SimHei-2e"/>
     <use x="150" xlink:href="#SimHei-35"/>
     <use x="200" xlink:href="#SimHei-25"/>
    </g>
   </g>
   <g id="text_3">
    <!-- udp -->
    <g transform="translate(210.639807 73.258019)scale(0.1 -0.1)">
     <defs>
      <path d="M 2800 125 
L 2300 125 
L 2300 650 
Q 2100 375 1862 225 
Q 1625 75 1250 75 
Q 800 75 575 325 
Q 350 575 350 950 
L 350 2925 
L 850 2925 
L 850 1125 
Q 850 825 1000 650 
Q 1150 475 1400 475 
Q 1725 475 2012 812 
Q 2300 1150 2300 1650 
L 2300 2925 
L 2800 2925 
L 2800 125 
z
" id="SimHei-75" transform="scale(0.015625)"/>
      <path d="M 2750 125 
L 2250 125 
L 2250 500 
Q 2100 275 1900 175 
Q 1700 75 1425 75 
Q 925 75 575 437 
Q 225 800 225 1525 
Q 225 2250 575 2625 
Q 925 3000 1425 3000 
Q 1700 3000 1900 2887 
Q 2100 2775 2250 2550 
L 2250 4400 
L 2750 4400 
L 2750 125 
z
M 2250 1525 
Q 2250 2000 2037 2275 
Q 1825 2550 1525 2550 
Q 1150 2550 962 2275 
Q 775 2000 775 1525 
Q 775 1050 962 787 
Q 1150 525 1525 525 
Q 1825 525 2037 787 
Q 2250 1050 2250 1525 
z
" id="SimHei-64" transform="scale(0.015625)"/>
     </defs>
     <use xlink:href="#SimHei-75"/>
     <use x="50" xlink:href="#SimHei-64"/>
     <use x="100" xlink:href="#SimHei-70"/>
    </g>
   </g>
   <g id="text_4">
    <!-- 11.9% -->
    <g transform="translate(180.382181 90.942276)scale(0.1 -0.1)">
     <defs>
      <path d="M 800 75 
Q 1350 1000 1700 1750 
Q 1075 1650 662 1912 
Q 250 2175 162 2625 
Q 75 3075 175 3437 
Q 275 3800 487 4037 
Q 700 4275 1000 4375 
Q 1300 4475 1537 4475 
Q 1775 4475 2025 4375 
Q 2275 4275 2475 4075 
Q 2675 3875 2750 3662 
Q 2825 3450 2825 3112 
Q 2825 2775 2575 2250 
Q 2325 1725 1350 75 
L 800 75 
z
M 662 2875 
Q 700 2550 937 2337 
Q 1175 2125 1450 2150 
Q 1725 2175 1887 2300 
Q 2050 2425 2200 2725 
Q 2300 3100 2250 3362 
Q 2200 3625 1987 3800 
Q 1775 3975 1525 3975 
Q 1375 4000 1137 3900 
Q 900 3800 762 3500 
Q 625 3200 662 2875 
z
" id="SimHei-39" transform="scale(0.015625)"/>
     </defs>
     <use xlink:href="#SimHei-31"/>
     <use x="50" xlink:href="#SimHei-31"/>
     <use x="100" xlink:href="#SimHei-2e"/>
     <use x="150" xlink:href="#SimHei-39"/>
     <use x="200" xlink:href="#SimHei-25"/>
    </g>
   </g>
   <g id="text_5">
    <!-- icmp -->
    <g transform="translate(155.145033 43.148186)scale(0.1 -0.1)">
     <defs>
      <path d="M 1800 3725 
L 1300 3725 
L 1300 4375 
L 1800 4375 
L 1800 3725 
z
M 1800 125 
L 1300 125 
L 1300 2925 
L 1800 2925 
L 1800 125 
z
" id="SimHei-69" transform="scale(0.015625)"/>
      <path d="M 3050 125 
L 2550 125 
L 2550 2150 
Q 2550 2300 2500 2400 
Q 2450 2500 2300 2500 
Q 2125 2500 1975 2312 
Q 1825 2125 1825 1825 
L 1825 125 
L 1325 125 
L 1325 2150 
Q 1325 2300 1275 2400 
Q 1225 2500 1075 2500 
Q 900 2500 750 2312 
Q 600 2125 600 1825 
L 600 125 
L 100 125 
L 100 2925 
L 600 2925 
L 600 2550 
Q 725 2750 900 2862 
Q 1075 2975 1275 2975 
Q 1475 2975 1612 2862 
Q 1750 2750 1800 2550 
Q 1925 2750 2087 2862 
Q 2250 2975 2450 2975 
Q 2750 2975 2900 2812 
Q 3050 2650 3050 2350 
L 3050 125 
z
" id="SimHei-6d" transform="scale(0.015625)"/>
     </defs>
     <use xlink:href="#SimHei-69"/>
     <use x="50" xlink:href="#SimHei-63"/>
     <use x="100" xlink:href="#SimHei-6d"/>
     <use x="150" xlink:href="#SimHei-70"/>
    </g>
   </g>
   <g id="text_6">
    <!-- 6.6% -->
    <g transform="translate(139.999855 67.675587)scale(0.1 -0.1)">
     <defs>
      <path d="M 250 1612 
Q 275 1975 387 2225 
Q 500 2475 725 2850 
L 1750 4450 
L 2325 4450 
L 1275 2800 
Q 1950 2975 2350 2750 
Q 2750 2525 2887 2237 
Q 3025 1950 3037 1612 
Q 3050 1275 2937 950 
Q 2825 625 2537 362 
Q 2250 100 1737 75 
Q 1225 50 862 262 
Q 500 475 362 862 
Q 225 1250 250 1612 
z
M 1025 787 
Q 1250 550 1625 525 
Q 2000 500 2250 775 
Q 2500 1050 2500 1575 
Q 2500 2100 2187 2300 
Q 1875 2500 1487 2450 
Q 1100 2400 925 2075 
Q 750 1750 775 1387 
Q 800 1025 1025 787 
z
" id="SimHei-36" transform="scale(0.015625)"/>
     </defs>
     <use xlink:href="#SimHei-36"/>
     <use x="50" xlink:href="#SimHei-2e"/>
     <use x="100" xlink:href="#SimHei-36"/>
     <use x="150" xlink:href="#SimHei-25"/>
    </g>
   </g>
   <g id="text_7">
    <!-- 网络协议分布 -->
    <g transform="translate(96.50625 16.95)scale(0.12 -0.12)">
     <defs>
      <path d="M 5875 4900 
Q 5825 4575 5825 3975 
L 5825 0 
Q 5825 -400 5537 -462 
Q 5250 -525 4775 -600 
Q 4725 -350 4525 -50 
Q 5025 -75 5175 -25 
Q 5325 25 5325 250 
L 5325 4475 
L 1100 4475 
L 1100 -600 
L 550 -600 
Q 600 -100 600 250 
L 600 3975 
Q 600 4375 550 4900 
L 5875 4900 
z
M 3675 3525 
Q 4050 2800 4175 2600 
Q 4475 3625 4550 4050 
Q 4825 3900 5100 3775 
Q 4975 3600 4825 3150 
Q 4675 2700 4450 2100 
Q 4725 1575 5125 875 
Q 4850 800 4625 675 
L 4175 1575 
Q 4000 1225 3825 962 
Q 3650 700 3350 300 
Q 3175 500 2850 575 
Q 3075 800 3337 1125 
Q 3600 1450 3925 2075 
Q 3575 2800 3200 3300 
Q 3400 3375 3675 3525 
z
M 1725 3800 
Q 1875 3525 2037 3237 
Q 2200 2950 2375 2675 
Q 2675 3675 2725 4050 
Q 3000 3950 3325 3850 
Q 3175 3675 3050 3312 
Q 2925 2950 2650 2200 
Q 2875 1850 3200 1300 
Q 2950 1150 2775 975 
Q 2525 1500 2400 1700 
Q 1950 775 1600 325 
Q 1400 500 1175 575 
Q 1575 1000 2150 2175 
Q 1550 3250 1250 3600 
Q 1475 3700 1725 3800 
z
" id="SimHei-7f51" transform="scale(0.015625)"/>
      <path d="M 2400 3100 
Q 2675 3400 2850 3700 
Q 3025 4000 3187 4362 
Q 3350 4725 3450 5200 
Q 3725 5075 4050 5025 
Q 3900 4800 3725 4450 
L 5750 4450 
Q 5375 3700 5125 3325 
Q 4875 2950 4600 2650 
Q 4925 2425 5375 2275 
Q 5825 2125 6200 2050 
Q 6075 1850 5950 1525 
Q 5700 1600 5500 1675 
Q 5450 1325 5450 1025 
L 5450 125 
Q 5450 -250 5475 -650 
L 5000 -650 
L 5000 -175 
L 3500 -175 
L 3500 -700 
L 3025 -700 
Q 3050 -325 3050 0 
L 3050 1000 
Q 3050 1200 3025 1675 
Q 2875 1600 2600 1500 
Q 2500 1775 2325 1975 
Q 2700 2075 3162 2262 
Q 3625 2450 3900 2675 
Q 3575 3100 3350 3625 
Q 3075 3200 2800 2825 
Q 2650 2975 2400 3100 
z
M 1825 4725 
Q 1650 4500 1425 4037 
Q 1200 3575 900 3050 
L 1600 3050 
Q 1875 3575 2000 3975 
Q 2250 3775 2500 3650 
Q 2350 3475 2050 2937 
Q 1750 2400 1225 1525 
Q 1975 1650 2300 1700 
Q 2275 1375 2300 1225 
Q 1700 1150 1375 1087 
Q 1050 1025 625 925 
Q 550 1200 450 1400 
Q 700 1500 937 1850 
Q 1175 2200 1425 2700 
Q 750 2675 400 2525 
Q 325 2750 225 3025 
Q 525 3175 825 3787 
Q 1125 4400 1275 5000 
Q 1550 4825 1825 4725 
z
M 5000 225 
L 5000 1300 
L 3500 1300 
L 3500 225 
L 5000 225 
z
M 2375 700 
Q 2425 450 2425 250 
Q 2150 200 1637 25 
Q 1125 -150 650 -350 
Q 550 -50 425 200 
Q 1050 325 1462 425 
Q 1875 525 2375 700 
z
M 4275 2975 
Q 4425 3125 4637 3425 
Q 4850 3725 5000 4050 
L 3650 4050 
Q 3900 3425 4275 2975 
z
M 5475 1700 
Q 5125 1850 4812 2000 
Q 4500 2150 4225 2350 
Q 3925 2150 3662 2000 
Q 3400 1850 3075 1700 
L 5475 1700 
z
" id="SimHei-7edc" transform="scale(0.015625)"/>
      <path d="M 3475 3825 
Q 3475 4625 3450 5150 
Q 3725 5075 4050 5050 
Q 3950 4650 3975 3825 
L 5325 3825 
Q 5275 3600 5225 3075 
L 5050 300 
Q 5000 -100 4750 -187 
Q 4500 -275 4050 -375 
Q 3950 -50 3825 175 
Q 4350 200 4462 225 
Q 4575 250 4600 575 
L 4775 3425 
L 3950 3425 
Q 3925 2300 3600 1300 
Q 3275 300 2475 -500 
Q 2325 -300 1875 -150 
Q 2450 150 2925 1075 
Q 3400 2000 3450 3425 
Q 2975 3425 2500 3400 
L 2500 3850 
Q 2975 3825 3475 3825 
z
M 1025 3475 
Q 1025 4675 1000 5075 
L 1550 5075 
Q 1525 4675 1525 3475 
Q 2000 3475 2325 3500 
L 2325 3050 
Q 2000 3075 1525 3075 
L 1525 325 
Q 1525 -25 1550 -575 
L 1000 -575 
Q 1025 -25 1025 325 
L 1025 3075 
Q 525 3075 225 3050 
L 225 3500 
Q 525 3475 1025 3475 
z
M 2975 2500 
Q 2825 2300 2500 1225 
Q 2250 1325 2025 1350 
Q 2375 2275 2425 2625 
Q 2625 2550 2975 2500 
z
M 5725 2675 
Q 6100 1875 6200 1500 
Q 5925 1450 5725 1325 
Q 5575 1850 5300 2475 
Q 5525 2550 5725 2675 
z
" id="SimHei-534f" transform="scale(0.015625)"/>
      <path d="M 2900 4325 
Q 2950 3750 3050 3312 
Q 3150 2875 3350 2425 
Q 3550 1975 3975 1400 
Q 4300 2025 4437 2537 
Q 4575 3050 4675 3550 
Q 4775 4050 4850 4700 
Q 5125 4625 5500 4575 
Q 5350 4350 5300 4137 
Q 5250 3925 5175 3525 
Q 5100 3125 4950 2500 
Q 4800 1875 4350 1000 
Q 4750 600 5150 387 
Q 5550 175 6125 25 
Q 5850 -175 5675 -575 
Q 5025 -200 4725 -12 
Q 4425 175 4000 625 
Q 3550 125 3200 -137 
Q 2850 -400 2450 -675 
Q 2225 -500 1900 -225 
Q 2425 -25 2887 287 
Q 3350 600 3625 1000 
Q 3150 1625 2925 2175 
Q 2700 2725 2587 3187 
Q 2475 3650 2375 4225 
Q 2625 4250 2900 4325 
z
M 1200 -550 
Q 1025 -325 775 -50 
Q 1125 175 1125 550 
L 1125 2775 
L 800 2775 
Q 550 2775 250 2750 
L 250 3250 
Q 550 3200 800 3200 
L 1625 3200 
Q 1600 2775 1600 2225 
L 1600 650 
Q 1875 950 2325 1475 
Q 2425 1350 2650 1075 
Q 2275 700 1900 312 
Q 1525 -75 1200 -550 
z
M 3800 5275 
Q 4075 4075 4225 3300 
Q 3925 3275 3725 3200 
Q 3575 4100 3300 5125 
Q 3525 5200 3800 5275 
z
M 1250 5175 
Q 1650 4500 1850 4100 
Q 1625 4000 1375 3850 
Q 975 4700 825 4925 
Q 1050 5025 1250 5175 
z
" id="SimHei-8bae" transform="scale(0.015625)"/>
      <path d="M 1000 -650 
Q 825 -375 575 -225 
Q 975 -75 1300 137 
Q 1625 350 1875 662 
Q 2125 975 2250 1350 
Q 2375 1725 2425 2275 
Q 1850 2275 1500 2250 
L 1500 2775 
Q 1900 2750 2525 2750 
L 5025 2750 
Q 4975 2375 4950 2100 
L 4750 250 
Q 4700 -200 4350 -350 
Q 4000 -500 3575 -525 
Q 3550 -275 3325 50 
Q 3850 25 4037 87 
Q 4225 150 4275 525 
L 4450 2275 
L 2950 2275 
Q 2875 1625 2737 1187 
Q 2600 750 2350 425 
Q 2100 100 1750 -175 
Q 1400 -450 1000 -650 
z
M 3950 5175 
Q 4125 4650 4662 3975 
Q 5200 3300 6175 2800 
Q 5975 2625 5775 2275 
Q 5325 2600 4987 2887 
Q 4650 3175 4425 3425 
Q 4200 3675 3925 4137 
Q 3650 4600 3475 5000 
Q 3750 5075 3950 5175 
z
M 2700 4825 
Q 2475 4425 2325 4125 
Q 2175 3825 2025 3587 
Q 1875 3350 1575 2950 
Q 1275 2550 850 2125 
Q 625 2350 400 2475 
Q 900 2925 1187 3300 
Q 1475 3675 1737 4112 
Q 2000 4550 2200 5075 
Q 2400 4925 2700 4825 
z
" id="SimHei-5206" transform="scale(0.015625)"/>
      <path d="M 2375 4225 
Q 2650 4775 2775 5300 
Q 3125 5175 3400 5075 
Q 3275 4975 2950 4225 
L 4800 4225 
Q 5550 4225 6025 4250 
L 6025 3800 
L 2725 3800 
Q 2325 3100 1975 2675 
L 3275 2675 
Q 3275 3225 3250 3575 
L 3775 3575 
Q 3750 3225 3750 2675 
L 5500 2675 
Q 5475 2225 5475 1775 
L 5475 750 
Q 5475 275 5212 150 
Q 4950 25 4450 -25 
Q 4400 325 4225 550 
Q 4800 550 4912 625 
Q 5025 700 5000 1025 
L 5000 2250 
L 3750 2250 
L 3750 550 
Q 3750 25 3775 -600 
L 3250 -600 
Q 3275 25 3275 550 
L 3275 2250 
L 2100 2250 
L 2100 0 
L 1600 0 
Q 1625 525 1625 1025 
L 1625 2225 
Q 1300 1850 650 1275 
Q 475 1475 200 1650 
Q 750 2025 1262 2562 
Q 1775 3100 2150 3800 
L 1550 3800 
Q 925 3800 400 3775 
L 400 4250 
Q 925 4225 1550 4225 
L 2375 4225 
z
" id="SimHei-5e03" transform="scale(0.015625)"/>
     </defs>
     <use xlink:href="#SimHei-7f51"/>
     <use x="100" xlink:href="#SimHei-7edc"/>
     <use x="200" xlink:href="#SimHei-534f"/>
     <use x="300" xlink:href="#SimHei-8bae"/>
     <use x="400" xlink:href="#SimHei-5206"/>
     <use x="500" xlink:href="#SimHei-5e03"/>
    </g>
   </g>
  </g>
 </g>
 <defs>
  <clipPath id="p544aea92c4">
   <rect height="250.6125" width="250.6125" x="7.2" y="22.95"/>
  </clipPath>
 </defs>
</svg>
