<?xml version="1.0" encoding="utf-8" standalone="no"?>
<!DOCTYPE svg PUBLIC "-//W3C//DTD SVG 1.1//EN"
  "http://www.w3.org/Graphics/SVG/1.1/DTD/svg11.dtd">
<svg height="319.543125pt" version="1.1" viewBox="0 0 389.2625 319.543125" width="389.2625pt" xmlns="http://www.w3.org/2000/svg" xmlns:xlink="http://www.w3.org/1999/xlink">
 <metadata>
  <rdf:RDF xmlns:cc="http://creativecommons.org/ns#" xmlns:dc="http://purl.org/dc/elements/1.1/" xmlns:rdf="http://www.w3.org/1999/02/22-rdf-syntax-ns#">
   <cc:Work>
    <dc:type rdf:resource="http://purl.org/dc/dcmitype/StillImage"/>
    <dc:date>2023-09-24T20:51:57.738900</dc:date>
    <dc:format>image/svg+xml</dc:format>
    <dc:creator>
     <cc:Agent>
      <dc:title>Matplotlib v3.4.3, https://matplotlib.org/</dc:title>
     </cc:Agent>
    </dc:creator>
   </cc:Work>
  </rdf:RDF>
 </metadata>
 <defs>
  <style type="text/css">*{stroke-linecap:butt;stroke-linejoin:round;}</style>
 </defs>
 <g id="figure_1">
  <g id="patch_1">
   <path d="M 0 319.543125 
L 389.2625 319.543125 
L 389.2625 0 
L 0 0 
z
" style="fill:none;"/>
  </g>
  <g id="axes_1">
   <g id="patch_2">
    <path d="M 47.2625 240.343125 
L 382.0625 240.343125 
L 382.0625 22.903125 
L 47.2625 22.903125 
z
" style="fill:#ffffff;"/>
   </g>
   <g id="patch_3">
    <path clip-path="url(#p0857071a98)" d="M 62.480682 240.343125 
L 76.974188 240.343125 
L 76.974188 33.257411 
L 62.480682 33.257411 
z
" style="fill:#6fa0ac;"/>
   </g>
   <g id="patch_4">
    <path clip-path="url(#p0857071a98)" d="M 80.597565 240.343125 
L 95.091071 240.343125 
L 95.091071 87.108013 
L 80.597565 87.108013 
z
" style="fill:#6b9aa7;"/>
   </g>
   <g id="patch_5">
    <path clip-path="url(#p0857071a98)" d="M 98.714448 240.343125 
L 113.207955 240.343125 
L 113.207955 97.919717 
L 98.714448 97.919717 
z
" style="fill:#6795a1;"/>
   </g>
   <g id="patch_6">
    <path clip-path="url(#p0857071a98)" d="M 116.831331 240.343125 
L 131.324838 240.343125 
L 131.324838 171.522471 
L 116.831331 171.522471 
z
" style="fill:#638f9c;"/>
   </g>
   <g id="patch_7">
    <path clip-path="url(#p0857071a98)" d="M 134.948214 240.343125 
L 149.441721 240.343125 
L 149.441721 174.01748 
L 134.948214 174.01748 
z
" style="fill:#5f8a96;"/>
   </g>
   <g id="patch_8">
    <path clip-path="url(#p0857071a98)" d="M 153.065097 240.343125 
L 167.558604 240.343125 
L 167.558604 179.423332 
L 153.065097 179.423332 
z
" style="fill:#5b8491;"/>
   </g>
   <g id="patch_9">
    <path clip-path="url(#p0857071a98)" d="M 171.181981 240.343125 
L 185.675487 240.343125 
L 185.675487 203.333831 
L 171.181981 203.333831 
z
" style="fill:#577e8c;"/>
   </g>
   <g id="patch_10">
    <path clip-path="url(#p0857071a98)" d="M 189.298864 240.343125 
L 203.79237 240.343125 
L 203.79237 212.690113 
L 189.298864 212.690113 
z
" style="fill:#537986;"/>
   </g>
   <g id="patch_11">
    <path clip-path="url(#p0857071a98)" d="M 207.415747 240.343125 
L 221.909253 240.343125 
L 221.909253 236.808529 
L 207.415747 236.808529 
z
" style="fill:#4f7381;"/>
   </g>
   <g id="patch_12">
    <path clip-path="url(#p0857071a98)" d="M 225.53263 240.343125 
L 240.026136 240.343125 
L 240.026136 237.224364 
L 225.53263 237.224364 
z
" style="fill:#4c6e7b;"/>
   </g>
   <g id="patch_13">
    <path clip-path="url(#p0857071a98)" d="M 243.649513 240.343125 
L 258.143019 240.343125 
L 258.143019 237.432282 
L 243.649513 237.432282 
z
" style="fill:#486876;"/>
   </g>
   <g id="patch_14">
    <path clip-path="url(#p0857071a98)" d="M 261.766396 240.343125 
L 276.259903 240.343125 
L 276.259903 237.640199 
L 261.766396 237.640199 
z
" style="fill:#446370;"/>
   </g>
   <g id="patch_15">
    <path clip-path="url(#p0857071a98)" d="M 279.883279 240.343125 
L 294.376786 240.343125 
L 294.376786 238.471869 
L 279.883279 238.471869 
z
" style="fill:#405d6b;"/>
   </g>
   <g id="patch_16">
    <path clip-path="url(#p0857071a98)" d="M 298.000162 240.343125 
L 312.493669 240.343125 
L 312.493669 239.511455 
L 298.000162 239.511455 
z
" style="fill:#3c5766;"/>
   </g>
   <g id="patch_17">
    <path clip-path="url(#p0857071a98)" d="M 316.117045 240.343125 
L 330.610552 240.343125 
L 330.610552 239.92729 
L 316.117045 239.92729 
z
" style="fill:#385260;"/>
   </g>
   <g id="patch_18">
    <path clip-path="url(#p0857071a98)" d="M 334.233929 240.343125 
L 348.727435 240.343125 
L 348.727435 239.92729 
L 334.233929 239.92729 
z
" style="fill:#344c5b;"/>
   </g>
   <g id="patch_19">
    <path clip-path="url(#p0857071a98)" d="M 352.350812 240.343125 
L 366.844318 240.343125 
L 366.844318 239.92729 
L 352.350812 239.92729 
z
" style="fill:#304755;"/>
   </g>
   <g id="matplotlib.axis_1">
    <g id="xtick_1">
     <g id="line2d_1">
      <defs>
       <path d="M 0 0 
L 0 3.5 
" id="mf6a12c3257" style="stroke:#000000;stroke-width:0.8;"/>
      </defs>
      <g>
       <use style="stroke:#000000;stroke-width:0.8;" x="69.727435" xlink:href="#mf6a12c3257" y="240.343125"/>
      </g>
     </g>
     <g id="text_1">
      <!-- mscan -->
      <g transform="translate(72.539935 272.343125)rotate(-90)scale(0.1 -0.1)">
       <defs>
        <path d="M 3050 125 
L 2550 125 
L 2550 2150 
Q 2550 2300 2500 2400 
Q 2450 2500 2300 2500 
Q 2125 2500 1975 2312 
Q 1825 2125 1825 1825 
L 1825 125 
L 1325 125 
L 1325 2150 
Q 1325 2300 1275 2400 
Q 1225 2500 1075 2500 
Q 900 2500 750 2312 
Q 600 2125 600 1825 
L 600 125 
L 100 125 
L 100 2925 
L 600 2925 
L 600 2550 
Q 725 2750 900 2862 
Q 1075 2975 1275 2975 
Q 1475 2975 1612 2862 
Q 1750 2750 1800 2550 
Q 1925 2750 2087 2862 
Q 2250 2975 2450 2975 
Q 2750 2975 2900 2812 
Q 3050 2650 3050 2350 
L 3050 125 
z
" id="SimHei-6d" transform="scale(0.015625)"/>
        <path d="M 2750 900 
Q 2750 500 2437 287 
Q 2125 75 1650 75 
Q 1050 75 725 312 
Q 400 550 400 1000 
L 900 1000 
Q 900 700 1112 600 
Q 1325 500 1625 500 
Q 1925 500 2075 612 
Q 2225 725 2225 900 
Q 2225 1025 2100 1150 
Q 1975 1275 1475 1350 
Q 900 1425 687 1637 
Q 475 1850 475 2200 
Q 475 2500 762 2737 
Q 1050 2975 1600 2975 
Q 2100 2975 2387 2750 
Q 2675 2525 2675 2150 
L 2175 2150 
Q 2175 2375 2012 2462 
Q 1850 2550 1600 2550 
Q 1275 2550 1137 2437 
Q 1000 2325 1000 2175 
Q 1000 2000 1125 1900 
Q 1250 1800 1650 1750 
Q 2300 1650 2525 1437 
Q 2750 1225 2750 900 
z
" id="SimHei-73" transform="scale(0.015625)"/>
        <path d="M 2850 1250 
Q 2850 725 2487 400 
Q 2125 75 1575 75 
Q 1025 75 625 462 
Q 225 850 225 1525 
Q 225 2200 625 2587 
Q 1025 2975 1575 2975 
Q 2125 2975 2450 2687 
Q 2775 2400 2775 2000 
L 2225 2000 
Q 2200 2300 2012 2412 
Q 1825 2525 1575 2525 
Q 1275 2525 1025 2287 
Q 775 2050 775 1525 
Q 775 1000 1025 762 
Q 1275 525 1575 525 
Q 1900 525 2100 700 
Q 2300 875 2300 1250 
L 2850 1250 
z
" id="SimHei-63" transform="scale(0.015625)"/>
        <path d="M 2875 125 
L 2275 125 
Q 2225 175 2200 262 
Q 2175 350 2175 475 
Q 2000 275 1750 175 
Q 1500 75 1225 75 
Q 825 75 550 275 
Q 275 475 275 850 
Q 275 1225 525 1450 
Q 775 1675 1300 1750 
Q 1650 1800 1912 1875 
Q 2175 1950 2175 2075 
Q 2175 2225 2062 2375 
Q 1950 2525 1575 2525 
Q 1275 2525 1137 2412 
Q 1000 2300 950 2100 
L 400 2100 
Q 450 2500 762 2737 
Q 1075 2975 1575 2975 
Q 2125 2975 2400 2725 
Q 2675 2475 2675 2025 
L 2675 650 
Q 2675 500 2725 375 
Q 2775 250 2875 125 
z
M 2175 1050 
L 2175 1550 
Q 2025 1500 1887 1462 
Q 1750 1425 1425 1375 
Q 1050 1325 937 1200 
Q 825 1075 825 900 
Q 825 750 937 637 
Q 1050 525 1275 525 
Q 1500 525 1762 650 
Q 2025 775 2175 1050 
z
" id="SimHei-61" transform="scale(0.015625)"/>
        <path d="M 2800 125 
L 2300 125 
L 2300 1925 
Q 2300 2225 2150 2400 
Q 2000 2575 1750 2575 
Q 1425 2575 1137 2237 
Q 850 1900 850 1400 
L 850 125 
L 350 125 
L 350 2925 
L 850 2925 
L 850 2400 
Q 1050 2675 1287 2825 
Q 1525 2975 1900 2975 
Q 2350 2975 2575 2725 
Q 2800 2475 2800 2100 
L 2800 125 
z
" id="SimHei-6e" transform="scale(0.015625)"/>
       </defs>
       <use xlink:href="#SimHei-6d"/>
       <use x="50" xlink:href="#SimHei-73"/>
       <use x="100" xlink:href="#SimHei-63"/>
       <use x="150" xlink:href="#SimHei-61"/>
       <use x="200" xlink:href="#SimHei-6e"/>
      </g>
     </g>
    </g>
    <g id="xtick_2">
     <g id="line2d_2">
      <g>
       <use style="stroke:#000000;stroke-width:0.8;" x="87.844318" xlink:href="#mf6a12c3257" y="240.343125"/>
      </g>
     </g>
     <g id="text_2">
      <!-- apache2 -->
      <g transform="translate(90.734943 282.343125)rotate(-90)scale(0.1 -0.1)">
       <defs>
        <path d="M 2825 1525 
Q 2825 800 2475 425 
Q 2125 50 1625 50 
Q 1350 50 1150 162 
Q 950 275 800 500 
L 800 -800 
L 300 -800 
L 300 2925 
L 800 2925 
L 800 2550 
Q 950 2775 1150 2875 
Q 1350 2975 1625 2975 
Q 2125 2975 2475 2612 
Q 2825 2250 2825 1525 
z
M 2275 1525 
Q 2275 2000 2087 2262 
Q 1900 2525 1525 2525 
Q 1225 2525 1012 2262 
Q 800 2000 800 1525 
Q 800 1050 1012 775 
Q 1225 500 1525 500 
Q 1900 500 2087 775 
Q 2275 1050 2275 1525 
z
" id="SimHei-70" transform="scale(0.015625)"/>
        <path d="M 2800 125 
L 2300 125 
L 2300 1925 
Q 2300 2225 2150 2400 
Q 2000 2575 1750 2575 
Q 1425 2575 1137 2237 
Q 850 1900 850 1400 
L 850 125 
L 350 125 
L 350 4400 
L 850 4400 
L 850 2400 
Q 1050 2675 1287 2825 
Q 1525 2975 1900 2975 
Q 2350 2975 2575 2725 
Q 2800 2475 2800 2100 
L 2800 125 
z
" id="SimHei-68" transform="scale(0.015625)"/>
        <path d="M 2850 1075 
Q 2800 625 2450 350 
Q 2100 75 1625 75 
Q 1025 75 637 462 
Q 250 850 250 1525 
Q 250 2200 637 2587 
Q 1025 2975 1625 2975 
Q 2150 2975 2487 2637 
Q 2825 2300 2825 1525 
L 800 1525 
Q 800 975 1037 750 
Q 1275 525 1625 525 
Q 1900 525 2075 662 
Q 2250 800 2300 1075 
L 2850 1075 
z
M 2250 1925 
Q 2200 2275 2025 2412 
Q 1850 2550 1575 2550 
Q 1325 2550 1125 2412 
Q 925 2275 825 1925 
L 2250 1925 
z
" id="SimHei-65" transform="scale(0.015625)"/>
        <path d="M 300 250 
Q 325 625 650 925 
Q 975 1225 1475 1862 
Q 1975 2500 2125 2850 
Q 2275 3200 2237 3450 
Q 2200 3700 2000 3862 
Q 1800 4025 1537 4000 
Q 1275 3975 1037 3800 
Q 800 3625 675 3275 
L 200 3350 
Q 400 3925 712 4187 
Q 1025 4450 1450 4475 
Q 1700 4500 1900 4462 
Q 2100 4425 2312 4287 
Q 2525 4150 2662 3875 
Q 2800 3600 2762 3212 
Q 2725 2825 2375 2287 
Q 2025 1750 1025 600 
L 2825 600 
L 2825 150 
L 300 150 
L 300 250 
z
" id="SimHei-32" transform="scale(0.015625)"/>
       </defs>
       <use xlink:href="#SimHei-61"/>
       <use x="50" xlink:href="#SimHei-70"/>
       <use x="100" xlink:href="#SimHei-61"/>
       <use x="150" xlink:href="#SimHei-63"/>
       <use x="200" xlink:href="#SimHei-68"/>
       <use x="250" xlink:href="#SimHei-65"/>
       <use x="300" xlink:href="#SimHei-32"/>
      </g>
     </g>
    </g>
    <g id="xtick_3">
     <g id="line2d_3">
      <g>
       <use style="stroke:#000000;stroke-width:0.8;" x="105.961201" xlink:href="#mf6a12c3257" y="240.343125"/>
      </g>
     </g>
     <g id="text_3">
      <!-- processtable -->
      <g transform="translate(108.773701 307.343125)rotate(-90)scale(0.1 -0.1)">
       <defs>
        <path d="M 2500 2425 
Q 2025 2500 1700 2287 
Q 1375 2075 1150 1550 
L 1150 125 
L 650 125 
L 650 2925 
L 1150 2925 
L 1150 2200 
Q 1375 2600 1712 2787 
Q 2050 2975 2500 2975 
L 2500 2425 
z
" id="SimHei-72" transform="scale(0.015625)"/>
        <path d="M 2925 1525 
Q 2925 875 2525 475 
Q 2125 75 1575 75 
Q 1025 75 625 475 
Q 225 875 225 1525 
Q 225 2175 625 2575 
Q 1025 2975 1575 2975 
Q 2125 2975 2525 2575 
Q 2925 2175 2925 1525 
z
M 2375 1525 
Q 2375 2025 2125 2275 
Q 1875 2525 1575 2525 
Q 1275 2525 1025 2275 
Q 775 2025 775 1525 
Q 775 1025 1025 775 
Q 1275 525 1575 525 
Q 1875 525 2125 775 
Q 2375 1025 2375 1525 
z
" id="SimHei-6f" transform="scale(0.015625)"/>
        <path d="M 2750 200 
Q 2625 150 2462 112 
Q 2300 75 2025 75 
Q 1575 75 1300 325 
Q 1025 575 1025 1025 
L 1025 2525 
L 175 2525 
L 175 2925 
L 1025 2925 
L 1025 3900 
L 1525 3900 
L 1525 2925 
L 2550 2925 
L 2550 2525 
L 1525 2525 
L 1525 1000 
Q 1525 800 1625 662 
Q 1725 525 2000 525 
Q 2275 525 2450 575 
Q 2625 625 2750 700 
L 2750 200 
z
" id="SimHei-74" transform="scale(0.015625)"/>
        <path d="M 2825 1525 
Q 2825 800 2475 437 
Q 2125 75 1625 75 
Q 1350 75 1150 175 
Q 950 275 800 500 
L 800 125 
L 300 125 
L 300 4400 
L 800 4400 
L 800 2550 
Q 950 2775 1150 2887 
Q 1350 3000 1625 3000 
Q 2125 3000 2475 2625 
Q 2825 2250 2825 1525 
z
M 2275 1525 
Q 2275 2000 2087 2275 
Q 1900 2550 1525 2550 
Q 1225 2550 1012 2275 
Q 800 2000 800 1525 
Q 800 1050 1012 787 
Q 1225 525 1525 525 
Q 1900 525 2087 787 
Q 2275 1050 2275 1525 
z
" id="SimHei-62" transform="scale(0.015625)"/>
        <path d="M 1825 125 
L 1325 125 
L 1325 4400 
L 1825 4400 
L 1825 125 
z
" id="SimHei-6c" transform="scale(0.015625)"/>
       </defs>
       <use xlink:href="#SimHei-70"/>
       <use x="50" xlink:href="#SimHei-72"/>
       <use x="100" xlink:href="#SimHei-6f"/>
       <use x="150" xlink:href="#SimHei-63"/>
       <use x="200" xlink:href="#SimHei-65"/>
       <use x="250" xlink:href="#SimHei-73"/>
       <use x="300" xlink:href="#SimHei-73"/>
       <use x="350" xlink:href="#SimHei-74"/>
       <use x="400" xlink:href="#SimHei-61"/>
       <use x="450" xlink:href="#SimHei-62"/>
       <use x="500" xlink:href="#SimHei-6c"/>
       <use x="550" xlink:href="#SimHei-65"/>
      </g>
     </g>
    </g>
    <g id="xtick_4">
     <g id="line2d_4">
      <g>
       <use style="stroke:#000000;stroke-width:0.8;" x="124.078084" xlink:href="#mf6a12c3257" y="240.343125"/>
      </g>
     </g>
     <g id="text_4">
      <!-- snmpguess -->
      <g transform="translate(126.890584 292.343125)rotate(-90)scale(0.1 -0.1)">
       <defs>
        <path d="M 2975 2500 
Q 2800 2550 2637 2562 
Q 2475 2575 2300 2525 
Q 2375 2450 2425 2337 
Q 2475 2225 2475 2000 
Q 2475 1575 2187 1300 
Q 1900 1025 1475 1025 
Q 1375 1025 1212 1062 
Q 1050 1100 950 1150 
Q 875 1100 850 1050 
Q 825 1000 825 925 
Q 825 800 1000 737 
Q 1175 675 1625 675 
Q 2350 675 2612 475 
Q 2875 275 2875 -25 
Q 2875 -425 2487 -612 
Q 2100 -800 1575 -800 
Q 900 -800 575 -625 
Q 250 -450 250 -150 
Q 250 0 375 150 
Q 500 300 700 400 
Q 550 475 462 587 
Q 375 700 375 875 
Q 375 1025 487 1137 
Q 600 1250 750 1325 
Q 625 1450 550 1625 
Q 475 1800 475 2000 
Q 475 2425 762 2700 
Q 1050 2975 1475 2975 
Q 1700 2975 1862 2912 
Q 2025 2850 2150 2725 
Q 2350 2875 2550 2937 
Q 2750 3000 2975 2975 
L 2975 2500 
z
M 1975 2000 
Q 1975 2250 1850 2400 
Q 1725 2550 1475 2550 
Q 1225 2550 1100 2400 
Q 975 2250 975 2000 
Q 975 1750 1100 1600 
Q 1225 1450 1475 1450 
Q 1725 1450 1850 1600 
Q 1975 1750 1975 2000 
z
M 2400 -75 
Q 2400 25 2287 125 
Q 2175 225 1725 225 
Q 1625 225 1450 237 
Q 1275 250 1050 275 
Q 850 200 775 100 
Q 700 0 700 -100 
Q 700 -250 900 -350 
Q 1100 -450 1600 -450 
Q 2025 -450 2212 -337 
Q 2400 -225 2400 -75 
z
" id="SimHei-67" transform="scale(0.015625)"/>
        <path d="M 2800 125 
L 2300 125 
L 2300 650 
Q 2100 375 1862 225 
Q 1625 75 1250 75 
Q 800 75 575 325 
Q 350 575 350 950 
L 350 2925 
L 850 2925 
L 850 1125 
Q 850 825 1000 650 
Q 1150 475 1400 475 
Q 1725 475 2012 812 
Q 2300 1150 2300 1650 
L 2300 2925 
L 2800 2925 
L 2800 125 
z
" id="SimHei-75" transform="scale(0.015625)"/>
       </defs>
       <use xlink:href="#SimHei-73"/>
       <use x="50" xlink:href="#SimHei-6e"/>
       <use x="100" xlink:href="#SimHei-6d"/>
       <use x="150" xlink:href="#SimHei-70"/>
       <use x="200" xlink:href="#SimHei-67"/>
       <use x="250" xlink:href="#SimHei-75"/>
       <use x="300" xlink:href="#SimHei-65"/>
       <use x="350" xlink:href="#SimHei-73"/>
       <use x="400" xlink:href="#SimHei-73"/>
      </g>
     </g>
    </g>
    <g id="xtick_5">
     <g id="line2d_5">
      <g>
       <use style="stroke:#000000;stroke-width:0.8;" x="142.194968" xlink:href="#mf6a12c3257" y="240.343125"/>
      </g>
     </g>
     <g id="text_5">
      <!-- saint -->
      <g transform="translate(145.007468 272.343125)rotate(-90)scale(0.1 -0.1)">
       <defs>
        <path d="M 1800 3725 
L 1300 3725 
L 1300 4375 
L 1800 4375 
L 1800 3725 
z
M 1800 125 
L 1300 125 
L 1300 2925 
L 1800 2925 
L 1800 125 
z
" id="SimHei-69" transform="scale(0.015625)"/>
       </defs>
       <use xlink:href="#SimHei-73"/>
       <use x="50" xlink:href="#SimHei-61"/>
       <use x="100" xlink:href="#SimHei-69"/>
       <use x="150" xlink:href="#SimHei-6e"/>
       <use x="200" xlink:href="#SimHei-74"/>
      </g>
     </g>
    </g>
    <g id="xtick_6">
     <g id="line2d_6">
      <g>
       <use style="stroke:#000000;stroke-width:0.8;" x="160.311851" xlink:href="#mf6a12c3257" y="240.343125"/>
      </g>
     </g>
     <g id="text_6">
      <!-- mailbomb -->
      <g transform="translate(163.124351 287.343125)rotate(-90)scale(0.1 -0.1)">
       <use xlink:href="#SimHei-6d"/>
       <use x="50" xlink:href="#SimHei-61"/>
       <use x="100" xlink:href="#SimHei-69"/>
       <use x="150" xlink:href="#SimHei-6c"/>
       <use x="200" xlink:href="#SimHei-62"/>
       <use x="250" xlink:href="#SimHei-6f"/>
       <use x="300" xlink:href="#SimHei-6d"/>
       <use x="350" xlink:href="#SimHei-62"/>
      </g>
     </g>
    </g>
    <g id="xtick_7">
     <g id="line2d_7">
      <g>
       <use style="stroke:#000000;stroke-width:0.8;" x="178.428734" xlink:href="#mf6a12c3257" y="240.343125"/>
      </g>
     </g>
     <g id="text_7">
      <!-- snmpgetattack -->
      <g transform="translate(181.241234 312.343125)rotate(-90)scale(0.1 -0.1)">
       <defs>
        <path d="M 2925 125 
L 2350 125 
L 1450 1650 
L 875 1100 
L 875 125 
L 375 125 
L 375 4400 
L 875 4400 
L 875 1675 
L 2125 2925 
L 2750 2925 
L 1775 1975 
L 2925 125 
z
" id="SimHei-6b" transform="scale(0.015625)"/>
       </defs>
       <use xlink:href="#SimHei-73"/>
       <use x="50" xlink:href="#SimHei-6e"/>
       <use x="100" xlink:href="#SimHei-6d"/>
       <use x="150" xlink:href="#SimHei-70"/>
       <use x="200" xlink:href="#SimHei-67"/>
       <use x="250" xlink:href="#SimHei-65"/>
       <use x="300" xlink:href="#SimHei-74"/>
       <use x="350" xlink:href="#SimHei-61"/>
       <use x="400" xlink:href="#SimHei-74"/>
       <use x="450" xlink:href="#SimHei-74"/>
       <use x="500" xlink:href="#SimHei-61"/>
       <use x="550" xlink:href="#SimHei-63"/>
       <use x="600" xlink:href="#SimHei-6b"/>
      </g>
     </g>
    </g>
    <g id="xtick_8">
     <g id="line2d_8">
      <g>
       <use style="stroke:#000000;stroke-width:0.8;" x="196.545617" xlink:href="#mf6a12c3257" y="240.343125"/>
      </g>
     </g>
     <g id="text_8">
      <!-- httptunnel -->
      <g transform="translate(199.358117 297.343125)rotate(-90)scale(0.1 -0.1)">
       <use xlink:href="#SimHei-68"/>
       <use x="50" xlink:href="#SimHei-74"/>
       <use x="100" xlink:href="#SimHei-74"/>
       <use x="150" xlink:href="#SimHei-70"/>
       <use x="200" xlink:href="#SimHei-74"/>
       <use x="250" xlink:href="#SimHei-75"/>
       <use x="300" xlink:href="#SimHei-6e"/>
       <use x="350" xlink:href="#SimHei-6e"/>
       <use x="400" xlink:href="#SimHei-65"/>
       <use x="450" xlink:href="#SimHei-6c"/>
      </g>
     </g>
    </g>
    <g id="xtick_9">
     <g id="line2d_9">
      <g>
       <use style="stroke:#000000;stroke-width:0.8;" x="214.6625" xlink:href="#mf6a12c3257" y="240.343125"/>
      </g>
     </g>
     <g id="text_9">
      <!-- named -->
      <g transform="translate(217.475 272.343125)rotate(-90)scale(0.1 -0.1)">
       <defs>
        <path d="M 2750 125 
L 2250 125 
L 2250 500 
Q 2100 275 1900 175 
Q 1700 75 1425 75 
Q 925 75 575 437 
Q 225 800 225 1525 
Q 225 2250 575 2625 
Q 925 3000 1425 3000 
Q 1700 3000 1900 2887 
Q 2100 2775 2250 2550 
L 2250 4400 
L 2750 4400 
L 2750 125 
z
M 2250 1525 
Q 2250 2000 2037 2275 
Q 1825 2550 1525 2550 
Q 1150 2550 962 2275 
Q 775 2000 775 1525 
Q 775 1050 962 787 
Q 1150 525 1525 525 
Q 1825 525 2037 787 
Q 2250 1050 2250 1525 
z
" id="SimHei-64" transform="scale(0.015625)"/>
       </defs>
       <use xlink:href="#SimHei-6e"/>
       <use x="50" xlink:href="#SimHei-61"/>
       <use x="100" xlink:href="#SimHei-6d"/>
       <use x="150" xlink:href="#SimHei-65"/>
       <use x="200" xlink:href="#SimHei-64"/>
      </g>
     </g>
    </g>
    <g id="xtick_10">
     <g id="line2d_10">
      <g>
       <use style="stroke:#000000;stroke-width:0.8;" x="232.779383" xlink:href="#mf6a12c3257" y="240.343125"/>
      </g>
     </g>
     <g id="text_10">
      <!-- ps -->
      <g transform="translate(235.591883 257.343125)rotate(-90)scale(0.1 -0.1)">
       <use xlink:href="#SimHei-70"/>
       <use x="50" xlink:href="#SimHei-73"/>
      </g>
     </g>
    </g>
    <g id="xtick_11">
     <g id="line2d_11">
      <g>
       <use style="stroke:#000000;stroke-width:0.8;" x="250.896266" xlink:href="#mf6a12c3257" y="240.343125"/>
      </g>
     </g>
     <g id="text_11">
      <!-- sendmail -->
      <g transform="translate(253.708766 287.343125)rotate(-90)scale(0.1 -0.1)">
       <use xlink:href="#SimHei-73"/>
       <use x="50" xlink:href="#SimHei-65"/>
       <use x="100" xlink:href="#SimHei-6e"/>
       <use x="150" xlink:href="#SimHei-64"/>
       <use x="200" xlink:href="#SimHei-6d"/>
       <use x="250" xlink:href="#SimHei-61"/>
       <use x="300" xlink:href="#SimHei-69"/>
       <use x="350" xlink:href="#SimHei-6c"/>
      </g>
     </g>
    </g>
    <g id="xtick_12">
     <g id="line2d_12">
      <g>
       <use style="stroke:#000000;stroke-width:0.8;" x="269.013149" xlink:href="#mf6a12c3257" y="240.343125"/>
      </g>
     </g>
     <g id="text_12">
      <!-- xterm -->
      <g transform="translate(271.825649 272.343125)rotate(-90)scale(0.1 -0.1)">
       <defs>
        <path d="M 2875 125 
L 2275 125 
L 1550 1200 
L 825 125 
L 225 125 
L 1250 1550 
L 300 2925 
L 900 2925 
L 1550 1875 
L 2200 2925 
L 2800 2925 
L 1850 1550 
L 2875 125 
z
" id="SimHei-78" transform="scale(0.015625)"/>
       </defs>
       <use xlink:href="#SimHei-78"/>
       <use x="50" xlink:href="#SimHei-74"/>
       <use x="100" xlink:href="#SimHei-65"/>
       <use x="150" xlink:href="#SimHei-72"/>
       <use x="200" xlink:href="#SimHei-6d"/>
      </g>
     </g>
    </g>
    <g id="xtick_13">
     <g id="line2d_13">
      <g>
       <use style="stroke:#000000;stroke-width:0.8;" x="287.130032" xlink:href="#mf6a12c3257" y="240.343125"/>
      </g>
     </g>
     <g id="text_13">
      <!-- xlock -->
      <g transform="translate(289.942532 272.343125)rotate(-90)scale(0.1 -0.1)">
       <use xlink:href="#SimHei-78"/>
       <use x="50" xlink:href="#SimHei-6c"/>
       <use x="100" xlink:href="#SimHei-6f"/>
       <use x="150" xlink:href="#SimHei-63"/>
       <use x="200" xlink:href="#SimHei-6b"/>
      </g>
     </g>
    </g>
    <g id="xtick_14">
     <g id="line2d_14">
      <g>
       <use style="stroke:#000000;stroke-width:0.8;" x="305.246916" xlink:href="#mf6a12c3257" y="240.343125"/>
      </g>
     </g>
     <g id="text_14">
      <!-- xsnoop -->
      <g transform="translate(308.059416 277.343125)rotate(-90)scale(0.1 -0.1)">
       <use xlink:href="#SimHei-78"/>
       <use x="50" xlink:href="#SimHei-73"/>
       <use x="100" xlink:href="#SimHei-6e"/>
       <use x="150" xlink:href="#SimHei-6f"/>
       <use x="200" xlink:href="#SimHei-6f"/>
       <use x="250" xlink:href="#SimHei-70"/>
      </g>
     </g>
    </g>
    <g id="xtick_15">
     <g id="line2d_15">
      <g>
       <use style="stroke:#000000;stroke-width:0.8;" x="323.363799" xlink:href="#mf6a12c3257" y="240.343125"/>
      </g>
     </g>
     <g id="text_15">
      <!-- udpstorm -->
      <g transform="translate(326.176299 287.343125)rotate(-90)scale(0.1 -0.1)">
       <use xlink:href="#SimHei-75"/>
       <use x="50" xlink:href="#SimHei-64"/>
       <use x="100" xlink:href="#SimHei-70"/>
       <use x="150" xlink:href="#SimHei-73"/>
       <use x="200" xlink:href="#SimHei-74"/>
       <use x="250" xlink:href="#SimHei-6f"/>
       <use x="300" xlink:href="#SimHei-72"/>
       <use x="350" xlink:href="#SimHei-6d"/>
      </g>
     </g>
    </g>
    <g id="xtick_16">
     <g id="line2d_16">
      <g>
       <use style="stroke:#000000;stroke-width:0.8;" x="341.480682" xlink:href="#mf6a12c3257" y="240.343125"/>
      </g>
     </g>
     <g id="text_16">
      <!-- sqlattack -->
      <g transform="translate(344.293182 292.343125)rotate(-90)scale(0.1 -0.1)">
       <defs>
        <path d="M 2750 -800 
L 2250 -800 
L 2250 500 
Q 2100 275 1900 162 
Q 1700 50 1425 50 
Q 925 50 575 425 
Q 225 800 225 1525 
Q 225 2250 575 2612 
Q 925 2975 1425 2975 
Q 1700 2975 1900 2875 
Q 2100 2775 2250 2550 
L 2250 2925 
L 2750 2925 
L 2750 -800 
z
M 2250 1525 
Q 2250 2000 2037 2262 
Q 1825 2525 1525 2525 
Q 1150 2525 962 2262 
Q 775 2000 775 1525 
Q 775 1050 962 775 
Q 1150 500 1525 500 
Q 1825 500 2037 775 
Q 2250 1050 2250 1525 
z
" id="SimHei-71" transform="scale(0.015625)"/>
       </defs>
       <use xlink:href="#SimHei-73"/>
       <use x="50" xlink:href="#SimHei-71"/>
       <use x="100" xlink:href="#SimHei-6c"/>
       <use x="150" xlink:href="#SimHei-61"/>
       <use x="200" xlink:href="#SimHei-74"/>
       <use x="250" xlink:href="#SimHei-74"/>
       <use x="300" xlink:href="#SimHei-61"/>
       <use x="350" xlink:href="#SimHei-63"/>
       <use x="400" xlink:href="#SimHei-6b"/>
      </g>
     </g>
    </g>
    <g id="xtick_17">
     <g id="line2d_17">
      <g>
       <use style="stroke:#000000;stroke-width:0.8;" x="359.597565" xlink:href="#mf6a12c3257" y="240.343125"/>
      </g>
     </g>
     <g id="text_17">
      <!-- worm -->
      <g transform="translate(362.410065 267.343125)rotate(-90)scale(0.1 -0.1)">
       <defs>
        <path d="M 3075 2925 
L 2450 75 
L 1975 75 
L 1575 2250 
L 1525 2250 
L 1125 75 
L 650 75 
L 25 2925 
L 550 2925 
L 875 1050 
L 925 1050 
L 1275 2925 
L 1825 2925 
L 2175 1050 
L 2225 1050 
L 2550 2925 
L 3075 2925 
z
" id="SimHei-77" transform="scale(0.015625)"/>
       </defs>
       <use xlink:href="#SimHei-77"/>
       <use x="50" xlink:href="#SimHei-6f"/>
       <use x="100" xlink:href="#SimHei-72"/>
       <use x="150" xlink:href="#SimHei-6d"/>
      </g>
     </g>
    </g>
   </g>
   <g id="matplotlib.axis_2">
    <g id="ytick_1">
     <g id="line2d_18">
      <defs>
       <path d="M 0 0 
L -3.5 0 
" id="mde707d8e54" style="stroke:#000000;stroke-width:0.8;"/>
      </defs>
      <g>
       <use style="stroke:#000000;stroke-width:0.8;" x="47.2625" xlink:href="#mde707d8e54" y="240.343125"/>
      </g>
     </g>
     <g id="text_18">
      <!-- 0 -->
      <g transform="translate(35.2625 243.780625)scale(0.1 -0.1)">
       <defs>
        <path d="M 225 2537 
Q 250 3200 412 3587 
Q 575 3975 875 4225 
Q 1175 4475 1612 4475 
Q 2050 4475 2375 4112 
Q 2700 3750 2800 3200 
Q 2900 2650 2862 1937 
Q 2825 1225 2612 775 
Q 2400 325 1975 150 
Q 1550 -25 1125 187 
Q 700 400 525 750 
Q 350 1100 275 1487 
Q 200 1875 225 2537 
z
M 750 2687 
Q 675 2000 800 1462 
Q 925 925 1212 700 
Q 1500 475 1800 612 
Q 2100 750 2237 1162 
Q 2375 1575 2375 2062 
Q 2375 2550 2337 2950 
Q 2300 3350 2112 3675 
Q 1925 4000 1612 4012 
Q 1300 4025 1062 3700 
Q 825 3375 750 2687 
z
" id="SimHei-30" transform="scale(0.015625)"/>
       </defs>
       <use xlink:href="#SimHei-30"/>
      </g>
     </g>
    </g>
    <g id="ytick_2">
     <g id="line2d_19">
      <g>
       <use style="stroke:#000000;stroke-width:0.8;" x="47.2625" xlink:href="#mde707d8e54" y="198.759648"/>
      </g>
     </g>
     <g id="text_19">
      <!-- 200 -->
      <g transform="translate(25.2625 202.197148)scale(0.1 -0.1)">
       <use xlink:href="#SimHei-32"/>
       <use x="50" xlink:href="#SimHei-30"/>
       <use x="100" xlink:href="#SimHei-30"/>
      </g>
     </g>
    </g>
    <g id="ytick_3">
     <g id="line2d_20">
      <g>
       <use style="stroke:#000000;stroke-width:0.8;" x="47.2625" xlink:href="#mde707d8e54" y="157.176171"/>
      </g>
     </g>
     <g id="text_20">
      <!-- 400 -->
      <g transform="translate(25.2625 160.613671)scale(0.1 -0.1)">
       <defs>
        <path d="M 2000 1100 
L 75 1100 
L 75 1525 
L 2100 4450 
L 2475 4450 
L 2475 1525 
L 3075 1525 
L 3075 1100 
L 2475 1100 
L 2475 150 
L 2000 150 
L 2000 1100 
z
M 2000 1525 
L 2000 3500 
L 600 1525 
L 2000 1525 
z
" id="SimHei-34" transform="scale(0.015625)"/>
       </defs>
       <use xlink:href="#SimHei-34"/>
       <use x="50" xlink:href="#SimHei-30"/>
       <use x="100" xlink:href="#SimHei-30"/>
      </g>
     </g>
    </g>
    <g id="ytick_4">
     <g id="line2d_21">
      <g>
       <use style="stroke:#000000;stroke-width:0.8;" x="47.2625" xlink:href="#mde707d8e54" y="115.592695"/>
      </g>
     </g>
     <g id="text_21">
      <!-- 600 -->
      <g transform="translate(25.2625 119.030195)scale(0.1 -0.1)">
       <defs>
        <path d="M 250 1612 
Q 275 1975 387 2225 
Q 500 2475 725 2850 
L 1750 4450 
L 2325 4450 
L 1275 2800 
Q 1950 2975 2350 2750 
Q 2750 2525 2887 2237 
Q 3025 1950 3037 1612 
Q 3050 1275 2937 950 
Q 2825 625 2537 362 
Q 2250 100 1737 75 
Q 1225 50 862 262 
Q 500 475 362 862 
Q 225 1250 250 1612 
z
M 1025 787 
Q 1250 550 1625 525 
Q 2000 500 2250 775 
Q 2500 1050 2500 1575 
Q 2500 2100 2187 2300 
Q 1875 2500 1487 2450 
Q 1100 2400 925 2075 
Q 750 1750 775 1387 
Q 800 1025 1025 787 
z
" id="SimHei-36" transform="scale(0.015625)"/>
       </defs>
       <use xlink:href="#SimHei-36"/>
       <use x="50" xlink:href="#SimHei-30"/>
       <use x="100" xlink:href="#SimHei-30"/>
      </g>
     </g>
    </g>
    <g id="ytick_5">
     <g id="line2d_22">
      <g>
       <use style="stroke:#000000;stroke-width:0.8;" x="47.2625" xlink:href="#mde707d8e54" y="74.009218"/>
      </g>
     </g>
     <g id="text_22">
      <!-- 800 -->
      <g transform="translate(25.2625 77.446718)scale(0.1 -0.1)">
       <defs>
        <path d="M 175 1375 
Q 175 1675 325 1962 
Q 475 2250 825 2425 
Q 525 2600 425 2812 
Q 325 3025 312 3300 
Q 300 3575 387 3775 
Q 475 3975 650 4150 
Q 825 4325 1037 4387 
Q 1250 4450 1500 4450 
Q 1750 4450 1950 4400 
Q 2150 4350 2375 4187 
Q 2600 4025 2700 3725 
Q 2800 3425 2687 3025 
Q 2575 2625 2100 2400 
Q 2525 2275 2700 2012 
Q 2875 1750 2875 1375 
Q 2875 1000 2762 775 
Q 2650 550 2512 400 
Q 2375 250 2137 162 
Q 1900 75 1537 75 
Q 1175 75 912 162 
Q 650 250 475 425 
Q 300 600 237 837 
Q 175 1075 175 1375 
z
M 687 1400 
Q 675 1100 787 875 
Q 900 650 1200 587 
Q 1500 525 1825 600 
Q 2150 675 2275 950 
Q 2400 1225 2362 1500 
Q 2325 1775 2050 1962 
Q 1775 2150 1450 2125 
Q 1125 2100 912 1900 
Q 700 1700 687 1400 
z
M 775 3350 
Q 775 3100 950 2875 
Q 1125 2650 1500 2650 
Q 1875 2650 2062 2875 
Q 2250 3100 2237 3412 
Q 2225 3725 2012 3875 
Q 1800 4025 1437 4000 
Q 1075 3975 925 3787 
Q 775 3600 775 3350 
z
" id="SimHei-38" transform="scale(0.015625)"/>
       </defs>
       <use xlink:href="#SimHei-38"/>
       <use x="50" xlink:href="#SimHei-30"/>
       <use x="100" xlink:href="#SimHei-30"/>
      </g>
     </g>
    </g>
    <g id="ytick_6">
     <g id="line2d_23">
      <g>
       <use style="stroke:#000000;stroke-width:0.8;" x="47.2625" xlink:href="#mde707d8e54" y="32.425741"/>
      </g>
     </g>
     <g id="text_23">
      <!-- 1000 -->
      <g transform="translate(20.2625 35.863241)scale(0.1 -0.1)">
       <defs>
        <path d="M 1400 3600 
Q 1075 3275 575 2975 
L 575 3450 
Q 1200 3875 1600 4450 
L 1900 4450 
L 1900 150 
L 1400 150 
L 1400 3600 
z
" id="SimHei-31" transform="scale(0.015625)"/>
       </defs>
       <use xlink:href="#SimHei-31"/>
       <use x="50" xlink:href="#SimHei-30"/>
       <use x="100" xlink:href="#SimHei-30"/>
       <use x="150" xlink:href="#SimHei-30"/>
      </g>
     </g>
    </g>
    <g id="text_24">
     <!-- 频率 -->
     <g transform="translate(15.0125 141.623125)rotate(-90)scale(0.1 -0.1)">
      <defs>
       <path d="M 4250 4450 
Q 3575 4450 3125 4425 
L 3125 4850 
Q 3550 4825 3925 4825 
L 5225 4825 
Q 5600 4825 6000 4850 
L 6000 4425 
Q 5600 4450 4700 4450 
Q 4625 4050 4550 3625 
L 5875 3625 
Q 5850 3275 5850 2900 
L 5850 1650 
Q 5850 1300 5875 750 
L 5400 750 
L 5400 3250 
L 3875 3250 
L 3875 800 
L 3400 800 
Q 3425 1275 3425 1650 
L 3425 2825 
Q 3425 3275 3400 3625 
L 4125 3625 
Q 4200 4100 4250 4450 
z
M 1675 2750 
Q 650 2750 350 2725 
L 350 3150 
Q 550 3125 725 3125 
Q 725 4275 700 4625 
L 1200 4625 
Q 1175 4275 1175 3125 
L 1675 3125 
L 1675 4275 
Q 1675 4750 1650 5125 
L 2150 5125 
Q 2125 4750 2125 4250 
Q 2625 4250 3025 4275 
L 3025 3850 
Q 2625 3875 2125 3875 
L 2125 3125 
Q 2850 3125 3150 3150 
L 3150 2725 
Q 2850 2750 2125 2750 
L 1675 2750 
z
M 2150 2600 
Q 2125 2250 2125 1925 
L 2125 1050 
Q 2600 1650 2650 2200 
Q 2875 2100 3175 2075 
Q 2850 1075 2187 450 
Q 1525 -175 700 -500 
Q 550 -250 200 -75 
Q 750 75 1087 237 
Q 1425 400 1675 625 
L 1675 1900 
Q 1675 2250 1650 2600 
L 2150 2600 
z
M 2775 -250 
Q 3400 -75 3737 225 
Q 4075 525 4212 887 
Q 4350 1250 4362 1725 
Q 4375 2200 4350 2750 
Q 4650 2700 4925 2650 
Q 4850 2325 4837 1975 
Q 4825 1625 4750 1112 
Q 4675 600 4300 162 
Q 3925 -275 3250 -650 
Q 3075 -450 2775 -250 
z
M 5850 -650 
Q 5550 -275 4800 250 
Q 4975 425 5075 600 
Q 5825 75 6200 -250 
Q 5975 -425 5850 -650 
z
M 400 1175 
Q 650 1550 900 2375 
Q 1125 2275 1375 2225 
Q 1000 1325 850 1025 
Q 650 1150 400 1175 
z
" id="SimHei-9891" transform="scale(0.015625)"/>
       <path d="M 3325 5150 
Q 3425 4900 3550 4525 
L 4800 4525 
Q 5250 4525 5800 4550 
L 5800 4125 
Q 5250 4175 4775 4175 
L 2800 4175 
Q 2975 4050 3300 3900 
Q 3075 3750 2875 3537 
Q 2675 3325 2475 3125 
L 3275 3125 
Q 3575 3425 3775 3775 
Q 4000 3600 4275 3425 
Q 3950 3250 3600 2875 
Q 3250 2500 2625 2000 
L 3850 2100 
Q 3725 2250 3600 2425 
Q 3750 2475 4000 2650 
Q 4250 2350 4700 1700 
Q 4475 1625 4225 1450 
Q 4175 1600 4025 1775 
Q 3700 1750 3425 1750 
L 3425 1050 
L 5150 1050 
Q 5675 1050 6100 1075 
L 6100 650 
Q 5700 675 5125 675 
L 3425 675 
L 3425 175 
Q 3425 -300 3450 -625 
L 2900 -625 
Q 2925 -300 2925 175 
L 2925 675 
L 1325 675 
Q 825 675 325 650 
L 325 1075 
Q 825 1050 1350 1050 
L 2925 1050 
L 2925 1700 
Q 2700 1675 2475 1637 
Q 2250 1600 2025 1525 
Q 1950 1775 1850 2000 
Q 2075 2025 2325 2200 
Q 2575 2375 2975 2800 
Q 2300 2725 2025 2625 
Q 1975 2875 1850 3175 
Q 2075 3175 2325 3487 
Q 2575 3800 2750 4175 
L 1700 4175 
Q 1150 4175 650 4125 
L 650 4550 
Q 1150 4525 1550 4525 
L 2975 4525 
Q 2900 4825 2800 5025 
Q 3025 5075 3325 5150 
z
M 1625 2575 
Q 1725 2400 1825 2200 
Q 1575 2050 1325 1862 
Q 1075 1675 800 1425 
Q 625 1675 475 1875 
Q 800 2025 1100 2212 
Q 1400 2400 1625 2575 
z
M 4850 2650 
Q 5125 2475 5337 2337 
Q 5550 2200 5875 1950 
Q 5675 1800 5500 1600 
Q 5300 1775 5062 1975 
Q 4825 2175 4575 2325 
Q 4725 2475 4850 2650 
z
M 5725 3525 
Q 5550 3450 5300 3262 
Q 5050 3075 4800 2825 
Q 4625 3050 4475 3175 
Q 4700 3325 4875 3487 
Q 5050 3650 5300 3925 
Q 5525 3700 5725 3525 
z
M 1050 3850 
Q 1425 3600 1775 3275 
Q 1575 3100 1425 2925 
Q 1075 3300 675 3525 
Q 875 3700 1050 3850 
z
" id="SimHei-7387" transform="scale(0.015625)"/>
      </defs>
      <use xlink:href="#SimHei-9891"/>
      <use x="100" xlink:href="#SimHei-7387"/>
     </g>
    </g>
   </g>
   <g id="patch_20">
    <path d="M 47.2625 240.343125 
L 47.2625 22.903125 
" style="fill:none;stroke:#000000;stroke-linecap:square;stroke-linejoin:miter;stroke-width:0.8;"/>
   </g>
   <g id="patch_21">
    <path d="M 382.0625 240.343125 
L 382.0625 22.903125 
" style="fill:none;stroke:#000000;stroke-linecap:square;stroke-linejoin:miter;stroke-width:0.8;"/>
   </g>
   <g id="patch_22">
    <path d="M 47.2625 240.343125 
L 382.0625 240.343125 
" style="fill:none;stroke:#000000;stroke-linecap:square;stroke-linejoin:miter;stroke-width:0.8;"/>
   </g>
   <g id="patch_23">
    <path d="M 47.2625 22.903125 
L 382.0625 22.903125 
" style="fill:none;stroke:#000000;stroke-linecap:square;stroke-linejoin:miter;stroke-width:0.8;"/>
   </g>
   <g id="text_25">
    <!-- 996 -->
    <g transform="translate(62.227435 32.007411)scale(0.1 -0.1)">
     <defs>
      <path d="M 800 75 
Q 1350 1000 1700 1750 
Q 1075 1650 662 1912 
Q 250 2175 162 2625 
Q 75 3075 175 3437 
Q 275 3800 487 4037 
Q 700 4275 1000 4375 
Q 1300 4475 1537 4475 
Q 1775 4475 2025 4375 
Q 2275 4275 2475 4075 
Q 2675 3875 2750 3662 
Q 2825 3450 2825 3112 
Q 2825 2775 2575 2250 
Q 2325 1725 1350 75 
L 800 75 
z
M 662 2875 
Q 700 2550 937 2337 
Q 1175 2125 1450 2150 
Q 1725 2175 1887 2300 
Q 2050 2425 2200 2725 
Q 2300 3100 2250 3362 
Q 2200 3625 1987 3800 
Q 1775 3975 1525 3975 
Q 1375 4000 1137 3900 
Q 900 3800 762 3500 
Q 625 3200 662 2875 
z
" id="SimHei-39" transform="scale(0.015625)"/>
     </defs>
     <use xlink:href="#SimHei-39"/>
     <use x="50" xlink:href="#SimHei-39"/>
     <use x="100" xlink:href="#SimHei-36"/>
    </g>
   </g>
   <g id="text_26">
    <!-- 737 -->
    <g transform="translate(80.344318 85.858013)scale(0.1 -0.1)">
     <defs>
      <path d="M 850 150 
Q 1300 2050 2425 3925 
L 275 3925 
L 275 4375 
L 2950 4375 
L 2950 3950 
Q 1775 2050 1400 150 
L 850 150 
z
" id="SimHei-37" transform="scale(0.015625)"/>
      <path d="M 250 1225 
L 700 1300 
Q 800 975 1025 762 
Q 1250 550 1587 562 
Q 1925 575 2125 837 
Q 2325 1100 2300 1437 
Q 2275 1775 2037 1962 
Q 1800 2150 1275 2225 
L 1275 2550 
Q 1800 2600 2037 2825 
Q 2275 3050 2250 3412 
Q 2225 3775 1925 3937 
Q 1625 4100 1287 3975 
Q 950 3850 750 3275 
L 300 3350 
Q 450 3800 712 4100 
Q 975 4400 1425 4450 
Q 1875 4500 2212 4337 
Q 2550 4175 2687 3837 
Q 2825 3500 2725 3100 
Q 2625 2700 2150 2400 
Q 2500 2250 2687 1950 
Q 2875 1650 2812 1162 
Q 2750 675 2375 375 
Q 2000 75 1525 87 
Q 1050 100 700 387 
Q 350 675 250 1225 
z
" id="SimHei-33" transform="scale(0.015625)"/>
     </defs>
     <use xlink:href="#SimHei-37"/>
     <use x="50" xlink:href="#SimHei-33"/>
     <use x="100" xlink:href="#SimHei-37"/>
    </g>
   </g>
   <g id="text_27">
    <!-- 685 -->
    <g transform="translate(98.461201 96.669717)scale(0.1 -0.1)">
     <defs>
      <path d="M 550 1325 
Q 725 650 1150 575 
Q 1575 500 1837 662 
Q 2100 825 2212 1087 
Q 2325 1350 2312 1675 
Q 2300 2000 2137 2225 
Q 1975 2450 1725 2525 
Q 1475 2600 1162 2525 
Q 850 2450 650 2175 
L 225 2225 
Q 275 2375 700 4375 
L 2675 4375 
L 2675 3925 
L 1075 3925 
Q 950 3250 825 2850 
Q 1200 3025 1525 3012 
Q 1850 3000 2150 2862 
Q 2450 2725 2587 2487 
Q 2725 2250 2787 2012 
Q 2850 1775 2837 1500 
Q 2825 1225 2725 937 
Q 2625 650 2425 462 
Q 2225 275 1937 162 
Q 1650 50 1275 75 
Q 900 100 562 350 
Q 225 600 100 1200 
L 550 1325 
z
" id="SimHei-35" transform="scale(0.015625)"/>
     </defs>
     <use xlink:href="#SimHei-36"/>
     <use x="50" xlink:href="#SimHei-38"/>
     <use x="100" xlink:href="#SimHei-35"/>
    </g>
   </g>
   <g id="text_28">
    <!-- 331 -->
    <g transform="translate(116.578084 170.272471)scale(0.1 -0.1)">
     <use xlink:href="#SimHei-33"/>
     <use x="50" xlink:href="#SimHei-33"/>
     <use x="100" xlink:href="#SimHei-31"/>
    </g>
   </g>
   <g id="text_29">
    <!-- 319 -->
    <g transform="translate(134.694968 172.76748)scale(0.1 -0.1)">
     <use xlink:href="#SimHei-33"/>
     <use x="50" xlink:href="#SimHei-31"/>
     <use x="100" xlink:href="#SimHei-39"/>
    </g>
   </g>
   <g id="text_30">
    <!-- 293 -->
    <g transform="translate(152.811851 178.173332)scale(0.1 -0.1)">
     <use xlink:href="#SimHei-32"/>
     <use x="50" xlink:href="#SimHei-39"/>
     <use x="100" xlink:href="#SimHei-33"/>
    </g>
   </g>
   <g id="text_31">
    <!-- 178 -->
    <g transform="translate(170.928734 202.083831)scale(0.1 -0.1)">
     <use xlink:href="#SimHei-31"/>
     <use x="50" xlink:href="#SimHei-37"/>
     <use x="100" xlink:href="#SimHei-38"/>
    </g>
   </g>
   <g id="text_32">
    <!-- 133 -->
    <g transform="translate(189.045617 211.440113)scale(0.1 -0.1)">
     <use xlink:href="#SimHei-31"/>
     <use x="50" xlink:href="#SimHei-33"/>
     <use x="100" xlink:href="#SimHei-33"/>
    </g>
   </g>
   <g id="text_33">
    <!-- 17 -->
    <g transform="translate(209.6625 235.558529)scale(0.1 -0.1)">
     <use xlink:href="#SimHei-31"/>
     <use x="50" xlink:href="#SimHei-37"/>
    </g>
   </g>
   <g id="text_34">
    <!-- 15 -->
    <g transform="translate(227.779383 235.974364)scale(0.1 -0.1)">
     <use xlink:href="#SimHei-31"/>
     <use x="50" xlink:href="#SimHei-35"/>
    </g>
   </g>
   <g id="text_35">
    <!-- 14 -->
    <g transform="translate(245.896266 236.182282)scale(0.1 -0.1)">
     <use xlink:href="#SimHei-31"/>
     <use x="50" xlink:href="#SimHei-34"/>
    </g>
   </g>
   <g id="text_36">
    <!-- 13 -->
    <g transform="translate(264.013149 236.390199)scale(0.1 -0.1)">
     <use xlink:href="#SimHei-31"/>
     <use x="50" xlink:href="#SimHei-33"/>
    </g>
   </g>
   <g id="text_37">
    <!-- 9 -->
    <g transform="translate(284.630032 237.221869)scale(0.1 -0.1)">
     <use xlink:href="#SimHei-39"/>
    </g>
   </g>
   <g id="text_38">
    <!-- 4 -->
    <g transform="translate(302.746916 238.261455)scale(0.1 -0.1)">
     <use xlink:href="#SimHei-34"/>
    </g>
   </g>
   <g id="text_39">
    <!-- 2 -->
    <g transform="translate(320.863799 238.67729)scale(0.1 -0.1)">
     <use xlink:href="#SimHei-32"/>
    </g>
   </g>
   <g id="text_40">
    <!-- 2 -->
    <g transform="translate(338.980682 238.67729)scale(0.1 -0.1)">
     <use xlink:href="#SimHei-32"/>
    </g>
   </g>
   <g id="text_41">
    <!-- 2 -->
    <g transform="translate(357.097565 238.67729)scale(0.1 -0.1)">
     <use xlink:href="#SimHei-32"/>
    </g>
   </g>
   <g id="text_42">
    <!-- 训练集未出现但是测试集存在的攻击类型 -->
    <g transform="translate(106.6625 16.903125)scale(0.12 -0.12)">
     <defs>
      <path d="M 1650 3300 
Q 1625 2725 1625 2225 
L 1625 675 
Q 1950 1125 2050 1275 
Q 2175 1125 2350 900 
Q 2025 500 1800 212 
Q 1575 -75 1325 -425 
Q 1150 -200 950 -50 
Q 1150 225 1150 625 
L 1150 2875 
L 975 2875 
Q 600 2875 300 2850 
L 300 3325 
Q 600 3300 975 3300 
L 1650 3300 
z
M 3425 4600 
Q 3375 4350 3387 3362 
Q 3400 2375 3337 1887 
Q 3275 1400 3087 837 
Q 2900 275 2450 -375 
Q 2225 -200 1975 -125 
Q 2550 500 2762 1362 
Q 2975 2225 2950 3337 
Q 2925 4450 2900 4675 
Q 3150 4625 3425 4600 
z
M 5875 4700 
Q 5850 4500 5850 3975 
L 5850 625 
Q 5850 125 5875 -400 
L 5400 -400 
Q 5425 125 5425 600 
L 5425 3975 
Q 5425 4500 5400 4700 
L 5875 4700 
z
M 4600 175 
L 4125 175 
Q 4150 725 4150 1150 
L 4150 3600 
Q 4150 4050 4125 4350 
L 4600 4350 
L 4600 175 
z
M 1000 5150 
Q 1650 4600 2100 4100 
Q 1875 3925 1750 3750 
Q 1050 4550 700 4800 
Q 850 4950 1000 5150 
z
" id="SimHei-8bad" transform="scale(0.015625)"/>
      <path d="M 3300 3825 
Q 2950 3825 2400 3800 
L 2400 4250 
Q 2950 4225 3325 4225 
L 3625 4225 
Q 3875 4950 3900 5175 
Q 4200 5025 4450 4925 
Q 4350 4825 4262 4612 
Q 4175 4400 4100 4225 
L 5025 4225 
Q 5425 4225 5900 4250 
L 5900 3800 
Q 5550 3825 5025 3825 
L 3975 3825 
Q 3850 3525 3700 3150 
L 4675 3150 
Q 4650 2875 4650 2475 
L 4650 1975 
L 4975 1975 
Q 5350 1975 5800 2000 
L 5800 1550 
Q 5350 1575 4975 1575 
L 4650 1575 
L 4650 125 
Q 4650 -300 4462 -425 
Q 4275 -550 3650 -625 
Q 3625 -375 3450 -100 
Q 4075 -125 4137 -25 
Q 4200 75 4200 325 
L 4200 1575 
L 3425 1575 
Q 3250 1575 3100 1562 
Q 2950 1550 2750 1475 
Q 2650 1725 2550 1950 
Q 2800 2025 3125 2775 
Q 2950 2775 2450 2750 
L 2450 3175 
Q 3025 3150 3250 3150 
Q 3400 3525 3500 3825 
L 3300 3825 
z
M 1650 2950 
Q 1875 3300 2100 3900 
Q 2325 3725 2575 3600 
Q 2325 3275 2025 2750 
Q 1725 2225 1075 1350 
Q 1300 1400 2400 1575 
Q 2350 1300 2375 1150 
Q 1825 1100 650 825 
Q 525 1075 400 1275 
Q 625 1400 887 1737 
Q 1150 2075 1450 2575 
Q 1300 2600 1012 2562 
Q 725 2525 450 2450 
Q 350 2675 250 2925 
Q 500 3075 812 3725 
Q 1125 4375 1325 5000 
Q 1600 4825 1850 4750 
Q 1600 4375 1387 3962 
Q 1175 3550 800 2925 
Q 1375 2925 1650 2950 
z
M 2425 700 
Q 2400 425 2425 250 
Q 2000 150 1462 -25 
Q 925 -200 475 -425 
Q 400 -150 300 125 
Q 950 275 1187 337 
Q 1425 400 2425 700 
z
M 3725 875 
Q 3650 800 3287 400 
Q 2925 0 2475 -475 
Q 2300 -250 2150 -125 
Q 2425 100 2750 462 
Q 3075 825 3325 1225 
Q 3475 1050 3725 875 
z
M 5275 1225 
Q 5925 375 6200 -100 
Q 5950 -200 5750 -375 
Q 5475 175 4900 950 
Q 5075 1050 5275 1225 
z
M 4200 1975 
L 4200 2775 
L 3575 2775 
Q 3325 2250 3175 1975 
L 4200 1975 
z
" id="SimHei-7ec3" transform="scale(0.015625)"/>
      <path d="M 2275 4925 
Q 2125 4800 2025 4662 
Q 1925 4525 1850 4350 
L 4925 4350 
Q 5300 4350 5750 4375 
L 5750 3975 
L 3650 3975 
L 3650 3575 
L 4625 3575 
Q 4925 3575 5325 3600 
L 5325 3175 
Q 4925 3200 4625 3200 
L 3650 3200 
L 3650 2800 
L 4675 2800 
Q 5000 2800 5425 2825 
L 5425 2400 
Q 5000 2425 4675 2425 
L 3650 2425 
L 3650 2075 
L 4875 2075 
Q 5275 2075 5675 2100 
L 5675 1675 
Q 5300 1700 4900 1700 
L 1650 1700 
L 1650 1500 
L 1150 1500 
Q 1200 1950 1200 2325 
L 1200 3475 
Q 1050 3250 937 3125 
Q 825 3000 675 2825 
Q 500 3000 300 3125 
Q 475 3325 875 3825 
Q 1275 4325 1462 4650 
Q 1650 4975 1725 5225 
Q 1950 5100 2275 4925 
z
M 2975 1200 
Q 2975 1300 2950 1625 
L 3475 1625 
Q 3450 1275 3450 1200 
L 5050 1200 
Q 5500 1200 5925 1225 
L 5925 825 
L 4150 825 
Q 4500 525 4925 362 
Q 5350 200 6100 25 
Q 5875 -225 5775 -475 
Q 5275 -300 4962 -162 
Q 4650 -25 4387 137 
Q 4125 300 3950 462 
Q 3775 625 3575 825 
L 3450 825 
L 3450 250 
Q 3450 -275 3500 -650 
L 2950 -650 
Q 2975 -300 2975 250 
L 2975 825 
L 2875 825 
Q 2700 575 2475 375 
Q 2250 175 1987 12 
Q 1725 -150 1425 -300 
Q 1125 -450 700 -575 
Q 600 -325 400 -75 
Q 925 50 1475 262 
Q 2025 475 2300 825 
L 500 825 
L 500 1225 
Q 800 1200 1400 1200 
L 2975 1200 
z
M 3150 2800 
L 3150 3200 
L 1650 3200 
L 1650 2800 
L 3150 2800 
z
M 3150 3575 
L 3150 3975 
L 1650 3975 
L 1650 3575 
L 3150 3575 
z
M 3150 2075 
L 3150 2425 
L 1650 2425 
L 1650 2075 
L 3150 2075 
z
M 3450 5250 
Q 3575 5150 3712 5000 
Q 3850 4850 4000 4650 
Q 3850 4525 3575 4375 
Q 3425 4575 3325 4700 
Q 3225 4825 3075 4950 
Q 3275 5075 3450 5250 
z
" id="SimHei-96c6" transform="scale(0.015625)"/>
      <path d="M 2875 4150 
Q 2875 4900 2850 5225 
L 3400 5225 
Q 3375 4925 3375 4150 
L 4475 4150 
Q 4950 4150 5375 4175 
L 5375 3725 
Q 4950 3750 4475 3750 
L 3375 3750 
L 3375 2750 
L 4850 2750 
Q 5400 2750 5875 2775 
L 5875 2325 
Q 5400 2350 4875 2350 
L 3675 2350 
Q 4125 1675 4662 1187 
Q 5200 700 6175 425 
Q 5850 275 5725 -100 
Q 5050 150 4462 650 
Q 3875 1150 3375 2050 
L 3375 300 
Q 3375 -175 3400 -575 
L 2825 -575 
Q 2875 -175 2875 300 
L 2875 2125 
Q 2275 1150 1700 650 
Q 1125 150 675 -150 
Q 575 75 225 300 
Q 650 450 1312 1000 
Q 1975 1550 2475 2350 
L 1225 2350 
Q 675 2350 375 2325 
L 375 2775 
Q 750 2750 1275 2750 
L 2875 2750 
L 2875 3750 
L 1825 3750 
Q 1225 3750 850 3725 
L 850 4175 
Q 1225 4150 1775 4150 
L 2875 4150 
z
" id="SimHei-672a" transform="scale(0.015625)"/>
      <path d="M 1475 4550 
Q 1450 4225 1450 3950 
L 1450 2950 
L 2925 2950 
L 2925 4425 
Q 2925 4775 2900 5125 
L 3425 5125 
Q 3400 4825 3400 4425 
L 3400 2950 
L 4900 2950 
L 4900 3875 
Q 4900 4275 4875 4525 
L 5400 4525 
Q 5375 4275 5375 3850 
L 5375 3175 
Q 5375 2775 5400 2525 
L 3400 2525 
L 3400 225 
L 5125 225 
L 5125 1275 
Q 5125 1650 5100 1925 
L 5625 1925 
Q 5600 1650 5600 1300 
L 5600 175 
Q 5600 -325 5625 -650 
L 5125 -650 
L 5125 -200 
L 675 -200 
Q 700 100 700 525 
L 700 1275 
Q 700 1700 675 1950 
L 1200 1950 
Q 1175 1700 1175 1275 
L 1175 225 
L 2925 225 
L 2925 2525 
L 950 2525 
Q 975 2775 975 3150 
L 975 3925 
Q 975 4250 950 4550 
L 1475 4550 
z
" id="SimHei-51fa" transform="scale(0.015625)"/>
      <path d="M 4650 3850 
Q 4550 3575 4512 2975 
Q 4475 2375 4350 1700 
L 4850 1700 
Q 4825 1450 4825 1025 
L 4825 225 
Q 4825 -150 4962 -175 
Q 5100 -200 5275 -187 
Q 5450 -175 5525 -12 
Q 5600 150 5625 575 
Q 5875 425 6175 375 
Q 6050 -150 5925 -337 
Q 5800 -525 5400 -575 
L 4900 -575 
Q 4350 -575 4350 -100 
L 4350 1650 
Q 4125 850 3700 312 
Q 3275 -225 2425 -675 
Q 2300 -475 2000 -325 
Q 2800 0 3175 387 
Q 3550 775 3775 1375 
Q 4000 1975 4037 2625 
Q 4075 3275 4050 3925 
Q 4375 3875 4650 3850 
z
M 1850 4625 
Q 2125 4625 2525 4650 
L 2525 4175 
Q 2125 4200 1675 4200 
L 1675 2825 
Q 2025 2825 2425 2850 
L 2425 2375 
Q 2025 2400 1675 2400 
L 1675 875 
Q 2100 975 2550 1125 
Q 2525 850 2525 650 
Q 1700 450 1200 275 
Q 700 100 450 -25 
Q 375 325 250 575 
Q 650 625 1225 750 
L 1225 2400 
Q 825 2400 450 2375 
L 450 2850 
Q 825 2825 1225 2825 
L 1225 4200 
Q 775 4200 425 4175 
L 425 4650 
Q 725 4625 1000 4625 
L 1850 4625 
z
M 5750 4875 
Q 5725 4475 5725 4075 
L 5725 2400 
Q 5725 1925 5750 1575 
L 5275 1575 
L 5275 4475 
L 3375 4475 
L 3375 1550 
L 2900 1550 
Q 2925 1975 2925 2500 
L 2925 3875 
Q 2925 4425 2900 4875 
L 5750 4875 
z
" id="SimHei-73b0" transform="scale(0.015625)"/>
      <path d="M 2575 3675 
Q 2575 4050 2550 4650 
L 5625 4650 
Q 5600 4250 5600 3725 
L 5600 1825 
Q 5600 1425 5625 1050 
L 2550 1050 
Q 2575 1400 2575 1725 
L 2575 3675 
z
M 575 2225 
Q 350 2525 200 2675 
Q 725 3350 1037 4075 
Q 1350 4800 1425 5275 
Q 1800 5125 2075 5050 
Q 1875 4850 1600 3925 
L 1600 600 
Q 1600 -175 1625 -600 
L 1075 -600 
Q 1100 -200 1100 575 
L 1100 3125 
Q 700 2425 575 2225 
z
M 5075 1450 
L 5075 2675 
L 3075 2675 
L 3075 1450 
L 5075 1450 
z
M 5075 3075 
L 5075 4250 
L 3075 4250 
L 3075 3075 
L 5075 3075 
z
M 5200 175 
Q 5425 175 6125 200 
L 6125 -300 
Q 5375 -275 5150 -275 
L 2900 -275 
Q 2600 -275 1950 -300 
L 1950 200 
Q 2675 175 2875 175 
L 5200 175 
z
" id="SimHei-4f46" transform="scale(0.015625)"/>
      <path d="M 5075 5000 
Q 5050 4625 5050 3950 
Q 5050 3300 5075 2725 
L 1350 2725 
Q 1375 3300 1375 3950 
Q 1375 4625 1350 5000 
L 5075 5000 
z
M 5075 2275 
Q 5500 2275 6025 2300 
L 6025 1850 
Q 5500 1875 5075 1875 
L 3475 1875 
L 3475 1250 
Q 4950 1250 5400 1275 
L 5400 825 
Q 4950 850 3475 850 
L 3475 100 
Q 3950 25 4650 25 
Q 5350 25 6200 125 
Q 6000 -150 5950 -475 
L 4675 -475 
Q 4125 -475 3650 -412 
Q 3175 -350 2712 -175 
Q 2250 0 1725 450 
Q 1625 250 1437 -12 
Q 1250 -275 875 -650 
Q 625 -450 375 -300 
Q 875 0 1200 575 
Q 1525 1150 1575 1650 
L 2175 1475 
Q 2100 1375 1925 900 
Q 2375 425 3000 225 
L 3000 1875 
L 1400 1875 
Q 950 1875 450 1850 
L 450 2300 
Q 975 2275 1400 2275 
L 5075 2275 
z
M 4550 3150 
L 4550 3675 
L 1875 3675 
L 1875 3150 
L 4550 3150 
z
M 4550 4100 
L 4550 4600 
L 1875 4600 
L 1875 4100 
L 4550 4100 
z
" id="SimHei-662f" transform="scale(0.015625)"/>
      <path d="M 4025 4725 
Q 4000 4475 4000 4000 
L 4000 2225 
Q 4000 1775 4025 1350 
L 3550 1350 
L 3550 4325 
L 2350 4325 
L 2350 1325 
L 1900 1325 
Q 1925 1775 1925 2225 
L 1925 4000 
Q 1925 4200 1900 4725 
L 4025 4725 
z
M 5900 5075 
Q 5875 4800 5875 4375 
L 5875 0 
Q 5875 -325 5650 -425 
Q 5425 -525 4975 -600 
Q 4925 -325 4775 -50 
Q 5125 -50 5262 -25 
Q 5400 0 5400 250 
L 5400 4375 
Q 5400 4775 5375 5075 
L 5900 5075 
z
M 3275 3725 
Q 3225 3400 3200 2325 
Q 3175 1250 2837 550 
Q 2500 -150 2075 -600 
Q 1850 -400 1600 -325 
Q 2200 250 2475 962 
Q 2750 1675 2762 2475 
Q 2775 3275 2725 3800 
Q 3000 3750 3275 3725 
z
M 4950 4275 
Q 4925 4000 4925 3575 
L 4925 1825 
Q 4925 1300 4950 850 
L 4450 850 
Q 4475 1150 4475 1825 
L 4475 3575 
Q 4475 4000 4450 4275 
L 4950 4275 
z
M 1700 1675 
Q 1375 1075 1112 487 
Q 850 -100 725 -400 
Q 500 -200 200 -25 
Q 475 300 762 850 
Q 1050 1400 1250 2000 
Q 1475 1825 1700 1675 
z
M 3400 1050 
Q 3800 650 4300 -125 
Q 4100 -225 3875 -450 
Q 3475 275 3025 750 
Q 3225 875 3400 1050 
z
M 600 3525 
Q 1125 3125 1500 2775 
Q 1300 2575 1150 2375 
Q 825 2775 300 3150 
Q 450 3300 600 3525 
z
M 1350 4000 
Q 950 4375 475 4675 
Q 625 4850 775 5050 
Q 1300 4700 1675 4375 
Q 1500 4250 1350 4000 
z
" id="SimHei-6d4b" transform="scale(0.015625)"/>
      <path d="M 3950 3825 
Q 3925 4325 3925 4550 
Q 3925 4800 3900 5225 
Q 4200 5150 4450 5125 
Q 4425 4825 4425 4600 
L 4425 3825 
L 5150 3825 
Q 5500 3825 5875 3850 
L 5875 3400 
Q 5525 3425 5125 3425 
L 4450 3425 
Q 4500 2750 4587 2212 
Q 4675 1675 4837 1112 
Q 5000 550 5212 225 
Q 5425 -100 5500 200 
Q 5575 500 5600 900 
Q 5800 625 6100 525 
Q 5975 -275 5750 -487 
Q 5525 -700 5250 -537 
Q 4975 -375 4737 62 
Q 4500 500 4337 1075 
Q 4175 1650 4100 2262 
Q 4025 2875 3975 3425 
L 2800 3425 
Q 2300 3425 1875 3400 
L 1875 3850 
Q 2275 3825 2775 3825 
L 3950 3825 
z
M 1500 3175 
Q 1475 2675 1475 2175 
L 1475 625 
Q 1825 950 2125 1225 
Q 2225 1000 2375 800 
Q 1900 425 1125 -350 
Q 1000 -125 825 50 
Q 1025 175 1025 525 
L 1025 2725 
Q 625 2725 300 2700 
L 300 3200 
Q 625 3175 825 3175 
L 1500 3175 
z
M 3775 2175 
Q 3500 2200 3250 2200 
L 3250 575 
Q 3575 675 3900 800 
Q 3900 525 3950 325 
Q 3575 250 3150 125 
Q 2725 0 2275 -175 
Q 2200 100 2025 300 
Q 2425 350 2800 475 
L 2800 2200 
Q 2525 2200 2225 2175 
L 2225 2650 
Q 2600 2625 3000 2625 
Q 3425 2625 3775 2650 
L 3775 2175 
z
M 925 4975 
Q 1275 4650 1700 4100 
Q 1525 3925 1325 3775 
Q 1175 4050 575 4650 
Q 775 4825 925 4975 
z
M 5150 5150 
Q 5325 5000 5850 4375 
Q 5575 4200 5425 4050 
Q 5125 4525 4775 4875 
Q 4925 4975 5150 5150 
z
" id="SimHei-8bd5" transform="scale(0.015625)"/>
      <path d="M 1700 3100 
Q 2000 3475 2250 3950 
L 1650 3950 
Q 1200 3950 675 3925 
L 675 4400 
Q 1200 4375 1650 4375 
L 2400 4375 
Q 2600 4825 2700 5275 
Q 3050 5125 3350 5075 
Q 3125 4850 2925 4375 
L 4875 4375 
Q 5275 4375 5800 4400 
L 5800 3925 
Q 5275 3950 4850 3950 
L 2750 3950 
Q 2400 3275 1875 2550 
L 1875 250 
Q 1875 -175 1900 -575 
L 1400 -575 
Q 1425 -100 1425 250 
L 1425 2050 
Q 1025 1625 725 1350 
Q 525 1575 300 1675 
Q 600 1925 887 2175 
Q 1175 2425 1425 2750 
L 1375 3100 
L 1700 3100 
z
M 5625 3150 
L 5625 2675 
L 5000 2300 
Q 4750 2150 4475 1950 
L 4475 1650 
L 5175 1650 
Q 5600 1650 6050 1675 
L 6050 1200 
Q 5600 1225 5175 1225 
L 4475 1225 
L 4475 75 
Q 4500 -425 4187 -537 
Q 3875 -650 3475 -675 
Q 3425 -400 3300 -125 
Q 3675 -150 3837 -112 
Q 4000 -75 4000 100 
L 4000 1225 
L 3125 1225 
Q 2700 1225 2250 1200 
L 2250 1675 
Q 2700 1650 3125 1650 
L 4000 1650 
Q 4000 1900 3950 2125 
Q 4175 2225 4400 2375 
Q 4625 2525 4825 2725 
L 3375 2725 
Q 3050 2725 2675 2700 
L 2675 3175 
Q 3075 3150 3350 3150 
L 5625 3150 
z
" id="SimHei-5b58" transform="scale(0.015625)"/>
      <path d="M 2425 4200 
Q 2525 4525 2600 4762 
Q 2675 5000 2700 5250 
Q 3050 5175 3325 5100 
Q 3200 4850 3150 4712 
Q 3100 4575 2975 4200 
L 5000 4200 
Q 5525 4200 5950 4225 
L 5950 3750 
Q 5525 3775 5000 3775 
L 2825 3775 
Q 2675 3425 2437 3000 
Q 2200 2575 1825 2075 
L 1825 325 
Q 1825 -175 1850 -650 
L 1325 -650 
Q 1350 -175 1350 325 
L 1350 1625 
Q 950 1250 625 1000 
Q 450 1225 200 1375 
Q 500 1550 800 1800 
Q 1100 2050 1350 2375 
Q 1350 2600 1325 2825 
L 1725 2825 
Q 1900 3025 2037 3275 
Q 2175 3525 2275 3775 
L 1675 3775 
Q 1075 3775 625 3750 
L 625 4225 
Q 1100 4200 1675 4200 
L 2425 4200 
z
M 3700 2250 
L 3700 2600 
Q 3700 3100 3675 3400 
L 4225 3400 
Q 4200 3100 4200 2600 
L 4200 2250 
L 4775 2250 
Q 5225 2250 5600 2275 
L 5600 1800 
Q 5225 1825 4775 1825 
L 4200 1825 
L 4200 150 
L 5150 150 
Q 5625 150 6000 175 
L 6000 -275 
Q 5625 -250 5150 -250 
L 3125 -250 
Q 2475 -250 2100 -275 
L 2100 175 
Q 2475 150 3125 150 
L 3700 150 
L 3700 1825 
L 3225 1825 
Q 2775 1825 2350 1800 
L 2350 2275 
Q 2775 2250 3225 2250 
L 3700 2250 
z
" id="SimHei-5728" transform="scale(0.015625)"/>
      <path d="M 2100 4975 
Q 1975 4750 1750 3950 
L 2875 3950 
Q 2850 3525 2850 2875 
L 2850 675 
Q 2850 300 2875 -400 
L 2375 -400 
L 2375 100 
L 1100 100 
L 1100 -450 
L 600 -450 
Q 625 350 625 550 
L 625 2850 
Q 625 3525 600 3950 
L 1325 3950 
Q 1450 4525 1525 5150 
Q 1875 5025 2100 4975 
z
M 5825 3075 
Q 5800 1550 5700 175 
Q 5650 -275 5225 -425 
Q 4800 -575 4275 -625 
Q 4250 -350 4050 -50 
Q 4550 -75 4837 -25 
Q 5125 25 5200 200 
Q 5275 375 5312 1225 
Q 5350 2075 5375 3600 
L 3925 3600 
Q 3725 3125 3350 2475 
Q 3175 2650 2925 2750 
Q 3150 3050 3350 3475 
Q 3550 3900 3700 4400 
Q 3850 4900 3875 5175 
Q 4225 5025 4475 4950 
Q 4350 4750 4262 4512 
Q 4175 4275 4075 4050 
L 5850 4050 
Q 5825 3525 5825 3075 
z
M 2375 525 
L 2375 1850 
L 1100 1850 
L 1100 525 
L 2375 525 
z
M 2375 2275 
L 2375 3525 
L 1100 3525 
L 1100 2275 
L 2375 2275 
z
M 4350 2050 
Q 4500 1750 4700 1275 
Q 4525 1200 4225 1025 
Q 4050 1500 3900 1837 
Q 3750 2175 3600 2400 
Q 3775 2500 4050 2650 
L 4350 2050 
z
" id="SimHei-7684" transform="scale(0.015625)"/>
      <path d="M 3150 2875 
Q 3000 2500 2750 2175 
Q 2525 2375 2325 2450 
Q 2625 2800 2962 3550 
Q 3300 4300 3525 5225 
Q 3750 5100 4075 5025 
Q 4000 4925 3875 4625 
L 3625 4025 
L 5300 4025 
Q 5675 4025 6075 4050 
L 6075 3575 
Q 5600 3600 5375 3600 
Q 5325 2975 5125 2225 
Q 4925 1475 4575 925 
Q 4800 675 5200 400 
Q 5600 125 6150 -125 
Q 5950 -275 5750 -575 
Q 5475 -400 5062 -100 
Q 4650 200 4275 575 
Q 3800 150 3337 -150 
Q 2875 -450 2500 -625 
Q 2375 -375 2150 -175 
Q 2600 -50 3112 250 
Q 3625 550 3950 925 
Q 3700 1350 3475 1887 
Q 3250 2425 3150 2875 
z
M 2825 1400 
Q 2800 1175 2825 975 
Q 1875 725 1350 587 
Q 825 450 450 300 
Q 350 675 250 850 
Q 850 925 1375 1050 
L 1375 3850 
Q 775 3850 425 3825 
L 425 4275 
Q 825 4250 1175 4250 
L 2000 4250 
Q 2350 4250 2775 4275 
L 2775 3825 
Q 2375 3850 1850 3850 
L 1850 1150 
Q 2325 1275 2825 1400 
z
M 4275 1275 
Q 4525 1700 4687 2312 
Q 4850 2925 4900 3600 
L 3475 3600 
L 3400 3375 
Q 3500 2875 3787 2225 
Q 4075 1575 4275 1275 
z
" id="SimHei-653b" transform="scale(0.015625)"/>
      <path d="M 2950 4075 
L 2950 4575 
Q 2925 4800 2925 5100 
L 3450 5100 
Q 3425 4800 3425 4575 
L 3425 4075 
L 4725 4075 
Q 5175 4075 5525 4100 
L 5525 3625 
Q 5175 3650 4725 3650 
L 3425 3650 
L 3425 2600 
L 5325 2600 
Q 5825 2600 6150 2625 
L 6150 2175 
Q 5825 2200 5325 2200 
L 3425 2200 
L 3425 200 
L 4825 200 
L 4825 1225 
Q 4825 1375 4800 1675 
L 5350 1675 
Q 5325 1350 5325 1225 
L 5325 175 
Q 5325 -200 5350 -575 
L 4825 -575 
L 4825 -200 
L 1050 -200 
Q 1075 100 1075 425 
L 1075 1200 
Q 1075 1300 1050 1650 
L 1600 1650 
Q 1575 1300 1575 1200 
L 1575 200 
L 2950 200 
L 2950 2200 
L 1150 2200 
Q 600 2200 250 2175 
L 250 2625 
Q 600 2600 1125 2600 
L 2950 2600 
L 2950 3650 
L 1675 3650 
Q 1200 3650 875 3625 
L 875 4125 
Q 1175 4100 1675 4075 
L 2950 4075 
z
" id="SimHei-51fb" transform="scale(0.015625)"/>
      <path d="M 2125 3875 
Q 1750 4375 1325 4725 
Q 1525 4875 1675 5050 
L 2525 4225 
Q 2400 4125 2200 3875 
L 3025 3875 
L 3025 4550 
Q 3025 4900 3000 5125 
L 3525 5125 
Q 3500 4850 3500 4550 
L 3500 3875 
L 4325 3875 
Q 4125 4050 4000 4150 
Q 4450 4575 4800 5175 
Q 5000 5000 5275 4825 
Q 5100 4675 4912 4475 
Q 4725 4275 4400 3875 
L 5025 3875 
Q 5425 3875 5900 3900 
L 5900 3450 
Q 5425 3475 5025 3475 
L 3500 3475 
L 3500 3050 
Q 3500 2650 3525 2175 
L 3175 2175 
Q 3475 2075 3675 2000 
Q 3575 1875 3525 1575 
L 5025 1575 
Q 5525 1575 6025 1600 
L 6025 1150 
Q 5550 1175 5050 1175 
L 3675 1175 
Q 4050 600 4712 275 
Q 5375 -50 6050 -175 
Q 5850 -350 5725 -675 
Q 4975 -450 4350 -37 
Q 3725 375 3300 950 
Q 3050 350 2425 -50 
Q 1800 -450 775 -700 
Q 650 -425 475 -225 
Q 1375 -100 2012 225 
Q 2650 550 2900 1175 
L 1625 1175 
Q 1025 1175 525 1150 
L 525 1600 
Q 950 1575 1600 1575 
L 3025 1575 
Q 3075 1825 3100 2175 
L 3000 2175 
Q 3025 2675 3025 3050 
L 3025 3325 
Q 2725 2900 2237 2550 
Q 1750 2200 925 1825 
Q 850 2025 625 2275 
Q 1175 2400 1725 2737 
Q 2275 3075 2600 3475 
L 1550 3475 
Q 1050 3475 600 3425 
L 600 3900 
Q 1075 3875 1550 3875 
L 2125 3875 
z
M 4100 3450 
Q 4850 3000 5800 2350 
Q 5575 2125 5425 1925 
Q 4700 2550 3825 3075 
Q 3975 3250 4100 3450 
z
" id="SimHei-7c7b" transform="scale(0.015625)"/>
      <path d="M 2625 1775 
Q 2650 2325 2650 2700 
L 2650 3000 
L 1825 3000 
Q 1725 2375 1425 2000 
Q 1125 1625 775 1425 
Q 650 1650 375 1900 
Q 850 2075 1062 2362 
Q 1275 2650 1350 3000 
Q 900 3000 375 2975 
L 375 3450 
Q 925 3425 1400 3425 
Q 1425 3950 1425 4475 
Q 1075 4475 700 4450 
L 700 4900 
Q 1050 4875 1525 4875 
L 3000 4875 
Q 3275 4875 3650 4900 
L 3650 4450 
Q 3325 4475 3125 4475 
L 3125 3425 
Q 3450 3425 3825 3450 
L 3825 2975 
Q 3450 3000 3125 3000 
L 3125 2675 
Q 3125 2225 3150 1775 
L 2625 1775 
z
M 3000 1175 
Q 3000 1375 2975 1725 
L 3500 1725 
Q 3475 1375 3475 1175 
L 4550 1175 
Q 5050 1175 5450 1200 
L 5450 725 
Q 4975 750 4550 750 
L 3475 750 
L 3475 -50 
L 5275 -50 
Q 5700 -50 6100 -25 
L 6100 -500 
Q 5725 -475 5300 -475 
L 1250 -475 
Q 775 -475 400 -500 
L 400 -25 
Q 775 -50 1250 -50 
L 3000 -50 
L 3000 750 
L 2025 750 
Q 1500 750 975 725 
L 1050 1200 
Q 1500 1175 2025 1175 
L 3000 1175 
z
M 5775 5200 
Q 5750 4775 5750 4325 
L 5750 2400 
Q 5775 1950 5612 1775 
Q 5450 1600 4900 1525 
Q 4825 1775 4675 2100 
Q 5175 2075 5237 2150 
Q 5300 2225 5300 2525 
L 5300 4325 
Q 5300 4775 5275 5200 
L 5775 5200 
z
M 4600 4750 
Q 4575 4450 4575 3975 
L 4575 3200 
Q 4575 2825 4600 2425 
L 4100 2425 
Q 4125 2825 4125 3200 
L 4125 3975 
Q 4125 4450 4100 4750 
L 4600 4750 
z
M 2650 3425 
L 2650 4475 
L 1875 4475 
Q 1850 3750 1850 3425 
L 2650 3425 
z
" id="SimHei-578b" transform="scale(0.015625)"/>
     </defs>
     <use xlink:href="#SimHei-8bad"/>
     <use x="100" xlink:href="#SimHei-7ec3"/>
     <use x="200" xlink:href="#SimHei-96c6"/>
     <use x="300" xlink:href="#SimHei-672a"/>
     <use x="400" xlink:href="#SimHei-51fa"/>
     <use x="500" xlink:href="#SimHei-73b0"/>
     <use x="600" xlink:href="#SimHei-4f46"/>
     <use x="700" xlink:href="#SimHei-662f"/>
     <use x="800" xlink:href="#SimHei-6d4b"/>
     <use x="900" xlink:href="#SimHei-8bd5"/>
     <use x="1000" xlink:href="#SimHei-96c6"/>
     <use x="1100" xlink:href="#SimHei-5b58"/>
     <use x="1200" xlink:href="#SimHei-5728"/>
     <use x="1300" xlink:href="#SimHei-7684"/>
     <use x="1400" xlink:href="#SimHei-653b"/>
     <use x="1500" xlink:href="#SimHei-51fb"/>
     <use x="1600" xlink:href="#SimHei-7c7b"/>
     <use x="1700" xlink:href="#SimHei-578b"/>
    </g>
   </g>
  </g>
 </g>
 <defs>
  <clipPath id="p0857071a98">
   <rect height="217.44" width="334.8" x="47.2625" y="22.903125"/>
  </clipPath>
 </defs>
</svg>
